<svg width="392" height="500" fill="none" xmlns="http://www.w3.org/2000/svg"><path fill-rule="evenodd" clip-rule="evenodd" d="M88.871 271.931c4.26-1.369 8.366-2.95 12.107-5.276 10.784-7.236 17.816-18.124 24.46-28.441 9.358-15.004 16.025-30.993 20.634-47.672 1.981-7.166 2.653-15.474 7.152-21.828 10.2-13.303 40.109-11.579 55.99-9.244 10.635 1.696 12.834 12.425 15.249 20.363 2.011 6.596 3.328 13.267 4.433 20.027 2.629 1.558 5.598 2.824 8.427 3.926 30.836 8.523 36.256 24.324 48.033 48.731 19.893 35.476 73.871 49.366 82.024 91.351 5.253 27.718-9.685 53.795-25.087 76.838-14.344 25.169-34.369 37.249-66.259 31.303-29.912-6.048-58.658-16.166-88.043-23.984-14.233-3.154-28.442-11.358-43.414-8.498-30.848 6.245-62.543 9.181-94.157 8.371-44.387 1.618-44.38-36.784-39.825-66.522 3.191-46.279 29.088-75.995 78.276-89.445z" fill="#AE5D29"/><path fill-rule="evenodd" clip-rule="evenodd" d="M85.904 338.897c-3.71 2.211-6.829 5.563-9.333 9.091a1070.661 1070.661 0 0031.304-3.398 101.128 101.128 0 00-4.146-2.278c-5.135-2.608-12.092-6.832-17.825-3.415zM259.6 366.753c1.916-.676 2.657-3.309 3.403-4.818 2.341-4.732 4.478-9.545 6.7-14.324-8.439-2.169-16.646-4.575-25.389-5.73-9.4-1.242-18.939-1.543-28.427-1.264-19.217.565-38.255 3.396-57.148 6.432-18.871 3.032-37.741 5.945-56.744 8.231-18.618 2.24-37.295 3.879-56.007 5.318-3.635.28-9.697 1.458-12.62-1.121-2.316-2.042-2.39-5.809.506-7.47 1.804-1.035 4.419-1.05 6.48-1.289 2.596-.301 5.202-.501 7.814-.657 1.064-.063 2.128-.122 3.192-.18-8.544-2.904-17.467-4.487-26.73-4.046-.524 2.868-2.884 5.82-4.175 8.185-2.256 4.13-4.014 8.31-5.168 12.801-2.413 9.387-2.518 19.129-1.837 28.702.626 7.983 1.971 16.812 8.917 22.465 5.26 4.281 12.68 5.865 19.564 6.364 8 .579 16.125-.04 24.059-1.006 11.127-1.356 22.307-3.15 33.216-5.554 21.129-4.655 41.381-12.062 60.065-22.105 9.112-4.897 17.807-10.407 27.044-15.118 9.412-4.801 19.427-8.525 29.944-10.838 11.769-2.588 24.072-3.693 36.168-3.054 2.099.11 5.131.797 7.173.076zm13.638-4.805c-1.236 3.617-2.183 7.748-4.822 10.787-2.615 3.012-6.559 4.075-10.646 4.343-4.927.323-9.912.116-14.85.281-10.127.34-20.116 1.822-29.797 4.542-9.023 2.535-17.398 6.489-25.466 10.875-7.46 4.057-14.701 8.412-22.164 12.456 1.986.821 3.95 1.709 5.924 2.482a562.239 562.239 0 0012.494 4.71c8.253 3.007 16.542 5.941 24.915 8.666a640.33 640.33 0 0051.413 14.388c8.284 1.951 16.685 4.229 25.291 4.554 7.631.287 14.699-1.657 20.853-5.747 12.766-8.483 22.922-20.726 31.131-32.804 4.878-7.175 9.135-14.714 12.655-22.509a161.999 161.999 0 004.849-11.995 168 168 0 001.941-5.734c.269-.844.527-1.692.783-2.54-13.053-3.59-26.261-6.831-39.779-8.631-7.218-.96-14.532-1.447-21.828-1.376-3.622.035-7.242.211-10.844.548-1.939.182-3.871.415-5.794.704-.794.119-1.611.295-2.43.425a760.507 760.507 0 01-3.829 11.575zM3.415 346.58c-.704-1.283-1-2.545-1.253-3.941-.192-1.065-.702-2.565-.255-3.948.5-1.549 1.863-2.934 2.842-4.255a3862.192 3862.192 0 009.696-13.161c8.775-11.957 17.49-23.948 26.218-35.932 7.746-10.635 15.361-21.365 23.343-31.857 6.825-8.972 14.264-17.796 23.606-24.773 11.812-8.823 25.877-12.979 40.569-16.222 1.605-1.501 3.748-2.321 6.039-2.155 3.236-3.308 5.809-5.62 6.975-9.827.559-2.016.383-7.679 2.561-8.872 2.587-1.416 3.938.459 4.651 2.572 2.386 7.071-.353 16.577-6.656 23.659 2.655 8.274 6.177 20.032 12.458 26.66 6.727 7.098 16.029 9.307 26.066 9.453 19.14.277 38.26-6.135 52.86-17.248a97.257 97.257 0 0012.287-11.161c2.797-3.01 6.105-7.655 8.293-11.166 0-1.368 1.792-2.799-16.453-3.905-18.246-1.105-19.629-23.624-20.035-26.689-.33-2.488-1.732-6.351.214-8.38.826-.862 2.52-1.001 3.567-.416 1.974 1.105 2.622 3.931 3.243 5.85.869 2.688 3.711 19.37 9.096 21.301 2.521.904 5.412.921 8.079 1.088 3.293.208 6.593.359 9.872.705 1.21.127 2.53.48 3.723.49.777.007 1.578-.333 2.328-.572 2.534-.807 5.065-.202 7.675.114 23.073 2.795 46.831 9.175 66.512 20.653 17.347 10.117 29.568 24.667 37.632 41.679 8.228 17.361 12.945 36.134 16.897 54.616a359.878 359.878 0 013.474 18.655c.96 6.032 2.16 12.199 2.448 18.292.114 2.41-.525 4.65-1.509 6.852-1.108 2.479-3.726 3.456-6.237 4.613-5.512 2.542-11.327 4.513-17.318 5.909-3.66 6.002-6.741 12.238-9.216 18.71.918 1.64.938 4.089 1.114 5.683.438 3.97.626 7.96.665 11.947.079 7.993-.454 15.977-.872 23.957-.424 8.094-1.833 40.028-2.063 43.927-.178 3.03.062 7.267-1.708 9.957-2.721 4.133-9.436 3.994-12.546.642-77.273 14.974-222.526 10.464-281.027 2.93-7.612-.98-5.221.107-7.157-1.626-1.453-1.302-2.689-3.531-3.09-5.322-.537-2.391.329-4.555 1.848-6.49 1.596-2.034 1.887-5.329 2.48-7.747 1.403-5.718 2.1-30.83 2.755-33.612.205-.867.402-1.784.64-2.701-10.73.916-21.911.916-32.12-2.319-5.79-1.835-11.188-4.716-15.344-8.831-5.032-4.982-7.832-11.254-9.272-17.8C.153 398.124-.242 389.38.123 380.799c.507-10.142 2.373-20.427 7.005-29.739-1.524-1.275-2.801-2.815-3.713-4.48z" fill="#000"/><path fill-rule="evenodd" clip-rule="evenodd" d="M183.745 5.863c-27.795 0-56.544 19.461-66.733 31.88-11.781 14.36-21.074 83.294-16.715 106.685 4.36 23.391 26.016 48.886 63.61 48.886 37.595 0 60.473-4.183 61.391-10.258.611-4.051 8.877-17.348 24.796-39.894 16.281-4.136 24.454-11.145 24.518-21.026.063-9.881-4.3-16.619-13.088-20.214 3.134-38.994.755-63.567-7.137-73.72-11.837-15.228-42.846-22.339-70.642-22.339z" fill="#AE5D29"/><path fill-rule="evenodd" clip-rule="evenodd" d="M197.897 0l-.496.002c-30.753.18-62.031 12.963-80.328 35.293l-.55.68c-.03.035-.578.77-.707.98-.758 1.23-1.652 2.38-2.337 3.63-.579 1.062-.963 2.247-1.389 3.377l-.129.338c-1.092 2.82-2.011 5.669-2.825 8.565-1.575 5.638-2.804 11.364-3.999 17.077-4.269 20.457-7.06 41.206-8.466 61.983l-.278 4.177c-.284 4.333-.498 8.685.04 13.003.623 5.028 2.223 9.746 4.646 14.3 2.233 4.201 5.111 8.092 8.405 11.67 1.762 1.914 3.632 3.776 5.933 5.177 1.831 1.115 3.97 1.849 6.031 2.556 3.353 3.025 7.656 5.311 11.861 7.137 6.931 3.003 14.446 4.661 22.048 5.492a88.894 88.894 0 0023.335-.566c7.367-1.15 15.264-4.09 19.801-9.693.392-.482-.337-.937-.817-.738-13.168 5.505-27.966 6.942-42.319 5.204-6.696-.809-13.285-2.48-19.4-5.076-5.159-2.189-9.511-5.372-14.142-8.255-.901-1.084-1.811-2.149-2.849-3.14l-1.62-1.534c-1.21-1.153-2.399-2.321-3.48-3.582-3.339-3.887-6.105-8.295-7.931-12.934-3.552-9.029-2.591-18.83-1.964-28.239l.055-.83a374.464 374.464 0 013.157-30.085c1.46-10.007 3.315-19.974 5.507-29.87 1.082-4.877 2.297-9.723 3.368-14.6.554-2.517.94-5.068 1.361-7.61.255-1.548.25-3.038.255-4.55.049.07.108.136.167.203a.813.813 0 00.376 1.079c1.63.84 3.51.557 5.346.561 1.948.01 3.897.014 5.845.018 2.029.007 4.058.007 6.087.004l6.087-.013 24.349-.066c15.946-.043 32.162.53 48.056-.828l1.214-.109c1.249-.13 15.344-1.687 19.156-2.089l.116-.012c6.966-.725 13.833-1.8 20.603-3.41-2.212.801-4.342 1.88-6.534 2.698-2.83 1.053-5.732 1.972-8.636 2.852-5.957 1.809-11.924 3.564-17.857 5.43-1.701.534-5.566 13.697-6.541 15.78l-.028.06c-.495 1.003-1.176 2.104-.798 3.245.832 2.52 5.243 4.386 7.43 5.81l2.25 1.466 2.942 1.923c1.206.78 2.32 1.378 3.899.931.005-.004.009-.004.014-.004-1.351 5.664-2.007 23.984-2.207 27.198-.176 2.799-1.087 6.385.362 8.937.343.605 1.233 1.083 1.993 1.034a8131.2 8131.2 0 019.927-.667c.886-.062 1.694-.518 1.939-1.331l.009-.045c.108.027.23.009.333-.088.181-.164.367-.323.558-.478 4.357-3.51 11.171-4.377 16.546-2.551 2.819.955 6.025 2.565 8.013 4.652 2.208 2.317 2.682 5.554 2.688 8.512.01 5.704-2.272 11.479-6.927 15.436-4.277 3.633-9.796 4.69-15.349 5.73l-.595.112c-1.267.238-1.669 1.945-.715 2.661-2.54 2.247-4.733 4.926-6.872 7.398-2.841 3.279-5.557 6.688-8.2 10.105l-1.276 1.653c-4.546 5.861-11.126 13.933-8.265 21.26.382.986 1.978 1.34 2.6.305 2.042-3.405 3.182-7.155 5.121-10.599 1.903-3.378 4.273-6.509 6.623-9.64l1.355-1.814c2.257-3.03 4.493-6.093 6.565-9.214l1.443-2.161c1.356-2.04 2.698-4.149 3.697-6.342 6.682 1.455 13.946-1.782 18.641-6.093 5.903-5.43 8.679-13.429 7.915-20.951-.401-3.935-1.689-7.742-4.88-10.572a21.845 21.845 0 00-1.009-.823.558.558 0 00.275-.252c2.139-4.589 2.594-10.06 2.775-15.003.191-5.111.068-10.236-.362-15.34a120.754 120.754 0 00-5.625-27.657c-4.391-13.292-11.934-26.306-23.986-35.225C231.475 3.503 214.257-.025 197.897 0zm63.974 116.26c-1.815-.744-4.647.581-6.262 1.426l-.106.055c-4.773 2.508-8.171 6.779-9.742 11.51-1.008 3.052 4.656 4.267 5.135 1.278.391-2.436 1.293-4.718 2.775-6.756a4.78 4.78 0 011.004.42c1.18.69 1.865 1.875 3.505 1.698 1.214-.128 2.458-.889 2.374-2.145-.132-2.074-1.982-2.9-3.965-3.007.283-.228.568-.455.861-.673l.32-.232c.363-.237 4.242-2.654 4.354-2.032l.002.037c-.005.247.362.389.548.203.749-.725.053-1.428-.803-1.782z" fill="#000"/><path fill-rule="evenodd" clip-rule="evenodd" d="M152.323 161.363c3.297-1.212 6.24-3.235 8.391-5.819.748-.898.941-1.847.785-2.714-.177-.976-.817-1.86-1.69-2.453-.876-.595-1.972-.888-3.031-.739-.921.13-1.837.584-2.562 1.527l-.151.188a13 13 0 01-4.845 3.664 11.96 11.96 0 01-5.995.95c-4.034-.411-6.815-2.377-9.77-5.048a74.315 74.315 0 01-1.101-1.038 1.72 1.72 0 00-.914-.634 2.169 2.169 0 00-1.261.016 1.988 1.988 0 00-.991.678c-.227.3-.355.67-.314 1.096.271 2.768 1.876 5.238 4.156 7.177 2.533 2.155 5.89 3.645 9.05 4.167 3.482.576 7.03.164 10.243-1.018zm-11.885-42.696c-3.705 2.029-9.349 6.762-5.364 11.794 4.691 4.436 11.444-.651 14.772-2.951 3.086-1.783 6.554 2.802 3.691 4.884-24.049 16.049-33.809-13.197-14.973-16.114 2.074-.321 2.844 1.759 1.874 2.387zm43.095-18.67c-.409-4.579-8.146-5.619-8.916-1.087-.689 4.059.122 7.788 2.15 11.442 1.939 3.492 6.81 1.863 7.178-1.316.494-4.262-.157-6.19-.412-9.039zm-58.897-2.027c-1.079-1.273-2.637-2.143-4.503-1.651-5.83 1.535-4.111 8.996-2.064 12.628 1.113 1.972 4.709 2.472 6.334.735 2.649-2.831 3.918-8.486.55-11.276a3.863 3.863 0 00-.317-.436zm52.214-18.01l-.921-.146c-2.849-.444-6.392-.87-8.407 1.194-1.069 1.095-1.437 3.13 0 4.178 2.527 1.844 5.321 1.129 8.35 1.285 2.496.13 4.895.501 7.299 1.121 5.274 1.359 9.572 3.84 14.077 6.563.591.358 1.194-.324.912-.822-2.6-4.591-7.64-8.363-12.688-10.662-2.694-1.227-5.642-2.245-8.622-2.711zm-46.9-2.057l-.705.13c-7.67 1.445-17.637 4.332-21.269 11.124-.139.96.008 1.166.126 1.3l.04.046c.098.114.176.273.638.403.128-.027.258-.056.388-.087 1.666-.394 2.983-.935 4.258-1.498l1.383-.614c1.605-.709 3.223-1.392 4.938-1.897a63.665 63.665 0 0111.25-2.239c.828-.087 1.626-.34 2.256-.772.598-.41 1.054-.978 1.262-1.732.27-.977.193-1.717-.389-2.598a3.573 3.573 0 00-1.781-1.384 4.612 4.612 0 00-2.395-.182z" fill="#000"/></svg>