<svg width="186" height="424" fill="none" xmlns="http://www.w3.org/2000/svg"><path fill-rule="evenodd" clip-rule="evenodd" d="M151.524 143.78l.206 2.455.153-.287c.022 4.953.755 9.961 1.564 14.904 2.113-1.74 3.851-3.275 3.349-6.245-1.271-4.233-2.901-8.362-4.219-12.572l-.221 1.104-.869.175.037.466zM.587 404.74c.389-1.721.814-3.543 1.211-5.269.04-.146.404-.178.521-.218 2.104-5.158 3.945-6.333 8.02-7.035 6.57-1.19 13.054-3.77 19.262-7.593-.145-.569-.541-1.552-.902-2.601a.873.873 0 00.38.054c.42.99.879 1.859 1.121 2.18.776-.501 1.638-1.051 2.398-1.583l-.003-.01c.676-.469 1.512-1.049 2.174-1.41.124-.686 1.128-.899 1.653-1.352 1.018-.728 1.583-1.104 2.517-.174 2.014-2.62 3.637-5.39 5.233-8.971.998-2.093 1.488-4.411 2.83-6.28-.025-.015-.879-.281-.9-.305 15.254-33.832 17.698-71.477 20.952-107.641.717-8.087 1.468-16.248 2.867-24.098.192-1.189.364-2.36 1.079-3.308-8.572-7.071-8.656-20.778-4.504-30.944-9.546-25.783 9.167-53.167 7.786-79.48-.774-17.849 2.435-38.53 22.573-42.813 2.497-1.439 5.491-1.654 7.874-1.693 2.145-1.085 2.484-3.48 3.247-5.45l.747.005c.219-.892.435-1.869.624-2.767.283-.57.115-1.311 1.007-1.154 2.023-2.93 18.206-4.404 18.39.315.584.345.699 1.018.835 1.836.898 5.796 7.08 10.419 12.651 9.487l.091-.082c23.716-.88 33.053 16.012 37.687 39.034 3.621 17.887 5.923 37.272 3.087 55.189-2.77 8.12-11.162 12.027-17.653 17.029.748 1.888.818 3.971.841 6.014.085 2.359.256 4.736.465 7.063.427 2.949 1.118 8.025-2.892 8.369-1.553 35.246-4.797 70.398.16 105.746 4.116 19.549 2.54 43.202-2.548 62.329-.294.945-1.048 1.795-2.011 1.493-.489.317-.871.515-1.275.216-.239.442-.5.867-.782 1.278-.107 5.255-.702 10.411-.431 15.7.404-.047 1.292-.493 1.638-.201l.049.403.329.112c.688 1.944 1.119 3.984 1.439 5.63 1.392 2.821 3.171 7.813 2.179 10.956l.357.414c.237.136.281.317.339.526.675.253.745 1.026.814 1.817.339 1.915-.164 3.656-.337 5.53l-.01-.012-.568.659c-7.13.434-14.151.546-21.249.801-.535-1.027-.697-2.415-1.099-3.544-8.415 6.164-22.995 3.806-33.565 2.292-4.293-.619-8.348-1.205-11.944-1.4-.233-.032-.25-.133-.256-.226-.035-1.411-.3-2.857-.168-4.226-.743-.723-.404-2.038.106-3.194 1.876-4.068 6.975-4.513 11.107-5.208 7.773-1.51 14.023-4.351 19.079-8.693-.34-.309-.649-.611-.93-.907l.329-.221a5.19 5.19 0 00.754-.387c.119.067.268.08.415-.002.508-.286.922-.706 1.405-1.027.096.138.192.278.289.425.463-.489.987-1.042 1.444-1.554.017-.142-.02-.495.152-.533 1.302.132 2.81.571 4.171 1.059 1.539-5.064 2.431-10.545 2.328-15.72-1.513 0-2.839-.014-3.968-.734-.308.083-.738.262-.818-.224-.458-1.982-.577-4.08-.692-6.109-2.343-38.385-5.912-69.23-17.752-101.746-1.136 4.515-3.045 9.21-4.782 13.705-7.903 18.783-13.596 39.04-18.477 58.755-1.92 7.38-4.007 15.489-6.069 22.792-.8 3.511-2.424 4.796-5.83 4.768a67.522 67.522 0 01-7.893-.1c-3.592 3.279-5.065 7.705-6.114 11.69.874.651 2.262.406 3.284.62.881 1.423.576 3.412.556 5.167-.139 2.28-.02 4.726-.684 6.878-.118 2.354-.133 4.934-.31 7.671 1.948 1.131 1.591 3.629.944 6.019-.289.608-10.756.487-13.352.462-3.051-.178-7.402.603-8.402-2.746-7.264 4.04-18.315 2.675-26.777 1.486-6.142-.75-11.706-1.447-17.737-2.718-.062-.027-.15-.222-.106-.311z" fill="#D08B5B"/><path d="M162.176 205.318c-1.844-.197-20.611 1.263-22.486.826l-.082-.019-.73-.175-.424.62c-2.092 3.062-3.147 5.073-3.674 7.115l-.037.146-.015.061c-.444 1.839-.478 3.543-.238 6.998l.025.352.028.382.068.892-.002.006c-.117.375-.479.485-.929.232l-.031-.018-.014-.009-.049-.033c-.965-.679-1.613-1.574-2.045-2.75l-.03-.082-.029-.084c-.346-1.01-.526-2.096-.679-3.836l-.028-.319-.085-1.067c-.121-1.495-.212-2.289-.382-3.137l-.022-.111-.486-2.269-1.432 1.685c-.719.845-1.158 1.997-1.431 3.507l-.032.181c-.148.867-.233 1.735-.322 3.129l-.025.403-.077 1.318-.031.481c-.118 1.785-.236 2.715-.474 3.591l-.025.09-.018.063c-.309 1.063-.728 1.605-1.338 1.776l-.036.01-.015.003-.024-.001c-.695-.046-.87-.383-.821-1.508l.006-.109.003-.055.008-.125.017-.229-.011-.139c-.047-.531-.142-.974-.348-1.724l-.022-.082-.202-.724-.046-.172c-.5-1.949-.605-4.102-.327-6.295l.019-.147.72-5.37-2.74 4.673c-1.815 3.095-2.889 6.625-3.175 10.307l-.012.165-.01.137c-.139.247-.407.304-.632.136l-.023-.018-.021-.019c-.587-.535-.949-1.5-1.286-3.205l-.018-.089-.132-.692-.06-.313-.037-.156c-.642-2.789-.777-5.006-.293-7.013l.024-.097.876-3.476-2.662 2.399c-.425.383-.858.753-1.296 1.108-.836.672-1.502.75-1.889.455-.414-.316-.601-1.087-.334-2.111l.016-.058.477-1.739-1.76.383c-5.92 1.29-11.354 1.921-16.413 1.778-5.822-.164-11-1.359-15.491-3.725l-.145-.077-1.286-.687-.294 1.429c-.43 2.079-.322 4.215.237 6.552l.04.164c.389 1.582.899 3.022 1.843 5.356l.099.245.447 1.095.334.823.156.392c.476 1.214.628 2.113.524 2.653-.056.287-.147.381-.365.43-.806.179-2.405-.481-3.867-1.73l-.063-.054-1.5-1.318-.493 2.315.117.303c.279.722.376 1.412.26 1.96l-.011.055-.114.471.275.401c.021.031.02.069-.036.154-.07.108-.179.175-.26.182h-.018l-.94-.031-.168.926-.093.517c-.47 2.645-1.564 13.097-3.284 31.357-.565 7.161-7.264 55.134-8.523 61.257-2.844 14.755-6.241 27.559-10.654 39.423l-.134.359-.362.965.942.416c8.635 3.816 18.558 5.55 28.585 5.132l.281-.013.11-.001c2.214-.034 3.323-.972 3.882-3.112l.034-.133.015-.064.02-.083.367-1.249c1.168-3.989 14.449-53.115 16.611-59.934l.142-.444.26-.817.23-.709c3.019-9.311 6.194-17.518 9.822-25.147l.125-.262.025-.045c.407-.745.733-1.522 1.099-2.572l.04-.113.077-.226.058-.172.35-1.055.121-.361.05-.164c.429-1.438.663-2.816.679-4.163l.001-.139v-.019l.067.152c1.424 3.225 3.038 7.484 4.698 12.546l.066.203.212.653c4.524 14.034 7.76 29.064 10.111 46.01l.127.925c1.755 12.864 2.912 25.649 4.164 44.247l.116 1.743.137 2.071.842.149c.964.17 1.797.398 2.536.709l.1.043.172.075.188.013 2.462.176.569.038.525.032c7.291.476 13.362.123 18.985-1.355l.172-.046.216-.052 2.043-.512 5.856-33.441-3.63-31.346-.131-.941c-2.152-15.777.364-86.934.537-91.636l.036-1.001.033-.966.046-.709.16-2.771.026-.41c.154-2.372.338-3.981.675-5.569l.263-1.216-1.136-.182c-.441-.071-.888-.13-1.34-.178z" fill="#E86BBB"/><path fill-rule="evenodd" clip-rule="evenodd" d="M96.45 414.242c-.849.981-1.14 2.533-.871 4.655.08.031 20.5 3.628 34.294 3.491 5.625-.057 9.554-3.928 11.479-3.928.582 0 .282 3.706 2.471 3.346l20.072-.889.417-6.675-2.034-2.181c-9.743 1.941-17.105 2.668-22.088 2.181-8.847-.864-41.85-2.181-43.74 0zM3.016 399.406c-.98.815-1.584 2.296-1.813 4.444 11.071 2.545 18.467 3.856 22.189 3.933l1.08.02 1.242.019c1.604.02 12.177 1.475 19.007-1.725 1.268-.594 3.54 2.128 5.548 2.136 4.608.018 10.217-.112 16.83-.391.026-.461.407-2.737.443-3.447-.844-1.715-1.283-3.038-1.315-3.971-.066-1.882-12.231.168-25.72 0-16.901-.21-36.01-2.249-37.491-1.018z" fill="#fff"/><path fill-rule="evenodd" clip-rule="evenodd" d="M128.843 63.94a1.302 1.302 0 00-1.158.303c-.061.636-.054 1.27-.002 1.904.053.045.111.089.175.13l-.049-.032a1.475 1.475 0 01-.094-.065c.619 4.133 3.485 7.65 7.201 9.519.23.38.749.353 1.123.525l.525.165c1.445.454 2.907.883 4.436.911-3.887 10.93-19.085 16.87-29.837 17.677-9.285.49-14.438-7.22-11.988-15.869 5.379-.697 10.667-6.427 8.717-11.963l-.061-.168c-.013-.056-.089-.036-.095.013-.059.565-.395 1.186-.544 1.737l-.069.196c-.518 1.493-.977 3.273-2.438 4.067l-.25.006c-2.629.069-5.374.416-7.689 1.72-2.58.507-5.048 1.531-7.345 2.8-18.138 9.86-15.235 30.831-15.8 48.297-1.76 23.932-16.323 47.848-7.734 71.875-3.921 10.006-4.225 23.454 4.335 31.087a2.937 2.937 0 00-.24.476c-.407 1.019-.533 2.185-.725 3.266l-.023.124c-.463 2.513-.796 5.053-1.121 7.587-.643 4.999-1.109 10.02-1.553 15.041l-.064.717c-1.112 12.62-2.084 25.267-3.543 37.855l-.273 1.865c-1.975 13.476-4.126 26.984-7.366 40.189l-.288 1.062c-1.168 4.236-2.543 8.4-3.834 12.597a76.82 76.82 0 01-1.34 3.936l-.594 1.475-.298.737a168.467 168.467 0 01-3.356 7.697c-.213.457.097.879.463.997-1.079 1.712-1.485 3.752-2.386 5.57-1.289 2.899-2.815 5.719-4.72 8.262-1.054-.794-2.23.23-3.107.816-.562.35-1.292.613-1.513 1.232-.424.244-.837.513-1.227.782l-.04-.127c-.474-1.521-1.403-3.563-2.913-4.242-1.765-.743-3.173.738-2.645 2.51.324 1.584.83 3.1 1.369 4.627-5.43 3.283-11.368 5.772-17.614 7.021l-.213.042c-1.507.3-3.038.508-4.42 1.225-2.29 1.258-3.768 3.649-4.692 6.041-.322.078-.617.359-.688.667l-.61 2.637c-.202.88-.404 1.759-.603 2.639-.11.477.145 1.078.671 1.184 3.626.726 7.269 1.361 10.928 1.899 10.386.962 23.75 4.347 33.395-.405 1.54 3.167 5.824 2.261 8.732 2.5 1.767-.131 14.164.544 14.046-.956l.069-.258c.548-2.095 1.042-4.911-.955-6.354.125-2.365.218-4.732.257-7.098.696-2.246.575-4.73.716-7.075-.018-1.747.39-3.765-.565-5.328-.084-1.035-2.383-.483-3.145-.862l.068-.246c1.05-3.812 2.51-7.522 5.459-10.313 2.55.17 5.106.2 7.658.08 3.885.016 5.658-1.67 6.504-5.33a616.551 616.551 0 001.78-6.453c4.546-16.947 8.674-34.044 13.698-50.86 1.921-5.636 4.045-11.203 6.188-16.756l4.359-11.289c.746-1.933 1.482-3.878 2.131-5.846.199-.605.38-1.213.551-1.824 11.269 31.351 14.844 64.659 16.838 97.734.182 2.642.214 5.312.811 7.897.183.796.855 1.015 1.447.841 1.092.579 1.9.647 3.305.669l-.011.453c-.079 3.251-.278 6.492-1.015 9.666-.292 1.325-.815 2.614-1.099 3.933-1.145-.39-2.314-.684-3.518-.828-.607-.072-.954.437-.979.959-.224.247-.449.491-.679.734l-.116-.149c-1.08-1.398-2.465-3.312-4.343-3.469-.855-.053-1.635.43-1.821 1.3-.178 1.999 1.476 4.188 2.871 5.514-5.171 4.282-11.58 6.756-18.121 8.017l-.256.043c-4.197.687-9.373 1.229-11.374 5.574l-.042.094c-.47 1.059-.913 2.664-.148 3.634-.09 1.326.154 2.69.186 4.028.033.544.4.86.918.92 13.353.717 33.707 6.974 45.144-.47.236.824.478 1.648.704 2.475.098.365.466.663.851.649 7.08-.255 14.183-.37 21.254-.802.205.004.377-.088.521-.254.165.203.589.148.646-.141.1-.509.1-1.024.146-1.539.053-.597.212-1.147.305-1.73.173-1.076.095-2.231-.012-3.311l-.027-.273c-.074-.714-.207-1.525-.852-1.93l-.043-.026a.049.049 0 00-.007-.003c-.071-.228-.24-.424-.454-.58l-.013-.015c.337-.804.207-1.823.109-2.661-.271-2.918-1.087-5.805-2.432-8.396-.383-1.97-.848-4.009-1.539-5.884.019-.085-.089-.158-.172-.12a.506.506 0 00-.084-.036.417.417 0 00-.019-.085c-.119-.352-.488-.545-.833-.6-.292-.046-.546.032-.808.098-.19-5.092.411-10.176.473-15.266.483.234 1.026.026 1.472-.243 1.293.199 2.21-.905 2.565-2.066l.208-.941c1.864-8.472 3.544-17.018 4.447-25.653 1.249-12.054-.259-24.119-2.092-36.032-4.973-31.367-1.37-63.075-1.016-94.615.297-3.443.419-6.925.797-10.366 1.402-.167 2.463-1.481 2.936-2.741.743-1.995.207-4.298.019-6.349-.208-2.273-.36-4.551-.459-6.83l-.012-.666c-.033-1.777-.111-3.566-.7-5.258 6.286-4.843 14.621-8.648 17.281-16.745 1.21-1.091.966-6.147 1.164-8.003a180.291 180.291 0 00-4.027-47.883c-4.338-21.376-13.226-40.53-38.136-39.615l.058-.046a.74.74 0 00-.728.173c-4.241.545-8.295-1.963-10.414-5.568-.521-.899-.907-1.837-1.113-2.857l-.017-.081c-.215-1.122-.276-2.566-1.672-2.847zm32.181 349.078c.602.334 1.261.374 1.815.818a16.418 16.418 0 01-.11 6.461c-6.641.071-13.291.407-19.929.635-.267-1.028-.52-2.062-.799-3.088l-.006-.021-.015-.04c-.689.023-1.378.043-2.067.06-10.195 7.314-31.315 1.099-43.621.489l-.127-2.05a.85.85 0 00.366.152c-.114-.299.09-.689.495-.575a56.03 56.03 0 001.974.511.376.376 0 01.17-.024c5.777.494 11.578.448 17.37.465 5.773.017 11.54.261 17.313.245 2.355-.007 4.709-.042 7.063-.112 6.78-1.261 13.511-2.748 20.108-3.926zM2.78 400.523c.285.207.659.224 1.055.278l.057.008c.363.053.727.103 1.092.131.902.584 2.7.505 3.57.671 19.096 1.91 38.326-.357 57.443 1.178.912 1.303.69 2.916.205 4.372-5.338.201-10.682.31-16.023.078l-.426-.015c-.66-.026-1.337-.074-1.947-.323-.544-.223-1.214-.775-1.128-1.436l.005-.038c.131-.759-.665-1.648-1.44-1.108-7.304 4.851-17.229 2.412-25.459 1.934a208.704 208.704 0 01-17.681-2.656c.227-1.024.452-2.049.677-3.074zm133.403-21.488c.613.07 1.226.133 1.84.189 2.463.222 4.934.334 7.406.405l1.154.032c2.303.062 4.62.117 6.919-.009 1.163-.063 2.355-.2 3.479-.517a83.002 83.002 0 00-1.482 15.764c-.309.268-.246.71-.164 1.048l-.077.229c-.181.538-.353 1.084-.421 1.634-7.136 4.248-13.061-.103-19.567-3.149 1.072-2.792 1.399-5.853 1.578-8.817.1-2.306-.072-4.557-.665-6.809zm-12.971 13.712c.297.034.573.22.814.385.992.711 1.85 1.553 2.633 2.464a34.67 34.67 0 01-.92.876c-1.172-.946-2.093-2.263-2.527-3.725zm-75.844-26.996l.966.325c5.964 2.004 12.052 3.884 18.388 4.446-.34.337-.626.737-.878 1.162-.219.186-.44.424-.378.707-.203.411-.383.829-.555 1.223-1.002 2.386-2.159 4.733-3.004 7.19-.245 1.025-1.208 2.459-.76 3.451-6.735 2.936-15.113 1.629-20.259-3.742l.182-.268c2.956-4.385 5.555-9.201 6.298-14.494zm-18.269 12.394c.408-.352 1.125.619 1.306.861.672.894 1.134 1.873 1.477 2.897-.432.296-.866.575-1.305.858l-.024-.04c-.409-.706-1.877-4.129-1.454-4.576zm128.092-.076l-.007.036c-.362.057-.724.107-1.088.148-.884.101-1.779.145-2.671.164 1.255-.181 2.511-.328 3.766-.348zm-9.573-170.691l.297-.03.382-.048c4.902-.609 9.841-1.424 14.777-.632-.683 3.165-.729 6.482-.95 9.725-1.053 31.233-4.847 62.645-.596 93.805l.131.944c1.549 11.082 3.393 22.203 2.651 33.432-.579 10.236-2.66 20.298-4.728 30.314-.496.125-.993.25-1.492.372-.014-.139-.101-.059-.118.029-6.123 1.637-12.513 1.777-18.804 1.366-1.187-.068-2.368-.164-3.553-.246-.914-.397-1.891-.651-2.882-.826-2.09-31.784-4.826-63.932-14.649-94.406-6.253-19.359-14.063-38.21-18.684-58.065-.16-.558-1.003-.323-.866.24l.144.761c1.174 6.218 2.231 12.456 4.058 18.534-1.387-1.512-2.969-2.847-4.278-4.43a11.847 11.847 0 01-1.106-1.584c-.306-.694-.797-1.237-1.557-1.399-.35-.142-.673.155-.788.447-.32.807-.185 1.383.28 2.094l.117.175c2.055 3.04 5.343 4.816 8.057 7.202 2.272 7.592 4.887 15.076 7.45 22.571.033 1.491-.238 2.964-.674 4.386-.496 1.461-.941 3.01-1.703 4.381-10.6 22.179-15.94 46.345-22.38 69.945-1.696 6.293-3.413 12.585-5.261 18.836l-.027.113c-.421 1.762-1.078 2.471-3.007 2.468-9.667.446-19.593-1.134-28.399-5.026 4.85-12.958 8.22-26.369 10.838-39.959 1.321-6.424 2.392-12.899 3.294-19.399 1.255-8.3 2.363-16.618 3.486-24.894 2.296-16.221 2.195-32.727 5.122-48.849 1 .033 1.856-1.156 1.248-2.043.212-.883.023-1.848-.292-2.664l.038-.177c3.43 3.049 7.904 3.434 5.608-2.426l-.159-.398c-1.725-4.3-3.919-8.894-2.945-13.611 9.946 5.315 22.104 4.458 32.794 2.128-.833 3.031 1.41 4.889 3.941 2.854.456-.369.904-.752 1.343-1.147-.644 2.553-.298 5.23.296 7.761l.057.292c.289 1.518.617 3.534 1.771 4.585.841.765 2.109.439 2.486-.653.211-3.613 1.218-7.168 3.061-10.31-.308 2.297-.233 4.656.332 6.858.218.842.521 1.702.592 2.573l-.011.143c-.108 1.535.095 2.945 2.008 2.976 4.534-.8 1.674-11.543 4.561-14.94.877 4.1-.145 9.49 3.842 12.211 1.101.69 2.445.29 2.669-1.049l-.079-1.051c-.476-6.417-.387-8.341 3.724-14.357 2.787.669 5.706.383 8.533.098zm-80.777 164.92l-.006.072-.142.148-.07.075.081-.201c.046-.029.092-.062.137-.094zm3.742-143.191l.187.158.095.078c-.166.74-.321 1.482-.471 2.225l.029-.49c.027-.481-.05-1.354.16-1.971zm3.027-65.779c1.403-6.534 2.8-9.292 1.025.12l-.193 1.016c-.77 4.076-1.58 8.695-2.342 13.669l-.158 1.041c-.795 5.157-2.044 12.706-2.136 18.753-.105 6.862 3.374 8.898 4.75 9.787.257.755-.07 1.384-.287 2.109-.292 1.164-.367 2.282-.284 3.478.289 4.079 2.466 7.764 3.455 11.635-1.268-.349-2.682-1.493-3.79-2.399-1.966-1.567-3.339-3.888-3.932-6.349-.282-1.162-.077-2.598-.867-3.551-.233-.28-.736-.253-.972 0-.646.689-.585 1.532-.48 2.412.352 2.994 1.667 5.929 3.785 8.084.1 1.106.43 2.092.648 3.144-.084.235-.168.471-.248.708a16.479 16.479 0 01-3.565-4.396c-4.148-7.294-2.7-15.694-1.626-23.649.216.533.707.745 1.185.693.274.687.992.249 1.02-.64.178-5.543.913-13.423 2.267-21.495.806-4.81 1.783-9.686 2.745-14.17zm52.391 25.169c2.058 6.393 10.167 7.64 14.904 11.54-2.379 6.284-9.039 13.014-7.079 21.12l.011.061c.059.31.252 1.186.044 1.351-.132.105-.946-.691-1.088-.848-2.85-3.395-1.192-8.196-2.795-12.067-.21-.515-.867-.819-1.312-.346-2.004 2.126-2.488 4.991-2.795 7.791l-.011.097c-.247 2.178-.111 4.422-.756 6.54l-.024.074c-.137.41-.393.987-.679 1.091-.789.286-.492-.979-.52-1.48-.083-1.445-.696-2.8-.911-4.223-.459-3.055-.002-6.259 1.011-9.155.321-.92-.943-1.245-1.431-.604-2.027 2.665-3.652 5.626-4.723 8.804-.431 1.282-.661 2.579-.949 3.885-1.795-5.455-1.743-11.19 2.322-15.662.962-1.156-.64-2.823-1.676-1.677-1.075 1.282-2.127 2.578-3.295 3.777-1.151 1.162-2.261 2.593-3.686 3.423.231-5.222 5.827-7.581 8.812-11.156 3.042-3.601 4.706-8.092 6.626-12.336zm26.894-44.096c1.09 3.318 2.366 6.577 3.351 9.929.205 2.269-.493 3.21-2.158 4.65-.72-4.115-1.018-8.289-1.404-12.449.059-.711.071-1.428.211-2.13zm-.537-1.63l.109.336-.037.064-.035.065-.037-.465zM85.94 101.256l-.416 2.747c-1.528 10.07-3.105 20.14-5.275 30.095-.12.548-.825-.188-.696-1.25 1.335-10.923 6.369-31.721 6.388-31.602v.01zm12.845-22.085a6.022 6.022 0 00-.277.362c.019-.11.037-.223.058-.335.074-.009.147-.017.22-.027z" fill="#000"/><path fill-rule="evenodd" clip-rule="evenodd" d="M116.427 12.977c-8.234 0-16.75 6.402-19.768 10.487-3.49 4.723-6.243 27.399-4.951 35.093 1.291 7.694 7.706 16.08 18.843 16.08 11.136 0 17.913-1.375 18.185-3.374.181-1.332 2.629-5.706 7.345-13.122 4.823-1.361 7.244-3.666 7.263-6.917.018-3.25-1.274-5.466-3.877-6.649.928-12.827.223-20.91-2.114-24.25-3.507-5.009-12.692-7.348-20.926-7.348z" fill="#D08B5B"/><path fill-rule="evenodd" clip-rule="evenodd" d="M121.978.553c-1.107-1.307-3.06-.071-3.016 1.357-.442.12-.963.534-1.165 1.074a2.239 2.239 0 00-1.269.285l-.083-.103c-1.37-1.677-3.182-3.116-5.052-1.881-.509.336-.737.892-.625 1.494l.009.042-.042-.185c-.042-.177.021.176.045.251l.003.009c.049.126.098.189.143.284-1.915-1.364-4.83-.566-3.294 2.076l-.625-.245c-2.161-.837-4.849-1.737-6.819-.23-.88.85.097 1.982.994 2.257l-.154-.026c-1.722-.293-5.315-1.018-5.828 1.23-.185.81.353 1.401 1.033 1.727-1.438-.006-2.855.232-4.099.936-1.182.843-.226 2.238 1.01 2.177-.383.476-.51 1.281-.14 1.795-.703.185-1.351.423-1.95.794l-.163.021c-1.195.15-2.559.239-3.216 1.416-.967 2.554 2.478 2.453 3.956 1.555a1.52 1.52 0 00-.19.466l-.478.135c-1.808.505-3.854 1.062-5.018 2.588-.533.878.21 2.37 1.325 2.104-3.023 1.444-1.864 5.247 1.092 3.268.138.129.306.224.482.266l-.624.34c-1.584.87-3.489 2.06-3.158 4.036.314 1.045 1.76.854 2.495.454a32.858 32.858 0 00-3.596 3.602l-.304.364c-.856 1.028-2.345 2.922-.732 3.912 1.988 1.015 2.979-1.982 4.135-3.052-.924 2.182 2.081 3.704 3.13 1.506.177.03.354.034.528.01-.905.962-3.351 7.543-.308 6.1a12.39 12.39 0 001.3-1.666c-.488 3.77-.845 7.558-1.076 11.348l-.083 1.374c-.084 1.426-.147 2.857.012 4.278.185 1.654.659 3.205 1.376 4.704.662 1.381 1.514 2.661 2.49 3.838.522.63 1.076 1.242 1.758 1.703.542.367 1.176.608 1.786.841.993.995 2.268 1.747 3.514 2.348 2.053.987 4.279 1.533 6.531 1.806 2.302.278 4.628.211 6.912-.186 2.182-.378 4.522-1.346 5.866-3.188.116-.159-.1-.309-.242-.243-3.901 1.81-8.285 2.283-12.536 1.712a19.606 19.606 0 01-5.747-1.67c-1.528-.72-2.817-1.767-4.189-2.716a11.697 11.697 0 00-.844-1.032l-.48-.505a15.58 15.58 0 01-1.03-1.178c-.99-1.279-1.81-2.729-2.35-4.255-1.052-2.97-.768-6.194-.582-9.289l.016-.273c.192-3.31.504-6.61.936-9.896.18-1.368.38-2.734.598-4.097a15.43 15.43 0 011.145-1.645c-.341 1.33.84 3.18 2.29 2.302 1.66-1.423 1.58-3.72 2.97-5.463 1.442-2.234 11.391-6.579 14.349-7.19-.477.696-1.347 1.18-1.55 2.001-3.638 3.224 2.292 4.94 4.143.346-.041 1.53-.195 3.046-.535 4.539-.494 1.37-.881 5.344 1.596 4.145 1.186.344 2.09-.67 2.239-1.813.857 2.584.047 6.71 1.617 8.615.482.5 1.226.167 1.477-.405 1.453-.381 1.329-2.08 1.505-3.296 1.325 4.847 2.983 8.21 3.211 13.267-1.025 1.464 1.224 2.54 2.189 1.367 1.355-1.963.106-4.647-.213-6.796.381-.02.758-.19 1.073-.56.171.675.073 1.563.015 2.295.859 3.368 4.125 1.21 3.99-1.522.141.77.247 1.55.315 2.334a6.873 6.873 0 00-1.375 2.524c-.198.668.479 1.069.996.972.275.94 1.467 1.62 2.252.72.775-.786.91-1.923.972-3.055a.59.59 0 00.163-.448 1.028 1.028 0 00-.119-.44c.013-.23.03-.458.055-.677.6 1.873.21 3.835.157 5.753-1.06.599-2.27.855-3.486 1.108l-.176.036c-.376.079-.495.64-.212.876-.752.739-1.402 1.62-2.036 2.433a76.88 76.88 0 00-2.429 3.324l-.459.66c-1.342 1.918-3.198 4.515-2.367 6.877.113.325.586.44.77.1.605-1.12.943-2.353 1.517-3.486.564-1.111 1.266-2.141 1.962-3.17l.402-.598a70.11 70.11 0 001.944-3.03l.428-.711c.401-.671.799-1.365 1.095-2.086 1.054.255 2.157.072 3.168-.37l.013.071.026.127c.144.61.982 1.026 1.518.628 1.282-.97 1.804-2.413 1.94-3.956a8.61 8.61 0 00.657-1.373c.084.95.449 1.872 1.576 1.843 1.954-.16 2.146-2.012 1.617-3.854 2.314.709 2.585-2.573 1.855-4.303.271-.081.522-.243.666-.461l.12.21c.445.773.949 1.523 1.651 1.923.982.56 2.409-.133 2.344-1.366-.21-2.01-1.966-3.54-3.035-5.15.19.026.388.02.582-.017 2.136 1.196 3.156-1.618 2.404-3.249-.552-1.464-1.55-2.724-2.62-3.834l.314.188c.566.334 1.197.657 1.819.526 4.071 2.682 5.407-1.83.839-3.24l.001-.021a1.534 1.534 0 00.301-1.847c1.676.59 4.068-.745 2.591-2.57-.963-.91-2.1-1.693-3.36-2.102.063-.335.083-.676.057-1.019l.076.01c.795.115 1.776.44 2.266-.418.249-.433.22-1.146-.188-1.482-1.404-1.158-3.006-2.121-4.747-2.512-.063-.212-.13-.424-.2-.634 1.484-.028 3.151-2.005 1.446-3.126-1.499-.766-3.044-1.259-4.737-1.213.993-.982.407-2.761-.913-3.035.865-1.845-1.27-2.798-2.863-2.507.059-.82-.379-1.734-1.221-1.94.441-2.595-2.298-2.35-4.014-1.734.574-1-.016-2.178-1.03-2.528-1.661-.377-3.25 1.21-4.514 2.182.431-1.015.067-1.95-.959-2.355-1.058-.415-2.198.387-3.08.932-.48-.604-1.3-.801-2.035-.764a1.475 1.475 0 00-.341-.566c.004-1.4-2.37-2.168-3.199-.865-.141-.906-.513-1.778-1.039-2.399zM92.273 25.925l-.027.15-.102.097a7.847 7.847 0 00-.305.078c.141-.114.286-.22.434-.325zm-1.833-3.67l.032.044a.451.451 0 00.018.022c-.09.034-.18.068-.268.104l-.133.055-.047.02c.132-.083.265-.165.398-.246zm21.374-18.482l.08.02.072.018.023.006-.021-.005a2.1 2.1 0 00.129.09l-.122-.01-.161-.119z" fill="#000"/><path fill-rule="evenodd" clip-rule="evenodd" d="M102.767 57.642c-.498-.88-1.986-.738-2.214.29-.461 2.082 2.019 4.004 3.903 4.052 1.872.048 3.973-1.547 3.702-3.562-.067-.498-.732-.438-.959-.125l-.088.12c-.616.828-1.428 1.685-2.571 1.483-.473-.084-.903-.38-1.19-.761-.345-.46-.307-1.01-.583-1.497zm11.904-15.232a1.113 1.113 0 00-.735.053c-.501.092-.921.51-1.068.99a2.54 2.54 0 01-.039.122l-.022.06.06-.153c-.028.15-.151.31-.195.461a1.656 1.656 0 00-.049.603c-.16.002-.319.007-.479.021l-.153.014c-.861.08-1.806.227-2.316.971-.287.419-.018 1.172.509 1.252.81.124 1.508-.325 2.316-.414a8.065 8.065 0 012.316.101c1.556.285 2.985.916 4.501 1.312l.207.053v-.001c.259.063.554-.3.297-.51-1.214-1-2.77-1.809-4.302-2.302.224-.355.293-.823.14-1.205a2.757 2.757 0 00-.084-.232l-.064-.158a1.263 1.263 0 00-.041-.22l-.004-.022-.002.002c-.114-.371-.412-.693-.793-.798zm-15.497.058c-.332-.333-.799-.284-1.146-.022l-.046.036c-.326.145-.597.463-.774.757-.185.306-.307.617-.312.953-.804.003-1.575.244-2.165.894-.19.21-.32.534-.216.818l.063.169c.198.537 1.09.846 1.392.215l.014-.031c.322-.75 1.558-.671 2.214-.595.458.054.91.168 1.352.295.156.045.31.094.464.144l.154.05c.083.027.511.26.245.204-.072-.014-.126.09-.053.125.318.152.657-.15.635-.492-.036-.593-.977-.918-1.43-1.123l-.026-.012a8.46 8.46 0 00-.543-.229 2.633 2.633 0 00.404-1.055.523.523 0 000-.276l-.004-.027a.856.856 0 00.019-.186l.002-.025h-.002a.9.9 0 00-.24-.587zm5.308 6.313c-1.276.395-3.382 1.47-2.717 3.13.929 1.524 3.392.404 4.585-.089 1.073-.355 1.631 1.149.594 1.602-8.567 3.393-8.536-5.56-2.773-5.43.635.015.655.656.311.787zm11.335-11.675l-.217-.064c-1.132-.328-2.287-.894-3.291-.01-.394.347-.476 1.068-.193 1.5.642.987 1.596.836 2.634.92.791.064 1.569.297 2.307.587.603.238 1.163.572 1.691.945.518.367.873.94 1.405 1.27.195.121.42-.003.49-.2.249-.696-.171-1.563-.526-2.156-.433-.723-1.091-1.315-1.798-1.763-.775-.49-1.632-.773-2.502-1.03zm-16.484-.75c-1.912 0-3.752 1.065-4.821 2.625-.364.53-.097 1.316.424 1.621.585.343 1.211.096 1.597-.395l.023-.03a5.951 5.951 0 012.341-1.88c.457-.205.963-.37 1.458-.455l.16-.027c.224-.038.483-.074.686-.039.109.014.208.05.3.105-.044.097.07.213.175.155.476-.261.417-.727.025-1.09-.555-.512-1.651-.589-2.368-.59z" fill="#000"/></svg>