<svg width="40" height="42" fill="none" xmlns="http://www.w3.org/2000/svg"><path fill-rule="evenodd" clip-rule="evenodd" d="M19.68 1.244c5.264 0 10.708 4.115 12.638 6.74 2.23 3.037 3.99 17.613 3.165 22.56-.826 4.945-4.927 10.336-12.046 10.336-7.12 0-11.452-.884-11.626-2.169-.115-.856-1.68-3.668-4.695-8.435-3.083-.875-4.631-2.357-4.643-4.446-.012-2.09.814-3.514 2.478-4.274-.593-8.246-.143-13.442 1.352-15.589 2.241-3.22 8.114-4.723 13.377-4.723z" fill="#EDB98A"/><path fill-rule="evenodd" clip-rule="evenodd" d="M17 .004h.094c5.824.038 11.747 2.741 15.212 7.463l.104.144c.006.007.11.163.134.207.144.26.313.503.443.768.11.224.182.475.263.714l.024.071c.207.597.381 1.199.535 1.811.299 1.192.531 2.403.758 3.611A106.524 106.524 0 0136.17 27.9l.052.884c.054.916.095 1.836-.007 2.75a9.369 9.369 0 01-.88 3.023 12.001 12.001 0 01-1.592 2.467c-.333.405-.688.799-1.123 1.095-.347.236-.752.391-1.142.54-.635.64-1.45 1.124-2.247 1.51-1.312.635-2.735.985-4.175 1.161a15.095 15.095 0 01-4.419-.12c-1.395-.243-2.89-.865-3.75-2.05-.074-.101.064-.197.155-.155 2.494 1.164 5.296 1.468 8.014 1.1a12.48 12.48 0 003.674-1.073c.977-.463 1.801-1.136 2.678-1.746a7.42 7.42 0 01.54-.664l.306-.324c.23-.244.455-.49.66-.757a9.967 9.967 0 001.501-2.735c.673-1.91.491-3.982.372-5.971l-.01-.176a88.162 88.162 0 00-.598-6.361 97.077 97.077 0 00-1.043-6.316c-.205-1.032-.435-2.056-.638-3.088-.104-.532-.178-1.071-.257-1.609-.049-.327-.048-.642-.049-.962a.336.336 0 01-.031.043c.033.08.01.182-.072.228-.308.178-.664.118-1.012.12a453.964 453.964 0 01-2.26.004l-1.152-.003-4.611-.014c-3.02-.01-6.09.112-9.1-.175l-.23-.023c-.237-.028-2.906-.357-3.628-.442l-.022-.002a27.687 27.687 0 01-3.902-.721c.42.169.823.397 1.238.57.536.223 1.085.417 1.635.603 1.128.382 2.258.754 3.382 1.148.322.113 1.054 2.897 1.238 3.337l.006.012c.093.213.222.445.15.687-.157.533-.992.927-1.406 1.228l-.426.31-.557.407c-.229.165-.44.291-.739.197l-.002-.001c.255 1.197.38 5.071.418 5.75.033.593.205 1.351-.07 1.89a.428.428 0 01-.376.22l-1.88-.142c-.168-.013-.321-.11-.367-.281l-.002-.01a.061.061 0 01-.063-.018 2.726 2.726 0 00-.106-.101c-.825-.743-2.115-.926-3.133-.54-.534.202-1.141.542-1.518.984-.418.49-.508 1.174-.509 1.8-.002 1.206.43 2.427 1.312 3.264.81.768 1.855.991 2.907 1.211l.112.024c.24.05.316.411.136.563.48.475.896 1.041 1.301 1.564a49.172 49.172 0 011.553 2.137l.242.349c.86 1.24 2.107 2.946 1.565 4.495-.073.209-.375.284-.493.065-.386-.72-.602-1.513-.97-2.241-.36-.715-.809-1.377-1.254-2.038l-.256-.384a44.236 44.236 0 01-1.244-1.948l-.273-.457c-.256-.432-.51-.878-.7-1.341-1.265.307-2.64-.377-3.53-1.289-1.118-1.148-1.643-2.84-1.499-4.43.076-.832.32-1.637.924-2.235a4.56 4.56 0 01.192-.174.11.11 0 01-.052-.053c-.406-.971-.492-2.128-.526-3.173a29.903 29.903 0 01.068-3.243 28.19 28.19 0 011.066-5.849c.831-2.81 2.26-5.562 4.542-7.448C10.642.745 13.902 0 17 .004zM4.886 24.587c.343-.157.88.123 1.186.302l.02.011c.903.53 1.547 1.434 1.844 2.434.191.645-.881.902-.972.27a3.505 3.505 0 00-.526-1.428.86.86 0 00-.19.089c-.223.145-.353.396-.663.359-.23-.027-.466-.188-.45-.454.025-.438.375-.613.75-.636a5.5 5.5 0 00-.162-.142l-.06-.05c-.07-.05-.804-.56-.825-.429v.008c0 .052-.07.082-.104.043-.142-.153-.01-.302.152-.377z" fill="#000"/><path fill-rule="evenodd" clip-rule="evenodd" d="M23.732 29.95c.52-.86 1.627 1.248 1.745 1.61.104.322.173.65.208.983.403.091.821.091 1.234.012.614-.119.989-.45 1.522-.736.368-.197.832.034 1.024.36.225.385.082.784-.215 1.071-.561.544-1.667.669-2.4.524a3.092 3.092 0 01-1.146-.472l-.007.13-.007.074c-.056.603-.22 1.36-.686 1.753-.763.644-1.705-.594-.963-1.237l.023-.02c.46-.374.561-1.38.536-1.933a4.031 4.031 0 00-.195-1.072l-.023-.069c-.034-.097-.407-1.02-.541-.902l-.007.006c-.055.067-.145-.01-.102-.081zm4.15-4.854c.7.43 1.77 1.43 1.015 2.494-.888.938-2.167-.138-2.798-.624-.584-.377-1.24.592-.698 1.033 4.554 3.393 6.402-2.79 2.835-3.408-.393-.068-.539.372-.355.505zm-7.492-3.967a2.591 2.591 0 011.956.453l.043.031c.546.402 1.158 1.109.844 1.802-.126.279-.503.323-.742.196-.398-.21-.47-.727-.826-1.013-.291-.235-.684-.377-1.059-.343-.882.08-1.424.956-1.698 1.71-.035.097-.175.134-.23.03-.646-1.214.497-2.649 1.712-2.866zm10.982-.458c1.313-.11 2.85 1.261 2.504 2.656-.165.67-1.152.65-1.327 0-.097-.358-.087-.674-.343-.971a1.01 1.01 0 00-.834-.366c-.356.024-.684.203-.933.454-.225.227-.36.56-.593.76-.057.05-.134.053-.19 0-.402-.372-.161-1.147.093-1.536.364-.556.957-.942 1.623-.997zM17.89 18.655c.842-.75 2.373-1.476 3.509-1.106.653.212.938 1.271.209 1.607-.845.389-1.818.23-2.678.634-.36.169-.7.38-.951.69-.198.245-.4.567-.686.708-.075.037-.177.038-.237-.03-.628-.715.285-2.015.834-2.503zm12.034-1.144c.52-.147 1.098-.144 1.627-.051a3.586 3.586 0 011.497.634l.05.038c.472.357 1.034.877 1.004 1.51-.025.53-.578.887-1.055.61-.389-.226-.572-.679-.901-.98a3.184 3.184 0 00-2.095-.813c-.313-.006-.627.097-.934.13.025.053-.217.028-.356-.018-.103-.044-.103-.175-.068-.26.177-.421.821-.684 1.23-.8z" fill="#000"/><path fill-rule="evenodd" clip-rule="evenodd" d="M38.669 17.977a12.016 12.016 0 00-.23-.036.688.688 0 00-.211-.076 3.605 3.605 0 00-.556-.097c-2.65-.6-8.783.252-9.036 2.529-.844.283-1.574.03-2.552.055-.745-3.133-13.619-2.691-14.238-.802a.094.094 0 01-.007-.002c-.595-.186-1.472-.14-2.153-.17-1.454-.03-2.91.1-4.332.408-2.664.426-6.3.925-4.447 4.273l.001.002c.32.329.862.064.882-.382-.623-1.586.784-1.777 1.866-2.233 2.694-.974 5.436-1.109 8.221-.807.21.248.528.465.864.578 1.863.311.881 1.702 2.058 1.904-.216 4.847 5.631 7.493 9.019 4.306 1.353-1.33 1.675-3.302 1.989-5.08a.47.47 0 00.333-.25c.398-.4.649-.77 1.437-.88.789-.11 1.396.11 1.478.178.02.042.043.084.069.127a.477.477 0 00.14.152c-.778 4.826 2.945 7.879 6.704 5.375 1.633-1.546 1.978-3.913 2.046-6.026.221-.134.361-.395.285-.722-.106-.452.142-.843.536-1.04.513-.254.422-1.185-.166-1.284zm-16.15 2.29c-.467-.103-.666.621-.198.724.331.074.612.242.802.527l.02.031c.255.408.899.031.642-.38a1.995 1.995 0 00-1.266-.902zm13.664-.448c-.165-.117-.414-.03-.51.134-.104.182-.035.384.119.502l.015.012c.142.1.28.28.296.464l.002.023c.019.482.762.484.744 0-.018-.474-.29-.87-.666-1.136z" fill="#000"/></svg>