<svg width="295" height="322" fill="none" xmlns="http://www.w3.org/2000/svg"><g clip-path="url(#clip0_1_705)"><path d="M146.892 322c81.126 0 146.891-7.343 146.891-16.401s-65.765-16.401-146.891-16.401C65.766 289.198 0 296.541 0 305.599S65.766 322 146.892 322z" fill="#F7859C"/></g><path d="M215.421 202.949h-57.396v70.638h57.396v-70.638z" fill="#FDEA6B"/><path fill-rule="evenodd" clip-rule="evenodd" d="M141.285 133.857c6.187-4.708 21.719-6.825 28.323-2.292 6.522 4.553 7.233 11.915 10.272 18.688 2.868-1.352 7.603.584 8.434 3.243 1.031 1.254 1.078 4.778 1.789 6.464 30.939 4.922 35.636 29.029 39.36 56.397 4.927 27.771 16.11 55.482 11.255 84.059a16.361 16.361 0 011.593 2.86c1.105 1.879-.319 4.539-2.547 4.436-2.886-.253-5.742-.598-8.641-.706-8.035-.279-16.078-.246-24.116-.144l-1.096.014c-40.512.504-81.02 1.498-121.534 1.761-1.47.002-2.189-1.315-1.993-2.615.396-2.616.762-5.234 1.145-7.851-9.582 2.529-19.77 3.166-29.324.266-.669-.681 1.557-.312 1.91-.415-8.794-6.006-6.168-18.657-5.389-27.77 4.844-31.223 6.552-65.77 25.267-92.414 8.096-10.873 19.966-19.482 33.605-21.419l.379-.052c3.988-.531 8.433-.703 11.92-2.871 3.921-3.129 5.593-8.91 9.719-8.964 1.362-.018 3.215 1.704 5.21 2.874.148-2.573 1.536-4.744 1.842-6.739l.025-.17c.319-2.326-.118-4.418 2.592-6.64zm66.491 83.324c-8.695-6.036-31.155-3.003-31.67-2.665-1.132.744-1.619.81-2.231 1.776-.605.081-1.209.164-1.813.249-1.21.396-.313 1.884 1.085 1.353-.841 3.626 1.635 6.204 2.62 9.789.32 1.163.012 3.256 0 4.446.096 1.516 1.773 3.307 1.494 4.828-.994 5.408-6.387 10.683-4.114 15.927 1.507 2.962 6.037 4.473 9.049 5.48 6.241 2.394 17.115-.09 20.741-5.48 1.934-2.874 4.174-10.125 5.328-12.374l.255-3.568c.631-8.869 1.191-18.417-.744-19.761z" fill="#EDB98A"/><path fill-rule="evenodd" clip-rule="evenodd" d="M131.294 144.548l2.488 1.526 14.451 7.139c2.802.784 4.203 1.724 4.203 2.819v11.152c0 1.492 2.629 4.874 7.887 10.146l4.858-4.84-.109-.633c-.462-2.731-.693-4.557-.693-5.48 0-.992 4.752-4.758 14.257-11.299l4.159-3.912-.444-1.348c2.564.121 5.345 1.699 5.963 3.678 1.031 1.254 1.078 4.778 1.789 6.464 30.939 4.922 35.636 29.029 39.36 56.397 4.927 27.771 16.11 55.482 11.255 84.06a16.325 16.325 0 011.593 2.86c1.105 1.879-.319 4.539-2.547 4.436-2.886-.253-5.742-.599-8.641-.707-8.035-.279-16.078-.246-24.116-.144l-1.096.015c-40.512.504-81.02 1.497-121.534 1.76-1.47.002-2.189-1.315-1.993-2.615.396-2.616.762-5.234 1.145-7.851-9.582 2.529-19.77 3.166-29.324.266-.669-.681 1.557-.312 1.91-.415-8.794-6.006-6.168-18.657-5.389-27.769 4.844-31.224 6.552-65.771 25.267-92.415 8.096-10.873 19.966-19.482 33.605-21.419l.379-.052.381-.049c3.888-.495 8.162-.722 11.539-2.822 3.818-3.046 5.503-8.607 9.397-8.948zm34.627 65.454c-1.417 0-4.32 2.2-8.708 6.6l-.387.178c-5.305 2.463-8.819 4.599-10.543 6.409l-.061.065c-1.742 1.867-5.19 6.832-10.345 14.894l-7.466 4.412h-2.825l-2.011 14.58 4.836 10.41 10.954-3.688 17.848-4.701 10.241-10.384 5.777-1.939c-.701 2.024-.955 4.038-.084 6.047 1.507 2.962 6.037 4.472 9.049 5.479 6.241 2.394 17.115-.09 20.741-5.479 1.934-2.875 4.174-10.126 5.328-12.375l.33-4.635c.596-8.553 1.039-17.403-.819-18.693-8.695-6.037-31.155-3.004-31.67-2.666-1.132.744-1.619.81-2.231 1.777l-.317.042 1.782-2.416-.631-.337c-4.504-2.387-7.433-3.58-8.788-3.58zm7.226 7.892c-.805 3.471 1.43 5.983 2.487 9.336l-2.701-5.166v-4.103c.07-.017.142-.039.214-.067z" fill="#9DDADB"/><path fill-rule="evenodd" clip-rule="evenodd" d="M130.101 144.009c.6-.531 1.488.136 1.107.854-.857 1.613-1.737 3.141-2.887 4.567a45.32 45.32 0 01-2.202 2.49c1.943 1.68 3.61 3.766 5.183 5.721 2.013 2.5 3.915 5.106 6.174 7.394 2.228 2.256 4.692 3.833 7.67 4.885l.602.209c2.992 1.05 6.19 2.468 7.876 5.299.333.558-.337 1.248-.9.9-2.93-1.814-6.374-2.179-9.564-3.377-3.082-1.157-5.768-2.939-8.141-5.213-2.37-2.27-4.359-4.852-6.435-7.38-2.052-2.5-4.262-4.635-6.689-6.75-3.746 2.519-8.022 3.615-12.37 4.691l-.474.118c-4.353 1.077-8.683 2.328-12.767 4.203-3.6 1.654-7.142 3.628-10.075 6.319-3.113 2.856-5.537 6.503-7.754 10.07-4.962 7.979-8.45 16.721-11.52 25.57a263.933 263.933 0 00-8.021 28.09 198.118 198.118 0 00-2.72 14.599 218.52 218.52 0 00-.94 7.095c-.294 2.531-.361 5.136-1.138 7.569-.333 1.043-1.12 1.476-1.907 1.439l-.16 1.999c-.212 2.665-.41 5.33-.477 8.011-.11 4.459-.06 8.904.26 13.353l.046.606c.252 3.247.816 6.895 3.259 9.273 2.53 2.462 6.42 3.236 9.83 3.281 7.942.103 15.587-3.647 22.615-6.937 7.238-3.389 14.278-7.15 21.15-11.229a319.164 319.164 0 0010.378-6.433 276.483 276.483 0 004.995-3.307c.947-.642 1.844-1.345 2.807-1.915-.472-.439-.683-1.13-.287-1.733-2.786-2.417-3.945-6.73-4.081-10.219-.11-2.817.305-5.626.633-8.416.165-1.407.369-2.811.58-4.212.084-.553.148-1.145.246-1.729a230.384 230.384 0 01-23.194 11.079 184.13 184.13 0 01-12.367 4.562l-.847.279c-3.959 1.295-8.012 2.518-12.104 3.258-.219.04-.397-.283-.163-.386 3.988-1.759 8.114-3.242 12.162-4.862l.666-.27a1.39 1.39 0 01-.239-.035c-2.374-.573-4.73-1.455-7.058-2.198-2.16-.69-4.589-1.123-6.609-2.164-.155-.08-.068-.296.083-.306 2.27-.157 4.735.504 6.961.893l.836.146c1.401.247 2.833.512 4.227.859.05-.467.311-.936.682-1.211 4.085-3.023 3.67-9.129 4.107-13.631l.324-3.343c.57-5.85 1.173-11.7 2.088-17.506.05-.31.53-.221.531.071.048 7.198-.496 14.363-.769 21.549l-.042 1.179c-.15 4.435-.269 9.039-3.063 12.451.39-.228.92-.228 1.236.148.389.463.613.982.606 1.492a414.594 414.594 0 007.541-3.251c8.044-3.562 15.919-7.547 23.586-11.86.825-.464 1.609-.099 2.017.513l.059-.009a.302.302 0 01.03-.002l.059-.003.006.001c1.079-.593 2.55-.171 3.476.693.027.027.05.055.075.082a12.397 12.397 0 003.26-2.136c2.034-1.842 3.756-4.119 5.257-6.402 2.765-4.206 5.113-8.883 8.848-12.345 3.034-2.813 6.797-4.564 10.743-5.663a.394.394 0 01.108-.32c.202-.208.347-.279.609-.153.021.01.033.024.042.039l.385-.658c.21-.357.426-.716.501-.81.448-.564.909-1.124 1.377-1.672.794-.927 1.699-1.843 2.746-2.486 2.293-1.408 4.704-.611 7.062.158 1.425.466 2.844.946 4.267 1.418l.146.048c1.061.34 2.301.638 2.776 1.761.187.444.216.906.129 1.353 10.072-2.56 21.258-1.384 31.086 1.621.377.115.754.425.834.833 1.126 5.771 1.627 11.69 1.118 17.56-.44 5.067-1.563 10.032-3.68 14.671l-.12.262c-1.99 4.299-5.143 9.599-9.958 10.946-2.908.814-6.124.334-9.09.185-2.882-.145-5.828-.166-8.682-.619-2.543-.403-4.771-1.542-6.342-3.608-1.355-1.783-2.069-3.937-2.654-6.08-.267.085-.533.176-.795.278-1.105.431-2.04 1.127-2.887 1.946-1.786 1.729-3.172 3.83-5.042 5.48-1.692 1.494-3.621 2.656-5.689 3.549-4.286 1.851-8.885 2.59-13.418 3.571l-.317.069c-3.413.749-6.897 1.668-9.909 3.444-.059.522-.298 1.014-.679 1.336.531.499.756 1.289.289 2.03-1.304 2.069-3.551 3.246-5.568 4.569l-.131.086a244.418 244.418 0 01-18.539 11.176c-6.83 3.729-13.806 7.246-20.91 10.437.427 2.096.271 4.258.592 6.368l.049.301c.136.783-.048 1.438-.588 1.95l-.057.052v-.007l-.05.047-.017.014.006-.004a2.06 2.06 0 01-.192.155l-.083.053c-.52.316-1.19.313-1.722.034l-.06-.034-.103-.058c-.703-.404-1.188-1.406-.897-2.202.718-1.956.989-4.043 1.65-6.012l-.525.235-.692.301c-7.489 3.237-15.807 5.962-23.966 3.756-3.605-.975-6.975-3.038-8.779-6.4-1.775-3.308-2.026-7.149-2.12-10.828a87.13 87.13 0 01.727-13.656c.402-3.022.889-6.102 1.639-9.093a2.254 2.254 0 01-.745-1.433c-.354-2.857.266-5.827.645-8.669.371-2.775.78-5.544 1.244-8.305a285.514 285.514 0 013.287-16.65c2.25-9.807 5.223-19.439 8.803-28.842l.313-.819c3.307-8.594 7.137-17.005 12.469-24.554 2.55-3.612 5.247-6.887 8.851-9.49 3.377-2.439 7.185-4.195 11.116-5.537 3.935-1.343 7.979-2.243 12.095-2.803 4.18-.568 8.591-.917 12.491-2.631-.494-.883-.07-2.076.76-2.624 2.793-1.845 5.377-4.245 7.881-6.462zm89.428 80.212c.117-.178.395-.065.344.145-1.359 5.563-2.634 11.137-3.467 16.807-1.504 10.232-1.227 20.598-1.104 30.906l.006.533c.063 5.553.151 11.105.335 16.656.093 2.805.276 5.637.176 8.444-.054 1.522-.46 2.962-.604 4.466-.126 1.316-.014 2.651.049 3.968.042.876-1.251.839-1.339 0l-.113-1.084c-.146-1.372-.326-2.736-.776-4.05-.541-1.58-.801-3.131-.989-4.79-.287-2.542-.415-5.109-.526-7.669l-.076-1.77c-.464-10.697-.447-21.444.303-32.13l.055-.763c.743-10.101 2.032-21.015 7.726-29.669zm-28.962-63.661c-.355-.146-.231-.682.162-.589l.715.171c5.237 1.253 10.379 2.612 15.267 4.944 4.891 2.334 9.032 5.819 12.323 10.104 6.396 8.329 9.054 18.451 11.152 28.564 2.332 11.237 4.455 22.515 6.808 33.749l.436 2.093c2.177 10.462 4.232 20.931 5.746 31.518l.109.768c1.527 10.886 2.445 22.15.779 33.065-.33 2.159-3.925 1.622-3.785-.512.406-6.168.697-12.303.416-18.485a195.66 195.66 0 00-1.726-18.467c-.728-5.158-1.813-10.251-2.773-15.368l-.151-.808c-.804-4.352-1.633-8.699-2.46-13.047l-1.236-6.51c-1.852-9.747-3.741-19.503-5.875-29.189l-.127-.57c-2.088-9.319-5.167-19.08-11.432-26.48-6.357-7.51-15.458-11.292-24.348-14.951zm-23.1 98.842c.152-.34.687-.303.852 0 .644 1.188.716 2.705.837 4.046l.013.138c.155 1.636.292 3.278.376 4.92.159 3.116.235 6.228.226 9.348-.01 3.197-.075 6.39-.247 9.583l-.047.855c-.157 2.774-.421 5.869-1.74 8.294-.48.882-1.784.623-2.062-.269-.91-2.919-.442-6.381-.209-9.371l.181-2.334c.18-2.333.351-4.668.486-7.004.186-3.197.34-6.396.487-9.594.048-1.039.1-2.078.155-3.116l.084-1.558c.072-1.303.066-2.733.608-3.938zM65.17 263.54l.402-.388c1.237-1.21 2.8-3.072 4.627-2.957.729.047 1.193.651 1.042 1.368-.323 1.532-1.886 2.327-3.012 3.262-1.233 1.025-2.395 2.119-3.555 3.225a69.768 69.768 0 00-2.985 3.027l-.361.392c-.346.377-2.812 2.606-2.545 3.184l.014.026c.074.111-.05.263-.172.224-1.065-.336-.998-1.248-.596-2.172.773-1.775 2.128-3.418 3.31-4.934a41.766 41.766 0 013.83-4.257zm106.155-44.525c-.824-1.945-3.857-1.904-5.579-1.787-4.336.292-9.027 1.389-12.885 3.414-4 2.1-6.694 5.465-9.105 9.185l-.113.175c-2.349 3.65-4.612 7.971-8.292 10.481-1.874 1.279-4.062 2.446-6.336 2.952a1.163 1.163 0 01-.741.571l-.154.035c-.647.143-1.653.301-2.522.206.005.425.001.847.012 1.249.03 1.154.043 2.312.043 3.467.001 2.418-.129 4.841-.028 7.259.089 2.139.391 4.374 1.419 6.286.754 1.403 1.749 2.331 2.949 3.217 2.954-1.799 6.295-2.895 9.685-3.72 4.1-.997 8.298-1.663 12.304-3.015 1.929-.651 3.783-1.503 5.462-2.66 1.783-1.229 3.145-2.891 4.546-4.517l.219-.252c1.43-1.639 2.99-3.207 5.011-4.096 1.74-.765 4.033-.902 5.555-2.086.796-.62.862-1.519.946-2.44-.974.14-2.006-.084-2.977-.197l-.503-.059c-.919-.109-1.816-.229-2.72-.463-.168-.043-.168-.296 0-.34 1.068-.275 2.127-.393 3.223-.521l.257-.032c.991-.13 2.033-.326 3.005-.108a8.165 8.165 0 01.78-1.931c.496-.891 1.434-1.901 1.561-2.942a1.696 1.696 0 00-.181-.952l-.051-.094a.784.784 0 00-.241-.291c-.012.014-.037.03-.091.047-.748.236-1.401-.13-1.747-.695-1.471.183-3.076.121-4.455.182l-1.394.068c-1.49.068-3.047.098-4.447-.203-.196-.042-.255-.367-.059-.451 1.721-.735 3.809-.97 5.651-1.253 1.029-.158 2.066-.278 3.098-.417.687-.093 1.417-.246 2.129-.282 1.785-2.221.823-5.725-1.661-6.682-.905.398-1.719.167-2.708.082a33.03 33.03 0 00-2.968-.138c-1.985.009-4.09.531-6.056.306-.32-.037-.617-.462-.299-.722 1.505-1.227 3.662-1.628 5.573-1.889l.396-.053c.641-.084 1.42-.207 2.228-.279.183-.357.51-.626 1.003-.693.146-.02.293-.032.44-.044l-.002-.015c1.201-.057 1.149-2.085.82-2.863zm-82.227 37.931a.975.975 0 01-.069.093l-.038.045.198-.081-.09-.057zm103.185-42.276c-5.055-.543-10.118-.429-15.188-.283-.405 1.326-1.817 2.455-3.185 2.498 1.071 1.629 1.182 3.835.431 5.563 1.595.634 2.969 1.774 3.803 3.397 1.156 2.25 1.005 4.754-.138 6.834.976.882 1.551 2.316 1.494 3.667-.065 1.507-.963 2.794-1.71 4.041-.807 1.349-.834 2.537-1.082 4.048-.362 2.211-1.855 3.553-3.775 4.39l.102.402c.495 1.925 1.111 3.957 2.526 5.365 1.82 1.812 4.644 1.795 7.049 1.91l.116.006c2.202.11 4.403.239 6.604.363l1.651.093c2.534.139 4.968.156 7.037-1.519 3.378-2.733 5.694-7.257 7.159-11.261 3.077-8.406 3.114-17.63 1.702-26.384-4.736-1.526-9.65-2.599-14.596-3.13zm-42.041 13.945l.037.002c1.041.119 1.756.961 2.011 1.961.37 1.452.188 2.765 1.078 4.076.916 1.348 1.479 2.428 1.612 4.093.054.685.029 1.369.182 2.04l.111.47c.117.501.213.984.155 1.522-.054.49-.293.873-.785 1.03-1.605.513-2.844-.669-3.259-2.163-.358-1.292.12-2.83-.385-4.042-.28-.672-.796-1.235-1.088-1.911a6.239 6.239 0 01-.48-2.1c-.088-1.379 1.132-3.035.451-4.285-.145-.266.019-.701.36-.693zm-21.317-14.228c1.086-.22 2.319-.726 3.391-.306.551.217.823.888.358 1.355-.809.809-1.983.854-3.071 1.045l-.096.017a211.28 211.28 0 01-3.868.678c-2.429.402-4.863.757-7.306 1.06-2.51.31-5.026.586-7.546.794l-.976.08c-2.128.17-4.343.299-6.432-.027-.303-.048-.254-.489 0-.567 2.288-.692 4.798-.877 7.164-1.17 2.515-.312 5.025-.641 7.529-1.032 2.501-.39 4.997-.809 7.485-1.272 1.124-.209 2.247-.427 3.368-.655zm39.213-2.222c-.954-.337-2.003-.837-3.036-.67-1.782.289-3.368 2.024-4.779 3.166l.708-.137c3.624-.696 8.423-1.446 11.466.857.007-.014.013-.027.022-.04.246-.373.53-.664.841-.983.03-.028.058-.056.086-.086l.168-.178-.383-.133c-.821-.29-1.793-.664-1.947-.719l-.011-.004c-1.046-.354-2.094-.704-3.135-1.073zm-29.776-75.917c-.149-1.917 2.836-1.901 2.984 0 .322 4.151-.612 8.262-2.624 11.901-.015.027-.031.05-.047.075a59.099 59.099 0 003.832 1.843 56.245 56.245 0 005.085 1.926c1.561.502 3.484.701 4.796 1.745 2.768 2.202 1.728 6.773 1.196 9.735l-.083.468c-.265 1.525-.457 3.089.186 4.552.687 1.563 2.075 2.722 3.314 3.84l.251.227c1.097.999 2.351 2.213 3.156 3.568.735-1.519 1.737-2.759 2.796-4.156.756-.997.218-1.326-.325-2.3-.523-.937-.778-1.936-.614-3.006.301-1.975 1.881-3.401 3.452-4.473 1.857-1.265 3.929-2.203 5.848-3.38 3.944-2.418 7.784-5.183 11.244-8.254.096-.084.261.027.185.143-2.734 4.155-5.938 7.745-9.877 10.792-1.597 1.236-3.275 2.261-4.964 3.338l-.486.312c-.678.439-1.524 1.026-1.83 1.773-.309.752.349 1.319.703 1.942 1.125 1.978.582 3.823-.751 5.5l-.062.077c-1.325 1.632-2.329 3.149-2.809 5.234-1.032 4.478.405 9.142 1.91 13.346l.059.166c.814 2.266 1.679 4.515 2.386 6.817l.194.637c.641 2.118 1.166 4.207.447 6.385-.244.741-1.255.916-1.675.219-1.481-2.459-1.85-5.417-2.778-8.12-.905-2.634-1.944-5.22-2.818-7.865-1.126-3.406-1.879-7.071-1.47-10.643-.012-.021-.025-.041-.035-.063l-.287-.626c-.781-1.696-1.535-3.177-2.956-4.528-1.482-1.41-3.09-2.658-4.256-4.365-2.533-3.708-.966-7.832-.66-11.886l.035-.497c.055-.842.086-1.986-.465-2.568-.618-.656-2.07-.823-2.891-1.114-2.122-.75-4.213-1.625-6.204-2.675-1.896-.999-3.732-2.103-5.442-3.397l-.867-.651c-1.367-1.031-2.785-2.157-3.702-3.561-.105-.162.074-.422.266-.345 1.53.621 2.927 1.607 4.359 2.466a1.76 1.76 0 01.077-.158c1.771-3.203 2.5-6.752 2.217-10.396zm48.87 21.947c.609-1.671 3.387-1.542 3.277.443-.085 1.525-.733 2.902-1.325 4.286l-.064.148a27.438 27.438 0 01-2.163 4.119c-1.615 2.528-3.506 4.874-5.526 7.087-1.832 2.007-4.236 3.234-7.007 3.03-1.167-.086-2.345-.382-3.368-.965-1.215-.692-2.534-2.771-4.084-2.268-.15.049-.29-.171-.16-.275 1.789-1.44 3.82.793 5.533 1.331 2.582.811 5.23-.085 6.892-2.171 1.735-2.177 3.331-4.616 4.789-6.986a33.636 33.636 0 001.999-3.741c.589-1.3.723-2.713 1.207-4.038zm-4.161-10.281c-.075-.23.211-.45.414-.318 1.176.765 2.195 1.776 3.279 2.662 1.204.982 2.416 1.945 3.647 2.893 1.794 1.383-.287 3.928-1.867 2.418-2.161-2.066-4.528-4.767-5.473-7.655zm-6.455-8.085c.477-1.841 3.302-1.082 2.891.737l-.014.056c-.779 3.005.331 6.064 2.702 8.012l.087.071c1.5 1.199-.625 3.297-2.11 2.109-3.242-2.594-4.591-6.998-3.556-10.985z" fill="#000"/><path fill-rule="evenodd" clip-rule="evenodd" d="M137.395 32.951l2.16 2.573a68.785 68.785 0 00-3.387 2.545l-.001-.003c4.919-3.215 10.368-5.115 16.254-5.115 11.337 0 34.365 9.754 39.571 16.788 2.583 3.492 7.384 14.21 9.874 25.862 2.001 9.362 4.977 35.812 2.001 45.751-3.809 12.72-16.339 24.476-29.26 24.476-12.921 0-32.98-9.342-47.257-29.815-.653-.936-8.15-2.021-13.497-5.535l1.404 15.492 1.067 9.012-.236.642c-3.83 10.374-6.865 15.787-9.105 16.237-2.286.46-6.942-3.293-13.966-11.259l-.898-3.773c-2.28-9.625-3.42-14.791-3.42-15.499l.002-.129c.034-1.629.594-10.849.605-13.331V70.682c7.555-25.154 14.765-37.73 21.629-37.73h26.46z" fill="#EDB98A"/><path fill-rule="evenodd" clip-rule="evenodd" d="M119.494 24.385c2.221-.861 4.794-.699 6.903.599 4.139-.178 8.256 2.247 10.414 5.786.045.05.093.1.136.15l.457.534c.433.51.89 1.072 1.252 1.652-1.773.041-3.25.765-4.281 2.226-.735 1.043.95 2.034 1.702 1.048l.026-.036c.619-.878 1.553-1.218 2.594-1.235a.935.935 0 00.685-.289c.064.233.121.468.173.705 5.238-2.04 10.884-2.581 16.508-2.097-.247.4-.453.828-.611 1.278-.18.51.204 1.096.699 1.233.535.147 1.019-.167 1.212-.653l.018-.047a3.594 3.594 0 011.043-1.548c2.647.36 5.276.931 7.84 1.668a85.646 85.646 0 019.121 3.207 2.344 2.344 0 00-1.248 1.095c-.611 1.118 1.068 2.12 1.705 1.05l.022-.039a.931.931 0 01.159-.223l.014-.013.088-.04.164-.048.063-.015c.056-.013.079-.012.225-.02.195-.01.39-.01.584-.01a.906.906 0 00.883-.583 95.813 95.813 0 014.357 2.102l.34.176c4.41 2.308 8.589 5.339 11.013 9.798.16.298.21.624.17.935a41.346 41.346 0 011.498 1.913c1.465 1.994 2.538 4.261 3.554 6.508 2.043 4.519 3.419 9.16 4.492 14 1.038 4.664 1.876 9.378 2.654 14.092.862 5.238 1.58 10.521 1.73 15.834.266 9.471-1.583 18.997-6.893 26.97-4.737 7.114-11.87 12.762-20.329 14.571-8.603 1.839-17.707.045-24.488-5.696-1.093-.924-.942-2.791 0-3.737 1.068-1.068 2.644-.92 3.732 0 6.385 5.408 15.679 6.242 23.373 3.486 7.113-2.55 12.685-8.431 16.104-15.036 4.172-8.056 4.875-17.309 4.234-26.222-.35-4.894-1.078-9.749-1.828-14.596l-.453-2.917c-.494-3.16-1.013-6.316-1.69-9.444l-.159-.73c-.827-3.771-1.796-7.64-3.295-11.186-.786-1.861-1.731-3.655-2.699-5.426a79.13 79.13 0 00-.578-1.042 1.384 1.384 0 01-.885.008c-2.734-.852-5.543-1.423-8.401-1.613a36.96 36.96 0 00-3.91-.05c-2.23-.13-4.522.066-6.647.751a46.478 46.478 0 00-.629-.528 1.498 1.498 0 01-.171-.022c-.542-.107-.923-.493-1.152-.98a1.283 1.283 0 01-.033-.077 45.593 45.593 0 00-.823-.615c-.674.175-1.265-.387-1.424-1.003-.15-.101-.303-.2-.454-.299a2.186 2.186 0 01-.352.062c-.497.035-.976-.04-1.416-.278-.557-.3-.913-.785-1.151-1.335-.842.052-1.695-.222-2.448-.717-.611-.401-1.079-.956-1.545-1.51a52.321 52.321 0 00-18.018-4.412c-.608.117-1.213.257-1.81.42a6.514 6.514 0 00-.573.204c1.378-.167 2.774-.183 4.189.02 6.717.974 11.948 6.01 16.45 10.764 1.071-.217 2.153 1.172 1.162 2.092l-7.727 7.172c.189.802-.729 1.592-1.534 1.4-1.349-.325-2.7-.64-4.053-.95-1.41.683-3.184.566-4.463-.425-.06-.046-.189-.12-.301-.193-.105.087-.247.174-.303.211-.455.302-1.009.39-1.541.306-.546-.087-1.04-.365-1.465-.711-.271-.22-.902-1.14-1.254-1.208l-.034-.003c.235.006-.519.707-.721.852-.472.338-.994.515-1.582.45-1.024-.112-1.904-1.047-2.405-1.91l-.037-.066-.016-.041-.014.044-.008.026c-.075.203-.311.434-.471.576-.456.404-1.021.582-1.624.476-.511-.089-.94-.398-1.285-.771l-.054-.06c-.102-.115-.775-1.02-.669-1.237l.013-.019-.034-.007c-.409.101-.752 0-1.004-.211-1.404-.308-2.79-.667-4.132-1.123-.105.295-.207.59-.307.889.732.453 1.41 1.1 2.033 1.56 1.181.872 2.361 1.744 3.539 2.618l4.668 3.448.533-.143c.682-.184 1.267.214 1.518.822l.02.052c.1.267.219.513.36.749 1.167-.047 2.155.67 2.474 1.7a6.62 6.62 0 01.877.037c.815.09 1.364.695 1.217 1.528l-.011.057-.02.093c.472.2.815.589.891 1.175.126.19.229.398.294.63.341 1.198-.322 2.679-.676 3.827l-.027.09c-.227.754-.461 1.505-.699 2.256l-.591 1.863c-1.64 5.193-3.239 10.669-1.912 16.113.283 1.152-1.188 1.673-1.825.771a72.39 72.39 0 00-4.971-6.215l-.085-.014c-1.228-.247-1.705-1.116-2.269-2.001a2.2 2.2 0 01-1.035.054c-.499-.097-.947-.382-1.3-.743-.3-.306-.574-1.091-.928-1.286-.443-.243-1.333.104-1.861.026a4.284 4.284 0 01-1.221-.397c-.716.978-1.19 2.126-1.307 3.365-.045.47-.185.869-.388 1.2a10.08 10.08 0 012.232.163c2.731.508 4.689 2.196 5.79 4.711.047.11-.096.2-.161.095-1.633-2.517-5.187-2.645-7.768-1.758-2.741.942-4.279 3.359-4.827 6.117-.6 3.023.17 6.282 1.813 8.857.763 1.197 1.804 2.29 3.187 2.73 1.643.524 3.161-.413 4.844.071 1.146.328 1.651 1.437 1.443 2.547a3.317 3.317 0 01-.44 1.147c.606 1.203 1.166 2.44 1.878 3.577 1.101 1.756 2.432 3.209 3.882 4.674 1.498 1.513 3.024 2.996 4.627 4.399 1.536 1.345 3.297 2.302 4.907 3.534 1.131.865 1.691 2.077 1.133 3.465-.46 1.147-2.011 2.124-3.266 1.605-2.404-.992-4.507-2.68-6.423-4.418a22.467 22.467 0 01-4.489-5.636c-1.102-1.975-1.914-4.217-2.599-6.376l-.085-.27c-.323-1.027-.663-2.182-.883-3.346-1.318.721-3.106.826-4.517.631-2.278-.313-4.357-1.463-5.928-3.139a14.304 14.304 0 01-1.937-2.633c.05.587.081 1.155.113 1.671a5.976 5.976 0 011.366 5.386c1.093 1.126 1.399 2.816.829 4.256 1.195 1.188 1.15 3.078.633 4.794 1.414 1.583 1.548 4.048.444 5.833l-.033.129c1.114 1.867.863 4.281-.533 5.93.953 1.853.806 4.345-1.578 5.063-.868.262-1.71.039-2.34-.449.575 2.866.833 5.775.065 8.653-.305 1.142-1.42 1.977-2.593 1.977-.981 0-1.694-.494-2.186-1.22.057 1.445-.03 2.898-.338 4.363-.185.885-1.005 1.575-1.875 1.789.314.354.439.867.138 1.401-1.276 2.262-4.358 1.324-4.567-.843-.87-.651-1.275-1.719-1.443-2.874-.244-1.684-.332-3.34-.609-5.002l-.106.099-.054.047-.018.121c-.158.821-.621 1.396-1.222 1.74.131 1.433-.11 2.893-1.018 3.981-.605.725-1.635 1.011-2.518.854a.995.995 0 01-.172-.006c-2-.266-3.157-2.166-2.63-3.91-.806-.988-1.145-2.242-.907-3.482-1.558-1.033-1.527-3.303-.987-5.127-1.633-1.291-2.248-3.705-1.427-5.623-1.473-1.832-1.677-4.384-.677-6.469-1.62-1.333-1.61-3.906-.004-5.269-.856-1.701-1.372-3.74-.517-5.296a3.467 3.467 0 01-.864-2.536c.102-1.348.993-2.28 2.099-2.901l.076-.422c.26.032.536-.04.78-.275a4.17 4.17 0 01.747-.573.965.965 0 00.717-.334c.482-.163 1-.236 1.574-.242 1.241-.014 1.285-1.872.13-1.993a.997.997 0 00-.706-.3l-.213.001c-.499.005-1.002.036-1.465.234a1.65 1.65 0 00-.702.56c-.032.36-.227.718-.65 1.014a1.566 1.566 0 01-1.677.072c-.73-.433-.738-1.108-.654-1.843.184-1.606-.738-3.118-.518-4.762.097-.727.339-1.354.733-1.861-.831-1.245-.978-2.853-.338-4.219-1.332-1.436-1.563-3.649-.713-5.376.012-.042.022-.085.035-.126.096-.294.228-.559.374-.812a4.137 4.137 0 01.018-4.17c-1.148-1.341-1.185-3.475-.164-4.919.006-.12.019-.24.029-.359-.469-1.219-.356-2.604.238-3.737a7.348 7.348 0 01-.48-1.579c-.268-1.448-.13-2.855.27-4.268.065-.223.138-.446.215-.669.013-.968.05-1.931.098-2.893-.19-.814-.22-1.708-.225-2.539v-.538c-.01-1.37-.106-3.377.76-4.542-.556-1.259-.328-2.844.6-3.842-.651-1.12-.788-2.497-.134-3.74.105-.201.227-.387.36-.564a6.576 6.576 0 01.792-3.445c.394-.737.982-1.375 1.68-1.886a4.806 4.806 0 01-.016-.45c.013-.663.16-1.328.406-1.95-.443-.757-.649-1.612-.39-2.532.29-1.042 1.054-1.94 2.007-2.445.076-.983.23-1.96.449-2.923-.586-1.306-.12-3.03 1.204-3.798-.173-1.044-.017-2.126.741-2.941.288-.309.626-.543.99-.698-.175-1.05.023-2.141.748-2.996a3.441 3.441 0 012.361-1.184c.343-1.825 2.084-3.19 3.921-3.08.23-.804.778-1.505 1.629-1.86.218-.091.438-.15.657-.184 1.494-1.51 3.718-2.532 5.643-3.056 1.931-.523 3.888-.574 5.546.035l.121.045.135-.017a20.692 20.692 0 011.756-.118zM104.82 148.061c-.516-.161-1.091.19-1.231.699-.147.538.181 1.072.699 1.233.645.201 1.323.252 1.995.252.54.001 1-.461 1-1.002 0-.543-.458-1.001-1-1.002-.547 0-.951-.02-1.463-.18zm-4.588-10.641c-.77.001-1.432.185-2.004.726-.381.361-.39 1.059 0 1.418.395.362.967.383 1.372.038l.078-.07a.365.365 0 00.023-.021 1.4 1.4 0 01.1-.061l-.066.043c-.05.036.066-.023.13-.05l.02-.009.007-.001.052-.004c.096-.005.192-.005.288-.005.523 0 1.025-.46 1.001-1.002-.025-.542-.44-1.002-1.001-1.002zm14.551-6.357c1.083-.665.116-2.366-.97-1.753l-.04.023c-.556.342-1.241.296-1.872.296-1.287.001-1.29 2.005 0 2.004l.213-.001c.925-.007 1.86-.072 2.669-.569zm-8.522-7.314c-.819-.154-1.735-.292-2.596-.198l-.143.018h-.265c-.23 0-.453.093-.631.239a2.867 2.867 0 00-.796.487c-.975.847.445 2.259 1.415 1.418a.727.727 0 01.185-.117l.054-.023h1.07c.097 0 .192-.02.284-.049.348.047.671.116.891.158 1.258.237 1.797-1.694.532-1.933zm-.914-19.232c-1.568-.729-3.305-.723-4.755.288-1.037.723-.074 2.429.972 1.756l.037-.026c.13-.09.264-.166.399-.235.736.213 1.477.223 2.189-.039l.093-.036.055.022c1.161.539 2.178-1.188 1.01-1.73zm17.077-3.14c-1.585-.178-1.597-2.684 0-2.505 3.371.379 6.431 1.88 8.671 4.458 1.043 1.199-.674 2.953-1.735 1.808l-.033-.037c-1.782-2.05-4.186-3.419-6.903-3.724zm-17.748-12.868a6.687 6.687 0 00-1.049-.041c-.831.04-1.843.595-1.478 1.598.292.803 1.25.835 1.724.407.196.004.393.017.589.037.522.054 1.04.154 1.555.256 1.258.247 1.796-1.684.532-1.933l-.559-.11a27.318 27.318 0 00-.57-.107.986.986 0 00-.368-.105l-.066-.002h-.31zm-9.94-15.547l-.118-.016c-1.69-.216-4.401-.017-4.606 2.137-.114 1.193 1.607 1.267 1.947.248a13.012 13.012 0 013.744-.132c.473-.48.477-1.406-.31-1.636-.111-.3-.343-.556-.657-.6zm38.618-3.638c-.391-.359-1.031-.406-1.415 0a3.352 3.352 0 00-.553.78l-.097.193-.051.096c-.033.058-.07.114-.105.17l-.024.024-.035.036c-.36.38-.405 1.044 0 1.417.391.359 1.031.406 1.415 0 .221-.234.406-.494.553-.78l.097-.193c.016-.032.033-.064.051-.095.033-.06.07-.115.105-.171l.04-.04.019-.02c.36-.38.405-1.044 0-1.417zm-20.516-2.61c-1.409-1-3.086-1.046-4.381.157-.936.87.438 2.261 1.381 1.447l.033-.03c.035-.032.069-.06.104-.086a.96.96 0 00.629.236h.193l.096.004.051.005h.007l.045.02c.082.037.196.094.04-.003.035.018.067.04.1.06l.058.053c.377.357 1.029.404 1.404.01.663-.225 1.015-1.323.24-1.872zm13.782-3.282l.025-.008c1.236-.353.711-2.287-.532-1.932-1.318.377-1.947 1.605-2.211 2.864-.111.53.155 1.083.699 1.233.497.136 1.119-.168 1.231-.7.078-.374.168-.692.311-.986l.086-.169c.041-.076.055-.089.191-.208a.94.94 0 01.2-.094zM105.684 53.34l-.193-.044c-1.204-.264-2.802-.402-3.53.793-.662 1.09 1.01 2.08 1.698 1.051l.037.001.023.003.308-.026c.385-.002.752.066 1.125.154 1.252.297 1.787-1.635.532-1.932zm43.228-7.704c.912-.913-.503-2.33-1.415-1.417-.721.723-1.416 1.45-1.885 2.367-.246.482-.125 1.087.359 1.371.447.262 1.122.124 1.369-.36.406-.794.919-1.306 1.572-1.96zm-11.503-2.396c-.901.534-1.484 1.413-1.838 2.432-.178.51.202 1.096.699 1.232.533.147 1.021-.166 1.213-.652l.017-.048c.095-.272.247-.594.434-.837.16-.207.409-.414.597-.483.451-.166.77-.575.728-1.053-.741.257-1.43-.052-1.85-.591zm-26.961-4.359c-.909-.845-2.128-.957-3.229-.445-.491.227-.614.935-.359 1.37.294.504.876.589 1.368.36-.126.059.102-.019.201-.047.012.006.177-.002.234 0l.069.003h-.051c.048.01.096.023.143.038l.059.02c-.03-.005.105.083.143.112l.007.006c.943.876 2.361-.538 1.415-1.417z" fill="#000"/><path fill-rule="evenodd" clip-rule="evenodd" d="M170.344 113.849c1.402-2.305 4.391 3.341 4.708 4.312.282.86.467 1.741.562 2.633a8.166 8.166 0 003.329.03c1.656-.317 2.667-1.207 4.106-1.97.994-.528 2.246.091 2.763.966.608 1.03.221 2.099-.579 2.867-1.516 1.457-4.499 1.791-6.478 1.404a8.358 8.358 0 01-3.091-1.264c-.006.116-.01.231-.019.346l-.017.2c-.153 1.615-.597 3.646-1.852 4.697-2.059 1.724-4.6-1.592-2.599-3.314l.062-.052c1.243-1.004 1.515-3.698 1.448-5.182a10.727 10.727 0 00-.527-2.871l-.063-.184c-.092-.261-1.096-2.732-1.459-2.418l-.017.018c-.15.179-.392-.029-.277-.218zm11.195-13.007c1.892 1.15 4.776 3.831 2.74 6.681-2.396 2.514-5.847-.368-7.547-1.671-1.577-1.01-3.349 1.587-1.886 2.767 12.287 9.091 17.274-7.476 7.65-9.129-1.06-.182-1.453.996-.957 1.352zm-20.21-10.627c1.849-.328 3.744.131 5.275 1.213l.116.083c1.474 1.078 3.124 2.97 2.278 4.829-.34.746-1.357.863-2.002.524-1.075-.563-1.269-1.948-2.228-2.715-.786-.628-1.845-1.01-2.857-.918-2.379.216-3.843 2.561-4.581 4.582-.095.258-.475.359-.623.081-1.742-3.254 1.342-7.098 4.622-7.68zm29.627-1.228c3.544-.292 7.691 3.379 6.758 7.117-.447 1.793-3.109 1.742-3.582 0-.261-.959-.235-1.807-.925-2.603-.57-.657-1.38-1.04-2.251-.98-.959.064-1.844.543-2.516 1.217-.608.608-.971 1.498-1.6 2.036-.155.132-.362.141-.515 0-1.083-.997-.433-3.075.254-4.116.982-1.49 2.582-2.523 4.377-2.671zm-36.375-5.402c2.273-2.01 6.403-3.953 9.468-2.963 1.763.569 2.531 3.407.564 4.306-2.278 1.042-4.905.618-7.223 1.698-.974.453-1.89 1.02-2.568 1.852-.534.655-1.077 1.517-1.85 1.895-.203.1-.478.102-.641-.083-1.693-1.914.772-5.397 2.25-6.705zm32.469-3.063c1.404-.394 2.963-.386 4.39-.138 1.427.247 2.875.838 4.04 1.7l.135.101c1.272.958 2.789 2.35 2.708 4.047-.068 1.417-1.559 2.375-2.847 1.632-1.049-.605-1.543-1.818-2.431-2.626a8.367 8.367 0 00-2.514-1.56 8.64 8.64 0 00-3.138-.619c-.843-.014-1.692.263-2.519.351.068.14-.586.075-.961-.05-.278-.117-.279-.468-.183-.696.477-1.128 2.215-1.832 3.32-2.142z" fill="#000"/><defs><clipPath id="clip0_1_705"><path fill="#fff" transform="translate(0 289)" d="M0 0h294v33H0z"/></clipPath></defs></svg>