<svg width="296" height="321" fill="none" xmlns="http://www.w3.org/2000/svg"><g clip-path="url(#clip0_1_809)"><path d="M147.892 321c81.126 0 146.891-7.343 146.891-16.401s-65.765-16.401-146.891-16.401C66.766 288.198 1 295.541 1 304.599S66.766 321 147.892 321z" fill="#F7859C"/></g><path fill-rule="evenodd" clip-rule="evenodd" d="M222.526 186.359c-3.415-16.203-15.526-28.775-31.814-35.039-3.131-1.773-6.166-9.383-10.374-10.777-.675-.223.39 1.555 0 1.661-1.392.379-2.951.418-4.488-.949-2.746-2.444-3.607-9.585-5.277-12.813-8.805-17.022-30.79-10.361-33.735 8.456-2.054 1.34-4.957 2.521-7.193 3.601-2.302 1.113-4.326 3.807-6.699 4.77-2.116.86-5.604.251-7.737 1-9.81 3.446-18.118 7.795-24.632 16.605-1.373 1.858-2.92 4.143-4.169 6.02-6.44 7.424-10.912 15.745-15.031 24.672-11.525 26.203-14.66 55.215-17.473 83.447.064 4.94-3.209 18.638 1.632 21.006-.29.3-.184.904.352.898 12.275-.124 24.521.976 36.606 3.115 5.83 1.032 11.629 2.448 17.568 2.68 12.328-.085 24.612-2.154 36.925-.196 14.801 0 32.789-.432 49.255-1.066 15.389-.593 30.86.746 46.059-1.875 1.203-.191 1.79-1.66 1.538-2.714-1.783-6.506-2.658-13.204-3.659-19.864.2-4.271-.157-8.731-1.735-12.71-4.123-26.86-9.409-53.545-15.919-79.928z" fill="#FFDBB4"/><path fill-rule="evenodd" clip-rule="evenodd" d="M180.338 142.303c.39-.106-.675-1.884 0-1.661 4.208 1.394 7.243 9.004 10.374 10.777 16.288 6.264 28.399 18.836 31.814 35.039 6.51 26.383 11.796 53.068 15.919 79.928 1.578 3.979 1.935 8.439 1.735 12.71l.157 1.052c.939 6.313 1.813 12.648 3.502 18.813.253 1.053-.335 2.522-1.538 2.713-15.026 2.591-30.319 1.312-45.535 1.855l-3.171.12c-15.729.579-32.597.966-46.608.966-12.312-1.958-24.596.111-36.925.196-5.939-.232-11.738-1.648-17.568-2.68-12.085-2.139-24.33-3.239-36.605-3.115-.537.006-.642-.598-.353-.898-4.84-2.368-1.568-16.066-1.632-21.006l.255-2.542c2.754-27.428 6.038-55.488 17.218-80.905l.335-.723c4.027-8.654 8.43-16.726 14.696-23.949l.383-.575c1.174-1.755 2.55-3.772 3.786-5.445 6.514-8.81 14.822-13.159 24.632-16.605 2.133-.749 5.621-.14 7.737-1 2.219-.901 4.134-3.316 6.256-4.535v9.092l30.704 30.29 17.414-26.742 1.771-10.952a6.248 6.248 0 001.247-.218z" fill="#8FA7DF"/><path fill-rule="evenodd" clip-rule="evenodd" d="M217.56 221.665a26.966 26.966 0 01-1.385 4.654c-.583 1.444-1.462 2.737-2.066 4.164a1.038 1.038 0 01-.375.448l.05.388.046.388c.302 2.619.641 5.23.935 7.849l.143 1.309c.578 5.467 1.491 10.908 2.199 16.36.694 5.339 1.4 10.678 2.155 16.01.78 5.497 1.575 10.986 2.502 16.461.392 2.312.801 4.622 1.226 6.93l.329 1.767c3.386.816 4.311 5.541.864 7.286-1.565.788-3.575.598-4.864-.641-1.34-1.291-1.396-3.62-1.706-5.369l-.3-1.625c-2.242-12.222-4.187-24.584-5.097-36.978-.233-3.2-.43-6.403-.558-9.609-.122-3.015-.064-6.03-.11-9.045l-.016-.822c-.071-3.216-.012-6.426.072-9.641.01-.392.027-.784.047-1.178a1.062 1.062 0 01-.229-.444l-.045-.202c-.11-.519.015-1.128.414-1.5.172-2.19.398-4.378.46-6.566.005-.18.263-.175.278 0 .145 1.862.435 3.73.726 5.595 1.867-1.503 3.247-3.981 4.061-6.056.059-.15.279-.096.244.067zm-44.18-87.077c.31 1.419.922 2.693 1.744 3.878.391.567.836 1.094 1.37 1.535.458.377.98.623 1.466.951.709-.111 1.45.158 1.946.68l-.078-.764c-.025-.246.384-.295.431-.057 2.152 10.871 4.115 21.749 5.814 32.699l.745 4.835.701 4.54c1.163 7.564 2.289 15.125 3.136 22.745 1.13 10.168 2.079 20.364 2.773 30.574.696 10.281 1.124 20.57 1.429 30.872.076 2.596.158 5.191.236 7.787l.526-3.104c.524-3.105 1.039-6.214 1.479-9.333 1.582-11.163 2.847-22.406 3.464-33.665.566-10.304.377-20.812-2.241-30.85a61.577 61.577 0 00-2.44-7.434c-.945-2.355-2.234-4.538-3.25-6.859-1.181-2.7-1.536-5.248-.928-8.155.532-2.533 1.464-4.915 1.631-7.522.313-4.839-1.259-9.525-3.481-13.761a74.726 74.726 0 00-1.848-3.309c-1.95-3.299-4.15-6.477-6.433-9.525-.123-.162.138-.342.271-.209 2.081 2.06 4.357 4.085 6.229 6.334a71.018 71.018 0 012.64 3.356c9.231 1.545 17.162 7.303 22.584 14.906 6.153 8.629 9.265 19.014 11.568 29.241 2.562 11.366 4.722 22.835 7.022 34.257 2.381 11.819 4.75 23.638 7.147 35.455 1.19 5.866 2.381 11.732 3.569 17.601a467.406 467.406 0 001.897 8.897c.34 1.518.704 3.033 1.019 4.556.354 1.717.024 2.816-1.137 4.077-.428.468-1.105.461-1.636.212l-.166-.078-.161-.078c-.657-.323-1.173-.659-1.582-1.379-.45-.791-.522-1.668-.676-2.547-.286-1.619-.569-3.238-.854-4.859a399.46 399.46 0 00-1.362-7.259l-2.368-12.078a6105.06 6105.06 0 00-1.899-9.66c-2.271-11.511-4.544-23.019-6.817-34.528-2.183-11.05-4.114-22.177-6.599-33.163l-.141-.619-.143-.618c-2.222-9.471-5.326-18.633-10.959-26.658-4.335-6.172-10.355-11.684-17.445-14.473.499.719.979 1.454 1.437 2.203 2.873 4.701 4.972 10.281 4.48 15.879-.241 2.735-1.28 5.423-1.181 8.18.091 2.449 1.604 4.6 2.65 6.731 2.373 4.829 4.091 9.961 5.198 15.226 2.221 10.573 2.214 21.451 1.449 32.183-.832 11.666-2.411 23.33-4.209 34.883-.923 5.925-2.151 11.802-3.091 17.717-.464 2.917-1.097 5.827-1.65 8.73l-.264 1.386c-.148.77-.301 1.537-.478 2.296l-.109.454v.082c-.005.559-.158 1.022-.404 1.392-.337 1.081-.755 2.136-1.311 3.149-.286.517-.699.808-1.149.914-.453 1.037-1.479 1.835-2.704 1.83l-16.112-.061c-9.359-.037-18.717-.099-28.076-.151a334.102 334.102 0 01-7.08-.118c-2.212-.061-4.332-.328-6.52-.603-2.47-.311-3.808-2.063-3.439-4.534.081-.545.17-1.086.253-1.629-.492.163-1.077.087-1.473-.3l-.372-.364c-.514-.51-.975-1.011-1.301-1.691-.337-.7-.611-1.439-.908-2.153a230.932 230.932 0 01-1.875-4.63c-1.217-3.099-2.435-6.211-3.567-9.343a240.678 240.678 0 01-5.949-18.863 243.677 243.677 0 01-6.702-34.617l-.335-2.784-.097-.822c-.532-4.527-.98-9.125-.768-13.643.13-2.829.568-5.679 1.624-8.32.974-2.437 2.477-4.521 3.906-6.699l.164-.252.164-.257c1.25-1.978 2.245-4.047 2.295-6.449.05-2.438-.659-4.811-1.452-7.093l-.197-.563-.133-.373c-1.687-4.717-3.607-9.367-2.974-14.5.936-7.559 5.511-13.652 11.268-18.351-5.12 1.015-10.187 3.02-14.66 5.563-5.282 3.006-10.038 6.973-14.139 11.45-7.75 8.46-13.283 18.612-17.812 29.093-4.74 10.969-8.256 22.462-10.906 34.106-2.664 11.711-4.448 23.609-5.666 35.553a504.808 504.808 0 00-1.48 17.868c-.202 3.055-.355 6.115-.591 9.166-.236 3.047-.342 6.142-1.085 9.108-.347 1.383-2.687 1.523-2.938 0-.556-3.4-.4-6.917-.245-10.36l.014-.313c.153-3.43.352-6.857.588-10.284a410.422 410.422 0 011.968-20.972c2.95-24.476 8.39-48.823 19.06-71.165 5.023-10.523 11.472-20.748 20.441-28.347a52.337 52.337 0 0114.274-8.589c4.64-1.87 9.354-2.754 14.284-2.752 2.473-1.897 5.128-3.55 7.779-4.962.16-.086.328.121.195.254-.069.067-.136.135-.204.2.3.019.61.16.888.453.974 1.022 1.796 2.301 2.531 3.629 1.12 1.4 2.187 2.846 3.305 4.23a297.41 297.41 0 005.471 6.571c3.112 3.644 6.324 7.219 9.675 10.65l.559.571c1.737 1.761 3.496 3.87 5.55 5.265l.11.073c.867.565 1.481.668 2.22-.176.672-.769 1.231-1.661 1.806-2.509l.133-.194a145.777 145.777 0 008.119-13.256 137.11 137.11 0 003.203-6.306l.303-.639c.551-1.173 1.148-2.324 1.603-3.531.106-.283.21-.567.31-.847-1.55-1.018-2.75-3.221-3.185-4.945-.453-1.792-.224-3.63.583-5.268.152-.308.664-.232.738.096zm-76.46 72.789c-.215 6.81-.345 13.627-.665 20.433l-.11 2.323c.498.557.791 1.2.557 2.082a1.12 1.12 0 01-.693.756l-.105 2.16c-.474 9.719-1.031 19.417-2.048 29.111-1.272 12.132-2.743 24.244-4.212 36.354-.209 1.715-1.4 3.075-3.252 2.823-1.875-.254-2.635-1.887-2.389-3.59.967-6.679 1.897-13.363 2.711-20.065l.928-7.635c1.163-9.544 2.353-19.087 3.725-28.6.573-3.977 1.168-7.951 1.766-11.925l-.21-.271c-.853-1.111-1.736-2.198-2.61-3.292-1.677-2.109-3.333-4.201-4.87-6.409-.077-.11.078-.273.189-.189 2.155 1.594 4.194 3.299 6.246 5.031l1.796 1.523c1.033-6.867 2.057-13.736 2.97-20.62.022-.172.28-.185.275 0zm31-65.173c-1.297 1.224-2.622 2.422-3.929 3.639l-.479.448-.476.45c-2.296 2.181-4.496 4.451-6.329 7.058-3.366 4.787-5.371 10.623-3.971 16.468 1.161 4.841 3.825 9.229 4.541 14.191.359 2.486.185 4.985-.75 7.333-.955 2.395-2.48 4.447-3.85 6.608-2.977 4.696-3.383 9.85-3.088 15.29.31 5.682.962 11.366 1.767 16.996a239.899 239.899 0 007.333 33.752c1.627 5.536 3.548 10.954 5.46 16.394.952 2.708 2.061 5.352 3.205 7.983a259.12 259.12 0 001.848 4.136c-.232-1.941-.232-3.934-.345-5.863-.162-2.765-.369-5.524-.558-8.286-.386-5.605-.731-11.215-1.038-16.826-1.09-20.006-1.892-40.029-1.833-60.068.029-10.02.234-20.041.664-30.051.202-4.714.593-9.424.946-14.132l.075-1.008c.313-4.226.687-8.461 1.328-12.65a9.306 9.306 0 01-.477-1.31l-.044-.168.032.005a1.432 1.432 0 01-.032-.389zm11.214-17.217c.027-.116.191-.106.221 0 .731 2.463.472 5.174-.157 7.652a22.3 22.3 0 01-1.405 3.903l-.204.44c-.5 1.07-1.062 2.172-2.035 2.839-.406.279-1.132.296-1.538 0l-.207-.157a3.961 3.961 0 01-.1-.082c-.379-.318-.566-1.02-.391-1.483.45-1.195 1.471-2.072 2.177-3.136a20.418 20.418 0 001.638-2.982c.992-2.244 1.437-4.627 2.001-6.994z" fill="#000"/><path fill-rule="evenodd" clip-rule="evenodd" d="M134.73 31.756l2.12 2.53a67.777 67.777 0 00-3.325 2.504l-.001-.003c4.829-3.162 10.178-5.031 15.955-5.031 11.129 0 33.732 9.593 38.842 16.513 2.536 3.434 7.248 13.976 9.693 25.437 1.964 9.21 4.885 35.226 1.964 45.002-3.739 12.511-16.039 24.075-28.721 24.075-12.683 0-32.373-9.189-46.387-29.327-.641-.921-8-1.988-13.249-5.444l1.378 15.238 1.048 8.864-.231.631c-3.76 10.205-6.739 15.528-8.938 15.971-2.244.452-6.814-3.239-13.709-11.074l-.881-3.711c-2.238-9.467-3.357-14.549-3.357-15.245l.002-.127c.033-1.603.583-10.672.594-13.112v-36.58c7.416-24.74 14.492-37.111 21.23-37.111h25.973z" fill="#FFDBB4"/><path fill-rule="evenodd" clip-rule="evenodd" d="M117.158 23.33c2.181-.848 4.707-.688 6.776.588 4.064-.174 8.105 2.21 10.223 5.692.044.05.091.098.133.148l.449.525c.425.501.873 1.054 1.229 1.625-1.741.04-3.19.752-4.202 2.19-.722 1.025.932 2 1.67 1.03l.026-.036c.607-.863 1.525-1.197 2.546-1.215a.915.915 0 00.672-.283c.063.228.119.46.17.692 5.141-2.007 10.684-2.538 16.204-2.062a6.555 6.555 0 00-.6 1.257c-.177.502.2 1.078.686 1.212.525.145 1-.164 1.19-.641l.018-.047a3.536 3.536 0 011.023-1.522c2.599.354 5.179.916 7.696 1.64a83.899 83.899 0 018.953 3.155 2.306 2.306 0 00-1.225 1.077c-.6 1.1 1.048 2.085 1.673 1.034l.023-.04a.904.904 0 01.155-.219l.014-.013.087-.04.161-.046.061-.015c.055-.012.078-.012.221-.02.191-.01.382-.01.574-.01a.89.89 0 00.866-.573 94.247 94.247 0 014.277 2.067l.333.174c4.33 2.27 8.431 5.25 10.81 9.637.158.294.207.614.167.92.508.61.999 1.241 1.471 1.882 1.438 1.96 2.492 4.19 3.488 6.4 2.006 4.445 3.356 9.01 4.41 13.771 1.019 4.588 1.841 9.225 2.605 13.862.846 5.151 1.551 10.348 1.698 15.573.261 9.316-1.554 18.686-6.766 26.528-4.649 6.998-11.651 12.554-19.954 14.333-8.445 1.808-17.382.044-24.037-5.603-1.073-.909-.926-2.745 0-3.676 1.048-1.05 2.595-.904 3.663 0 6.267 5.319 15.39 6.14 22.942 3.429 6.982-2.508 12.452-8.293 15.808-14.79 4.095-7.924 4.785-17.025 4.156-25.791-.344-4.815-1.058-9.59-1.795-14.357l-.444-2.87c-.485-3.108-.995-6.212-1.659-9.29l-.156-.716c-.812-3.71-1.764-7.516-3.235-11.004-.771-1.83-1.699-3.594-2.649-5.336-.184-.338-.373-.68-.567-1.025-.26.091-.557.106-.869.007-2.683-.837-5.44-1.4-8.246-1.586a36.191 36.191 0 00-3.838-.05c-2.189-.127-4.439.066-6.524.74a46.373 46.373 0 00-.618-.52 1.44 1.44 0 01-.168-.022c-.532-.105-.906-.484-1.131-.963l-.032-.076a44.463 44.463 0 00-.808-.605c-.662.172-1.242-.38-1.398-.987-.147-.1-.297-.196-.446-.294a2.103 2.103 0 01-.345.06c-.487.036-.958-.039-1.39-.272-.547-.296-.896-.772-1.13-1.313-.826.05-1.663-.219-2.402-.705-.6-.395-1.06-.94-1.517-1.485a51.272 51.272 0 00-17.686-4.34 24.26 24.26 0 00-1.777.412 6.408 6.408 0 00-.562.201c1.353-.164 2.723-.18 4.112.02 6.592.958 11.727 5.911 16.146 10.587 1.052-.213 2.114 1.153 1.141 2.058l-7.585 7.054c.186.79-.715 1.567-1.505 1.377-1.324-.319-2.651-.63-3.978-.935-1.385.673-3.126.558-4.382-.417-.058-.045-.185-.118-.295-.19-.103.086-.242.172-.297.208-.447.297-.991.384-1.513.3-.536-.085-1.021-.358-1.438-.698-.266-.217-.886-1.122-1.23-1.188l-.034-.004c.23.007-.509.696-.708.839-.463.332-.976.506-1.552.443-1.006-.111-1.87-1.03-2.361-1.88l-.037-.065-.016-.04-.013.044-.008.025c-.074.2-.305.427-.462.567-.448.397-1.003.572-1.595.468-.501-.087-.922-.391-1.261-.759l-.053-.059c-.1-.113-.76-1.003-.656-1.217l.012-.018-.033-.007c-.402.1-.739 0-.986-.208-1.378-.303-2.738-.656-4.055-1.105-.103.291-.204.582-.302.875.719.446 1.384 1.082 1.996 1.535 1.159.857 2.317 1.715 3.474 2.575l4.581 3.392.524-.142c.669-.18 1.244.211 1.49.809l.02.052c.097.262.215.504.353.736 1.145-.046 2.115.66 2.428 1.672.283-.007.569.004.861.036.8.088 1.339.685 1.194 1.504l-.011.056-.019.09c.464.198.8.58.875 1.157.124.188.224.392.288.619.335 1.178-.316 2.635-.663 3.765l-.027.088c-.222.742-.453 1.48-.686 2.219l-.58 1.833c-1.61 5.108-3.179 10.493-1.876 15.849.277 1.133-1.166 1.645-1.793.758-1.517-2.147-3.157-4.17-4.879-6.113l-.083-.013c-1.206-.244-1.674-1.098-2.227-1.97a2.156 2.156 0 01-1.016.054c-.49-.095-.93-.376-1.277-.731-.293-.301-.563-1.073-.91-1.265-.435-.239-1.308.103-1.827.026a4.198 4.198 0 01-1.198-.39c-.703.961-1.169 2.09-1.283 3.309a2.729 2.729 0 01-.381 1.18 9.906 9.906 0 012.19.16c2.681.5 4.604 2.161 5.684 4.635.046.108-.094.197-.158.093-1.602-2.476-5.091-2.601-7.625-1.73-2.691.927-4.2 3.305-4.738 6.017-.589 2.974.167 6.18 1.78 8.713.749 1.177 1.77 2.252 3.128 2.685 1.613.515 3.103-.406 4.755.069 1.124.323 1.62 1.414 1.416 2.506-.081.429-.23.803-.432 1.128.595 1.183 1.144 2.4 1.844 3.519 1.08 1.727 2.387 3.156 3.81 4.597 1.471 1.488 2.968 2.947 4.542 4.327 1.508 1.323 3.236 2.264 4.817 3.476 1.11.85 1.659 2.043 1.112 3.408-.452 1.128-1.974 2.089-3.206 1.579-2.36-.976-4.424-2.636-6.305-4.346a22.116 22.116 0 01-4.407-5.544c-1.081-1.942-1.878-4.147-2.55-6.271l-.084-.265c-.316-1.011-.65-2.146-.866-3.292-1.294.709-3.05.813-4.434.621-2.237-.308-4.277-1.439-5.819-3.087a14.161 14.161 0 01-1.902-2.591c.05.578.08 1.136.112 1.644a5.886 5.886 0 011.341 5.297c1.072 1.108 1.373 2.771.813 4.187 1.174 1.168 1.129 3.027.622 4.716 1.387 1.556 1.519 3.981.435 5.737l-.032.126c1.094 1.837.847 4.211-.524 5.834.936 1.822.792 4.273-1.548 4.98-.852.257-1.679.038-2.297-.442.564 2.819.817 5.68.064 8.511-.3 1.124-1.395 1.944-2.546 1.944-.962 0-1.662-.485-2.145-1.2.056 1.422-.03 2.851-.332 4.292-.182.871-.986 1.55-1.841 1.76.309.348.431.853.136 1.378-1.252 2.225-4.278 1.302-4.483-.83-.854-.64-1.252-1.691-1.416-2.826-.24-1.657-.326-3.285-.598-4.92l-.104.097-.053.046-.018.119c-.155.808-.61 1.374-1.199 1.711.128 1.41-.109 2.846-1 3.916-.594.714-1.605.995-2.472.84a.868.868 0 01-.168-.005c-1.963-.262-3.1-2.131-2.582-3.846-.79-.972-1.124-2.206-.89-3.425-1.53-1.017-1.498-3.249-.969-5.043-1.603-1.27-2.206-3.644-1.4-5.531-1.446-1.802-1.647-4.312-.665-6.363-1.59-1.311-1.58-3.842-.004-5.183-.84-1.673-1.346-3.678-.507-5.209a3.413 3.413 0 01-.849-2.494c.1-1.327.975-2.243 2.06-2.854l.076-.415a.912.912 0 00.765-.27c.237-.228.481-.413.733-.564a.949.949 0 00.704-.328c.473-.161.982-.232 1.545-.239 1.218-.013 1.261-1.841.128-1.959a.974.974 0 00-.693-.296l-.21.001c-.489.005-.983.035-1.437.23a1.617 1.617 0 00-.69.552c-.03.353-.222.705-.637.996a1.533 1.533 0 01-1.646.071c-.718-.425-.725-1.09-.642-1.812.18-1.58-.725-3.068-.51-4.684.096-.715.334-1.332.72-1.831-.815-1.225-.959-2.806-.331-4.15-1.308-1.412-1.534-3.589-.7-5.288.012-.041.021-.083.034-.124.094-.289.224-.55.367-.798a4.076 4.076 0 01.018-4.102c-1.127-1.319-1.163-3.417-.16-4.838.005-.118.017-.236.028-.353-.46-1.199-.35-2.562.233-3.676a7.24 7.24 0 01-.47-1.553c-.264-1.424-.129-2.809.264-4.198.064-.22.135-.439.211-.658.013-.952.049-1.9.097-2.846-.187-.8-.217-1.68-.221-2.497l-.001-.53c-.01-1.348-.103-3.321.746-4.467-.545-1.238-.321-2.798.589-3.779-.639-1.102-.773-2.456-.13-3.68.102-.196.222-.38.353-.553a6.478 6.478 0 01.777-3.389c.386-.725.963-1.352 1.65-1.855a4.748 4.748 0 01-.017-.443 5.508 5.508 0 01.399-1.917c-.435-.745-.637-1.586-.383-2.492.285-1.024 1.034-1.907 1.97-2.404.075-.967.225-1.927.44-2.875-.574-1.285-.117-2.98 1.182-3.736-.17-1.027-.017-2.091.728-2.893a2.86 2.86 0 01.972-.687c-.172-1.032.022-2.105.733-2.946a3.375 3.375 0 012.318-1.164c.337-1.796 2.046-3.138 3.849-3.03.225-.791.764-1.48 1.599-1.83.214-.09.43-.148.645-.18 1.466-1.485 3.649-2.491 5.539-3.006 1.895-.515 3.817-.565 5.444.034l.118.045.133-.018a20.245 20.245 0 011.723-.115zm-14.403 121.648c-.506-.159-1.071.187-1.208.688-.145.529.178 1.053.686 1.212.633.198 1.298.248 1.958.248a.999.999 0 00.982-.985.998.998 0 00-.982-.986c-.537 0-.933-.02-1.436-.177zm-4.503-10.466c-.757 0-1.406.182-1.968.714-.374.355-.383 1.041 0 1.394a1 1 0 001.347.038l.077-.069.022-.021a.99.99 0 01.098-.059l-.064.042c-.049.035.064-.023.128-.05l.02-.008.006-.002.05-.004c.095-.005.19-.004.284-.004.513-.001 1.005-.453.982-.986-.024-.534-.432-.986-.982-.985zm14.282-6.253c1.063-.654.114-2.327-.952-1.725l-.039.023c-.546.336-1.218.291-1.837.291-1.264.001-1.266 1.972 0 1.971l.209-.001c.907-.007 1.825-.07 2.619-.559zm-8.365-7.194c-.803-.152-1.703-.287-2.548-.195l-.14.018h-.26a.993.993 0 00-.62.234 2.85 2.85 0 00-.781.48c-.957.832.437 2.222 1.388 1.394a.757.757 0 01.183-.115l.052-.022h1.051a.92.92 0 00.279-.049c.341.047.659.115.874.155 1.235.234 1.764-1.666.522-1.9zm-.897-18.918c-1.539-.716-3.244-.711-4.668.284-1.017.712-.072 2.389.955 1.727l.037-.025a3.36 3.36 0 01.39-.232c.724.21 1.451.22 2.15-.038l.091-.035.054.021c1.139.53 2.138-1.168.991-1.702zm16.762-3.088c-1.555-.175-1.567-2.64 0-2.464 3.31.373 6.313 1.85 8.512 4.385 1.023 1.18-.661 2.905-1.704 1.778l-.032-.036c-1.749-2.016-4.109-3.363-6.776-3.663zm-17.42-12.657a6.546 6.546 0 00-1.03-.04c-.816.039-1.81.585-1.451 1.571.287.79 1.227.822 1.692.4.193.005.386.018.578.038a16.81 16.81 0 011.527.25c1.234.245 1.763-1.655.522-1.9l-.549-.109a25.66 25.66 0 00-.559-.104.968.968 0 00-.361-.104l-.065-.002h-.304zM92.856 71.11l-.115-.016c-1.658-.212-4.32-.017-4.522 2.102-.111 1.173 1.578 1.247 1.912.244a12.749 12.749 0 013.675-.13c.464-.473.468-1.382-.305-1.61-.109-.293-.336-.545-.645-.59zm37.907-3.578c-.383-.353-1.012-.4-1.389 0-.217.23-.399.486-.542.767l-.096.19a3.24 3.24 0 01-.05.094c-.032.057-.068.112-.103.168l-.024.023-.033.035c-.354.375-.399 1.027 0 1.394.383.353 1.011.4 1.388 0 .217-.23.399-.486.543-.767l.095-.19a3.37 3.37 0 01.05-.094c.032-.058.069-.112.103-.168l.04-.04a.36.36 0 01.018-.018c.353-.375.398-1.027 0-1.394zm-20.138-2.567c-1.383-.984-3.029-1.03-4.301.154-.917.855.431 2.224 1.357 1.423l.032-.029a1.53 1.53 0 01.102-.085.943.943 0 00.618.232l.189.001.094.003.05.005h.007l.044.02c.081.036.192.093.039-.003.034.018.066.039.099.06l.056.05c.37.352 1.011.399 1.379.01.65-.22.996-1.3.235-1.84zm13.528-3.229l.025-.007c1.214-.348.698-2.25-.522-1.901-1.294.37-1.912 1.58-2.171 2.817-.108.52.153 1.065.686 1.212.488.135 1.099-.165 1.208-.688a4.13 4.13 0 01.306-.97l.085-.165c.039-.076.053-.088.187-.206a.948.948 0 01.196-.092zm-20.55-9.926l-.189-.044c-1.182-.26-2.751-.395-3.465.78-.65 1.072.991 2.047 1.667 1.034l.035.001.023.003.303-.025c.377-.003.738.064 1.104.151 1.229.292 1.754-1.608.522-1.9zm42.432-7.578c.895-.898-.494-2.292-1.389-1.393-.708.71-1.39 1.425-1.85 2.328-.242.473-.124 1.069.352 1.348.439.258 1.101.122 1.344-.353.398-.783.902-1.286 1.543-1.93zm-11.292-2.357c-.884.525-1.456 1.39-1.803 2.392-.175.503.198 1.078.685 1.212.524.145 1.003-.163 1.191-.641l.017-.047c.093-.268.242-.584.426-.823.157-.204.401-.408.586-.476.442-.163.756-.565.715-1.035-.728.252-1.404-.052-1.817-.582zm-26.464-4.287c-.892-.831-2.089-.941-3.17-.438-.481.223-.602.92-.352 1.348.289.496.86.578 1.343.354-.124.057.1-.019.197-.047.012.006.174-.001.23 0l.068.004-.05-.001c.047.01.094.023.14.038l.058.02c-.029-.006.104.08.14.11l.007.005c.926.862 2.318-.528 1.389-1.393z" fill="#000"/><path fill-rule="evenodd" clip-rule="evenodd" d="M177.108 117.501c.378-.657 1.247-1.266 2.042-1.173 3.562.418 3.556 4.743 2.18 7.268-1.219 2.239-3.743 3.554-6.269 3.362-2.654-.202-4.915-1.765-5.91-4.251-.659-1.645-.963-4.681.788-5.786.033-.021.086-.015.112.014.839.978.872 2.447 1.607 3.535.684 1.013 1.746 1.849 2.989 1.978.929.097 1.869-.239 2.233-1.074.196-.452.174-.697.1-1.008l-.067-.27c-.233-.947-.337-1.667.195-2.595zm.953-18.968c1.857 1.13 4.688 3.768 2.689 6.572-2.352 2.472-5.739-.363-7.408-1.645-1.548-.993-3.287 1.562-1.851 2.722 12.061 8.943 16.956-7.353 7.509-8.979-1.04-.179-1.426.98-.939 1.33zm-19.619-7.755c1.141-1.713 3.743-1.46 4.372.572.34 1.102-.13 2.092-.106 3.191.021.93-.04 1.965-.325 2.865-.648 2.051-2.491 3.501-4.671 3.441-2.173-.06-4.086-1.438-4.996-3.377-.914-1.948-.72-3.963-.054-5.943.032-.095.157-.14.232-.06.788.838 1.365 1.723 1.962 2.663l.612.962c.467.725 1.147 1.651 2.02 1.593l.131-.013c.242-.02.205.028.392-.304.087-.153.071-.438.113-.619l.014-.06-.008-.034a4.167 4.167 0 01-.051-.539l-.003-.063c-.064-1.34-.442-3.06.366-4.275zm28.906 1.14c-.205-2.19 2.871-2.677 3.894-1.056.533.846.689 1.908.807 2.914l.055.478c.121 1.034.169 2.109-.279 3.073-.706 1.518-2.24 2.321-3.895 2.194a4.739 4.739 0 01-3.783-2.433c-.678-1.243-1.352-3.67-.529-4.967a.14.14 0 01.217-.028c.778.691.905 1.953 1.367 2.854.478.93 1.201 1.835 2.298 1.976 1.049.135 1.449-.439 1.182-1.44-.345-1.293-1.205-2.173-1.334-3.564zM159.273 77.75l.503-.193c1.724-.652 4.09-1.406 5.492-.002a2.6 2.6 0 01.412 3.197c-.748 1.28-2.089 1.31-3.384 1.5a17.854 17.854 0 00-4.342 1.202c-1.545.655-2.979 1.47-4.383 2.382-1.335.866-2.665 2.282-4.263 2.549-.065.01-.139-.018-.156-.09-.363-1.564.645-3.103 1.545-4.324 1.089-1.478 2.408-2.69 3.883-3.778 1.423-1.05 3.049-1.809 4.693-2.443zm31.31 5.563l.154-.027c1.045-.174 1.993-.134 2.78.695.601.632.833 1.452.547 2.288-.265.771-.856 1.555-1.715 1.717-2.898.546-6.107.456-9.02.042-1.332-.189-2.677-.42-3.975-.786l-.597-.173c-1.083-.31-2.324-.634-3.111-1.432-.283-.287-.119-.697.219-.83 1.373-.539 3.256-.252 4.72-.294a68.35 68.35 0 005.105-.353c1.657-.172 3.26-.547 4.893-.847z" fill="#000"/><defs><clipPath id="clip0_1_809"><path fill="#fff" transform="translate(1 288)" d="M0 0h294v33H0z"/></clipPath></defs></svg>