<svg width="295" height="322" fill="none" xmlns="http://www.w3.org/2000/svg"><g clip-path="url(#clip0_1_759)"><path d="M146.892 322c81.126 0 146.891-7.343 146.891-16.401s-65.765-16.401-146.891-16.401C65.766 289.198 0 296.541 0 305.599S65.766 322 146.892 322z" fill="#F7859C"/></g><path fill-rule="evenodd" clip-rule="evenodd" d="M202.076 178.064c-2.177-.776-4.274-1.671-6.186-2.989-5.509-4.099-9.102-10.267-12.497-16.111-4.781-8.5-8.188-17.557-10.543-27.006-1.011-4.059-1.355-8.766-3.654-12.365-5.211-7.536-20.492-6.559-28.607-5.237-5.433.961-6.556 7.039-7.791 11.536-1.027 3.736-1.7 7.515-2.265 11.345-1.343.882-2.86 1.599-4.305 2.224-15.755 4.828-18.524 13.779-24.542 27.605-10.163 20.097-37.742 27.965-41.908 51.749-2.684 15.702 4.949 30.474 12.818 43.528 7.328 14.258 17.56 21.101 33.853 17.733 15.283-3.427 29.97-9.158 44.984-13.587 7.272-1.787 14.532-6.434 22.181-4.814 15.761 3.538 31.955 5.201 48.108 4.742 22.679.916 22.675-20.837 20.347-37.683-1.63-26.217-14.861-43.051-39.993-50.67z" fill="#AE5D29"/><path fill-rule="evenodd" clip-rule="evenodd" d="M203.592 215.999c1.895 1.253 3.489 3.151 4.769 5.15a493.665 493.665 0 01-15.995-1.925c.697-.444 1.4-.88 2.119-1.29 2.623-1.478 6.178-3.871 9.107-1.935zm-88.747 15.78c-.978-.383-1.357-1.874-1.739-2.729-1.196-2.681-2.287-5.407-3.423-8.115 4.312-1.228 8.505-2.591 12.972-3.246 4.803-.703 9.677-.873 14.524-.715 9.819.32 19.546 1.923 29.199 3.643 9.642 1.718 19.283 3.368 28.992 4.663 9.513 1.269 19.055 2.197 28.616 3.012 1.857.159 4.954.826 6.448-.634 1.183-1.157 1.221-3.291-.259-4.232-.922-.586-2.257-.595-3.311-.73a65.054 65.054 0 00-3.992-.373l-1.631-.102c4.365-1.644 8.925-2.541 13.657-2.291.268 1.624 1.474 3.296 2.133 4.636 1.153 2.34 2.051 4.708 2.641 7.252 1.233 5.317 1.286 10.836.938 16.259-.32 4.522-1.007 9.524-4.556 12.726-2.687 2.425-6.478 3.323-9.995 3.605-4.088.328-8.239-.022-12.293-.57-5.685-.768-11.397-1.784-16.971-3.146-10.795-2.637-21.142-6.833-30.689-12.522-4.655-2.774-9.098-5.895-13.817-8.564-4.809-2.72-9.926-4.83-15.299-6.14-6.013-1.466-12.299-2.092-18.48-1.73-1.072.063-2.621.451-3.665.043zm-6.968-2.722c.632 2.049 1.115 4.389 2.464 6.111 1.336 1.706 3.351 2.309 5.439 2.46 2.518.183 5.065.066 7.588.16 5.174.192 10.277 1.032 15.224 2.572 4.61 1.436 8.889 3.676 13.011 6.161 3.811 2.298 7.511 4.765 11.324 7.056-1.014.465-2.018.968-3.027 1.406a270.053 270.053 0 01-6.383 2.668c-4.217 1.704-8.452 3.366-12.73 4.91a302.582 302.582 0 01-26.268 8.15c-4.232 1.105-8.525 2.396-12.922 2.58-3.899.163-7.51-.939-10.655-3.256-6.522-4.805-11.71-11.741-15.905-18.583a87.77 87.77 0 01-6.466-12.751 98.056 98.056 0 01-2.478-6.795 103.178 103.178 0 01-1.391-4.687c6.67-2.034 13.418-3.87 20.324-4.889a71.278 71.278 0 0111.153-.78c1.85.02 3.7.12 5.54.311.991.102 1.978.235 2.96.399.406.067.824.167 1.242.24.64 2.19 1.284 4.377 1.956 6.557zm137.861-8.705c.36-.727.511-1.442.64-2.233.098-.603.359-1.453.131-2.236-.256-.878-.953-1.663-1.453-2.411l-1.654-2.483a2377.99 2377.99 0 01-3.3-4.972c-4.483-6.774-8.935-13.567-13.395-20.355-3.958-6.025-7.848-12.104-11.927-18.047-3.487-5.083-7.288-10.081-12.061-14.034-6.035-4.998-13.221-7.352-20.727-9.189-.82-.85-1.915-1.315-3.086-1.221-1.653-1.874-2.968-3.183-3.564-5.567-.285-1.142-.196-4.35-1.308-5.025-1.322-.803-2.012.259-2.376 1.457-1.22 4.005.18 9.39 3.4 13.402-1.357 4.687-3.156 11.348-6.365 15.103-3.437 4.02-8.19 5.272-13.318 5.354-9.779.157-19.548-3.475-27.007-9.77a51.861 51.861 0 01-6.278-6.323c-1.429-1.705-3.119-4.337-4.237-6.325 0-.775-.916-1.586 8.406-2.212 9.322-.626 10.029-13.383 10.236-15.119.169-1.41.885-3.598-.109-4.748-.422-.488-1.287-.567-1.822-.235-1.009.626-1.34 2.227-1.657 3.313-.444 1.523-1.896 10.973-4.648 12.068-1.288.512-2.765.521-4.127.616-1.683.117-3.369.203-5.045.399-.618.072-1.292.272-1.902.278-.396.004-.806-.189-1.189-.324-1.295-.457-2.588-.115-3.921.065-11.789 1.583-23.928 5.197-33.983 11.699-8.863 5.731-15.108 13.974-19.228 23.611-4.204 9.834-6.613 20.469-8.633 30.939a223.48 223.48 0 00-1.774 10.568c-.49 3.417-1.105 6.91-1.251 10.362-.059 1.365.268 2.634.77 3.881.567 1.404 1.904 1.958 3.187 2.614a43.202 43.202 0 008.849 3.347 67.897 67.897 0 014.708 10.599c-.469.929-.479 2.316-.569 3.219a75.056 75.056 0 00-.34 6.768c-.04 4.528.232 9.051.446 13.572.217 4.584.936 22.675 1.054 24.884.09 1.716-.032 4.116.873 5.64 1.39 2.341 4.82 2.263 6.41.364 39.481 8.482 113.695 5.927 143.584 1.66 3.889-.556 2.668.06 3.657-.922.742-.737 1.374-2 1.579-3.015.274-1.354-.168-2.58-.944-3.676-.816-1.153-.965-3.019-1.268-4.389-.716-3.239-1.073-17.464-1.407-19.041-.105-.491-.206-1.01-.328-1.53 5.483.519 11.196.519 16.412-1.313 2.958-1.039 5.716-2.672 7.84-5.003 2.571-2.822 4.001-6.375 4.737-10.083.949-4.782 1.15-9.736.964-14.597-.259-5.745-1.213-11.571-3.579-16.846a8.823 8.823 0 001.897-2.538z" fill="#000"/><path fill-rule="evenodd" clip-rule="evenodd" d="M153.602 27.34c14.201 0 28.89 11.024 34.096 18.06 6.019 8.134 10.767 47.185 8.54 60.435-2.228 13.251-13.292 27.693-32.5 27.693s-30.897-2.369-31.366-5.811c-.313-2.294-4.536-9.827-12.669-22.599-8.319-2.343-12.494-6.314-12.527-11.911-.032-5.597 2.196-9.414 6.687-11.45-1.601-22.09-.386-36.01 3.646-41.762 6.048-8.627 21.892-12.655 36.093-12.655z" fill="#AE5D29"/><path fill-rule="evenodd" clip-rule="evenodd" d="M146.372 24.019h.253c15.713.102 31.694 7.344 41.042 19.994l.281.385c.015.02.295.436.361.555.388.697.844 1.348 1.194 2.057.296.6.492 1.272.71 1.913l.065.19a57.646 57.646 0 011.444 4.853c.805 3.194 1.433 6.437 2.043 9.674 2.181 11.588 3.607 23.343 4.326 35.112l.142 2.367c.145 2.454.254 4.919-.021 7.366-.318 2.848-1.135 5.521-2.373 8.101-1.141 2.379-2.612 4.583-4.295 6.61-.9 1.085-1.856 2.139-3.031 2.933-.936.631-2.029 1.047-3.082 1.448-1.713 1.713-3.911 3.008-6.06 4.043-3.541 1.701-7.38 2.64-11.264 3.111a41.01 41.01 0 01-11.923-.321c-3.764-.651-7.799-2.317-10.117-5.49-.2-.273.172-.531.417-.419 6.729 3.119 14.289 3.933 21.623 2.949 3.421-.459 6.787-1.406 9.911-2.876 2.637-1.24 4.86-3.043 7.226-4.677.46-.613.925-1.217 1.456-1.778l.827-.869c.619-.653 1.226-1.315 1.778-2.029 1.706-2.202 3.119-4.699 4.053-7.327 1.814-5.115 1.323-10.667 1.003-15.998l-.028-.47a234.395 234.395 0 00-1.613-17.043 258.703 258.703 0 00-2.814-16.92c-.553-2.763-1.173-5.508-1.721-8.271-.283-1.426-.48-2.87-.695-4.311-.13-.877-.128-1.721-.13-2.578-.025.04-.055.078-.085.116a.486.486 0 01-.193.61c-.833.477-1.793.316-2.731.319a1190.441 1190.441 0 01-6.097.012l-3.11-.007-12.44-.038c-8.147-.024-16.432.3-24.553-.469l-.62-.061c-.638-.074-7.84-.956-9.788-1.184l-.059-.007c-3.559-.41-7.068-1.02-10.527-1.93 1.13.453 2.218 1.064 3.339 1.527 1.446.596 2.928 1.117 4.412 1.616 3.044 1.024 6.092 2.019 9.124 3.076.869.302 2.844 7.759 3.341 8.938l.015.034c.253.569.601 1.193.408 1.839-.425 1.428-2.679 2.485-3.797 3.291l-1.149.831-1.503 1.09c-.617.441-1.186.78-1.992.527-.003-.003-.005-.003-.008-.003.691 3.209 1.026 13.587 1.128 15.408.09 1.585.555 3.617-.185 5.062-.175.343-.63.614-1.018.586-1.691-.127-3.381-.253-5.072-.378-.453-.035-.866-.293-.991-.754l-.005-.025a.164.164 0 01-.169-.05 7.312 7.312 0 00-.286-.27c-2.226-1.99-5.707-2.48-8.453-1.446-1.441.541-3.079 1.453-4.095 2.635-1.128 1.313-1.37 3.146-1.373 4.822-.005 3.231 1.161 6.503 3.539 8.745 2.186 2.058 5.005 2.656 7.842 3.245l.304.064c.648.135.853 1.102.366 1.508 1.298 1.272 2.418 2.79 3.511 4.19 1.451 1.858 2.839 3.789 4.19 5.725l.651.936c2.323 3.32 5.685 7.893 4.223 12.043-.195.559-1.01.759-1.328.173-1.043-1.929-1.626-4.053-2.616-6.004-.973-1.914-2.184-3.687-3.384-5.461l-.693-1.028c-1.153-1.716-2.295-3.451-3.354-5.219l-.737-1.224c-.693-1.156-1.379-2.351-1.889-3.593-3.414.824-7.126-1.009-9.524-3.452-3.016-3.076-4.435-7.607-4.045-11.868.206-2.23.864-4.386 2.494-5.989.165-.16.338-.313.515-.466a.3.3 0 01-.14-.143c-1.093-2.6-1.325-5.698-1.418-8.499a79.485 79.485 0 01.185-8.69 74.947 74.947 0 012.874-15.667c2.243-7.53 6.098-14.902 12.255-19.954 6.567-5.39 15.364-7.387 23.723-7.373zm-32.686 65.86c.927-.422 2.374.329 3.199.807l.054.031c2.439 1.42 4.175 3.84 4.977 6.52.516 1.73-2.378 2.418-2.623.725-.2-1.38-.661-2.673-1.418-3.828-.18.06-.356.138-.513.238-.603.39-.953 1.062-1.791.962-.62-.073-1.255-.503-1.213-1.215.068-1.175 1.013-1.643 2.026-1.703-.144-.13-.29-.258-.44-.382l-.163-.131c-.186-.134-2.168-1.503-2.225-1.151l-.001.02c.003.14-.185.221-.28.116-.383-.41-.027-.81.411-1.01z" fill="#000"/><path fill-rule="evenodd" clip-rule="evenodd" d="M169.657 115.428a10.19 10.19 0 01-4.287-3.296c-.382-.509-.481-1.046-.401-1.538.09-.552.417-1.053.863-1.389.448-.337 1.007-.503 1.549-.419.47.074.938.331 1.308.865l.078.107a6.753 6.753 0 002.475 2.075 5.576 5.576 0 003.063.539c2.061-.233 3.482-1.347 4.992-2.86.187-.191.374-.388.563-.588a.878.878 0 01.467-.359 1.022 1.022 0 011.15.393c.116.17.182.38.16.621-.138 1.568-.958 2.967-2.123 4.066-1.294 1.22-3.009 2.064-4.624 2.36-1.779.326-3.592.093-5.233-.577zm6.072-24.187c1.893 1.15 4.777 3.831 2.741 6.682-2.397 2.513-5.848-.369-7.548-1.672-1.577-1.01-3.348 1.588-1.885 2.767 12.287 9.092 17.273-7.476 7.65-9.128-1.06-.183-1.454.996-.958 1.351zm-22.018-10.575c.209-2.595 4.162-3.184 4.555-.617.352 2.3-.062 4.412-1.099 6.482-.99 1.978-3.479 1.056-3.667-.745-.252-2.415.081-3.507.211-5.12zm30.092-1.149c.551-.721 1.347-1.214 2.3-.935 2.979.87 2.101 5.096 1.055 7.153-.568 1.117-2.406 1.4-3.236.417-1.354-1.604-2.002-4.808-.281-6.388.046-.081.098-.164.162-.247zm-26.678-10.203l.471-.082c1.456-.251 3.266-.493 4.295.676.546.62.734 1.773 0 2.367-1.291 1.044-2.719.64-4.266.728a16.987 16.987 0 00-3.729.635c-2.695.77-4.891 2.175-7.193 3.718-.302.203-.61-.183-.466-.466 1.329-2.6 3.904-4.737 6.483-6.04 1.376-.694 2.883-1.271 4.405-1.536zm23.963-1.165l.36.074c3.919.819 9.011 2.454 10.867 6.302.071.544-.004.66-.065.736l-.02.026c-.05.065-.09.155-.326.229a8.68 8.68 0 01-.198-.05c-.851-.223-1.524-.53-2.176-.848l-.706-.348c-.82-.402-1.647-.789-2.523-1.075a29.76 29.76 0 00-5.748-1.268c-.423-.05-.831-.193-1.153-.437a1.736 1.736 0 01-.645-.982c-.138-.553-.098-.972.199-1.471.223-.375.543-.635.91-.784.374-.153.8-.188 1.224-.104z" fill="#000"/><defs><clipPath id="clip0_1_759"><path fill="#fff" transform="translate(0 289)" d="M0 0h294v33H0z"/></clipPath></defs></svg>