<svg width="295" height="321" fill="none" xmlns="http://www.w3.org/2000/svg"><g clip-path="url(#clip0_1_784)"><path d="M146.892 321c81.126 0 146.891-7.343 146.891-16.401s-65.765-16.401-146.891-16.401C65.766 288.198 0 295.541 0 304.599S65.766 321 146.892 321z" fill="#F7859C"/></g><path fill-rule="evenodd" clip-rule="evenodd" d="M60.505 291.325c-.336.011-.23-.087-.107-.111l.107.111zm9.909 7.36c9.376 1.111 18.765.095 28.096-.924 18.902-1.4 37.672 2.679 56.613 1.435 23.67-.997 47.404-2.868 70.995.286 6.525.15 16.933 1.909 14.567-8.184-3.109-25.949-7.265-51.767-11.716-77.516-3.773-14.435-4.046-39.403-14.377-49.442-1.511-1.378-6.929-5.835-8.361-6.434-7.121-2.649-19.959-4.716-25.255-10.332-4.29-7.253-2.294-17.15-8.965-22.989-5.847-4.77-18.607-3.762-24.858-.18-4.931 3.195-5.704 9.401-8.777 13.99-.758 1.1-2.558 3.751-3.575 4.606-2.475 2.38-11.167 4.882-13.677 5.341-14.166 2.901-21.229 4.693-32.37 14.098-29.111 29.695-24.985 82.217-33.04 121.048-.33 4.269-2.927 10.062 1.707 12.81 3.991 1.911 8.683 1.703 12.993 2.387z" fill="#AE5D29"/><path fill-rule="evenodd" clip-rule="evenodd" d="M177.729 137.702c.034-.101.197-.118.222 0 .397 1.816 1.141 3.807 1.896 5.509a15.723 15.723 0 003.139 4.655c2.774 2.818 6.342 4.104 10.255 4.107l.094.002.057-.394.027-.197c.357-2.7 3.565-2.622 4.192-.584.318.101.636.202.951.308l.063.023c.532.202 2.332 1.097 2.662.859.727-.523 1.558.076 1.835.744.451 1.093.526 2.444.673 3.631l.02.153.022.185c10.295 2.674 16.072 12.965 19.021 22.446 1.598 5.139 2.643 10.442 3.694 15.714 1.124 5.64 2.16 11.294 3.257 16.936 2.163 11.119 4.209 22.264 5.987 33.449l.516 3.249c1.628 10.286 3.215 20.565 4.549 30.898.72 5.57 1.396 11.146 2.047 16.727l.347 2.986.171 1.495c.152 1.341.411 2.666-.252 3.92-1.438 2.72-5.792 2.7-6.039-.783-.049-.693.185-1.222.572-1.592l-.005-.058-.009-.073c-.129-.692-.163-1.424-.242-2.124-.173-1.492-.34-2.986-.511-4.481-.328-2.848-.658-5.696-1.001-8.542a1194.773 1194.773 0 00-2.201-17.299l-.77-5.695c-2.575-18.986-5.258-37.967-8.788-56.802a1546.97 1546.97 0 00-2.964-15.365c-.962-4.846-2.042-9.67-3.655-14.349-2.633-7.643-7.237-14.8-13.628-19.817.099.959.17 1.922.261 2.881.235 2.461.484 4.92.735 7.379.915 8.909 2.155 17.803 4.271 26.515 1.048 4.317 2.325 8.577 3.881 12.739a88.233 88.233 0 002.52 6.058c.908 1.964 2.498 4.063 2.594 6.251.045 1.013-1.016 1.912-1.997 1.803.459 4.031.717 8.104.991 12.125.4 5.824.718 11.659 1.184 17.478.833 10.425 1.879 20.834 2.974 31.234.217 2.062.452 4.122.686 6.182l.195 1.73c.132 1.121.331 2.464-.265 3.459a17.087 17.087 0 011.11 3.976c.268 1.71-.71 3.627-2.708 3.553a9.106 9.106 0 01-.68-.051c-1.852.428-3.699.805-5.623.818-2.455.017-4.916-.032-7.372-.05a9667.21 9667.21 0 01-14.255-.103c-17.202-.138-34.411-.131-51.61-.407l-6.881-.109c-6.309-.101-12.618-.218-18.924-.448-4.342-.157-8.684-.317-13.024-.492l-.884-.034c-3.829-.139-7.663-.211-11.45-.797-.095-.016-.136-.114-.121-.201l.005-.023-.165-.037c-.096.414-2.094-1.325-2.079-2.481-.828-1.077-.441-2.796-.353-4.043.087-1.215.195-2.432.291-3.647.205-2.594.38-5.191.59-7.785.846-10.462 1.575-20.95 2.049-31.434.24-5.285.431-10.572.634-15.857.09-2.406.217-4.814.454-7.21l.06-.598c.26-2.429.235-5.041 1.13-7.33a.035.035 0 01.067 0c.905 2.228.991 4.817 1.174 7.261.032-.01.064-.015.098-.022 1.25-.594 2.513-1.128 3.697-1.863.16-.098.315-.202.473-.303 1.862-5.691 4.019-11.289 6.004-16.943 6.414-18.284 9.955-37.756 10.739-57.117-4.892 3.151-10.22 5.603-15.4 8.236l-.485.247c-5.102 2.607-9.987 5.566-13.619 10.087-3.166 3.937-5.235 8.734-7.17 13.359-2.079 4.969-3.953 10.028-5.667 15.133-3.477 10.358-6.17 20.969-8.27 31.689-2.074 10.58-3.556 21.238-4.547 31.971a762.41 762.41 0 00-1.354 16.441 669.645 669.645 0 00-.535 8.338c-.079 1.35-.138 2.703-.227 4.053-.054.778-.064 1.581-.32 2.321-.215.615-.595 1.131-.95 1.675-.648.993-2.285 1.173-2.895 0l-.263-.508c-.35-.676-.668-1.357-.715-2.138-.045-.739.046-1.51.088-2.252.082-1.5.175-3.003.27-4.504.196-3.156.416-6.312.662-9.466a395.214 395.214 0 011.916-18.905c2.794-22.083 6.828-44.051 14.526-65.008 1.904-5.181 4.027-10.321 6.424-15.295 2.318-4.81 5.25-9.351 9.506-12.662 3.917-3.049 8.471-5.089 12.996-7.07l.566-.248c5.072-2.215 10.134-4.6 15.431-6.245a1.618 1.618 0 00-.335.064c-.116.037-.185-.114-.114-.195.301-.333.427-.675.772-1.003.239-.226.487-.44.742-.647l.367-.292c.672-.533 1.379-1.078 2.225-1.263 1.196-.262 1.783.825 1.447 1.675.173-.224.636-.158.757.15 3.935 10.141 6.52 20.876 11.816 30.458 3.911 7.079 9.158 13.615 16.122 17.89 3.74 2.296 8.021 4.06 12.442 4.339 3.97.249 7.79-.759 11.166-2.841 6.544-4.033 10.817-11.114 13.865-17.976 3.351-7.554 5.743-15.603 7.148-23.764-4.453.062-9.153-1.968-12.114-5.277a14.891 14.891 0 01-3.309-6.125c-.595-2.282-.405-4.157.355-6.34zm-37.36-5.925c.543-.969 1.746-1.289 2.73-.895 1.092.439 1.42 1.498 1.265 2.575-.18 1.262-.992 2.624-1.623 3.725-.661 1.153-1.511 2.216-2.392 3.208-1.657 1.873-3.43 3.56-5.533 4.94a21.803 21.803 0 01-6.894 2.974l-.579.135c-1.893.432-4.586.928-6.163-.1a.117.117 0 010-.2c.853-.594 1.995-.7 2.976-.98 1.07-.308 2.143-.658 3.166-1.097a25.157 25.157 0 005.674-3.375c1.729-1.37 3.4-3.004 4.557-4.889.582-.946 1.078-1.939 1.553-2.939.482-1.003.723-2.116 1.263-3.082z" fill="#000"/><path fill-rule="evenodd" clip-rule="evenodd" d="M205.108 86.96c-.098-5.526-.207-11.162-1.027-16.633-.802-5.35-3.007-10.185-6.798-14.07-8.051-8.25-19.721-10.265-30.585-12.112l-18.573-3.158c-5.666-.963-11.711-2.503-17.436-1.137-2.821.673-5.216 2.237-7.406 4.087-2.11 1.783-4.379 3.698-5.809 6.097-1.433 2.403-1.926 5.211-2.391 7.929a121.84 121.84 0 00-1.224 9.246c-.581 6.2-.66 12.448-.238 18.661a129.62 129.62 0 001.644 13.449c.077.435.136.916.215 1.403-.586 1.668-.918 3.397-.892 5.117.079 5.07 4.351 8.261 8.658 9.974 2.497.994 5.108 1.669 7.561 2.779 2.581 1.167 4.338 3.06 6.103 5.219 3.366 4.117 7.164 7.818 11.501 10.905 9.195 6.546 20.841 9.643 31.998 7.292 2.676-.563 5.377-1.439 7.783-2.758 2.541-1.393 4.451-3.411 6.055-5.798 2.979-4.43 5.115-9.418 6.731-14.494 1.648-5.178 2.818-10.366 3.456-15.765.636-5.382.77-10.818.674-16.233z" fill="#AE5D29"/><path fill-rule="evenodd" clip-rule="evenodd" d="M145.784 21.759c7.676-1.058 18.27 2.38 22.093 9.311 18.25-4.31 41.268-4.451 56.31 9.897 15.696 17.02-4.019 39.46-17.091 44.52.951 4.633-.533 34.317-11.033 47.558-8.333 11.219-27.74 16.396-36.72 2.996l-.07-.11c-.962-1.548-.133-1.498.854-.347 8.794 7.746 20.749 7.879 29.963-.297 17.266-14.942 15.486-51.58 7.27-72.775-23.396-2.574-48.446 4.53-64.606 22.172l1.093 6.59c.186 1.122.397 2.244.559 3.37.103.723.115 1.44-.385 2.025-1.648 1.929-4.427-.97-6.713-2.123a9.608 9.608 0 00-2.014-.085c-10.983 1.417-8.819 22.76 3.253 19.019 1.014-.633 1.885-.44 2.279.479 2.877 2.64 4.774 7.349 9.554 11.884 1.687 1.701 3.222 3.124 5.119 4.489 1.115 1.129 4.477 2.28 3.411 4.212-2.016 4.395-13.902-9.412-16.004-13.231-6.584 2.605-13.881 1.72-20.705 1.083-35.998-1.875-31.192-39.887-1.686-63.886 5.555-4.096 11.683-7.438 18.053-10.01.87-.35.49-1.78-.392-1.425a88.034 88.034 0 00-12.241 6.072l-.006-1.402c-.006-2.36.031-4.818.441-6.975.204-1.494.548-3.09 1.078-4.291.655-3.682 10.914-16.319 28.336-18.72zm-20.97 77.602c.556-.529 1.593.102 2.088.086 1.266.174 2.468.709 3.405 1.37a9.182 9.182 0 011.416.973l.01-.002-.01.003.035.023c.527.376 2.46 2.492 1.239 1.923a9.685 9.685 0 00-.278-.344.239.239 0 01-.041.045l.069.102c1.037 1.563-.754-.084-1.03-.522-.013.011-.028.018-.042.026l.359.437.122.154.076.073c1.199 1.182 1.237 2.245-.157.498.055.083.099.17.105.247l.083.106c1.094 1.412.204.911-.34.307l-.045-.052.009.014c.506.781-.498.233-.675-.184l-.008-.019c-.193-.158-.312-.335-.353-.38l-.007-.008c-.941-.966-2.305-1.783-3.464-2.154a6.181 6.181 0 00-.509-.076 15.398 15.398 0 00-2.113-.32c-.087-.01-.176-.074-.242-.157-1.076-.036-.744-.478-.297-.56l.008-.002-.089-.007c-.691-.068-1.162-.316-.464-.468l.089-.018a.677.677 0 01-.03-.051c-.598-.066-.208-.648.124-.507-.14-.458.499-.23.579-.297.06-.068.136-.128.179-.13.193-.137.099-.124.199-.129zm3.66-7.407l-.14.082c-.114.066-.23.11-.347.136.165.07.328.147.49.228a9.869 9.869 0 01-.005-.298l.002-.148z" fill="#000"/><path fill-rule="evenodd" clip-rule="evenodd" d="M172.349 111.326c1.379-2.268 4.319 3.286 4.632 4.241.276.846.459 1.713.552 2.59 1.069.239 2.18.24 3.275.03 1.629-.313 2.625-1.187 4.04-1.939.978-.519 2.21.09 2.718.951.598 1.013.217 2.065-.569 2.82-1.492 1.433-4.427 1.762-6.374 1.381a8.24 8.24 0 01-3.04-1.243c-.006.113-.01.227-.019.34l-.018.196c-.149 1.589-.586 3.587-1.821 4.62-2.026 1.696-4.525-1.565-2.557-3.259l.061-.051c1.223-.987 1.49-3.637 1.424-5.097a10.541 10.541 0 00-.518-2.824l-.062-.181c-.09-.256-1.078-2.688-1.435-2.378l-.017.018c-.148.175-.385-.029-.272-.215zm11.013-12.794c1.862 1.131 4.699 3.768 2.696 6.572-2.358 2.472-5.753-.362-7.425-1.644-1.552-.994-3.294 1.561-1.855 2.721 12.088 8.943 16.994-7.353 7.526-8.978-1.043-.18-1.43.98-.942 1.33zM163.479 88.08c1.82-.322 3.684.13 5.19 1.193l.114.082c1.45 1.06 3.074 2.922 2.241 4.75-.334.733-1.335.848-1.97.516-1.057-.554-1.248-1.917-2.191-2.671-.774-.618-1.815-.993-2.812-.903-2.34.212-3.78 2.519-4.506 4.506-.093.255-.467.354-.613.08-1.714-3.2 1.32-6.98 4.547-7.553zm29.148-1.208c3.486-.287 7.567 3.324 6.649 7-.44 1.764-3.059 1.714-3.525 0-.256-.942-.23-1.777-.91-2.56-.561-.646-1.357-1.022-2.214-.964-.944.064-1.814.535-2.476 1.197-.597.599-.955 1.474-1.573 2.003-.153.13-.357.139-.507 0-1.065-.98-.426-3.024.249-4.048.967-1.466 2.541-2.482 4.307-2.628zm-35.786-5.313c2.236-1.978 6.299-3.888 9.315-2.914 1.733.56 2.489 3.35.554 4.235-2.241 1.025-4.825.608-7.106 1.67-.958.446-1.859 1.003-2.526 1.821-.526.645-1.061 1.493-1.82 1.864-.2.098-.471.1-.631-.08-1.666-1.883.759-5.31 2.214-6.596zm31.943-3.013c1.382-.387 2.915-.38 4.319-.136s2.829.825 3.975 1.673l.133.099c1.25.942 2.743 2.312 2.663 3.98-.067 1.394-1.533 2.337-2.8 1.606-1.032-.595-1.518-1.788-2.392-2.583a8.243 8.243 0 00-2.473-1.534 8.506 8.506 0 00-3.087-.61c-.83-.013-1.665.26-2.479.346.067.138-.576.074-.945-.048-.273-.117-.275-.462-.18-.686.469-1.11 2.179-1.802 3.266-2.106z" fill="#000"/><defs><clipPath id="clip0_1_784"><path fill="#fff" transform="translate(0 288)" d="M0 0h294v33H0z"/></clipPath></defs></svg>