<svg width="295" height="321" fill="none" xmlns="http://www.w3.org/2000/svg"><g clip-path="url(#clip0_1_835)"><path d="M146.892 321c81.126 0 146.891-7.343 146.891-16.401s-65.765-16.401-146.891-16.401C65.766 288.198 0 295.541 0 304.599S65.766 321 146.892 321z" fill="#F7859C"/></g><path d="M214.421 201.949h-57.395v70.638h57.395v-70.638z" fill="#FDEA6B"/><path fill-rule="evenodd" clip-rule="evenodd" d="M140.285 132.857c6.187-4.708 21.719-6.825 28.323-2.292 6.522 4.553 7.233 11.915 10.272 18.688 2.868-1.352 7.603.584 8.434 3.243 1.032 1.254 1.078 4.778 1.789 6.464 30.939 4.922 35.636 29.029 39.36 56.397 4.927 27.771 16.11 55.482 11.255 84.059a16.361 16.361 0 011.593 2.86c1.105 1.879-.319 4.539-2.547 4.436-2.886-.253-5.742-.598-8.641-.706-8.035-.279-16.078-.246-24.116-.144l-1.096.014c-40.511.504-81.02 1.498-121.534 1.761-1.47.002-2.189-1.315-1.992-2.615.395-2.616.761-5.234 1.144-7.851-9.582 2.529-19.77 3.166-29.324.266-.669-.681 1.557-.312 1.91-.415-8.794-6.006-6.168-18.657-5.389-27.77 4.844-31.223 6.552-65.77 25.267-92.414 8.096-10.873 19.966-19.482 33.605-21.419l.379-.052c3.988-.531 8.433-.703 11.92-2.871 3.921-3.129 5.593-8.91 9.719-8.964 1.362-.018 3.215 1.704 5.21 2.874.149-2.573 1.536-4.744 1.842-6.739l.025-.17c.319-2.326-.118-4.418 2.592-6.64zm66.491 83.324c-8.695-6.036-31.155-3.003-31.669-2.665-1.133.744-1.62.81-2.232 1.776-.605.081-1.209.164-1.813.249-1.21.396-.313 1.884 1.085 1.353-.841 3.626 1.635 6.204 2.62 9.789.32 1.163.012 3.256 0 4.446.096 1.516 1.773 3.307 1.494 4.828-.994 5.408-6.387 10.683-4.114 15.927 1.507 2.962 6.037 4.473 9.049 5.48 6.241 2.394 17.115-.09 20.741-5.48 1.934-2.874 4.174-10.125 5.328-12.374l.255-3.568c.631-8.869 1.191-18.417-.744-19.761z" fill="#EDB98A"/><path fill-rule="evenodd" clip-rule="evenodd" d="M130.294 143.548l2.488 1.526 14.451 7.139c2.802.784 4.203 1.724 4.203 2.819v11.152c0 1.492 2.629 4.874 7.887 10.146l4.858-4.84-.109-.633c-.462-2.731-.693-4.557-.693-5.48 0-.992 4.752-4.758 14.257-11.299l4.159-3.912-.444-1.348c2.564.121 5.345 1.699 5.963 3.678 1.032 1.254 1.078 4.778 1.789 6.464 30.939 4.922 35.636 29.029 39.36 56.397 4.927 27.771 16.11 55.482 11.255 84.059a16.37 16.37 0 011.593 2.861c1.105 1.879-.319 4.539-2.547 4.436-2.886-.253-5.742-.599-8.641-.707-8.035-.279-16.078-.246-24.116-.144l-1.096.015c-40.511.504-81.02 1.497-121.534 1.76-1.47.002-2.189-1.315-1.992-2.615.395-2.616.761-5.234 1.144-7.851-9.582 2.529-19.77 3.166-29.324.266-.669-.681 1.557-.312 1.91-.415-8.794-6.006-6.168-18.657-5.389-27.769 4.844-31.224 6.552-65.771 25.267-92.415 8.096-10.873 19.966-19.482 33.605-21.419l.379-.052.381-.049c3.888-.495 8.162-.722 11.539-2.822 3.818-3.046 5.503-8.607 9.397-8.948zm34.627 65.454c-1.417 0-4.32 2.2-8.708 6.6l-.387.178c-5.305 2.463-8.819 4.599-10.543 6.409l-.061.065c-1.741 1.867-5.19 6.832-10.345 14.894l-7.466 4.412h-2.825l-2.011 14.58 4.836 10.41 10.954-3.688 17.848-4.701 10.241-10.384 5.777-1.939c-.701 2.024-.955 4.038-.084 6.047 1.507 2.962 6.037 4.472 9.049 5.479 6.241 2.394 17.115-.09 20.741-5.479 1.934-2.875 4.174-10.126 5.328-12.375l.33-4.635c.596-8.553 1.039-17.403-.819-18.693-8.695-6.037-31.155-3.004-31.669-2.666-1.133.744-1.62.81-2.232 1.777l-.317.042 1.782-2.416-.631-.337c-4.503-2.387-7.433-3.58-8.788-3.58zm7.226 7.892c-.805 3.471 1.43 5.983 2.487 9.336l-2.701-5.166v-4.103c.07-.017.142-.039.214-.067z" fill="#9DDADB"/><path fill-rule="evenodd" clip-rule="evenodd" d="M129.101 143.009c.6-.531 1.488.136 1.107.854-.857 1.613-1.737 3.141-2.887 4.567a45.32 45.32 0 01-2.202 2.49c1.943 1.68 3.61 3.766 5.183 5.721 2.013 2.5 3.915 5.106 6.174 7.394 2.228 2.256 4.692 3.833 7.67 4.885l.602.209c2.992 1.05 6.19 2.468 7.876 5.299.333.558-.337 1.248-.9.9-2.93-1.814-6.374-2.179-9.564-3.377-3.081-1.157-5.768-2.939-8.141-5.213-2.37-2.27-4.359-4.852-6.435-7.38-2.052-2.5-4.262-4.635-6.689-6.75-3.746 2.519-8.022 3.615-12.37 4.691l-.474.118c-4.353 1.077-8.683 2.328-12.767 4.203-3.6 1.654-7.142 3.628-10.075 6.319-3.113 2.856-5.537 6.503-7.754 10.07-4.962 7.979-8.45 16.721-11.52 25.57a263.957 263.957 0 00-8.021 28.09 198.118 198.118 0 00-2.72 14.599c-.352 2.36-.665 4.725-.94 7.095-.294 2.532-.361 5.136-1.138 7.569-.333 1.043-1.12 1.476-1.907 1.439l-.16 1.999c-.212 2.665-.41 5.33-.477 8.011-.11 4.459-.06 8.904.26 13.353l.046.606c.252 3.247.816 6.895 3.259 9.273 2.53 2.462 6.42 3.236 9.83 3.281 7.942.103 15.587-3.647 22.615-6.937 7.238-3.389 14.278-7.15 21.15-11.229a318.088 318.088 0 0010.378-6.433 276.483 276.483 0 004.995-3.307c.947-.642 1.844-1.345 2.807-1.915-.472-.439-.683-1.13-.287-1.733-2.786-2.417-3.945-6.73-4.081-10.219-.11-2.817.305-5.626.633-8.416a127.2 127.2 0 01.581-4.212c.083-.553.147-1.145.245-1.729a230.316 230.316 0 01-23.194 11.079 184.22 184.22 0 01-12.367 4.562l-.847.279c-3.959 1.295-8.012 2.518-12.104 3.258-.219.04-.397-.283-.163-.386 3.988-1.759 8.114-3.242 12.162-4.862l.666-.27a1.39 1.39 0 01-.239-.035c-2.374-.573-4.73-1.455-7.058-2.198-2.16-.69-4.589-1.123-6.609-2.164-.155-.08-.068-.296.083-.306 2.27-.157 4.735.504 6.961.893l.836.146c1.401.247 2.833.512 4.227.859.05-.467.311-.936.682-1.211 4.085-3.023 3.67-9.129 4.107-13.631l.324-3.343c.57-5.85 1.173-11.7 2.088-17.506.05-.31.53-.221.531.071.048 7.198-.496 14.363-.769 21.549l-.042 1.179c-.15 4.435-.269 9.039-3.063 12.451.39-.228.92-.228 1.236.148.389.463.613.982.606 1.492a414.603 414.603 0 007.541-3.251c8.044-3.562 15.919-7.547 23.586-11.86.825-.464 1.609-.099 2.017.513l.059-.009a.302.302 0 01.03-.002l.059-.003.006.001c1.079-.593 2.55-.171 3.476.693.027.027.05.055.075.082a12.397 12.397 0 003.26-2.136c2.034-1.842 3.756-4.119 5.257-6.402 2.765-4.206 5.113-8.883 8.848-12.345 3.034-2.813 6.797-4.564 10.743-5.663a.394.394 0 01.108-.32c.202-.208.347-.279.609-.153.021.01.033.024.042.039l.385-.658c.21-.357.426-.716.501-.81.448-.564.909-1.124 1.377-1.672.794-.927 1.699-1.843 2.746-2.486 2.293-1.408 4.704-.611 7.062.158 1.425.466 2.844.946 4.267 1.418l.146.048c1.061.34 2.302.638 2.776 1.761.187.444.217.906.129 1.353 10.072-2.56 21.258-1.384 31.086 1.621.378.115.754.425.834.833 1.126 5.771 1.627 11.69 1.118 17.56-.44 5.067-1.563 10.032-3.68 14.671l-.12.262c-1.99 4.299-5.143 9.599-9.958 10.946-2.908.814-6.124.334-9.09.185-2.882-.145-5.828-.166-8.682-.619-2.543-.403-4.771-1.542-6.342-3.608-1.355-1.783-2.069-3.937-2.654-6.08-.267.085-.533.176-.795.278-1.105.431-2.04 1.127-2.887 1.946-1.786 1.729-3.172 3.83-5.042 5.48-1.692 1.494-3.621 2.656-5.689 3.549-4.286 1.851-8.884 2.59-13.418 3.571l-.317.069c-3.413.749-6.897 1.668-9.909 3.444-.059.522-.297 1.014-.679 1.336.531.499.756 1.289.289 2.03-1.304 2.069-3.551 3.246-5.568 4.569l-.131.086a244.418 244.418 0 01-18.539 11.176c-6.83 3.729-13.806 7.246-20.91 10.437.427 2.096.271 4.258.592 6.368l.049.301c.136.783-.048 1.438-.588 1.95l-.057.052v-.007l-.05.047-.017.014.006-.004a2.072 2.072 0 01-.192.155l-.083.053c-.52.316-1.19.313-1.722.034l-.06-.034-.103-.058c-.703-.404-1.188-1.406-.896-2.202.717-1.956.988-4.043 1.65-6.012l-.526.235-.692.301c-7.489 3.237-15.807 5.962-23.966 3.756-3.605-.975-6.975-3.038-8.779-6.4-1.775-3.308-2.026-7.149-2.12-10.828a87.118 87.118 0 01.727-13.656c.402-3.022.889-6.102 1.639-9.093a2.254 2.254 0 01-.745-1.433c-.354-2.857.266-5.827.645-8.669.371-2.775.78-5.544 1.244-8.305a285.598 285.598 0 013.287-16.65c2.25-9.807 5.224-19.439 8.803-28.842l.313-.819c3.307-8.594 7.137-17.005 12.469-24.554 2.55-3.612 5.247-6.887 8.851-9.49 3.377-2.439 7.185-4.195 11.116-5.537 3.935-1.343 7.979-2.243 12.095-2.803 4.18-.568 8.592-.917 12.491-2.631-.494-.883-.07-2.076.76-2.624 2.793-1.845 5.377-4.245 7.881-6.462zm89.428 80.212c.117-.178.395-.065.344.145-1.359 5.563-2.634 11.137-3.467 16.807-1.503 10.232-1.227 20.598-1.104 30.906l.006.533c.063 5.553.151 11.105.335 16.656.093 2.805.276 5.637.176 8.444-.054 1.522-.46 2.962-.604 4.466-.126 1.316-.014 2.651.049 3.968.042.876-1.251.839-1.339 0l-.113-1.084c-.146-1.372-.326-2.736-.776-4.05-.541-1.58-.801-3.131-.989-4.79-.287-2.542-.415-5.109-.526-7.669l-.076-1.77c-.464-10.697-.447-21.444.303-32.13l.055-.763c.743-10.101 2.032-21.015 7.726-29.669zm-28.962-63.661c-.355-.146-.231-.682.162-.589l.715.171c5.237 1.253 10.379 2.612 15.267 4.944 4.891 2.334 9.032 5.819 12.323 10.104 6.396 8.329 9.054 18.451 11.152 28.564 2.332 11.237 4.455 22.515 6.808 33.749l.436 2.093c2.177 10.462 4.232 20.931 5.746 31.518l.109.768c1.527 10.886 2.445 22.15.779 33.065-.33 2.16-3.925 1.622-3.785-.512.406-6.168.697-12.303.416-18.485a195.66 195.66 0 00-1.726-18.467c-.728-5.158-1.813-10.251-2.773-15.368l-.151-.808c-.804-4.352-1.633-8.699-2.46-13.047l-1.236-6.51c-1.852-9.747-3.741-19.503-5.875-29.189l-.127-.57c-2.088-9.319-5.167-19.08-11.432-26.48-6.357-7.51-15.458-11.292-24.348-14.951zm-23.1 98.842c.152-.34.687-.303.852 0 .644 1.188.716 2.705.837 4.046l.013.138c.155 1.636.292 3.278.376 4.92.159 3.116.235 6.228.226 9.348-.01 3.197-.075 6.39-.247 9.583l-.047.855c-.157 2.775-.421 5.869-1.74 8.294-.48.882-1.784.623-2.062-.269-.91-2.919-.442-6.381-.209-9.371l.181-2.334c.18-2.333.351-4.668.486-7.004.186-3.197.34-6.396.487-9.594.048-1.039.1-2.078.155-3.116l.084-1.558c.072-1.303.066-2.733.608-3.938zM64.17 262.54l.402-.388c1.237-1.21 2.8-3.072 4.627-2.956.729.046 1.193.65 1.042 1.367-.323 1.532-1.886 2.327-3.012 3.262-1.233 1.025-2.395 2.119-3.555 3.225a69.768 69.768 0 00-2.985 3.027l-.361.392c-.346.377-2.812 2.606-2.545 3.184l.014.026c.074.111-.05.263-.172.224-1.065-.336-.998-1.248-.596-2.172.773-1.775 2.128-3.418 3.31-4.934a41.753 41.753 0 013.83-4.257zm106.155-44.525c-.824-1.945-3.857-1.904-5.578-1.787-4.337.292-9.028 1.389-12.886 3.414-4 2.1-6.694 5.465-9.105 9.185l-.113.175c-2.349 3.65-4.612 7.971-8.292 10.481-1.874 1.279-4.062 2.446-6.336 2.952a1.16 1.16 0 01-.74.571l-.155.035c-.647.143-1.653.301-2.522.206.005.425.001.847.012 1.249.03 1.154.043 2.312.043 3.467.001 2.418-.129 4.841-.028 7.259.089 2.139.392 4.374 1.419 6.286.754 1.403 1.749 2.331 2.949 3.217 2.954-1.799 6.295-2.895 9.685-3.72 4.1-.997 8.298-1.663 12.304-3.015 1.929-.651 3.783-1.503 5.462-2.66 1.783-1.228 3.145-2.891 4.546-4.517l.219-.252c1.43-1.639 2.99-3.207 5.011-4.096 1.74-.765 4.034-.902 5.555-2.086.796-.62.862-1.519.946-2.44-.974.14-2.006-.084-2.977-.197l-.503-.059c-.919-.109-1.816-.229-2.72-.463-.168-.043-.168-.296 0-.34 1.068-.275 2.127-.393 3.223-.521l.257-.032c.991-.13 2.033-.326 3.005-.108a8.165 8.165 0 01.78-1.931c.496-.891 1.434-1.901 1.561-2.942a1.696 1.696 0 00-.181-.952l-.051-.094a.773.773 0 00-.241-.29c-.012.013-.037.029-.091.046-.748.236-1.401-.13-1.747-.695-1.471.183-3.076.121-4.455.182l-1.394.068c-1.49.068-3.047.098-4.447-.203-.196-.042-.255-.367-.059-.451 1.721-.735 3.809-.97 5.651-1.253 1.03-.158 2.066-.278 3.098-.417.688-.092 1.417-.246 2.129-.282 1.785-2.221.823-5.725-1.661-6.682-.905.398-1.719.167-2.708.082a33.025 33.025 0 00-2.967-.138c-1.986.009-4.091.531-6.057.306-.32-.037-.617-.462-.299-.722 1.505-1.227 3.663-1.628 5.573-1.889l.396-.053c.641-.084 1.42-.207 2.228-.279.183-.357.511-.626 1.003-.693.146-.02.293-.032.44-.044l-.002-.015c1.201-.057 1.149-2.085.82-2.863zm-82.227 37.931a1.134 1.134 0 01-.069.094l-.038.044.198-.081-.09-.057zm103.185-42.276c-5.055-.543-10.117-.429-15.188-.283-.405 1.326-1.817 2.455-3.185 2.498 1.071 1.629 1.182 3.835.431 5.563 1.595.634 2.969 1.774 3.803 3.397 1.156 2.25 1.005 4.754-.138 6.834.976.882 1.551 2.316 1.494 3.667-.065 1.507-.963 2.794-1.71 4.041-.807 1.349-.834 2.537-1.082 4.048-.362 2.211-1.855 3.553-3.775 4.39l.102.402c.495 1.925 1.111 3.957 2.526 5.366 1.82 1.811 4.644 1.794 7.049 1.909l.116.006c2.202.11 4.403.239 6.604.363l1.651.093c2.534.139 4.968.156 7.037-1.519 3.378-2.733 5.694-7.257 7.16-11.261 3.076-8.406 3.113-17.63 1.701-26.384-4.736-1.526-9.65-2.599-14.596-3.13zm-42.041 13.945l.037.002c1.041.119 1.756.961 2.011 1.961.37 1.452.188 2.765 1.078 4.076.916 1.348 1.479 2.428 1.612 4.093.054.685.029 1.369.182 2.04l.111.47c.117.501.213.984.155 1.522-.053.49-.293.873-.785 1.03-1.605.513-2.844-.669-3.259-2.163-.358-1.292.12-2.83-.385-4.042-.28-.672-.796-1.235-1.088-1.911a6.239 6.239 0 01-.48-2.1c-.088-1.379 1.132-3.035.451-4.285-.145-.266.019-.701.36-.693zm-21.317-14.228c1.086-.22 2.319-.726 3.391-.306.551.217.823.888.358 1.355-.809.809-1.983.854-3.071 1.045l-.096.017a211.28 211.28 0 01-3.868.678c-2.428.402-4.863.757-7.306 1.06-2.51.31-5.026.586-7.546.794l-.976.08c-2.128.17-4.343.299-6.432-.027-.303-.048-.254-.489 0-.567 2.288-.692 4.798-.877 7.164-1.17 2.515-.312 5.025-.641 7.529-1.032 2.501-.39 4.997-.809 7.485-1.272 1.124-.209 2.247-.427 3.368-.655zm39.213-2.222c-.954-.337-2.003-.837-3.036-.67-1.782.289-3.368 2.024-4.779 3.167l.708-.138c3.624-.696 8.423-1.446 11.466.857.007-.014.013-.027.022-.04.246-.373.53-.664.841-.983.03-.028.058-.056.086-.086l.168-.178-.383-.133c-.821-.29-1.793-.664-1.947-.719l-.011-.004c-1.046-.354-2.094-.704-3.135-1.073zm-29.776-75.917c-.149-1.917 2.836-1.901 2.984 0 .322 4.151-.612 8.262-2.624 11.901-.015.027-.031.05-.046.075a58.824 58.824 0 003.831 1.843 56.554 56.554 0 005.085 1.927c1.561.501 3.484.7 4.796 1.744 2.768 2.202 1.728 6.773 1.196 9.735l-.083.468c-.265 1.525-.457 3.089.186 4.552.687 1.563 2.075 2.722 3.314 3.84l.251.227c1.097.999 2.351 2.213 3.156 3.568.735-1.519 1.737-2.759 2.796-4.156.756-.997.218-1.326-.325-2.3-.523-.937-.778-1.936-.614-3.006.301-1.975 1.881-3.401 3.453-4.473 1.856-1.265 3.928-2.203 5.847-3.38 3.944-2.418 7.784-5.183 11.244-8.254.096-.084.261.027.185.143-2.734 4.155-5.938 7.745-9.877 10.792-1.597 1.236-3.275 2.261-4.964 3.338l-.486.312c-.678.439-1.524 1.026-1.83 1.773-.309.752.349 1.319.703 1.942 1.125 1.978.582 3.823-.751 5.5l-.062.077c-1.325 1.632-2.329 3.149-2.809 5.234-1.032 4.478.405 9.142 1.91 13.346l.059.166c.814 2.266 1.679 4.515 2.386 6.817l.195.637c.64 2.118 1.165 4.207.446 6.385-.244.741-1.255.916-1.675.219-1.481-2.459-1.85-5.417-2.778-8.12-.905-2.634-1.944-5.22-2.818-7.865-1.125-3.406-1.879-7.071-1.47-10.643-.012-.021-.025-.041-.035-.063l-.287-.626c-.781-1.696-1.535-3.177-2.956-4.528-1.482-1.41-3.09-2.658-4.256-4.365-2.533-3.708-.966-7.832-.66-11.886l.035-.497c.055-.842.086-1.986-.465-2.568-.618-.656-2.07-.823-2.891-1.114-2.122-.75-4.213-1.625-6.204-2.675-1.896-.999-3.732-2.103-5.442-3.397l-.867-.651c-1.367-1.031-2.785-2.157-3.702-3.561-.105-.162.074-.422.266-.345 1.53.621 2.928 1.607 4.359 2.466a1.76 1.76 0 01.077-.158c1.771-3.203 2.5-6.752 2.217-10.396zm48.87 21.947c.609-1.671 3.387-1.542 3.277.443-.085 1.525-.733 2.902-1.325 4.286l-.064.148a27.346 27.346 0 01-2.163 4.119c-1.614 2.528-3.506 4.874-5.526 7.087-1.832 2.007-4.236 3.234-7.006 3.03-1.168-.086-2.346-.382-3.369-.965-1.215-.692-2.534-2.771-4.084-2.268-.15.049-.29-.171-.16-.275 1.789-1.44 3.82.793 5.533 1.331 2.582.811 5.231-.085 6.892-2.171 1.735-2.177 3.331-4.616 4.789-6.986a33.636 33.636 0 001.999-3.741c.589-1.3.723-2.713 1.207-4.038zm-4.161-10.281c-.075-.23.211-.45.414-.318 1.176.765 2.195 1.776 3.279 2.662 1.204.982 2.416 1.945 3.647 2.893 1.794 1.383-.287 3.928-1.867 2.418-2.161-2.066-4.528-4.767-5.473-7.655zm-6.455-8.085c.477-1.841 3.302-1.082 2.891.737l-.014.056c-.779 3.005.331 6.064 2.702 8.012l.087.071c1.5 1.199-.625 3.297-2.11 2.109-3.242-2.594-4.591-6.998-3.556-10.985z" fill="#000"/><path fill-rule="evenodd" clip-rule="evenodd" d="M199.938 80.228c-.929-7.42-3.845-15.298-6.912-22.215-6.896-14.625-22.685-16.639-36.839-19.654-13.967-2.037-28.757-3.876-42.514.188-7.733 1.897-10.754 11.122-9.533 18.401.696 4.536 2.758 8.83 4.516 13.033 3.494 8.634 5.711 17.876 5.715 27.224-.24 6.108-1.101 13.08 5.908 15.667 6.67 3.322 7.233 12.327 15.585 17.436 3.377 6.85 12.575 7.453 19.196 9.042 4.185.803 8.416 1.393 12.66 1.774 12.287 1.577 22.116-1.989 28.548-12.951 4.304-6.671 7.509-14.374 6.717-22.459-.788-8.514-2.102-16.984-3.047-25.486z" fill="#EDB98A"/><path fill-rule="evenodd" clip-rule="evenodd" d="M156.293 20.584c.701-.796 1.782-.523 2.438.107.427.126.84.313 1.231.561.883-.113 1.808-.113 2.674-.081.21-.119.436-.223.681-.314 1.75-.64 3.301-.315 4.58.543.616-.583 1.393-.95 2.386-.894.887.05 1.519.467 2.06 1.017a3.284 3.284 0 012.5-1.413c1.52-.108 2.981.502 4.192 1.447.706-.81 1.668-1.276 2.74-1.28a4.585 4.585 0 012.122.125 5.8 5.8 0 012.517 1.567c1.08-1.036 2.402-1.782 3.927-1.673 1.973.143 3.609 1.596 4.369 3.384 1.336.536 2.569 1.3 3.599 2.39.055.057.108.118.163.178a5.229 5.229 0 011.538.879c1.458 1.215 1.783 2.974 1.301 4.697.067.275.125.556.177.836 1.366.208 2.606.997 3.312 2.282.965 1.764.775 4.088-.271 5.772-.449.724-1.019 1.334-1.66 1.868.724 1.648.377 3.615-.792 4.948-.284.46-.634.874-1.027 1.25.434 1.704-.338 3.462-1.878 4.373l-.132.33-.068.163c-.017.07-.038.139-.059.207a3.35 3.35 0 01-.63 1.757c-.808 1.146-1.809 1.893-2.341 3.23l-.053.141c-.228.633-.965 1.08-1.594.884 3.489 7.175 5.317 15.157 6.573 22.98a198.58 198.58 0 011.501 11.752l.384 3.915c.338 3.479.639 6.971.641 10.462.005 7.898-2.251 15.496-7.093 21.781-4.58 5.941-11.06 10.247-18.381 11.943-7.558 1.748-16.424 1.059-23.202-2.944-1.998-1.177-.248-4.007 1.786-3.06 3.849 1.793 7.761 3.126 12.027 3.424 4.16.293 8.329-.228 12.273-1.591 6.526-2.257 12.078-6.983 15.647-12.87 1.758-2.901 3.031-6.049 3.709-9.376.844-4.146.717-8.432.407-12.631l-.022-.286c-.612-8.092-1.42-16.232-2.726-24.243-1.154-7.083-2.928-14.023-5.232-20.81a12.428 12.428 0 00-2.992-1.954c-7.91-.33-15.835-.234-23.735.313a197.286 197.286 0 00-20.096 2.42l-.713.125c-1.473.263-3.109.413-4.497 1.007-1.19.51-1.673 1.493-1.973 2.7-.755 3.053-.87 6.395-.998 9.526-.125 3.06.158 6.147-.088 9.198-.207 2.552-.86 5.165-2.748 7.011-.988.967-2.204 1.496-3.344 2.23-.738.473-1.051.961-.956 1.838.205 1.919 1.749 4.336.015 5.98-.305.287-.832.325-1.133 0-.715-.78-1.703-1.373-2.551-2.002a.34.34 0 01.343-.586c.53.238 1.07.518 1.623.764-1.22-1.007-2.956-1.5-4.402-1.794a7.94 7.94 0 00-2.251-.12 41.89 41.89 0 01-1.705.759c-.728.306-1.464.584-2.204.847-2.569 2.096-3.794 5.506-3.259 8.84.293 1.84 1.141 3.842 2.739 4.917 1.893 1.272 4.429.726 6.475 1.67 1.916.884 3.081 2.671 3.954 4.519l.364.77c.81 1.704 1.643 3.363 2.75 4.914 1.281 1.796 2.849 3.409 4.56 4.794.83.671 1.714 1.274 2.628 1.823l.25.149c.926.543 1.589 1.061 1.651 2.211.02.401-.232.767-.558.975-1.4.889-2.793-.223-3.959-1a28.835 28.835 0 01-3.574-2.805 27.638 27.638 0 01-5.355-6.776c-1.073-1.914-1.683-4.606-3.379-6.089-1.035-.905-2.498-.912-3.791-1.078-1.203-.155-2.341-.405-3.412-.999-4.354-2.422-5.585-8.286-4.552-12.817.175-.765.42-1.509.723-2.225-1.621.27-3.441-1.407-2.784-3.101.05-.128.108-.248.163-.37a5.58 5.58 0 01-2.311-3.167 5.058 5.058 0 01-.128-2.154 3.482 3.482 0 01-1.22-1.415c-.861-.399-1.623-.995-2.079-1.846-.63-1.175-.55-2.257-.07-3.232a9.818 9.818 0 01-.195-.376c-1.763-1.119-2.993-3.048-2.853-5.187.045-.71.22-1.348.49-1.924a6.072 6.072 0 01-.065-.22c-1.476-.752-2.696-1.986-3.132-3.635-.435-1.658.078-3.311 1.103-4.584-1.5-1.1-2.403-2.635-1.855-4.957a6.142 6.142 0 011.275-2.528c-.002-.022-.007-.044-.012-.067l-.14-.11c-1.853-1.463-2.918-3.33-1.781-5.624.51-1.032 1.238-1.75 2.093-2.224l.043-.136c-.613-1.315-.82-2.775-.398-4.31.345-1.265 1.163-2.272 2.209-2.94a6.21 6.21 0 01.052-1.825 4.612 4.612 0 011.536-2.752c.03-.146.067-.288.11-.431a7.74 7.74 0 011.36-2.528c.483-.584 1.023-.796 1.684-.819a6.059 6.059 0 01.097-1.638c.338-1.708 1.423-3.314 3.031-4.043a3.88 3.88 0 012.026-.313c.571-1.203 1.684-2.074 3.052-2.262a5.147 5.147 0 011.483-.002c.257-.12.525-.228.805-.326.185-.065.373-.125.56-.185a5.856 5.856 0 012.439-1.794 4.596 4.596 0 013.279-.025l.322-.068c.506-.877 1.311-1.555 2.549-1.863 1.406-.349 2.849.137 3.954 1.022.005 0 .01 0 .018-.003.578-1.295 1.566-2.197 3.224-2.134 1.033.04 1.966.554 2.686 1.285.4-.05.8-.095 1.203-.14.425-.499.898-.964 1.421-1.383.855-.686 1.968-.631 2.598.336.138.21.265.423.393.636l.578-.04c.68-.92 1.608-1.54 2.878-1.59 1.166-.048 1.996.523 2.629 1.322a132.44 132.44 0 011.551-.03 9.45 9.45 0 012.123-1.826c.62-.391 1.536-.258 2.038.263.34.354.656.724.95 1.106a5.189 5.189 0 012.874-1.625zm-36.81 79.543c1.168-.666 2.738.055 3.869.621 1.378.689 2.746 1.729 3.589 3.031 1.148 1.774-1.551 3.207-2.759 1.616-.743-.979-1.335-1.966-2.236-2.823-.823-.787-2.016-1.313-2.488-2.35-.018-.035-.013-.075.025-.095zm.82-43.047l.022-.062c.332-.91-1.117-1.303-1.447-.4-.499 1.368.076 2.855 1.425 3.446.374.164.802.107 1.027-.27.189-.317.101-.866-.269-1.028-.759-.332-1.014-.919-.758-1.686zm-12.488-2.544c.725-.642-.339-1.701-1.061-1.063-.674.596-1.174 1.405-1.044 2.335.132.949.846 1.618 1.628 2.092.828.501 1.583-.798.757-1.298l-.093-.057c-.346-.216-.752-.512-.811-.937-.062-.45.319-.802.624-1.072zm4.118-11.315l.052-.038c.779-.557.031-1.861-.758-1.298-.723.517-1.302 1.188-1.363 2.114-.06.9.398 1.68.995 2.313.665.704 1.725-.36 1.062-1.063-.647-.685-.774-1.432.012-2.028z" fill="#000"/><path fill-rule="evenodd" clip-rule="evenodd" d="M169.344 112.848c1.402-2.305 4.391 3.341 4.708 4.312.282.86.467 1.741.562 2.633a8.166 8.166 0 003.329.03c1.656-.317 2.668-1.207 4.106-1.97.994-.528 2.246.091 2.763.966.608 1.03.221 2.099-.579 2.867-1.516 1.457-4.499 1.791-6.478 1.404a8.358 8.358 0 01-3.091-1.264c-.006.116-.01.231-.019.346l-.017.2c-.153 1.615-.597 3.646-1.852 4.697-2.059 1.724-4.6-1.592-2.599-3.314l.062-.052c1.243-1.004 1.515-3.698 1.448-5.182a10.727 10.727 0 00-.527-2.871l-.063-.184c-.092-.261-1.096-2.732-1.459-2.417l-.017.017c-.15.179-.392-.029-.277-.218zm11.195-13.007c1.892 1.15 4.776 3.831 2.74 6.681-2.396 2.514-5.847-.368-7.547-1.671-1.577-1.01-3.349 1.587-1.886 2.767 12.287 9.091 17.274-7.476 7.65-9.129-1.059-.182-1.453.996-.957 1.352zm-20.21-10.627c1.849-.328 3.744.131 5.275 1.213l.116.083c1.474 1.078 3.124 2.97 2.278 4.829-.34.746-1.357.863-2.002.524-1.075-.563-1.269-1.948-2.228-2.715-.786-.628-1.845-1.01-2.857-.918-2.379.216-3.842 2.561-4.581 4.582-.095.258-.475.359-.623.081-1.742-3.254 1.342-7.098 4.622-7.68zm29.628-1.228c3.543-.292 7.69 3.379 6.757 7.117-.447 1.793-3.109 1.742-3.582 0-.261-.959-.235-1.807-.925-2.603-.57-.657-1.38-1.04-2.25-.98-.96.064-1.845.543-2.517 1.217-.608.608-.971 1.498-1.6 2.036-.155.133-.362.141-.515 0-1.083-.997-.433-3.075.254-4.116.982-1.49 2.582-2.523 4.378-2.671zm-36.376-5.402c2.273-2.01 6.403-3.953 9.469-2.963 1.762.569 2.53 3.407.563 4.306-2.278 1.042-4.905.618-7.223 1.698-.974.453-1.89 1.02-2.568 1.852-.534.655-1.077 1.517-1.85 1.895-.203.1-.478.102-.641-.083-1.693-1.914.772-5.397 2.25-6.705zm32.469-3.063c1.404-.394 2.963-.386 4.39-.138 1.427.247 2.875.838 4.04 1.7l.135.101c1.272.958 2.789 2.35 2.708 4.047-.068 1.417-1.559 2.375-2.847 1.632-1.049-.605-1.543-1.818-2.431-2.626a8.377 8.377 0 00-2.513-1.56 8.651 8.651 0 00-3.139-.619c-.843-.014-1.692.263-2.519.351.068.14-.586.075-.961-.05-.278-.117-.279-.468-.183-.696.477-1.128 2.215-1.832 3.32-2.142z" fill="#000"/><path fill-rule="evenodd" clip-rule="evenodd" d="M202.97 101.367c-3.043 3.143-8.123 4.044-12.171 2.359-10.396-4.34-5.308-17.88 2.71-21.515 1.001-.25 2.339-.842 3.559-.976.11-.054.35.102.641-.046 8.84.987 10.853 14.702 5.261 20.178zm-33.53.805c-3.413 4.524-9.758 5.919-14.942 3.816-10.241-4.031-6.609-16.036.398-20.743 14.802-5.559 20.914 8.585 14.544 16.927zm-22.201-10.025l-.029-.01.162-.073-.053.137c-.027-.018-.05-.04-.08-.053zm62.777-4.89c-.836.002-2.043.14-2.734.719-1.706-5.75-8.003-11.071-13.479-7.191-4.312 1.386-7.512 4.46-9.33 8.546-3.279-1.95-8.436-1.117-11.279 1.461-1.862-6.15-6.445-8.303-11.901-8.621-5.954-.975-11.888 4.804-13.74 9.44-1.54-.175-3.84-.664-5.289.285-9.4-2.464-25.836-3.822-27.747-2.453-1.362.522-2.109 3.735-.207 3.908 1.658-.235-.194-2.354 1.477-2.585 8.904-.552 17.547 1.24 26.356 1.992.787 1.058 3.328 1.411 4.684.987-2.136 7.864 2.474 13.214 9.38 14.817 10.694 2.455 19.998-7.106 17.201-17.05 3.24-1.61 6.966-1.541 10.495-.693-5.897 21.69 29.056 20.717 23.597-2.1 3.633 1.806 4.422-1.097 2.516-1.462z" fill="#000"/><defs><clipPath id="clip0_1_835"><path fill="#fff" transform="translate(0 288)" d="M0 0h294v33H0z"/></clipPath></defs></svg>