<svg width="563" height="831" fill="none" xmlns="http://www.w3.org/2000/svg"><path d="M404.184 335.212c49.768 32.016 95.099 79.25 106.828 134.09 12.046 54.842-9.51 117.291-41.526 174.668-32.018 57.377-74.812 109.048-126.166 120.777-51.354 11.412-111.584-17.752-169.596-42.795-58.011-25.36-114.12-46.599-148.673-88.76-34.236-42.161-46.916-105.562-38.99-167.694 7.607-62.448 35.82-123.629 82.419-156.28 46.916-32.651 112.218-36.772 171.814-30.115 59.914 6.657 114.12 24.092 163.89 56.109z" fill="#FFDBB4"/><path fill-rule="evenodd" clip-rule="evenodd" d="M252.579 375.44l-5.465 13.522 3.011 42.859 2.24.349c23.663 3.671 39.742 5.526 48.238 5.563l.263.001c8.556 0 18.808-1.913 30.756-5.738l.544-.175 1.38-32.092h-3.253l-5.884-13.806.005-.005c.065.111.133.218.203.322 2.453 3.631 3.875.699 9.638 1.983 6.9 1.538 9.964 8.518 16.039 13.734 2.82 2.422 8.74 3.563 11.573 5.229l2.976 1.75c9.325 5.504 20.042 12.191 25.669 20.901 6.597 10.212 11.144 19.902 15.343 31.262 9.051 24.485 15.333 49.47 19.821 75.165 4.55 26.042 7.284 52.408 9.373 78.753a1569.563 1569.563 0 012.468 36.654l.168 3.057c.357 6.653.046 13.163-5.998 17.26-4.33 2.935-10.077 3.382-15.158 3.683l-.276.017c-37.563 2.204-75.127 4.393-112.691 6.586l-56.344 3.297c-9.375.55-18.751 1.096-28.126 1.638l-22.885 1.323c-10.785.614-21.584 1.146-32.384 1.083-13.588-.079-27.119-1.084-40.582-2.896l-1.187-.162c-8.47-1.171-20.751-4.132-22.273-14.298a1.863 1.863 0 012.144-2.162c-.355-1.655-.575-3.312-.786-4.752a185.107 185.107 0 01-1.75-18.552c-.561-12.427-.088-24.912 1.153-37.285 2.054-20.47 4.933-40.904 7.907-61.267l.663-4.524c3.163-21.574 6.93-43.111 12.825-64.126 5.445-19.413 13.939-39.608 25.627-51.883 11.689-12.276 28.353-22.941 45.477-29.473 1.483-.566 30.946-7.022 32.931-6.082l.356-.28c5.874-4.641 14.254-12.794 22.882-10.227l.019-.032c.204-.374 1.001-2.879 2.102-6.174h1.248z" fill="#8FA7DF"/><path fill-rule="evenodd" clip-rule="evenodd" d="M258.81 357.443c7.136-9.054 14.658-11.933 25.773-11.258 7.538-.27 15.056 1.689 21.438 6.014 5.848 3.059 11.034 7.268 14.736 12.688 3.166 4.633.76 16.082 3.652 21.036a28.68 28.68 0 00-.043 1.474c0 4.287 2.981 9.07 8.943 14.351l.237.209v31.15c-10.023 3.085-22.432 4.627-37.227 4.627-14.575 0-29.734-2.449-45.478-7.347l-.716-.225-3.011-33.855 3.011-9.368-.001-7.847 1.164-3.51c2.06-6.171 5.214-15.21 7.522-18.139z" fill="#694D3D"/><path fill-rule="evenodd" clip-rule="evenodd" d="M250.125 430.162c17.642 5.142 32.485 7.713 44.529 7.713 12.044 0 24.548-2.571 37.513-7.713l-3.155 253.887-50.776.621-28.111-254.508z" fill="#9FD8E5"/><path fill-rule="evenodd" clip-rule="evenodd" d="M163.01 541.018c-.195-.367.259-.697.56-.432 6.84 6.007 10.421 15.655 11.172 24.573.795 9.456-.333 19.247-.764 28.7-.48 10.529-.911 21.062-1.496 31.586-.595 10.677-1.235 21.351-1.784 32.031l-1.235 24.024c-.132 2.56.153 5.709-.829 8.098-1.521 3.704-6.041 3.131-6.99.035l-.03-.102-.087.067c-.838-2.79-.21-6.104-.068-8.988l1.294-26.248c.914-18.553 1.729-37.106 2.711-55.655l.334-6.183c.459-8.323.811-16.626 1.094-24.947l.092-2.774c.268-8.355.055-16.242-3.974-23.785zm165.812-154.017c3.811-.362 6.689.903 10.148 2.235 1.507.58 2.934 1.25 4.38 1.944 1.81.869 2.974 2.404 4.089 4.028l.596.875c4.641 6.806 7.764 14.658 11.287 22.068 4.121 8.668 8.283 17.317 12.316 26.026l1.99 4.291a893.185 893.185 0 012.965 6.446l1.688 3.748c1.697 3.801 3.217 7.823.8 11.744-2.249 3.647-6.234 6.469-9.39 9.288l-7.9 7.056c5.445 5.456 9.1 12.327 11.248 19.696 3.053-1.273 6.779-1.517 9.935-2.068 4.418-.771 4.959 5.923.79 5.842-3.08-.061-6.693.254-9.852-.395a61.746 61.746 0 011.201 7.344c1.328 12.917-1.573 25.91-4.598 38.409l-.249 1.026c-3.286 13.527-6.401 27.091-9.188 40.731a1020.228 1020.228 0 00-7.535 41.168c-2.27 14.018-3.877 28.114-5.603 42.206-.261 2.133-1.602 3.961-3.957 3.961-1.962 0-4.204-1.832-3.958-3.961 1.781-15.346 4.308-30.612 6.818-45.854 4.323-26.247 9.764-52.267 16.023-78.115l1.094-4.502c2.816-11.675 5.371-23.704 3.958-35.746-1.15-9.806-5.247-20.261-13.343-26.352l-.247-.183c-1.891-1.388-2.619-4.043-.756-5.871 1.185-1.163 2.372-2.325 3.56-3.486l7.127-6.965 1.437-1.406a138.379 138.379 0 013.642-3.462c.75-.683 2.785-1.984 2.933-3.106.097-.732-.769-2.018-1.121-2.693l-1.608-3.25c-.914-1.853-1.799-3.719-2.691-5.583-1.848-3.861-3.724-7.71-5.532-11.59l-10.863-23.297c-3.065-6.572-5.795-13.511-9.802-19.587l-.79-1.185c-.659-.997-1.242-1.957-1.659-3.177-.4-1.173-.903-2.462-1.644-3.463-1.735-2.35-5.052-3.683-7.828-4.176-.401-.071-.255-.626.089-.659zm-83.553-6.119c.242 0 .278.345.056.412-3.349 1.008-6.548 2.634-9.159 4.981-1.248 1.123-2.506 2.397-3.277 3.909-.295.579-.458 1.19-.578 1.824l-.038.212c-.199 1.144-.484 1.782-1.065 2.698l-.1.156c-3.317 5.127-5.642 10.822-7.768 16.524l-4.629 12.433-4.627 12.435-4.473 12.02a651.973 651.973 0 01-2.517 6.618c-.366.954-.76 1.901-1.095 2.867-.046.132-.193.928-.302 1.121l.037.065c.933 1.571 3.422 2.884 4.832 4.025l4.857 3.93c3.464 2.803 7.016 5.527 10.375 8.455 2.11 1.838.797 5.13-1.556 5.898-3.943 1.285-7.807 2.824-11.691 4.279-1.569.587-3.203 1.099-4.754 1.746l-.944.409c-.368.166-.191.164-.176.845.014.714.217 1.459.333 2.161a1220.16 1220.16 0 004.159 23.711c5.178 27.901 11.364 55.598 18.419 83.082 3.564 13.88 7.386 27.691 11.027 41.551 3.633 13.822 8.413 27.446 12.977 40.983 1.288 3.817-4.76 5.461-6.016 1.66-5.261-15.922-10.073-31.982-15.042-47.994-8.829-28.45-15.787-57.519-21.94-86.657a1227.444 1227.444 0 01-9.773-51.746l-.669-4.054c-.459-2.89-.721-5.9 1.524-8.187 2.191-2.233 5.953-3.024 8.837-4.071l.21-.077c1.835-.685 3.683-1.345 5.524-2.026-2.712-2.137-5.391-4.321-8.096-6.457-2.183-1.723-4.4-3.411-6.551-5.173-1.774-1.454-3.22-3.321-3.405-5.685-.189-2.416.846-4.658 1.68-6.874l.08-.214c.82-2.212 1.641-4.424 2.484-6.628l5.212-13.643c3.313-8.67 6.486-17.41 9.97-26.012 1.378-3.404 2.88-6.755 4.655-9.973a56.577 56.577 0 012.772-4.535c1.117-1.642 2.132-2.443 3.863-3.349 2.769-1.449 4.943-3.878 7.723-5.372 2.729-1.466 5.537-2.249 8.635-2.283zm8.989-15.467c.106-.182.387-.101.39.106.073 4.309-.95 8.712-1.579 12.972-.633 4.276-.835 8.789-1.75 13.019a3.302 3.302 0 01-.111.582l-.043.145c-.386 1.185-1.39 2.189-2.621 2.503.387 2.148.752 4.299 1.059 6.462.527 3.717 1.008 7.44 1.481 11.165l.566 4.469c.535 4.212 1.055 8.426 1.569 12.641 1.307.547 2.642.998 4.008 1.39 3.147.901 6.37 1.267 9.618 1.586 6.613.649 13.277.95 19.914 1.319l1.421.08c7.462.428 14.964.504 22.406-.262a77.694 77.694 0 0010.951-1.921c1.829-.46 3.606-1.145 5.431-1.594.605-.149 1.146-.492 1.753-.859a1.9 1.9 0 011.139-.698l.134-.023.132-.02.045-.02-.003.014c.373-.05.728-.05 1.062-.004.134-3.286.278-6.572.459-9.857.485-8.823 1.826-18.027.036-26.773-.06-.294.34-.398.444-.123 3.512 9.259 3.117 19.384 3.294 29.129.173 9.529.068 19.066.021 28.598.682.291 1.291.684 1.773 1.237.962 1.104 1.239 3.024 0 4.09a5.59 5.59 0 01-1.803 1.028c-.034 8.281-.093 16.562-.176 24.844 1.574 1.216 1.721 4.104-.059 5.305-.296 26.818-.783 53.636-1.187 80.45l-.846 56.256c-.113 7.496-.299 14.991-.366 22.485l.053.021.187.087c.315.148.784.388.882.633a.319.319 0 01.029.141c.516.072 1.028.317 1.47.737 1.093 1.039.871 2.605 0 3.663l-.232.283c-.543.659-1.574.913-2.415.779.008 4.678.038 9.356.023 14.034a291.815 291.815 0 01-.051 4.286l-.058 3.426c-.04 1.954-.213 4.439-2.213 5.317-2.257.991-4.281.179-5.195-2.115-.248-.621-.194-1.2-.104-1.815-.028-.923-.173-1.993-.155-2.849l.075-3.572c.011-.55.034-1.101.049-1.651l-.065.006c-8.02.39-16.096.2-24.129.195l-3.573.005c-2.98.003-5.968-.013-8.944-.127l-1.116-.048c-2.229-.104-4.572-.138-6.883-.337.295 2.373.57 4.748.815 7.126.232 2.254-2.093 4.17-4.167 4.17-2.463 0-3.871-1.938-4.166-4.17-1.392-10.531-1.962-21.16-3.291-31.698-1.191-9.438-2.224-18.898-3.274-28.354l-.351-3.152a13049.594 13049.594 0 01-11.138-103.28l-1.662-16.1c-1.677-16.228-3.365-32.457-4.788-48.709a2385.718 2385.718 0 01-2.269-27.886c-.518-6.832-.843-13.627-1.055-20.447-.835-.859-1.253-2.115-.883-3.411.216-.756.467-1.509.733-2.26-.017-.738-.034-1.476-.049-2.215-.013-.699.696-1.059 1.264-.943 1.032-2.5 2.168-4.979 3.117-7.455 1.534-4.009 2.799-8.328 4.967-12.036zm-85.715 43.32c16.044-10.063 35.142-17.304 54.271-16.525.435.018.557.682.105.782-10.203 2.28-20.518 5.057-30.177 9.099a114.21 114.21 0 00-27.104 16.072c-15.137 12.103-26.902 27.845-34.649 45.59-4.538 10.395-7.719 21.369-10.497 32.347-2.939 11.619-5.361 23.362-7.375 35.177-3.978 23.336-6.294 46.93-7.527 70.564-1.253 24.042-.737 48.101-1.631 72.146-.154 4.166-6.104 4.084-6.407 0-2.026-27.338-.903-55.112.97-82.431 1.685-24.558 4.628-49.065 9.366-73.228l.412-2.095c4.43-22.355 9.772-45.252 20.48-65.498 9.142-17.285 23.255-31.645 39.763-42zM391.342 515.58c.084-.24.4-.237.484 0 1.829 5.124 1.895 10.906 2.381 16.307l.038.415c.467 4.927.818 9.86 1.144 14.796l.121 1.852c1.311 20.14 2.948 40.257 5.416 60.291 2.459 19.958 5.784 39.777 9.379 59.557.401 2.203-.574 4.446-2.882 5.08-2.034.559-4.645-.694-5.075-2.884-2.232-11.353-4.037-22.722-5.648-34.173a839.205 839.205 0 01-6.31-60.742 607.953 607.953 0 01-1.27-30.633c-.077-4.745.046-9.501.299-14.241l.06-1.094c.279-4.845.25-9.911 1.863-14.531zM217.973 643.858c.215-.116.48.123.344.345-3.106 5.053-7.309 9.41-11.371 13.704-4.247 4.489-8.388 9.113-12.721 13.514-3.13 3.179-8.166-1.949-4.862-4.866 4.645-4.101 9.5-7.997 14.228-12.006l2.067-1.754c3.877-3.278 7.868-6.526 12.315-8.937zm147.557-2.53c-.232-.443.298-.801.658-.508 2.506 2.039 4.752 4.472 7.172 6.624 2.396 2.132 4.882 4.121 7.436 6.06a142.147 142.147 0 007.875 5.586c2.232 1.467 4.532 2.642 6.87 3.861 1.082.139 2.085.671 2.887 1.679 1.268 1.594 1.403 4.6-.356 5.984l-.316.248c-2.053 1.615-4.491 1.812-6.512 0-2.257-2.022-4.39-4.248-6.558-6.386l-.651-.638c-2.329-2.266-4.601-4.605-6.744-7.049l-1.939-2.208c-3.598-4.106-7.343-8.532-9.822-13.253zm-11.543-236.73c-.417-.277-.16-1.021.355-.843l.944.326c3.943 1.372 8.001 2.893 11.581 5.004 3.848 2.269 7.4 4.972 10.794 7.871 7.025 6.002 13.002 13.382 18.081 21.075 10.191 15.436 16.494 33.115 21.582 50.803 5.426 18.86 9.604 38.127 13.015 57.447 3.465 19.635 6.139 39.447 7.896 59.31a502.661 502.661 0 011.739 29.392c.151 5.051.146 10.098.104 15.151-.011 1.299-.002 2.598.013 3.896l.049 3.897c.026 2.464.321 5.053-.264 7.46-.942 3.874-7.342 3.151-7.132-.809-.193-1.317-.201-2.679-.151-4.043-.03-.176-.063-.355-.1-.538a2.202 2.202 0 01.19-1.425c.033-.654.063-1.305.074-1.944.042-2.601.039-5.192-.033-7.793-.151-5.484-.369-10.967-.589-16.448-.44-10.953-1.052-21.911-1.939-32.836-3.087-38.031-9.604-76.279-20.552-112.867-5.085-16.991-12.094-33.67-22.147-48.352-4.462-6.518-9.497-12.539-15.078-18.126-5.617-5.623-11.806-11.217-18.432-15.608zm-75.751 245.164l.758 5.492c.38 2.746.755 5.493 1.112 8.243 2.421-.332 4.898-.471 7.232-.678 4.085-.362 8.198-.538 12.295-.707 8.472-.35 16.986-.956 25.467-.914.087.001.169.006.252.013l.42-10.836-5.958-.009c-5.049-.008-10.096-.051-15.145-.095-4.546-.039-9.095-.045-13.641-.14l-1.948-.046c-3.447-.093-7.254.099-10.844-.323zm48.036-15.729c-.243.029-.49.053-.753.064-1.18.05-2.37.015-3.551.025-2.515.022-5.029.039-7.544.038-5.03 0-10.059.03-15.088.091-5.177.063-10.35.153-15.528.163-2.508.004-5.009-.062-7.517-.132.406 3.566.83 7.13 1.298 10.685 3.894-.526 8.082-.261 11.888-.297l.494-.007c5.195-.088 10.394-.023 15.59-.017 5.345.007 10.689.024 16.035.068l4.391.036.008-.221c.129-3.495.212-6.995.277-10.496zm-51.912-17.062c.486 4.21.943 8.427 1.409 12.642.31-.047.623-.089.943-.122 2.512-.263 5.019-.488 7.54-.645 5.025-.311 10.05-.476 15.084-.611 5.176-.139 10.353-.245 15.531-.319 2.516-.035 5.029-.031 7.545-.014 1.18.008 2.372-.029 3.55.05.141.01.275.024.408.04l.089-6.33c.015-1.055.031-2.109.048-3.164-3.888.24-7.841.149-11.726.15l-.896.002c-4.881.022-9.765-.045-14.646-.146-5.035-.105-10.06-.27-15.087-.593a132.78 132.78 0 01-6.083-.527l-1.013-.116c-.882-.104-1.789-.188-2.696-.297zm52.548-17.862c-9.364.744-18.678 1.055-28.066 1.147l-1.409.012c-8.297.063-16.662.406-24.978.186.497 4.314.993 8.629 1.493 12.943 1.191-.056 2.387-.056 3.551-.098 2.368-.086 4.728-.107 7.097-.113 4.881-.011 9.762.032 14.643.022 5.031-.011 10.06-.096 15.09-.191 4.078-.076 8.199-.383 12.288-.372l.291-13.536zm.396-18.407c-1.085.361-2.366.384-3.77.448l-3.625.181c-1.68.083-3.361.16-5.042.221-5.602.206-11.203.397-16.806.576-5.741.182-11.51.288-17.252.107a161.556 161.556 0 01-8.406-.471c-.694-.058-1.4-.096-2.108-.146.652 5.716 1.308 11.432 1.965 17.147 8.277-1.016 16.617-1.649 24.883-2.701l7.475-.955c7.471-.954 14.936-1.89 22.434-2.68l.252-11.727zm.399-18.61c-1.592.393-3.407.374-4.935.47l-.284.02c-2.896.22-5.801.33-8.704.401a917.22 917.22 0 01-17.078.246l-3.423.021c-4.563.027-9.124.038-13.688-.068-2.928-.068-5.85-.212-8.775-.358-.877-.045-1.773-.074-2.672-.119.612 5.412 1.23 10.823 1.846 16.234.961-.153 1.927-.269 2.848-.425 2.358-.398 4.711-.717 7.086-1.002 5.144-.616 10.315-1.06 15.483-1.435 5.306-.385 10.616-.71 15.922-1.083l3.759-.265a467.91 467.91 0 013.759-.248c2.14-.131 4.628.017 6.751-.449a3.096 3.096 0 011.853-.158l.252-11.782zm.482-21.784c-.551.7-1.374 1.067-2.355 1.194-5.109.664-10.35.77-15.503 1.083l-.908.057c-5.321.351-10.644.627-15.969.91-5.469.29-10.938.527-16.412.718-2.324.081-4.66.09-6.987.061l-.997-.015c-.956-.017-1.957-.014-2.96-.047.555 5.061 1.116 10.121 1.684 15.18 1.023-.112 2.046-.196 3.038-.302 2.924-.309 5.844-.615 8.775-.846 5.553-.438 11.11-.701 16.673-.977 5.692-.282 11.387-.469 17.08-.735 2.76-.13 5.52-.29 8.272-.544 1.928-.178 4.219-.835 6.232-.593.11-5.048.224-10.096.337-15.144zm.449-19.514a2.204 2.204 0 01-.313.387c-2.249 2.225-5.022 2.053-8.003 2.287l-.183.014c-2.921.246-5.844.48-8.769.691-5.847.423-11.705.718-17.56.981-5.992.27-12.023.456-18.021.333-3.841-.079-7.864-.065-11.782-.439.602 5.573 1.207 11.146 1.817 16.718 1.101-.207 2.21-.367 3.26-.532 2.647-.417 5.296-.835 7.958-1.142a889.742 889.742 0 0115.969-1.703c4.557-.443 9.113-.892 13.674-1.296l2.738-.237c5.441-.458 10.952-1.213 16.411-1.325.9-.018 1.918.472 2.433 1.245.121-5.328.246-10.655.371-15.982zm.378-15.797c-1.39.169-2.887.073-4.17.115-3.242.106-6.485.204-9.728.3l-19.458.575c-6.624.195-13.272.342-19.9.248-2.915-.041-5.843-.046-8.757-.205l-.971-.059c-1.2-.08-2.672-.091-4.109-.237l1.697 15.73c3.899-.563 7.917-.774 11.782-1.105l.826-.073c5.702-.519 11.431-.863 17.142-1.25 5.859-.397 11.71-.879 17.561-1.372 2.924-.246 5.848-.492 8.771-.761l.361-.035c2.76-.289 5.356-.903 7.8.726.358.238.638.556.83.913.107-4.503.211-9.007.323-13.51zm.453-18.358c-11.85.477-23.702.839-35.561.998-6.675.09-13.341.027-20.016-.113a157.339 157.339 0 01-8.704-.421l-1.083-.087c-1.375-.116-2.819-.2-4.258-.339.595 5.409 1.184 10.818 1.77 16.228 1.414-.263 2.893-.384 4.133-.543l.282-.037c3.08-.425 6.19-.672 9.286-.944 6.028-.532 12.087-.874 18.131-1.165 6.19-.299 12.383-.551 18.573-.827l6.191-.277c1.032-.046 2.064-.091 3.096-.134 1.474-.063 2.948-.122 4.422-.183.727-.03 1.483-.129 2.211-.091l.208-.028.257-.031c.198-.15.411-.276.637-.37l.137-.054.288-11.582zM257.9 469.241c.551 4.869 1.095 9.739 1.632 14.61 1.69-.193 3.4-.3 5.014-.446 3.254-.291 6.523-.547 9.787-.697l6.523-.304c4.349-.201 8.697-.395 13.048-.554a2460.55 2460.55 0 0035.721-1.542c.084-3.303.171-6.607.259-9.91-.571.612-1.397 1.015-2.481 1.013-12.496-.034-25.001.038-37.495-.167-6.254-.103-12.501-.255-18.748-.576-3.056-.157-6.13-.477-9.163-.898-1.294-.179-2.709-.307-4.097-.529zm-2-17.35c.588 4.988 1.164 9.977 1.731 14.967 1.552-.277 3.155-.425 4.603-.622 3.11-.423 6.24-.761 9.373-.938 6.096-.345 12.196-.519 18.301-.648 12.493-.266 24.999-.264 37.495-.363 1.174-.009 2.045.456 2.617 1.15.087-3.115.179-6.23.273-9.345-1.207-.127-2.404-.308-3.511-.385a829.266 829.266 0 00-10.214-.651c-7.107-.408-14.222-.756-21.334-1.066a3304.59 3304.59 0 00-21.347-.876l-3.113-.114c-4.949-.184-9.982-.417-14.874-1.109zm-2.237-18.784c.611 5.052 1.213 10.104 1.814 15.157l.183 1.564c5.952-1.158 12.224-1.498 18.227-1.753a467.528 467.528 0 0121.347-.437c7.117.021 14.223.19 21.334.484 3.553.147 7.106.317 10.657.51.977.053 2.122.024 3.3.041.026-.794.047-1.588.075-2.381.108-3.216.214-6.432.324-9.648-2.402 1.235-5.525 1.733-7.939 2.259l-.275.061c-3.986.896-8.055 1.476-12.124 1.831-7.989.698-16.062.437-24.043-.238l-1.398-.12c-7.01-.608-14.276-1.379-21.071-3.115-3.236-.827-6.582-1.984-9.483-3.661a35.863 35.863 0 01-.928-.554zm67.487-60.028c.07-.273.478-.335.613-.08.944 1.794 1.295 3.948 1.95 5.871.705 2.067 1.363 4.15 2.141 6.192 1.626 4.266 3.543 8.366 5.83 12.319 2.264 3.913-4.076 6.707-5.742 2.422-1.72-4.421-3.134-8.993-3.989-13.665-.418-2.279-.79-4.59-.911-6.906-.104-1.99-.383-4.212.108-6.153z" fill="#000"/><path fill-rule="evenodd" clip-rule="evenodd" d="M358.234 245.541c-15.682-41.378-43.949-71.673-91.604-52.645-1.367-.933-3.151-1.183-4.86-.09-25.96 16.348-44.653 42.558-52.755 72.113-4.93.941-9.721 2.58-14 5.269-9.3 5.845-15.556 15.144-21.422 24.202-1.763 2.723-.13 7.231 3.184 7.849 1.44.269 2.867.429 4.286.471-.346 1.258-.8 2.473-1.379 3.587-2.097 4.035 1.864 8.318 5.575 7.215.412.219.844.398 1.291.533.051 2.286 1.222 5.345 3.539 5.807 3.748.806 8.728-2.071 7.844-6.275 1.132.2 2.26.225 3.36.086.123 2.19.085 4.474.386 6.493.985 9.517 10.466 15.91 19.507 13.015.555 2.965 1.206 7.132 4.118 8.74 3.405 9.579 9.283 20.511 18.912 24.876-.857 2.202-.392 4.882 2.19 6.356 17.625 10.078 38.779 13.488 58.706 9.741 7.963-.475 15.722-2.28 23.169-6.125 5.431-2.804 10.424-6.365 15.298-10.036 4.876-3.672 10.09-7.247 13.982-12.015 4.227-5.178 6.195-11.271 7.472-17.755 5.852-29.434 3.831-58.334-6.799-86.373-13.159-34.707 13.154 29.67 0-5.039z" fill="#694D3D"/><path fill-rule="evenodd" clip-rule="evenodd" d="M194.969 268.496c14.638-8.66 33.305-6.418 42.099 6.996 1.518 2.315 2.566 4.863 3.307 7.812l.119.49.12.516c.383 1.705.634 3.309.975 6.037l.378 3.095.108.844c.366 2.801.687 4.571 1.188 6.375l.099.35.579 1.998-2.184.809c-4.183 1.515-5.059 1.651-7.473.385-1.885-.988-2.869-2.319-4.179-5.015l-.189-.395-.418-.879-.227-.464c-.853-1.708-1.536-3.53-2.502-4.192-1.311-.899-5.443-1.256-8.317-.902l-.15.019-.124.026-.213.048c-4.833 1.146-9.238 5.059-12.144 9.194-2.339 3.329-3.683 7.523-3.848 11.882l-.01.29-.057 2.225-4.685-.1.046-.866-.07.154c-1.476 3.121-5.185 5.199-8.287 3.133l-.111-.075-.112-.081c-2.62-1.934-2.935-5.848-.785-8.226l.099-.107.097-.098-.02-.009-.022-.008-.014-.001c-.732.135-1.376.511-2.246 1.313l-.224.21-.449.488-.465.498-.2.206a9.706 9.706 0 01-.355.343c-.149.136-.287.25-.436.354-.139.096-.282.18-.455.256a2.166 2.166 0 01-1.467.13c-.801-.197-1.252-.683-1.525-1.255a2.644 2.644 0 01-.21-.642 4.734 4.734 0 01-.079-.721c-.007-.174-.01-.364-.009-.571l.006-.324.011-.352.012-.281.053-1.043c.189-3.423 1.086-6.785 2.622-9.959l.156-.316.058-.115-.161.216c-1.047 1.384-2.058 2.344-3.321 2.977l-.173.085-.17.077c-1.752.772-3.516.472-4.581-.958-.737-.99-.955-2.293-.804-3.663.293-2.659 1.342-5.093 3.394-8.645l.288-.494 1.127-1.917c4.342-7.329 9.923-13.249 16.53-17.157z" fill="#E8E1E1"/><path fill-rule="evenodd" clip-rule="evenodd" d="M282.422 184.833c8.025-.568 16.197.789 23.84 3.216 12.189 3.87 23.383 10.699 32.58 19.589 9.478 9.163 16.489 20.459 20.751 32.936 5.14 15.047 5.91 31.113 7.357 46.821.73 7.935 1.935 15.75 3.187 23.609l.198 1.242c1.223 7.657 1.911 15.401.222 23.046-2.81 12.706-11.23 23.492-21.226 31.462-20.534 16.372-52.5 26.353-76.408 11.288-3.698-2.331-.193-8.292 3.417-5.863 2.542 1.71 5.234 3.209 8.121 4.244 12.062 4.323 25.31 2.783 37.232-1.238 11.748-3.963 23.021-10.66 31.69-19.596 9.106-9.385 14.152-20.979 13.423-34.171-.435-7.848-2.218-15.552-3.207-23.337-.877-6.895-1.403-13.828-2.008-20.751l-.222-2.49c-1.285-14.105-3.129-28.596-9.528-41.4-5.382-10.771-13.263-20.353-22.74-27.754-9.921-7.748-21.771-13.167-34.204-15.188-14.622-2.376-28.618 1.945-40.814 9.991-10.818 7.135-20.117 16.669-27.248 27.488-3.458 5.246-6.404 10.848-8.948 16.593-2.397 5.413-4.05 11.086-5.978 16.665a34.497 34.497 0 014.837.196c8.399.933 16.225 5.299 21.207 12.183 6.088 8.412 4.443 18.738 6.821 28.305.184.743-.129 1.47-.763 1.881-3.606 2.337-8.431 2.415-11.921-.217-3.029-2.284-4.451-6.414-3.225-10.022.16-.47.843-.387.862.117.231 6.141 5.911 10.869 11.479 7.947-2.389-8.249-1.132-17.463-6.016-24.914-8.646-13.188-26.538-13.733-39.105-6.299-6.614 3.912-11.849 9.795-15.747 16.374l-1.123 1.91c-1.494 2.552-3.076 5.439-3.386 8.25-.179 1.622.418 3.146 2.273 2.329 1.501-.661 2.663-2.203 3.554-3.529 1.521-2.26 5.015-.307 3.759 2.1l-.043.079c-1.828 3.247-2.953 6.826-3.159 10.555l-.053 1.032c-.034.753-.059 1.823.1 1.862.19.047 1.512-1.485 1.733-1.697 1.06-1.022 2.153-1.857 3.63-2.129 1.941-.357 3.9 2.052 2.214 3.631l-.07.064c-1.504 1.311-1.437 3.926.224 5.152 2.345 1.731 5.231-1.094 5.572-3.42l.011-.085c.301-2.513 3.781-2.602 3.97 0 .41 5.646-6.292 10.378-11.392 7.53-2.016-1.126-3.298-3.187-3.7-5.397-.644.341-1.338.578-2.072.643-2.39.213-4.089-1.473-4.476-3.735-.45-2.635-.183-5.457.509-8.194-1.298.314-2.663.194-4.035-.6-4.153-2.403-2.96-7.748-1.392-11.357 6.692-15.403 20.558-29.379 37.737-30.489.094-2.717.461-5.286 1.062-8.008 5.876-26.617 24.911-51.264 49.691-62.783 6.622-3.079 13.645-5.15 20.946-5.667zm-64.986 106.326l.235-.054c2.678-.578 9.723-1.258 8.874 3.261-.04.212-.348.186-.403 0-.832-2.841-6.482-.569-8.131.115a23.78 23.78 0 00-6.375 3.948c-4.066 3.539-6.791 8.527-7.205 13.943-.411 5.373 1.143 11.177 5.008 15.064 1.894 1.905 4.312 3.198 7.028 3.293 2.441.085 5.137-1.82 7.389-.704.444.22.796.823.755 1.321-.075.941-.495 1.673-1.12 2.242 3.77 6.89 6.855 14.183 11.664 20.449 2.414 3.144 5.148 6.055 8.245 8.533 1.472 1.178 3.072 2.212 4.722 3.121 1.934 1.066 3.607 1.733 4.987 3.539 1.177 1.54-.001 4.518-1.94 4.784-4.569.624-9.008-3.08-12.362-5.855-3.351-2.773-6.247-6.193-8.64-9.822-4.595-6.968-7.739-15.188-8.996-23.505-1.46.464-3.103.606-4.339.609-3.288.007-6.428-1.179-9.013-3.184-9.461-7.34-10.513-22.408-3.836-31.911 3.195-4.547 8.05-7.907 13.453-9.187zm.059 17.477c2.194-.193 4.386.154 6.448.904l.85.309c1.796.659 3.707 1.433 5.004 2.783 1.981 2.064.009 5.639-2.814 4.848-3.12-.874-5.657-3.51-8.776-4.616-2.789-.988-5.947-.848-8.422.854-.327.225-.757-.219-.543-.545 1.893-2.891 4.882-4.241 8.253-4.537z" fill="#000"/><path fill-rule="evenodd" clip-rule="evenodd" d="M326.043 341.778c.686-1.192 2.263-2.297 3.707-2.128 6.467.759 6.456 8.607 3.959 13.188-2.214 4.063-6.797 6.447-11.383 6.099-4.819-.366-8.924-3.201-10.731-7.712-1.195-2.985-1.747-8.494 1.432-10.499.059-.037.156-.028.203.026 1.524 1.775 1.584 4.439 2.918 6.414 1.241 1.838 3.169 3.355 5.427 3.589 1.687.175 3.393-.433 4.053-1.949.357-.82.316-1.265.182-1.829l-.122-.49c-.422-1.718-.612-3.025.355-4.709zm1.729-34.416c3.373 2.052 8.513 6.836 4.884 11.924-4.271 4.485-10.421-.658-13.451-2.984-2.81-1.802-5.967 2.834-3.36 4.939 21.898 16.226 30.784-13.343 13.633-16.292-1.888-.325-2.59 1.778-1.706 2.413zm-35.619-14.071c2.07-3.109 6.796-2.651 7.936 1.038.618 1.998-.235 3.794-.191 5.79.037 1.686-.073 3.564-.589 5.197-1.178 3.723-4.524 6.353-8.482 6.244-3.945-.109-7.419-2.608-9.072-6.128-1.658-3.533-1.307-7.189-.096-10.782.058-.172.284-.256.42-.111 1.431 1.522 2.478 3.129 3.562 4.833l1.111 1.747c.849 1.315 2.083 2.995 3.668 2.89l.237-.024c.441-.038.373.05.713-.551.157-.278.129-.795.205-1.123l.026-.111-.014-.06c-.034-.159-.067-.458-.094-.978l-.006-.114c-.115-2.431-.801-5.555.666-7.757zm52.481 2.069c-.371-3.976 5.214-4.859 7.071-1.917.968 1.535 1.25 3.462 1.464 5.288l.101.867c.219 1.875.306 3.826-.507 5.575-1.281 2.755-4.067 4.212-7.072 3.981-2.87-.221-5.489-1.886-6.869-4.414-1.23-2.256-2.454-6.66-.959-9.013.09-.143.27-.161.394-.051 1.412 1.255 1.643 3.544 2.482 5.179.866 1.686 2.18 3.329 4.171 3.585 1.905.245 2.632-.796 2.146-2.613-.626-2.346-2.186-3.942-2.422-6.467zm-50.973-25.708l.914-.35c3.129-1.183 7.426-2.551 9.97-.004 1.57 1.57 1.869 3.884.748 5.8-1.357 2.322-3.792 2.379-6.143 2.721a32.447 32.447 0 00-7.884 2.183c-2.805 1.188-5.408 2.668-7.958 4.322-2.424 1.571-4.839 4.14-7.74 4.624-.118.019-.253-.032-.284-.162-.658-2.838 1.173-5.632 2.806-7.847 1.977-2.681 4.373-4.882 7.05-6.855 2.584-1.905 5.537-3.282 8.521-4.432zm56.848 10.093l.279-.049c1.898-.316 3.618-.243 5.048 1.261 1.091 1.147 1.512 2.635.992 4.152-.48 1.4-1.554 2.822-3.113 3.115-5.261.991-11.089.827-16.377.077-2.419-.343-4.86-.763-7.217-1.426l-1.084-.315c-1.967-.562-4.219-1.15-5.648-2.598-.514-.52-.218-1.265.397-1.506 2.493-.977 5.911-.457 8.57-.533 3.092-.089 6.19-.321 9.268-.641 3.008-.313 5.919-.993 8.885-1.537z" fill="#000"/><path fill-rule="evenodd" clip-rule="evenodd" d="M379.641 273.325a52.667 52.667 0 00-1.104-.173 3.32 3.32 0 00-1.017-.365 17.34 17.34 0 00-2.673-.463c-12.744-2.871-42.228 1.205-43.445 12.09-4.059 1.356-7.57.142-12.274.262-3.581-14.978-65.483-12.864-68.46-3.834-.011-.003-.023-.005-.034-.009-2.861-.886-7.078-.672-10.352-.813-6.991-.146-13.99.477-20.83 1.953-12.809 2.037-30.289 4.422-21.381 20.43l.005.009.001-.002c1.536 1.575 4.141.307 4.238-1.825-2.995-7.584 3.77-8.494 8.974-10.674 12.951-4.656 26.136-5.302 39.53-3.861 1.008 1.187 2.537 2.222 4.153 2.764 8.955 1.488 4.236 8.137 9.897 9.104-1.04 23.176 27.074 35.826 43.364 20.591 6.504-6.364 8.055-15.792 9.563-24.29.797-.179 1.304-.615 1.6-1.193 1.918-1.916 3.122-3.686 6.914-4.212 3.792-.526 6.711.53 7.106.853.1.201.206.402.331.603.173.3.409.539.677.728-3.745 23.078 14.157 37.674 32.229 25.704 7.853-7.393 9.512-18.712 9.84-28.814 1.064-.643 1.738-1.889 1.37-3.455-.508-2.16.683-4.029 2.58-4.968 2.464-1.219 2.028-5.671-.802-6.14zm-77.654 10.949c-2.244-.494-3.202 2.967-.951 3.462 1.593.351 2.944 1.155 3.856 2.518l.096.148c1.225 1.95 4.321.15 3.088-1.813-1.387-2.208-3.543-3.755-6.089-4.315zm65.7-2.147c-.791-.557-1.988-.143-2.447.645-.505.867-.174 1.833.567 2.4l.075.056c.68.479 1.341 1.338 1.424 2.218l.008.11c.089 2.304 3.665 2.315 3.576 0-.087-2.264-1.397-4.156-3.203-5.429z" fill="#000"/><path d="M350.171 115.684c3.198 4.601 5.453 10.363 4.485 15.559-.94 5.209-5.103 9.851-9.998 13.671-4.896 3.821-10.529 6.751-15.458 5.897-4.918-.883-9.136-5.617-13.311-9.913-4.162-4.323-8.308-8.218-9.803-13.145-1.467-4.916-.271-10.891 2.686-16.004 2.94-5.152 7.64-9.443 12.914-10.58 5.302-1.127 11.177.899 16.16 3.653 5.01 2.766 9.128 6.261 12.325 10.862z" fill="#9FD8E5"/><path d="M358.115 31.944c4.983 7.192 8.491 16.202 6.971 24.334-1.477 8.15-7.983 15.42-15.631 21.406-7.648 5.986-16.445 10.581-24.137 9.253-7.673-1.371-14.249-8.77-20.756-15.483-6.49-6.755-12.953-12.84-15.277-20.546-2.28-7.688-.402-17.039 4.222-25.043 4.598-8.066 11.943-14.786 20.176-16.576 8.277-1.772 17.443 1.386 25.214 5.686 7.815 4.318 14.236 9.778 19.218 16.97zm45.961 91.197c1.599 2.299 2.726 5.18 2.242 7.778-.47 2.605-2.552 4.926-4.999 6.837-2.448 1.909-5.265 3.375-7.729 2.947-2.459-.44-4.568-2.808-6.655-4.955-2.082-2.162-4.155-4.11-4.902-6.573-.733-2.458-.136-5.446 1.343-8.002 1.47-2.576 3.82-4.721 6.457-5.29 2.651-.563 5.588.449 8.079 1.827 2.506 1.382 4.564 3.13 6.164 5.431zm31.264-106.65c2.578 3.709 4.396 8.353 3.615 12.542-.758 4.198-4.113 7.94-8.06 11.02-3.945 3.079-8.486 5.441-12.458 4.752-3.965-.711-7.364-4.528-10.73-7.99-3.355-3.484-6.696-6.623-7.901-10.595-1.183-3.962-.218-8.779 2.164-12.9 2.371-4.153 6.16-7.611 10.41-8.528 4.273-.908 9.009.725 13.025 2.945 4.039 2.23 7.358 5.046 9.935 8.754z" fill="#9093D1"/><path d="M419.231 68.164c3.198 4.601 5.453 10.363 4.485 15.56-.94 5.208-5.103 9.85-9.999 13.671-4.895 3.82-10.528 6.751-15.457 5.896-4.918-.882-9.137-5.617-13.311-9.912-4.163-4.323-8.309-8.218-9.803-13.145-1.467-4.916-.271-10.892 2.685-16.005 2.94-5.152 7.642-9.442 12.915-10.58 5.302-1.126 11.177.9 16.16 3.654 5.01 2.766 9.127 6.26 12.325 10.861z" fill="#F7859C"/><path d="M501.765 116.821c4.983 7.191 8.491 16.202 6.971 24.334-1.477 8.148-7.983 15.42-15.631 21.406-7.648 5.985-16.445 10.58-24.137 9.252-7.673-1.371-14.249-8.77-20.756-15.482-6.489-6.755-12.953-12.841-15.277-20.547-2.279-7.687-.402-17.039 4.222-25.043 4.598-8.066 11.943-14.786 20.176-16.576 8.277-1.771 17.444 1.386 25.215 5.686 7.815 4.318 14.235 9.778 19.217 16.97z" fill="#FFDBB4"/></svg>