<svg width="392" height="501" fill="none" xmlns="http://www.w3.org/2000/svg"><path fill-rule="evenodd" clip-rule="evenodd" d="M46.553 289.098c6.874-28.591 31.253-50.777 64.041-61.83 6.302-3.129 12.412-16.558 20.882-19.017 1.358-.394-.785 2.743 0 2.931 2.801.668 5.94.738 9.033-1.676 5.527-4.313 7.261-16.914 10.622-22.609 17.725-30.037 61.979-18.284 67.908 14.921 4.134 2.365 9.978 4.449 14.478 6.355 4.634 1.963 8.71 6.717 13.485 8.417 4.261 1.517 11.281.442 15.575 1.765 19.746 6.081 36.471 13.754 49.583 29.301 2.763 3.279 5.878 7.31 8.392 10.623 12.962 13.1 21.965 27.783 30.257 43.536 23.2 46.238 29.51 97.434 35.171 147.253-.129 8.717 6.46 32.887-3.285 37.066.583.53.372 1.595-.709 1.586-24.708-.219-49.359 1.722-73.684 5.496-11.736 1.821-23.41 4.319-35.365 4.729-24.816-.15-49.543-3.801-74.327-.346-29.794 0-66.002-.763-99.148-1.881-30.977-1.046-62.121 1.316-92.715-3.309-2.421-.337-3.604-2.93-3.096-4.788 3.589-11.482 5.351-23.3 7.365-35.052-.401-7.538.316-15.408 3.493-22.429 8.299-47.398 18.94-94.486 32.043-141.042z" fill="#FFDBB4"/><path fill-rule="evenodd" clip-rule="evenodd" d="M131.476 211.355c-.785-.187 1.358-3.324 0-2.93-8.47 2.459-14.58 15.887-20.882 19.017-32.788 11.052-57.167 33.238-64.042 61.83-13.102 46.555-23.744 93.644-32.043 141.042-3.177 7.021-3.894 14.89-3.493 22.428l-.316 1.856c-1.889 11.139-3.65 22.319-7.05 33.197-.507 1.858.675 4.451 3.097 4.787 30.246 4.573 61.03 2.317 91.659 3.275l6.384.21c31.661 1.022 65.615 1.705 93.82 1.705 24.784-3.455 49.511.196 74.327.347 11.955-.411 23.628-2.908 35.365-4.729 24.325-3.775 48.976-5.716 73.684-5.497 1.081.009 1.292-1.055.709-1.585 9.745-4.179 3.156-28.35 3.285-37.067l-.512-4.487c-5.543-48.398-12.156-97.914-34.659-142.765l-.674-1.275c-8.108-15.271-16.972-29.515-29.583-42.261l-.772-1.014c-2.362-3.098-5.133-6.658-7.62-9.609-13.112-15.547-29.837-23.221-49.584-29.302-4.293-1.322-11.313-.248-15.574-1.764-4.466-1.59-8.321-5.852-12.592-8.003v16.043l-61.805 53.45-35.054-47.188-3.565-19.326a14.207 14.207 0 01-2.51-.385z" fill="#8FA7DF"/><path fill-rule="evenodd" clip-rule="evenodd" d="M56.55 351.399c.653 2.787 1.57 5.574 2.788 8.213 1.173 2.548 2.941 4.83 4.16 7.347.163.339.43.596.753.792l-.101.684-.093.685c-.607 4.621-1.29 9.229-1.882 13.85l-.287 2.311c-1.163 9.647-3 19.247-4.427 28.868-1.397 9.422-2.818 18.843-4.338 28.252-1.57 9.699-3.17 19.386-5.037 29.047-.788 4.08-1.61 8.156-2.468 12.23l-.662 3.117c-6.814 1.439-8.676 9.778-1.738 12.856 3.15 1.391 7.195 1.057 9.79-1.13 2.698-2.279 2.81-6.388 3.436-9.474l.603-2.868c4.512-21.566 8.428-43.381 10.259-65.252.47-5.647.867-11.299 1.124-16.956.245-5.32.128-10.64.222-15.961l.03-1.451c.144-5.674.025-11.339-.143-17.013a73.39 73.39 0 00-.094-2.078c.227-.235.391-.513.46-.783l.09-.356c.223-.917-.03-1.991-.833-2.648-.346-3.865-.802-7.726-.925-11.586-.01-.318-.53-.309-.56 0-.293 3.286-.877 6.582-1.46 9.873-3.76-2.652-6.538-7.026-8.177-10.686-.119-.266-.56-.17-.49.117zm88.933-153.657c-.624 2.505-1.858 4.753-3.512 6.844-.787 1-1.683 1.93-2.758 2.709-.922.664-1.972 1.099-2.952 1.678-1.426-.196-2.916.278-3.917 1.199l.158-1.347c.05-.435-.772-.522-.866-.1-4.333 19.182-8.284 38.377-11.705 57.699l-1.499 8.533-1.411 8.01c-2.342 13.348-4.608 26.691-6.314 40.137-2.273 17.943-4.184 35.934-5.58 53.95-1.402 18.144-2.264 36.299-2.878 54.478-.153 4.582-.317 9.16-.475 13.742l-1.058-5.478c-1.056-5.48-2.09-10.964-2.978-16.469-3.184-19.699-5.73-39.538-6.973-59.407-1.14-18.182-.758-36.725 4.511-54.437a99.651 99.651 0 014.913-13.118c1.902-4.155 4.496-8.008 6.542-12.103 2.377-4.765 3.09-9.261 1.867-14.391-1.07-4.469-2.947-8.674-3.283-13.273-.63-8.539 2.535-16.809 7.007-24.282a130.324 130.324 0 013.719-5.84c3.927-5.821 8.355-11.43 12.95-16.808.248-.286-.277-.604-.545-.369-4.189 3.635-8.77 7.208-12.539 11.178a128.54 128.54 0 00-5.313 5.921c-18.581 2.726-34.548 12.887-45.462 26.304-12.386 15.226-18.65 33.551-23.286 51.598-5.155 20.056-9.503 40.295-14.134 60.45-4.793 20.857-9.562 41.713-14.386 62.564-2.396 10.352-4.794 20.704-7.185 31.06a729.644 729.644 0 01-3.818 15.7c-.684 2.678-1.417 5.352-2.051 8.039-.713 3.03-.05 4.969 2.288 7.195.862.826 2.224.813 3.293.374l.335-.138.323-.137c1.324-.571 2.361-1.163 3.185-2.434.907-1.395 1.05-2.943 1.362-4.495.575-2.857 1.144-5.713 1.718-8.574.859-4.278 1.792-8.544 2.742-12.809l4.766-21.313a8931.56 8931.56 0 013.824-17.046c4.57-20.312 9.146-40.62 13.722-60.928 4.393-19.5 8.28-39.134 13.282-58.521l.284-1.092.29-1.091c4.471-16.713 10.72-32.879 22.058-47.041 8.726-10.891 20.844-20.617 35.117-25.539a79.36 79.36 0 00-2.893 3.887c-5.784 8.296-10.008 18.143-9.018 28.021.485 4.826 2.575 9.569 2.377 14.435-.183 4.321-3.229 8.117-5.334 11.877-4.778 8.522-8.235 17.578-10.464 26.869-4.472 18.656-4.457 37.851-2.916 56.789 1.674 20.587 4.853 41.169 8.473 61.555 1.857 10.456 4.328 20.826 6.22 31.265.936 5.147 2.209 10.282 3.323 15.404l.531 2.447c.298 1.358.606 2.711.962 4.05l.22.802v.144c.01.987.318 1.804.813 2.457.678 1.908 1.52 3.769 2.639 5.556a3.518 3.518 0 002.313 1.613c.911 1.83 2.976 3.239 5.442 3.23l32.433-.108c18.838-.066 37.677-.175 56.515-.266 4.754-.021 9.503-.1 14.252-.208 4.452-.109 8.721-.579 13.124-1.066 4.972-.547 7.666-3.639 6.923-7.999-.163-.962-.341-1.918-.51-2.874.991.287 2.169.152 2.966-.531l.748-.642c1.036-.9 1.963-1.783 2.62-2.984.678-1.234 1.229-2.539 1.828-3.799a380.484 380.484 0 003.774-8.17c2.45-5.469 4.902-10.96 7.18-16.487a387.432 387.432 0 0011.974-33.285c6.191-20.043 10.668-40.473 13.491-61.085l.675-4.913.196-1.451c1.07-7.989 1.971-16.103 1.546-24.075-.263-4.991-1.144-10.021-3.269-14.682-1.961-4.3-4.987-7.978-7.864-11.821l-.329-.444-.331-.454c-2.517-3.491-4.519-7.141-4.619-11.38-.102-4.302 1.326-8.489 2.922-12.517l.398-.993.267-.657c3.396-8.324 7.26-16.531 5.985-25.588-1.882-13.339-11.093-24.091-22.681-32.382 10.306 1.791 20.507 5.33 29.51 9.817 10.633 5.304 20.206 12.304 28.461 20.204 15.6 14.929 26.738 32.842 35.854 51.337 9.544 19.356 16.621 39.638 21.954 60.186 5.363 20.664 8.953 41.659 11.405 62.737 1.223 10.491 2.184 21.008 2.981 31.529.406 5.392.713 10.791 1.188 16.174.476 5.378.689 10.838 2.185 16.073.698 2.439 5.408 2.687 5.912 0 1.12-6 .807-12.206.495-18.282l-.029-.552c-.307-6.052-.708-12.1-1.183-18.147-.971-12.361-2.268-24.704-3.962-37.008-5.938-43.19-16.888-86.154-38.366-125.579-10.112-18.569-23.092-36.612-41.148-50.02-8.597-6.379-18.288-11.47-28.733-15.156-9.34-3.3-18.829-4.861-28.753-4.857-4.977-3.347-10.32-6.265-15.658-8.756-.322-.152-.659.213-.392.448.138.117.273.239.411.352-.604.035-1.228.283-1.787.8-1.962 1.804-3.616 4.061-5.096 6.404-2.254 2.47-4.403 5.021-6.652 7.465a550.396 550.396 0 01-11.014 11.595c-6.263 6.43-12.73 12.738-19.474 18.793l-1.127 1.007c-3.496 3.109-7.037 6.83-11.172 9.291l-.221.129c-1.744.997-2.981 1.178-4.469-.312-1.352-1.356-2.478-2.93-3.635-4.425l-.267-.344c-5.908-7.535-11.386-15.347-16.343-23.391a232.216 232.216 0 01-6.448-11.128l-.609-1.128c-1.109-2.069-2.313-4.1-3.228-6.23-.213-.5-.421-1-.624-1.496 3.12-1.795 5.536-5.682 6.412-8.725.912-3.161.451-6.405-1.173-9.296-.307-.543-1.337-.409-1.485.169zm153.91 128.444c.432 12.018.694 24.048 1.338 36.056l.222 4.1c-1.004.983-1.594 2.117-1.123 3.674.182.596.723 1.135 1.396 1.335l.21 3.811c.956 17.15 2.076 34.264 4.124 51.37 2.56 21.408 5.521 42.781 8.477 64.15.421 3.026 2.819 5.426 6.548 4.983 3.773-.449 5.303-3.331 4.808-6.335-1.946-11.787-3.818-23.582-5.458-35.408l-1.867-13.473c-2.341-16.841-4.737-33.681-7.497-50.469a3120.731 3120.731 0 00-3.556-21.043l.421-.478c1.719-1.96 3.497-3.878 5.255-5.808 3.377-3.722 6.71-7.413 9.805-11.309.154-.195-.159-.482-.381-.334-4.338 2.813-8.444 5.821-12.574 8.878l-3.616 2.686c-2.079-12.117-4.14-24.238-5.976-36.386-.045-.303-.565-.326-.556 0zM236.99 211.181c2.61 2.161 5.279 4.274 7.909 6.422l.964.79.959.795c4.622 3.848 9.05 7.854 12.74 12.454 6.775 8.447 10.811 18.747 7.994 29.06-2.338 8.543-7.701 16.286-9.142 25.043-.723 4.386-.372 8.795 1.51 12.938 1.922 4.226 4.992 7.848 7.751 11.661 5.992 8.287 6.809 17.382 6.214 26.982-.624 10.025-1.936 20.055-3.555 29.99-3.278 20.13-8.221 40.051-14.763 59.559-3.274 9.769-7.141 19.33-10.989 28.93-1.916 4.778-4.15 9.443-6.452 14.086a431.724 431.724 0 01-3.72 7.3c.466-3.426.466-6.943.694-10.347.327-4.879.743-9.748 1.124-14.622.777-9.891 1.47-19.79 2.089-29.69 2.194-35.303 3.809-70.637 3.69-105.997-.06-17.682-.471-35.364-1.337-53.029-.407-8.319-1.194-16.63-1.905-24.937l-.151-1.78c-.629-7.456-1.381-14.93-2.673-22.321.382-.758.714-1.525.961-2.312l.088-.296-.064.008c.059-.23.079-.46.064-.687zM214.417 180.8c-.053-.205-.385-.187-.445 0-1.471 4.347-.951 9.13.317 13.504.683 2.369 1.654 4.669 2.827 6.886l.411.776c1.006 1.889 2.138 3.834 4.097 5.011.816.491 2.278.522 3.095 0l.416-.277c.069-.047.137-.095.203-.145.762-.56 1.139-1.8.787-2.617-.906-2.109-2.962-3.656-4.383-5.535a35.095 35.095 0 01-3.298-5.26c-1.996-3.961-2.892-8.165-4.027-12.343z" fill="#000"/><path fill-rule="evenodd" clip-rule="evenodd" d="M223.283 16.282l-4.269 4.466a135.4 135.4 0 016.693 4.417l.002-.005c-9.721-5.58-20.487-8.878-32.117-8.878-22.4 0-67.901 16.929-78.186 29.14-5.105 6.06-14.59 24.662-19.51 44.886-3.954 16.251-9.834 62.16-3.954 79.41 7.525 22.078 32.284 42.483 57.814 42.483s65.165-16.215 93.374-51.749c1.29-1.625 16.102-3.509 26.669-9.607l-2.774 26.889-2.109 15.642.466 1.113c7.568 18.007 13.565 27.401 17.991 28.183 4.517.798 13.715-5.716 27.595-19.541l1.774-6.549c4.504-16.707 6.757-25.674 6.757-26.903l-.003-.224c-.067-2.827-1.174-18.83-1.197-23.137V81.77c-14.927-43.658-29.172-65.488-42.735-65.488h-52.281z" fill="#FFDBB4"/><path fill-rule="evenodd" clip-rule="evenodd" d="M258.653 1.414c-4.389-1.496-9.474-1.213-13.64 1.04-8.179-.31-16.313 3.899-20.577 10.042-.089.087-.184.174-.268.261l-.904.927c-.855.885-1.758 1.86-2.473 2.867 3.503.07 6.421 1.327 8.458 3.864 1.453 1.81-1.876 3.53-3.362 1.818l-.052-.063c-1.223-1.523-3.069-2.113-5.125-2.143-.59-.01-1.037-.208-1.354-.5-.126.403-.238.811-.342 1.221-10.349-3.54-21.505-4.479-32.617-3.639a11.03 11.03 0 011.208 2.219c.355.886-.403 1.902-1.381 2.139-1.058.256-2.014-.29-2.396-1.132l-.035-.083a6.273 6.273 0 00-2.061-2.686c-5.231.624-10.424 1.616-15.491 2.895a185.32 185.32 0 00-18.022 5.567c.999.345 1.862.927 2.467 1.9 1.206 1.941-2.111 3.68-3.369 1.824l-.045-.069a1.633 1.633 0 00-.313-.387l-.028-.023-.174-.07-.325-.082-.124-.027c-.11-.022-.155-.02-.444-.034-.385-.02-.77-.018-1.155-.018-.905 0-1.483-.444-1.744-1.012a202.407 202.407 0 00-8.609 3.648l-.671.306c-8.715 4.006-16.97 9.267-21.76 17.007a2.403 2.403 0 00-.336 1.622 73.407 73.407 0 00-2.96 3.321c-2.896 3.461-5.016 7.396-7.022 11.296-4.038 7.843-6.756 15.9-8.876 24.299-2.051 8.095-3.706 16.278-5.244 24.46-1.704 9.091-3.122 18.26-3.42 27.482-.523 16.439 3.13 32.973 13.62 46.812 9.36 12.347 23.454 22.151 40.168 25.29 17 3.191 34.988.078 48.385-9.887 2.16-1.604 1.863-4.843 0-6.486-2.11-1.852-5.223-1.596-7.373 0-12.616 9.386-30.98 10.834-46.182 6.052-14.054-4.426-25.064-14.635-31.82-26.1-8.242-13.982-9.632-30.042-8.366-45.511.691-8.496 2.13-16.922 3.612-25.334l.895-5.064c.977-5.485 2.002-10.963 3.34-16.392l.313-1.265c1.635-6.547 3.55-13.262 6.512-19.417 1.552-3.23 3.419-6.343 5.332-9.417.371-.596.752-1.2 1.142-1.809.524.16 1.122.187 1.749.013 5.402-1.478 10.951-2.47 16.599-2.8a83.082 83.082 0 017.725-.086c4.407-.226 8.936.115 13.134 1.303.411-.31.827-.613 1.243-.916a3.3 3.3 0 00.337-.038c1.071-.185 1.824-.855 2.278-1.7.024-.045.045-.09.065-.135a88.941 88.941 0 011.626-1.068c1.332.304 2.499-.671 2.813-1.74.297-.176.598-.346.898-.519.235.05.468.092.695.107.981.062 1.928-.07 2.798-.482 1.1-.52 1.803-1.362 2.274-2.317 1.664.09 3.349-.385 4.836-1.244 1.208-.697 2.133-1.66 3.053-2.62 11.207-4.398 23.39-6.994 35.601-7.66 1.203.204 2.397.447 3.577.728.279.067.675.199 1.131.356-2.722-.29-5.48-.318-8.276.036-13.271 1.688-23.607 10.43-32.502 18.681-2.117-.376-4.255 2.035-2.297 3.631l15.269 12.448c-.375 1.392 1.44 2.765 3.03 2.43a866.774 866.774 0 018.007-1.65c2.788 1.187 6.292.984 8.82-.736.118-.08.373-.208.595-.335.208.15.487.302.598.367.899.523 1.994.677 3.044.53 1.08-.15 2.055-.633 2.896-1.234.535-.382 1.782-1.978 2.476-2.095l.068-.007c-.463.012 1.025 1.229 1.425 1.48.933.586 1.964.894 3.125.782 2.023-.196 3.763-1.818 4.752-3.316l.075-.115.031-.072.026.078.017.044c.149.353.614.754.93 1a4.117 4.117 0 003.21.827c1.008-.155 1.857-.691 2.539-1.34l.106-.103c.202-.2 1.531-1.772 1.321-2.148l-.024-.032.066-.012c.808.175 1.487 0 1.984-.367 2.774-.535 5.513-1.158 8.163-1.95.208.513.411 1.026.608 1.544-1.447.787-2.786 1.908-4.017 2.708a3614.362 3614.362 0 00-6.993 4.544l-9.222 5.985-1.055-.25c-1.347-.318-2.503.372-2.998 1.427l-.041.092c-.196.462-.432.89-.71 1.298-2.305-.08-4.257 1.165-4.888 2.95-.57-.01-1.145.008-1.733.066-1.611.155-2.696 1.207-2.404 2.652l.022.1.039.16c-.934.349-1.611 1.022-1.761 2.04-.25.331-.452.691-.581 1.092-.673 2.08.637 4.651 1.335 6.644l.054.156c.448 1.31.912 2.613 1.381 3.915l1.168 3.235c3.24 9.013 6.399 18.517 3.777 27.966-.559 2 2.347 2.905 3.607 1.339 3.055-3.789 6.356-7.36 9.822-10.788l.168-.023c2.427-.429 3.369-1.937 4.483-3.475.656.17 1.362.21 2.044.095.987-.168 1.872-.664 2.57-1.29.592-.532 1.134-1.894 1.833-2.232.875-.422 2.633.181 3.678.046.849-.11 1.642-.367 2.412-.689 1.414 1.696 2.352 3.69 2.581 5.839a4.44 4.44 0 00.767 2.083 22.7 22.7 0 00-4.409.282c-5.396.883-9.266 3.813-11.44 8.179-.093.191.188.347.317.165 3.226-4.37 10.249-4.591 15.349-3.052 5.416 1.634 8.456 5.83 9.537 10.617 1.186 5.247-.335 10.904-3.583 15.373-1.506 2.078-3.563 3.974-6.295 4.739-3.247.909-6.246-.717-9.572.122-2.264.569-3.262 2.496-2.852 4.422.163.756.465 1.417.87 1.991-1.196 2.087-2.303 4.234-3.711 6.208-2.175 3.048-4.804 5.57-7.67 8.113-2.96 2.626-5.975 5.2-9.142 7.635-3.035 2.334-6.514 3.995-9.697 6.134-2.233 1.5-3.34 3.605-2.238 6.013.909 1.991 3.974 3.687 6.454 2.787 4.749-1.722 8.905-4.652 12.69-7.669 3.509-2.8 6.564-6.148 8.871-9.783 2.178-3.426 3.782-7.318 5.135-11.066l.168-.468c.638-1.783 1.309-3.787 1.744-5.809 2.604 1.253 6.138 1.435 8.925 1.096a20.841 20.841 0 0011.712-5.448 25.382 25.382 0 003.829-4.57c-.1 1.018-.16 2.004-.224 2.901-2.58 2.486-3.615 6.074-2.699 9.347-2.159 1.955-2.764 4.889-1.637 7.387-2.363 2.062-2.274 5.343-1.252 8.322-2.793 2.746-3.058 7.025-.877 10.124l.066.223c-2.202 3.241-1.706 7.431 1.053 10.293-1.884 3.216-1.592 7.541 3.117 8.789a5.635 5.635 0 004.624-.78c-1.136 4.974-1.645 10.023-.129 15.019.603 1.982 2.807 3.43 5.125 3.43 1.937 0 3.346-.856 4.319-2.117-.114 2.509.059 5.03.667 7.574.367 1.536 1.986 2.733 3.705 3.104-.62.616-.867 1.505-.273 2.432 2.521 3.926 8.612 2.298 9.024-1.463 1.72-1.13 2.52-2.985 2.851-4.989.482-2.922.657-5.796 1.203-8.681l.209.171.108.082.035.209c.313 1.426 1.227 2.425 2.414 3.02-.258 2.488.219 5.022 2.013 6.911 1.195 1.259 3.231 1.754 4.976 1.481.109.005.221.005.338-.009 3.952-.462 6.239-3.76 5.198-6.787 1.592-1.715 2.262-3.892 1.791-6.043 3.079-1.794 3.016-5.734 1.95-8.899 3.228-2.241 4.442-6.431 2.82-9.761 2.909-3.178 3.314-7.608 1.337-11.227 3.201-2.314 3.183-6.78.008-9.146 1.691-2.953 2.71-6.49 1.021-9.192 1.192-1.158 1.846-2.807 1.708-4.401-.202-2.341-1.962-3.958-4.146-5.036l-.152-.732a2.002 2.002 0 01-1.541-.477 8.227 8.227 0 00-1.475-.996 2.024 2.024 0 01-1.418-.578c-.951-.284-1.975-.41-3.11-.421-2.452-.024-2.538-3.249-.256-3.458.36-.32.856-.521 1.394-.521l.422.001c.985.008 1.98.062 2.894.406a3.212 3.212 0 011.387.973c.063.624.449 1.245 1.283 1.759.964.593 2.283.662 3.315.125 1.444-.751 1.459-1.924 1.292-3.198-.364-2.789 1.458-5.413 1.024-8.266-.192-1.261-.669-2.35-1.448-3.23 1.642-2.161 1.931-4.951.668-7.324 2.632-2.491 3.087-6.332 1.409-9.331-.025-.072-.043-.147-.07-.218a7.016 7.016 0 00-.739-1.409c1.474-2.246 1.463-5.002-.035-7.239 2.269-2.326 2.341-6.029.323-8.536-.012-.208-.036-.416-.057-.624.926-2.115.704-4.52-.471-6.487.419-.849.743-1.765.949-2.739.529-2.513.257-4.957-.533-7.409a21.704 21.704 0 00-.425-1.16 119.63 119.63 0 00-.194-5.021c.376-1.413.436-2.966.444-4.407l.003-.935c.018-2.379.207-5.862-1.503-7.884 1.098-2.184.647-4.936-1.185-6.667 1.286-1.946 1.555-4.335.263-6.494a6.933 6.933 0 00-.712-.977c.107-1.976-.366-4.015-1.564-5.98-.777-1.279-1.939-2.386-3.321-3.272.024-.263.038-.524.033-.782-.024-1.15-.314-2.306-.802-3.383.876-1.316 1.282-2.8.769-4.397-.573-1.809-2.081-3.365-3.963-4.244a31.467 31.467 0 00-.887-5.073c1.156-2.266.235-5.257-2.379-6.592.341-1.812.033-3.69-1.465-5.105a5.817 5.817 0 00-1.957-1.212c.347-1.821-.045-3.716-1.476-5.199-1.169-1.21-2.902-1.946-4.665-2.054-.679-3.168-4.119-5.537-7.749-5.348-.453-1.395-1.537-2.61-3.218-3.227a6.13 6.13 0 00-1.299-.32c-2.951-2.619-7.345-4.394-11.149-5.303-3.815-.909-7.683-.996-10.959.06l-.238.079-.267-.03a46.422 46.422 0 00-3.469-.205zm28.993 214.662c1.019-.28 2.156.331 2.432 1.214.292.934-.358 1.859-1.381 2.139-1.274.35-2.613.437-3.941.438-1.068.001-1.977-.8-1.977-1.739 0-.944.905-1.738 1.977-1.739 1.08-.001 1.878-.036 2.89-.313zm9.065-18.469c1.524.001 2.83.321 3.96 1.26.753.627.772 1.837 0 2.46-.78.63-1.911.666-2.711.067l-.154-.122-.045-.036c-.064-.036-.129-.074-.197-.105l.129.074c.098.062-.13-.039-.257-.088l-.04-.014-.013-.003-.103-.007c-.189-.008-.379-.008-.569-.008-1.034-.001-2.024-.799-1.977-1.739.049-.942.869-1.74 1.977-1.739zm-28.75-11.034c-2.14-1.154-.229-4.106 1.917-3.043l.078.04c1.1.594 2.453.514 3.699.514 2.544.001 2.548 3.479 0 3.478l-.421-.001c-1.827-.013-3.675-.125-5.273-.988zm16.839-12.694c1.616-.268 3.427-.507 5.128-.344l.283.031h.523c.455 0 .895.161 1.248.414.56.204 1.089.478 1.573.846 1.926 1.47-.881 3.921-2.796 2.46a1.559 1.559 0 00-.367-.203l-.105-.039h-2.115a2.09 2.09 0 01-.562-.086c-.686.083-1.326.203-1.759.274-2.487.412-3.552-2.939-1.051-3.353zm1.805-33.382c3.099-1.264 6.53-1.255 9.396.5 2.049 1.256.146 4.217-1.921 3.047l-.074-.043a6.86 6.86 0 00-.788-.409c-1.455.37-2.919.388-4.326-.067l-.183-.062-.109.037c-2.293.936-4.303-2.061-1.995-3.003zm-33.741-5.45c3.13-.308 3.155-4.659 0-4.347-6.662.657-12.707 3.263-17.134 7.737-2.06 2.081 1.332 5.126 3.429 3.138l.065-.064c3.52-3.558 8.271-5.934 13.64-6.464zm35.066-22.335c.696-.067 1.391-.1 2.074-.071 1.642.069 3.641 1.033 2.921 2.774-.578 1.394-2.472 1.45-3.407.706-.389.008-.777.031-1.164.065-1.032.094-2.055.267-3.072.443-2.486.43-3.55-2.921-1.051-3.354l1.104-.192c.373-.064.748-.127 1.126-.184.226-.099.468-.166.726-.183l.131-.004h.612zm19.642-26.984l.232-.028c3.338-.375 8.697-.03 9.102 3.709.224 2.07-3.176 2.2-3.847.43a29.227 29.227 0 00-7.399-.228c-.934-.835-.941-2.44.614-2.84.219-.52.677-.964 1.298-1.043zm-76.304-6.314c.771-.623 2.036-.706 2.795 0 .438.406.803.857 1.092 1.354l.192.335c.033.056.066.111.101.166.065.101.137.197.208.296l.048.04.067.063c.711.661.802 1.812 0 2.46-.771.622-2.036.705-2.795 0a5.886 5.886 0 01-1.092-1.355l-.192-.334a5.759 5.759 0 00-.101-.166c-.064-.102-.138-.198-.208-.296l-.078-.07a.96.96 0 01-.037-.033c-.712-.661-.801-1.813 0-2.46zm40.535-4.529c2.786-1.737 6.098-1.817 8.658.272 1.848 1.508-.867 3.924-2.73 2.51l-.066-.05a2.687 2.687 0 00-.204-.152 2.06 2.06 0 01-1.244.41c-.127 0-.254 0-.38.002l-.19.006-.102.008-.013.002-.088.033c-.163.064-.387.164-.08-.005-.068.031-.133.069-.198.105l-.113.091c-.746.62-2.035.702-2.775.016-1.31-.39-2.005-2.295-.475-3.248zm-27.23-5.698l-.051-.014c-2.442-.613-1.404-3.97 1.051-3.354 2.605.654 3.849 2.787 4.37 4.971.219.919-.307 1.88-1.381 2.14-.981.237-2.211-.292-2.432-1.215-.154-.65-.333-1.2-.615-1.712l-.171-.291c-.079-.133-.107-.156-.377-.362a1.987 1.987 0 00-.394-.163zm41.365-17.517l.382-.077c2.38-.458 5.538-.698 6.974 1.377 1.31 1.89-1.994 3.612-3.354 1.825l-.073.001-.044.005-.61-.044c-.76-.005-1.487.114-2.223.267-2.474.515-3.53-2.837-1.052-3.354zM200.526 38.3c-1.801-1.586.993-4.046 2.795-2.46 1.425 1.253 2.799 2.516 3.725 4.108.486.836.248 1.887-.709 2.38-.883.454-2.216.215-2.705-.624-.802-1.38-1.815-2.268-3.106-3.405zm22.729-4.16c1.78.926 2.932 2.453 3.631 4.22.351.887-.4 1.903-1.381 2.14-1.054.254-2.017-.289-2.396-1.133l-.035-.082c-.187-.473-.487-1.031-.857-1.452-.316-.36-.808-.72-1.178-.84-.891-.287-1.523-.998-1.441-1.827 1.466.445 2.826-.09 3.657-1.027zm53.272-7.566c1.795-1.466 4.204-1.66 6.38-.773.969.395 1.212 1.624.709 2.38-.581.874-1.732 1.02-2.704.624.25.101-.201-.033-.396-.082-.025.01-.351-.003-.464-.002l-.135.008a1.6 1.6 0 00.1-.002 3.615 3.615 0 00-.281.067l-.118.036c.059-.01-.208.143-.282.194l-.014.01c-1.863 1.52-4.665-.933-2.795-2.46z" fill="#000"/><path fill-rule="evenodd" clip-rule="evenodd" d="M137.977 167.588c-.76-1.159-2.509-2.233-4.11-2.069-7.17.739-7.158 8.371-4.389 12.826 2.455 3.951 7.535 6.27 12.62 5.931 5.342-.356 9.894-3.113 11.897-7.5 1.325-2.903 1.937-8.26-1.587-10.21-.065-.037-.173-.028-.225.025-1.69 1.726-1.756 4.316-3.236 6.238-1.375 1.787-3.513 3.262-6.017 3.49-1.87.17-3.761-.422-4.493-1.896-.396-.797-.351-1.23-.202-1.778l.135-.477c.469-1.67.679-2.942-.393-4.58zm-1.917-33.47c-3.74 1.995-9.438 6.649-5.415 11.596 4.736 4.362 11.554-.639 14.913-2.901 3.116-1.753 6.616 2.755 3.725 4.802-24.277 15.78-34.13-12.975-15.115-15.844 2.094-.316 2.872 1.729 1.892 2.347zm39.491-13.685c-2.296-3.023-7.535-2.578-8.8 1.01-.685 1.943.261 3.69.212 5.631-.041 1.64.082 3.467.654 5.054 1.305 3.621 5.015 6.178 9.403 6.072 4.374-.105 8.226-2.536 10.058-5.959 1.838-3.436 1.449-6.992.107-10.485-.065-.168-.315-.249-.466-.108-1.587 1.48-2.748 3.042-3.949 4.7l-1.232 1.698c-.941 1.28-2.309 2.914-4.066 2.811l-.264-.023c-.488-.037-.413.048-.79-.536-.174-.27-.142-.773-.227-1.092l-.029-.108.016-.058c.037-.155.074-.446.104-.951l.006-.112c.128-2.364.889-5.401-.737-7.544zm-58.185 2.013c.411-3.867-5.781-4.725-7.84-1.864-1.074 1.492-1.386 3.366-1.624 5.142l-.111.843c-.243 1.824-.34 3.721.562 5.422 1.42 2.68 4.509 4.096 7.841 3.872 3.182-.215 6.085-1.834 7.615-4.293 1.364-2.194 2.721-6.477 1.064-8.765-.1-.139-.3-.157-.438-.05-1.566 1.221-1.821 3.447-2.752 5.037-.96 1.64-2.416 3.238-4.623 3.487-2.112.238-2.919-.774-2.38-2.542.695-2.281 2.424-3.834 2.686-6.289zm56.512-25.002l-1.013-.34c-3.469-1.15-8.233-2.481-11.054-.004-1.74 1.527-2.071 3.777-.829 5.641 1.505 2.258 4.204 2.313 6.811 2.646 2.965.378 5.98 1.097 8.741 2.123 3.109 1.155 5.995 2.595 8.822 4.203 2.687 1.528 5.365 4.026 8.582 4.497.131.019.28-.031.314-.157.731-2.761-1.299-5.478-3.111-7.632-2.192-2.607-4.848-4.748-7.816-6.667-2.865-1.852-6.138-3.191-9.447-4.31zm-63.026 9.816l-.309-.048c-2.104-.307-4.011-.236-5.597 1.227-1.21 1.116-1.677 2.562-1.1 4.038.533 1.361 1.723 2.744 3.451 3.029 5.833.964 12.295.805 18.157.075 2.682-.334 5.389-.743 8.001-1.387l1.202-.306c2.181-.547 4.678-1.118 6.262-2.526.57-.507.242-1.231-.44-1.465-2.764-.951-6.553-.445-9.501-.519-3.429-.086-6.863-.312-10.276-.623-3.334-.304-6.561-.966-9.85-1.495z" fill="#000"/></svg>