<svg width="296" height="322" fill="none" xmlns="http://www.w3.org/2000/svg"><g clip-path="url(#clip0_1_732)"><path d="M147.892 322c81.126 0 146.891-7.343 146.891-16.401s-65.765-16.401-146.891-16.401C66.766 289.198 1 296.541 1 305.599S66.766 322 147.892 322z" fill="#F7859C"/></g><path fill-rule="evenodd" clip-rule="evenodd" d="M226.202 205.585c-.761-2.091.351-4.176.968-6.199 2.19-7.016-3.802-24.711-7.993-24.969-1.533-3.967-5.623-5.613-8.843-7.897-3.653-2.281-7.207-4.901-11.007-6.901-.211-1.89-2.502-2.358-3.902-1.006-3.847-2.394-8.46-1.95-12.584-3.518-3.133-5.066-3.369-10.394-4.198-15.282-.362-2.13.022-4.186-1.433-6.086-4.889-6.878-24.206-9.86-31.328-5.784-3.834-2.392-3.926 1.94-4.535 4.613-.677 1.338-1.043 2.853-.93 4.449-1.815 3.792-3.354 8.535-7.168 11.368-4.84 3.594-12.286 4.96-17.005 6.722a4.811 4.811 0 01-1.382-2.492c-7.314 1.591-14.411 4.386-20.539 8.752-6.961 2.036-11.864 7.7-15.41 13.773-.39.64-.482 1.293-.368 1.893-10.902 15.986-16.105 35.124-16.836 54.453-7.01 4.209 3.332 42.019 5.74 49.869l.007-.003c1.563 2.766 3.336 10.66 7.245 10.05 2.682 3.033 6.955 2.436 10.594 2.669-.593 2.275-.301 4.877.404 7.124.834 2.675 4.929 2.766 5.51-.151 36.237 7.043 73.419 1.424 110.065 2.481 10.595.075 21.19.403 31.76 1.158 1.488.106 2.997-1.415 2.896-2.897-2.273-24.186-4.407-56.002-6.948-79.951-.603-5.462-1.08-10.984-2.78-16.238z" fill="#EDB98A"/><path fill-rule="evenodd" clip-rule="evenodd" d="M114.862 152.604c.012.054.024.107.038.16l-.139.315c-.878 2.025-1.317 3.703-1.317 5.031 0 3.03 13.479 33.009 43.382 30.254 19.935-1.837 32.087-10.896 36.454-27.179l.255-3.518c.646.256 1.278.565 1.89.946 1.4-1.352 3.691-.883 3.902 1.006 3.8 2 7.354 4.62 11.007 6.901l.223.157c3.183 2.205 7.122 3.864 8.62 7.74l.599.038c4.003.263 9.584 17.916 7.394 24.931-.617 2.023-1.729 4.109-.968 6.2 1.7 5.254 2.177 10.775 2.78 16.237 2.541 23.949 4.675 55.765 6.948 79.951.101 1.482-1.411 2.761-2.896 2.898-30.752 2.821-146.5.641-147.335-2.034-.705-2.247-.997-6.304-.404-8.578-3.639-.233-7.912.363-10.594-2.67-3.909.611-5.682-7.283-7.244-10.05l-.008.004c-2.407-7.85-12.75-45.661-5.74-49.87.731-19.329 5.934-38.467 16.836-54.453a2.61 2.61 0 01.322-1.812l.047-.08c3.545-6.073 8.448-11.737 15.41-13.774 6.127-4.365 13.225-7.161 20.538-8.751zm88.56 50.609c-1.565-1.214-13.861 1.214-22.796 3.396-5.958 1.455-10.107 3.422-12.45 5.901l-10.486 11.513-2.653 1.716c0 3.584.205 7.353.614 11.308.409 3.954 2.213 8.138 5.411 12.553 9.425-2.59 15.06-4.06 16.906-4.41 2.769-.524 4.963-5.072 6.265-6.636 1.301-1.563 6.293-1.737 10.097-2.941 2.536-.803 4.299-2.854 5.291-6.154 5.542-1.196 9.206-1.994 10.991-2.394 1.785-.399 1.785-1.413 0-3.042l-20.756-.726c8.284-1.771 13.314-2.779 15.088-3.023 2.662-.366 9.812-2.586 9.812-4.307 0-1.686-10.885-1.655-16.687-1.653h-.467c-3.809.007-9.882.364-18.218 1.071l4.849-2.323c10.938-2.118 17.136-3.178 18.595-3.178 1.458 0 2.492-1.092 3.1-3.275-.627-1.455-1.462-2.587-2.506-3.396z" fill="#FFCF77"/><path fill-rule="evenodd" clip-rule="evenodd" d="M189.994 203.615l10.651-24.135c1.073-2.733 2.52-4.1 4.342-4.1 1.822 0 10.993.259 27.514.776 3.38.432 4.525 1.54 3.433 3.324-1.091 1.785-9.754 19.284-25.986 52.496h-10.327v-2.517l11.497-3.215c1.395-1.481 1.005-2.221-1.17-2.221-2.176 0-9.59-.242-22.245-.727l18.1-2.656 8.953-3.445-1.317-1.81-7.636-1.091-24.868 1.091 6.768-2.29 15.125-3.211c1.983-1.397 2.975-2.781 2.975-4.151 0-1.37-2.657-2.318-7.969-2.845l-7.84.727z" fill="#fff"/><path fill-rule="evenodd" clip-rule="evenodd" d="M141.945 129.436c.103-.284.527-.246.535.072.167 6.8-1.525 15.11-6.965 19.704-2.792 2.358-6.484 3.437-9.874 4.677l-.383.141-5.99 2.232c-1.588.592-3.302 1.503-4.705.666 1.135 2.817 2.088 5.712 3.471 8.426 1.722 3.38 3.803 6.472 6.351 9.284 10.091 11.141 26.063 14.539 40.396 11.275 7.38-1.681 14.562-4.867 19.597-10.678 3.827-4.416 6.026-10.344 6.544-16.191a1.267 1.267 0 01-.474-.013c-1.813-.396-3.644-1.368-5.24-2.322l-.153-.092c-1.536-.924-3.136-1.984-4.238-3.42-.729-.952-1.477-2.978-2.243-6.081-.312-1.749-.606-5.233-.556-7.001.005-.166.745-.265.824-.091.683 1.5.904 4.798 1.432 6.36l.106.312c.564 1.631 1.047 3.617 2.215 4.936 2.194 2.476 5.503 3.524 8.456 4.766.213-2.799 4.681-2.733 4.624.185-.003.159-.01.316-.015.474.352.194.691.416 1.008.629l.309.21c1.17.796 2.349 1.553 3.594 2.228 2.412 1.308 4.966 2.345 7.437 3.532a37.85 37.85 0 017.021 4.345 35.74 35.74 0 012.941 2.571l.253.249c.888.884 2.043 1.873 2.549 3.035.111.257.669.852.972.872 4.696.308 9.381.743 14.047 1.395 1.208.169 1.685.792 1.239 1.799-1.535 3.461-7.542 17.283-9.139 20.993.187 2.725-.065 5.933.103 8.659.246 3.978.568 7.955.954 11.921 1.381 14.19 3.475 28.311 5.367 42.439.947 7.07 1.81 14.152 2.663 21.234a260.121 260.121 0 011.393 15.252l.081 1.33c.111 1.674.367 3.272-.668 4.709-.469.651-1.541 1.018-2.158.278-.776-.931-1.065-1.626-1.139-2.848-.057-.936-.07-1.876-.113-2.813-.092-2.03-.208-4.06-.343-6.088-.271-4.054-.58-8.108-.938-12.156-1.255-14.194-3.639-28.281-5.225-42.439a308.85 308.85 0 01-1.669-21.467c-.15-3.584-.205-7.168-.169-10.756a68.34 68.34 0 01.168-4.004 392.4 392.4 0 01-7.487 16.028l-.619 1.25c-1.656 3.336-3.356 6.684-5.345 9.829l-.342.536c-.806 1.278-1.908 3.292-3.377 3.695-1.024.281-2.275.083-3.325.063-1.042-.02-2.085-.024-3.126-.066a15.278 15.278 0 01-3.41-.505 4.068 4.068 0 01-.527-.175c-1.137 1.861-3.069 3.278-5.044 4.104-1.582.662-3.24 1.115-4.901 1.535l-.586.147c-1.781.444-3.818.655-4.822 2.375l-.233.399c-.747 1.269-1.463 2.383-2.699 3.293-1.33.979-2.906 1.595-4.476 2.075-1.607.49-3.252.866-4.884 1.268l-.445.111c-1.077.27-2.164.517-3.235.811-.457.125-.922.254-1.37.408-.525.18-.907.462-1.321.769-.372 1.3-1.963 2.007-3.271 1.916-.687-.048-1.303-.281-1.864-.623-.978.834-2.056 1.581-3.054 2.353a445.026 445.026 0 01-13.008 9.695 340.034 340.034 0 01-16.083 10.816 437.377 437.377 0 01-6.883 4.288l.247.091.489.186c1.159.432 2.449 1.131 2.673 2.482.178 1.072-.42 1.811-1.478 1.942-1.258.155-2.236-.733-3.019-1.582-.346-.374-.733-.721-1.064-1.107a2.405 2.405 0 01-.33-.528 147.642 147.642 0 01-6.937 3.864l-.587.302c-5.815 2.975-11.475 6.234-17.34 9.124-1.53.754-3.394 1.569-5.339 2.126.516 2 .508 4.196.521 6.227.013 1.978-3.13 1.969-3.064 0l.032-.951c.057-1.599.15-3.259.53-4.815-5.728.95-11.45-1.115-12.516-1.735-1.176-.684-2.244-1.779-3.132-2.795-1.901-2.173-3.22-4.779-4.39-7.4-2.508-5.613-4.284-11.613-5.583-17.614-4.787-22.123-2.728-45.802 5.047-67.01a127.464 127.464 0 016.864-15.475l.326-.617c2.623-4.939 5.537-9.86 9.24-14.063 3.856-4.377 8.613-7.782 13.793-10.425a73.818 73.818 0 017.786-3.397 25.7 25.7 0 011.288-.438c2.77-1.767 6.132-3.457 9.496-3.391a.804.804 0 01.551.222c.162.028.325.063.487.11.358.104.737.497.685.9l-.017.135a1.006 1.006 0 01-.042.19c.12.018.238.047.354.086 3.218-.909 6.384-2.299 9.524-3.42l.715-.253c2.63-.922 5.328-1.825 7.485-3.65 2.146-1.815 3.76-4.166 4.927-6.708 1.438-3.131 2.081-6.524 3.262-9.738zm64.424 165.158c.637-.474 1.39.076 1.628.663.783 1.926.396 4.919-.707 6.621-1.143 1.765-3.88 1.068-3.946-1.069-.069-2.228 1.226-4.876 3.025-6.215zm6.581-53.182c.057-.25.446-.248.504 0 .53 2.26.518 4.694.673 7.011l.019.257c.186 2.555.343 5.118.455 7.677a1029.7 1029.7 0 001.247 22.59 14.327 14.327 0 011.62-.774c.836-.338 1.651-.377 2.55-.368a1.804 1.804 0 011.773 2.047c-.158 1.168-1.186 1.669-2.254 1.502-1.182-.185-2.37-.472-3.564-.591.133 1.929.271 3.857.416 5.784.194 2.551.445 5.1.622 7.652l.054.732c.712-.371 1.468-.56 2.325-.794l.223-.062c1.244-.358 2.575-.852 3.726-.015.774.563.929 1.489.288 2.231-.972 1.126-2.411.907-3.754.85l-.722-.027c-.681-.026-1.309-.07-1.939-.242.116 1.663.177 3.332-.027 4.97-.11.886-1.276 1.118-1.584.215-.806-2.361-.972-4.907-1.267-7.38-.276-2.31-.443-4.636-.623-6.956l-.055-.695c-.406-5.104-.73-10.21-.967-15.325a433.739 433.739 0 01-.436-15.344c-.026-2.324.012-4.656.103-6.98l.029-.697c.105-2.39.032-4.926.565-7.268zm-106.483 53.559c.031-.327.292-.733.681-.682.359.046.728.024 1.082.083.468.078.845.354 1.28.529.707.282 1.479.429 2.204.66 1.362.435 2.104 1.869 1.54 3.208-.593 1.407-2.083 1.727-3.37 1.136-1.015-.465-1.772-1.21-2.454-2.071l-.193-.245c-.294-.37-.628-.783-.752-1.232-.12-.436-.06-.942-.018-1.386zm66.154-6.618c1.696-.239 3.144.341 4.713.888l.128.044c1.597.551 3.928.933 4.746 2.569.494.986.11 2.295-1.052 2.587-1.84.462-3.491-.884-5.013-1.79l-.08-.047c-1.469-.861-2.985-1.585-3.923-3.069-.25-.396-.033-1.11.481-1.182zM113.416 153.43c-.679.152-1.359.286-2.037.416-2.582 1.384-5.089 2.821-7.754 4.054-2.829 1.309-5.647 2.661-8.333 4.244-5.428 3.198-9.903 7.357-13.6 12.455-6.387 8.805-11.138 18.96-14.538 29.264a123.093 123.093 0 00-2.346 8.023c1.222-1.131 2.67-1.827 4.293-2.422.688-.253 1.544.175 1.893.77.157.268.246.533.23.847-.037.692-.488 1.48-1.231 1.617-1.735.319-3.421.942-5.093 1.49a.784.784 0 01-.646-.046 119.93 119.93 0 00-3.066 21.436c-.312 6.114-.12 12.277.557 18.383.52-.234 1.03-.453 1.6-.586.74-.172 1.468-.382 2.19-.618 2.082-.684 3.032 2.755.903 3.28a25.43 25.43 0 01-2.396.475c-.704.103-1.326.058-1.99-.05a115.234 115.234 0 002.081 11.319l.195.816c1.145 4.761 2.48 9.567 4.41 14.067.946 2.207 2.2 4.304 3.748 6.144.76.905 1.604 1.681 2.524 2.416.766.612 3.371 1.939 6.456 1.939 3.085 0 3.92-.292 5.476-.828 3.078-1.059 6-2.751 8.886-4.258l.299-.155a361.532 361.532 0 003.816-2.007c-.16-1.294.12-2.38.793-3.574.729-1.293 2.533-.649 2.667.673l.004.05c.021.298.071.602.133.905 8.479-4.647 16.778-9.618 24.946-14.799a487.96 487.96 0 0015.595-10.312 353.083 353.083 0 007.622-5.404 403.53 403.53 0 003.937-2.908c.544-.408 1.078-.835 1.623-1.245a25.952 25.952 0 01-.387-.495c-2.036-2.666-3.357-5.845-4.015-9.124-.397-1.979-.589-4.033-.648-6.05l-.025-.877c-.041-1.478-.051-3.024.221-4.456-.37.203-.749.403-1.126.617-1.354.767-2.709 1.533-4.066 2.295a327.05 327.05 0 01-8.205 4.479c-4.931 2.584-9.91 5.042-15.024 7.245l-2.488 1.073c-4.318 1.858-8.672 3.683-13.162 5.064-2.533.779-6.33 1.743-8.899 2.337 2.064 1.946 2.349 3.253.856 3.922-2.241 1.004-4.097-2.846-4.171-3.195-.789.165-2.31.447-4.563.846-3.211.62-6.325 1.848-9.195 3.419-.998.546-1.276-.515-.219-1.254 3.092-2.162 6.698-3.385 10.418-4.412l.183-.05c1.365-.374 2.728-.764 4.087-1.168a5.755 5.755 0 01-.218-1.722c.038-1.379.16-2.763.233-4.141.154-2.892.35-5.775.58-8.662.088-1.113.187-2.228.3-3.342-.73-.391-1.358-.91-2.171-1.166l-.137-.04c-.87-.234-.576-1.355.196-1.451a6.222 6.222 0 012.085.102c.107.023.208.049.305.078.127-1.032.267-2.062.427-3.085.422-2.705.72-5.555 1.6-8.154.065-.192.351-.261.457-.059 1.279 2.434 1.323 5.419 1.467 8.13l.018.323c.17 2.957.18 5.943.125 8.904a348.528 348.528 0 01-.297 9.144c-.055 1.228-.053 2.501-.262 3.675 7.61-2.475 15.087-5.437 22.253-8.945a431.194 431.194 0 0015.021-7.718c2.482-1.338 4.976-2.654 7.456-3.996.869-.471 1.737-.943 2.605-1.416l1.301-.71c1.218-.665 2.235-1.326 3.653-1.373.423-.014.803.184 1.072.484.762-.541 1.643-.873 2.568-.865a175.075 175.075 0 014.275-5.697l1.085-1.381c1.879-2.384 3.869-4.804 6.265-6.618 1.07-.809 2.246-1.417 3.473-1.918a1.847 1.847 0 01-.823-.446c-1.172-1.087-1.333-3.106-1.571-4.622-.247-1.573-.152-2.98.092-4.548.095-.609 1.103-.736 1.35-.176.518 1.18 1.068 2.31 1.54 3.503l.139.36c.507 1.343 1.586 2.756 1.515 4.213a1.854 1.854 0 01-.36 1.026c1.03-.342 2.074-.647 3.103-.965 3.236-1 6.486-1.972 9.785-2.749.878-.206 1.76-.398 2.646-.574.465-2.205 1.141-4.369 1.939-6.494-.755-.387-1.244-1.036-1.895-1.613-.608-.541-1.027-1.199-1.546-1.82-.473-.564-.207-1.584.642-1.551l.241.01c.88.041 1.733.132 2.531.543l.284.146c.39.203.817.435 1.197.709a145.649 145.649 0 011.536-3.399l.678-1.45c1.758-3.775 3.51-7.693 5.717-11.208.98-1.562 2.286-2.538 4.159-2.689 1.93-.156 3.936.045 5.868.114 2.24.08 4.479.175 6.716.293-.573-.601-1.097-1.27-1.673-1.847a34.629 34.629 0 00-3.028-2.701c-2.102-1.658-4.412-3.024-6.813-4.201-2.4-1.177-4.872-2.203-7.125-3.657-1.426-.92-2.701-2.078-3.864-3.33-.732 7.9-4.545 15.239-10.274 20.754-5.951 5.727-14.174 8.873-22.218 10.211-8.205 1.366-16.769.865-24.618-1.988a43.327 43.327 0 01-11.39-6.209 2.94 2.94 0 01-.174.669c-.12.286-.268.53-.437.781l-.302.442c-.19.277-.384.552-.6.81-.523.623-1.265.896-2.063.893-1.529-.005-2.687-1.505-2.275-2.988.258-.932.811-1.493 1.675-1.857.273-.116.551-.212.831-.308l.21-.071c.283-.097.564-.189.855-.243a38.034 38.034 0 01-4.522-4.719c-4.272-5.326-8.485-12.785-7.057-19.858.025-.122.134-.198.252-.217.083-.497.347-.977.709-1.3a6.263 6.263 0 00-.736-.147zm44.355 122.294c.846-.471 1.72.648 1.032 1.338l-1.026 1.027c-.953.958-1.88 1.926-2.695 3.017l-.198.267c-1.101 1.498-2.274 3.234-4.078 3.793-2.181.677-4.277-1.981-3.014-3.922 1.103-1.697 3.228-2.337 5.06-3.039 1.733-.664 3.299-1.58 4.919-2.481zM87.4 267.893c.497-.651 1.793-.308 1.453.613-1.103 2.991-1.552 7.069-4.337 9.057-.899.64-2.31.346-3.05-.394-.84-.841-.874-2.025-.394-3.051.587-1.252 2.029-2.159 3.04-3.112l.09-.087c1.088-1.057 2.264-1.803 3.198-3.026zm116.409 3.443c.887-.383 3.199-1.127 3.885-.246a.489.489 0 01.081.106c.168.292.193.704 0 .994-.798 1.2-1.63 2.096-2.765 2.951l-.128.094c-1.236.909-2.396 1.977-3.902 2.387-2.087.568-3.545-2.046-2.079-3.573 1.18-1.229 2.983-1.868 4.548-2.554l.36-.159zm-83.816-17.09c-.349-.631.364-1.406 1.01-1.011 1.843 1.127 3.99 1.972 6.06 2.58.838.245 1.593 1.095 1.531 2.011l-.01.139c-.024.324-.069.645-.275.915-.72.943-1.752 1.306-2.853.748-2.455-1.244-4.135-2.981-5.463-5.382zm53.863-1.912c-.045-.265.15-.47.419-.419 1.558.295 2.996 1.048 4.333 1.913.718.464 1.41.973 2.125 1.442.884.578 1.215 1.056 1.346 2.118.086.7-.568 1.34-1.168 1.534-1.634.527-3.507-1.203-4.615-2.327l-.049-.051c-1.16-1.182-2.116-2.58-2.391-4.21zm46.776-1.836c-.355-.959.869-1.754 1.669-1.283.753.443 1.571.811 2.281 1.319.654.467 1.249 1.021 1.875 1.527l.31.245c1.148.924 3.044 3.208 1.402 4.533-1.563 1.262-3.635-.349-4.685-1.527l-.073-.083c-.603-.698-1.347-1.455-1.785-2.27-.413-.767-.692-1.647-.994-2.461zm-15.414-74.237c-1.958.38-2.756 2.797-3.58 4.373-1.946 3.719-3.735 7.505-5.532 11.297-.553 1.166-1.092 2.341-1.636 3.514a1.706 1.706 0 01-.126.272c-1.113 2.398-2.26 4.781-3.6 7.057a60.93 60.93 0 013.697-.58c-.062-1.165.736-2.725 1.13-3.707l.033-.082c.492-1.258 1.008-3.239 2.275-3.892.422-.217.874.055.906.52.096 1.385-1.257 2.969-1.919 4.143-.4.711-.79 1.425-1.17 2.147-.142.27-.261.535-.408.773.639-.069 1.278-.13 1.918-.175l.418-.029c2.375-.157 4.898-.201 7.044.97 1.991 1.087 3.009 3.407 1.915 5.52-1.363 2.632-4.364 2.981-7.002 3.194-3.297.266-6.6.746-9.873 1.214-3.385.485-6.573 1.733-9.908 2.375-.31.059-.503-.346-.219-.52 2.631-1.601 5.829-2.483 8.77-3.381l.238-.073c1.595-.49 3.154-1.05 4.804-1.328a76.205 76.205 0 014.83-.655l.157-.014c1.779-.149 6.318-.098 6.126-2.733-.127-1.744-2.961-2.045-4.254-2.066-5.931-.095-11.904 1.48-17.541 3.167l-1.258.377c-2.308.695-4.619 1.41-6.883 2.224-2.567.922-4.588 2.361-6.457 4.33-2.073 2.184-4.08 4.416-6.23 6.526a241.845 241.845 0 01-4.112 3.932 4.292 4.292 0 00-.736 1.417c-.292.965-.225 1.862-.115 2.854.279 2.503.341 5.033.69 7.529.324 2.313.776 4.71 1.736 6.855.38.849.875 1.684 1.438 2.43l.455.591c.198.257.42.538.652.802.342-.417.836-.688 1.411-.62 1.221.144 2.181.109 3.379-.171.927-.217 1.847-.472 2.77-.707 1.812-.462 3.641-.883 5.435-1.414l.309-.093c1.337-.411 2.674-.924 3.787-1.788 1.292-1.003 1.69-2.451 2.648-3.702 2.044-2.673 6.463-2.617 9.455-3.349 2.542-.622 4.989-1.603 6.748-3.449l.103-.109c-.078-.33.049-.701.354-.872l.067-.037a.733.733 0 01.374-.092c.163-.24.321-.487.464-.751.118-.218.412-.058.373.157-.023.128-.055.253-.085.379 1.705-.439 3.576-.355 5.307-.354l2.245-.008c.389-.005.968-.024 1.02-.047l.053-.024c.14-.061-.059.04.039-.09.108-.143.213-.288.317-.434.373-.521.725-1.058 1.07-1.6-3.761.959-7.656 1.555-11.496 2.052-4.12.534-8.294.905-12.45.908-1.146.002-1.135-1.729 0-1.772 4.401-.168 8.779-.401 13.151-.965 2.26-.292 4.512-.659 6.75-1.087.864-.165 1.727-.341 2.587-.526l.644-.141c.405-.089 1.548-.218 2.105-.592l.327-.564c-.053-.661-1.732-.573-2.125-.574-1.116-.002-2.232.007-3.348.01-2.232.007-4.464-.013-6.697-.031-4.459-.036-8.936-.192-13.392-.001-1.082.046-1.65-1.689-.581-2.146 4.72-2.016 9.96-2.454 14.999-3.074 2.651-.325 5.303-.701 7.893-1.361l.641-.163c1.628-.417 3.425-.926 4.796-1.921-2.06-.833-4.621-.738-6.756-.856l-.164-.009a150.3 150.3 0 00-8.981-.283c-6.129-.008-12.26.209-18.383.5-.154.007-.185-.236-.036-.268 6.293-1.374 12.688-2.035 19.128-2.137 3-.048 6-.005 8.997.127l1.1.051c2.555.11 5.39.14 7.527 1.684.326.235.498.535.525.853 2.867-5.717 5.515-11.553 8.173-17.351 2.067-4.507 4.057-9.053 6.199-13.526l.694-1.447c.928-1.931 1.88-3.862 2.936-5.722-3.95-.528-7.922-.895-11.897-1.176-3.622-.256-15.438-.823-17.182-.485zm-1.749 61.958c.45-.25 1.14-.046 1.251.51.083.414.224.873.224 1.296 0 .507-.181 1.058-.278 1.554-.222 1.141-.496 2.068-1.076 3.084-.362.636-1.095 1.068-1.831 1.051-.583-.014-1.1-.17-1.5-.621-.479-.541-.808-1.337-.545-2.065.688-1.908 1.954-3.808 3.755-4.809zm-95.548-1.903c1.054-1.847 3.553-3.497 5.733-3.334 3.274.245 3.942 4.655.773 5.708-1.895.628-4.502-.017-6.159-1.052a.986.986 0 01-.347-1.322zm-33.649-6.309c-.24-.349.157-.746.513-.668.791.174 1.645.25 2.42.486.793.241 1.561.642 2.347.917 1.647.577 3.406.867 5 1.564.637.278 1.138 1.201 1.08 1.881l-.016.159c-.035.338-.094.633-.282.941-.508.829-1.512 1.257-2.46 1.002-1.76-.473-3.48-1.687-4.98-2.697l-.277-.184c-.656-.432-1.36-.883-1.889-1.439-.55-.581-1.004-1.305-1.456-1.962zm60.484-6.717c-.203-.73.705-1.212 1.234-.719 1.057.985 2.162 1.898 3.197 2.908l.07.069c.741.745 1.819 2.182.855 3.146-1.235 1.236-2.955-.598-3.618-1.554-.841-1.212-1.345-2.433-1.738-3.85zm80.889-6.033c-1.568 1.661-3.984 2.425-6.111 3.058-2.523.75-5.121 1.198-7.723 1.566-2.513.356-5.007.674-7.481 1.083 1.871.023 3.742.037 5.609.07 2.153.039 4.305.086 6.457.148 1.568.046 3.407-.169 4.897.414.268.104.519.25.738.427a188.818 188.818 0 003.614-6.766zm-96.722-15.537c1.637-.52 3.176-1.21 4.911-1.031.461.047.791.496.54.94-.823 1.447-2.16 2.264-3.476 3.233l-.116.085a42.5 42.5 0 01-4.554 2.929c-2.697 1.514-5.114-2.82-2.39-4.091 1.639-.766 3.36-1.517 5.085-2.065zm29.467-3.763c2.504.165 5.006.277 7.513.379 2.904.117 1.928 4.587-.498 3.683a306.797 306.797 0 00-7.211-2.611c-.737-.253-.677-1.463.149-1.452l.047.001zm-64.222-7.952c.648-.046 1.303.096 1.953.159l.692.067c1.425.142 2.762.317 4.121.897 2.509 1.071 1.161 5.105-1.357 5.013-1.861-.069-3.453-.869-5.024-1.799-1.374-.814-2.217-1.832-3.144-3.11-.308-.423.12-.898.539-.94.737-.075 1.482-.236 2.22-.287zm125.746-8.238a16.425 16.425 0 01-2.998 7.134c-.781 1.062-2.15 1.102-2.924 0-1.094-1.56-.419-3.348.405-4.846l.244-.439c.369-.657.936-1.617 1.583-2.28l.011-.067c.347-2.713 4.106-2.172 3.679.498zm-101.276-16.629c.624-.562 1.774-.394 1.977.522.283 1.282.456 2.726.27 4.027-.101.705-.138 1.497-.416 2.154-.298.707-.871 1.251-1.411 1.782-1.078 1.061-3.352.71-3.641-.961l-.036-.205c-.146-.791-.331-1.637-.116-2.42.162-.592.525-1.195.825-1.744l.064-.116c.601-1.121 1.539-2.188 2.484-3.039zm87.744 2.727l.225.003c1.743.034 4.928.458 4.945 2.612.004.508-.372 1.034-.876 1.15-1.041.242-1.714-.374-2.456-.996a7.586 7.586 0 00-2.05-1.207c-.794-.315-.742-1.563.212-1.562z" fill="#000"/><path fill-rule="evenodd" clip-rule="evenodd" d="M193.703 64.817c-.934-5.662 2.13-6.837 0-12.22-4.735-9.973-17.64-9.543-27.109-10.31-10.562-.406-21.252.992-30.989 5.235a49.816 49.816 0 00-6.707 3.56c-1.854 1.171-1.599 3.398-.43 4.613-8.431 11.968-3.609 28.033-10.336 40.63-1.243 2.253-2.886 4.272-3.967 6.615-1.641 3.562-1.747 8.665 1.977 11.03 5.244 2.822 8.17-2.765 10.747 5.334 12.869 28.238 38.743 29.829 63.305 15.106 2.125-1.185 4.294-2.524 5.899-4.386 3.642-4.109 3.213-9.887 3.293-15.019.045-3.007.053-6.015.024-9.022-.115-12.183-4.143-29.083-5.707-41.166z" fill="#EDB98A"/><path fill-rule="evenodd" clip-rule="evenodd" d="M141.387 30.95c14.83-6.744 31.651-9.302 47.828-7.624 7.985.826 15.865 2.6 23.364 5.481l.657.255c1.851.714 3.846 1.423 5.253 2.877 1.637 1.69 2.097 4.244.926 6.331-.909 1.622-2.544 2.785-4.287 3.406a14.497 14.497 0 011.743 1.695c.922 1.052.992 2.552 0 3.59-1.91 2-4.388 3.447-7.058 4.14.3 1.452.138 3.06-.505 4.507-1.846 4.154-7.045 4.649-11.047 4.402l-.12-.008-.223 2.553c-.118 1.36-.931 2.414-2.309 2.623a2.877 2.877 0 01-.145.017c2.181 7.907 3.499 16.06 4.715 24.163.636 4.23 1.204 8.47 1.749 12.713l.181 1.415c.58 4.574 1.306 9.194 1.557 13.802.225 4.182-.571 8.174-3.141 11.549-2.307 3.025-5.453 5.292-8.836 6.974-7.644 3.803-15.689 6.635-24.143 7.948l-.563.087c-3.263.5-6.626.921-9.854.015-2.836-.795-5.811-2.846-5.17-6.14.215-1.113 1.768-1.161 2.3-.301l.123.198c.638 1.014 1.337 1.957 2.45 2.481 1.303.616 2.814.788 4.239.805 3.978.046 8.12-.948 11.95-1.944 7.153-1.862 14.499-4.897 20.358-9.495 2.493-1.954 4.496-4.398 5.202-7.542.873-3.876.07-8.113-.327-12.009-.816-8.038-1.787-16.061-2.812-24.075l-.206-1.603c-.863-6.7-1.769-13.403-2.2-20.142a1.895 1.895 0 01-.348-.829l-.068-.439a3.696 3.696 0 01-.027-1.037 66.16 66.16 0 01.107-3.644c.012-.218.022-.436.029-.652a56.495 56.495 0 01-3.811.696 121.493 121.493 0 01-27.141 1.02c-4.515-.337-8.995-.916-13.462-1.64a179.783 179.783 0 01-6.797-1.232c-1.632-.327-3.231-.77-4.836-1.188-1.657 2.417-2.552 5.392-2.378 8.313.196 3.333 2.411 6.355 1.79 9.761-.583 3.188-3.307 4.176-5.997 4.966l-1.144.33c-.88.258-1.519.507-1.678 1.567-.273 1.82.063 3.869.133 5.699.085 2.165.196 4.33.247 6.494.026 1.12.07 2.245.067 3.365-.002.795-.121 1.338-.428 1.852.237.298.45.62.639.962.06.112-.09.23-.179.138a6.337 6.337 0 00-.762-.676 6.265 6.265 0 01-.477.519l-.014-.02c-.575.575-1.489.63-2.203.02l-.187-.163c-.522-.459-.881-.841-1.027-1.6a2.35 2.35 0 01-.019-.116 7.476 7.476 0 00-3.871.93c-1.894 1.05-3.226 2.546-4.014 4.393.314.369.681.698 1.109.975.061.041.008.131-.058.099a5.283 5.283 0 01-1.18-.759 10.705 10.705 0 00-.602 2.335c-.425 2.918.334 6.484 2.965 8.147a7.118 7.118 0 003.789 1.115c.658.002 1.226-.109 1.864-.266.433-.107.864-.262 1.316-.262.387 0 .745.097 1.076.291l-.092.008c-.223.021-.18.03.131.03.967.042 1.52 1.026 1.076 1.882l-.059.132a3.485 3.485 0 01-.03.066l-.036.227-.011.067-.013.046-.008.022 1.45 2.217c1.779 2.713 3.597 5.416 5.666 7.893 1.451 1.739 2.989 3.443 4.614 5.021 1.46 1.418 3.211 2.101 4.865 3.217.883.591 1.142 1.83.339 2.627-2.356 2.344-5.69.483-7.622-1.423-1.828-1.806-3.407-3.978-4.769-6.152-2.415-3.866-4.338-7.978-5.179-12.44-.351.322-.798.523-1.251.681-.906.315-1.905.446-2.863.48-1.835.06-3.673-.386-5.324-1.176-6.72-3.212-7.707-12.831-3.599-18.503-.553-1.61-.863-3.358-1.199-4.848l-.153-.666c-1.699-7.44-2.84-15.274.172-22.564.387-.94.823-1.857 1.338-2.735.413-.705 1.124-1.457 1.32-2.259.435-1.762-2.251-3.614-3.035-5.013-.921-1.641-1.052-3.578.203-5.079a3.92 3.92 0 01.523-.516c-1.19-2.162-1.246-4.882.321-7.015a6.863 6.863 0 014.319-2.688c1.049-.182 2.312-.114 3.465.21 6.316-5.878 13.522-10.79 21.369-14.357zm-24.254 73.554c1.686-1.491 3.548-2.272 5.845-2.075 2.309.198 5.09 1.156 6.447 3.141 1.071 1.569-1.113 3.869-2.684 2.691-1.432-1.074-2.387-2.286-4.164-2.863-1.597-.516-3.572-.848-5.243-.552-.184.031-.367-.197-.201-.342z" fill="#000"/><path fill-rule="evenodd" clip-rule="evenodd" d="M169.603 115.498c1.356-2.231 4.245 3.234 4.552 4.173.272.833.452 1.685.543 2.548a7.894 7.894 0 003.219.029c1.6-.307 2.579-1.168 3.97-1.907.96-.51 2.171.089 2.671.936.588.996.213 2.031-.56 2.774-1.466 1.41-4.35 1.733-6.263 1.359a8.076 8.076 0 01-2.988-1.223c-.006.111-.01.223-.019.334l-.017.194c-.147 1.563-.576 3.528-1.79 4.545-1.99 1.668-4.447-1.54-2.513-3.207l.06-.05c1.202-.971 1.465-3.578 1.4-5.014a10.41 10.41 0 00-.509-2.78l-.061-.177c-.089-.252-1.06-2.644-1.411-2.34l-.016.017c-.145.173-.379-.028-.268-.211zm10.823-12.587c1.83 1.113 4.618 3.707 2.65 6.466-2.317 2.432-5.653-.357-7.297-1.618-1.525-.978-3.238 1.536-1.823 2.678 11.879 8.798 16.7-7.235 7.396-8.834-1.025-.177-1.405.964-.926 1.308zm-19.54-10.285c1.789-.317 3.621.128 5.101 1.174l.112.081c1.426 1.043 3.021 2.875 2.203 4.673-.329.722-1.312.835-1.936.507-1.039-.544-1.227-1.885-2.154-2.627-.76-.608-1.784-.977-2.763-.888-2.3.209-3.714 2.478-4.429 4.433-.091.25-.458.348-.602.079-1.684-3.15 1.297-6.869 4.468-7.432zm28.646-1.188c3.425-.283 7.435 3.27 6.533 6.887-.432 1.736-3.006 1.686-3.464 0-.251-.927-.226-1.748-.894-2.519-.551-.636-1.334-1.005-2.175-.948-.928.062-1.784.526-2.434 1.178-.587.588-.938 1.45-1.546 1.97-.15.129-.35.137-.498 0-1.047-.965-.419-2.975.245-3.983.95-1.442 2.497-2.442 4.233-2.585zm-35.169-5.227c2.198-1.946 6.191-3.826 9.154-2.868 1.704.55 2.447 3.297.545 4.167-2.203 1.008-4.742.598-6.984 1.643-.941.439-1.827.988-2.482 1.792-.517.634-1.042 1.469-1.789 1.834-.196.096-.462.099-.619-.08-1.637-1.852.745-5.222 2.175-6.488zm31.391-2.964c1.359-.382 2.865-.374 4.245-.135 1.38.24 2.78.812 3.906 1.646l.131.098c1.229.926 2.696 2.275 2.617 3.916-.065 1.371-1.507 2.298-2.751 1.58-1.015-.586-1.492-1.76-2.351-2.541a8.094 8.094 0 00-2.43-1.51 8.355 8.355 0 00-3.034-.6c-.816-.013-1.636.255-2.436.34.066.136-.567.073-.929-.047-.269-.115-.27-.454-.177-.675.462-1.091 2.141-1.773 3.209-2.072z" fill="#000"/><defs><clipPath id="clip0_1_732"><path fill="#fff" transform="translate(1 289)" d="M0 0h294v33H0z"/></clipPath></defs></svg>