<svg width="392" height="501" fill="none" xmlns="http://www.w3.org/2000/svg"><path fill-rule="evenodd" clip-rule="evenodd" d="M23.608 429.565a886.02 886.02 0 005.265-28.812c.758-4.571 1.496-9.145 2.16-13.727.465-3.211 1.174-6.882-1.292-9.259-3.47-3.347-6.62-6.211-7.046-11.005-.4-4.51 1.322-9.427 2.399-13.805 2.258-9.181 5.068-18.249 8.174-27.231 3.155-9.125 6.614-18.164 10.123-27.187 3.281-8.435 6.435-16.947 10.709-25.04 8.11-15.359 21.83-26.733 38.786-34.328 4.217-1.889 12.819-8.631 17.225-10.141 4.05-1.388 4.036 2.665 8.022 1.138 3.187-1.22 6.154-2.848 7.938-5.573 1.938-2.96 6.796-7.099 7.536-10.545 1.567-7.302-.131-13.517 5.753-19.013 5.223-4.881 12.243-8.224 19.507-10.019 15.979-3.948 37.29-1.188 46.931 11.966 4.605 6.281 6.214 13.874 12.428 19.001 5.425 4.476 4.211 7.536 11.239 9.843.398.131 11.185-1.919 11.584-1.788 7.687-1.457 15.035 2.623 22.088 4.99 10.515 3.529 20.525 8.122 29.93 13.58 18.965 11.008 35.208 25.301 48.598 41.476 13.502 16.307 23.978 34.586 31.437 53.69a189.977 189.977 0 014.874 14.079c.803 2.654 1.662 5.408.683 8.125-.8 2.223-2.579 3.878-4.669 5.212-2.833 1.808-8.515 2.984-8.405 6.62.085 2.766 1.144 5.676 1.661 8.408.615 3.254 1.121 6.528 1.626 9.796 2.299 14.877 4.089 29.838 4.88 44.841.78 14.773 1.426 29.847.269 44.616a5.265 5.265 0 01-.933 2.623c.494.167.532.982-.082 1.098l-1.291.242c-.894.599-2.009.967-3.292 1.003-.87.024-1.739.059-2.608.098-9.169 1.698-18.337 3.302-27.627 4.517a776.218 776.218 0 01-33.976 3.658c-23.343 2.01-46.502 1.343-69.875.26a1009.223 1009.223 0 00-70.023-.797c-23.382.539-46.756 1.44-70.143 1.809-26.129.411-52.218-.221-78.27-2.061-3.573-.252-5.783-2.77-5.078-5.913 4.22-18.829 9.004-37.534 12.785-56.445z" fill="#FFDBB4"/><path fill-rule="evenodd" clip-rule="evenodd" d="M263.137 229.03l-.511-.174c-6.897-2.387-14.075-6.238-21.578-4.816-.265-.087-5.147.794-8.49 1.353l3.173 2.935 5.601.955c-19.322 28.25-42.176 42.375-68.56 42.375-26.383 0-46.404-14.125-60.061-42.375l-1.863-.457a5.98 5.98 0 00-.738.204c-4.405 1.509-13.007 8.252-17.224 10.141C75.93 246.766 62.21 258.14 54.1 273.499c-4.131 7.823-7.216 16.038-10.38 24.196l-.329.844c-3.509 9.022-6.968 18.062-10.123 27.187-2.971 8.591-5.672 17.261-7.877 26.034l-.297 1.197c-1.077 4.378-2.798 9.295-2.399 13.805a11.14 11.14 0 001.384 4.498l38.218 12.182-18.208 110.007c16.678.634 33.372.798 50.082.535 23.387-.369 46.761-1.27 70.143-1.809 22.654-.522 45.272-.3 67.901.701l5.747.26c22.145.981 44.115 1.482 66.25-.424l1.508-.132.001-16.091-7.776-89.604 39.405-6.57 38.681-16.643c1.169-1.035 2.107-2.243 2.628-3.692.906-2.517.237-5.065-.505-7.536l-.178-.589a190.463 190.463 0 00-4.874-14.08c-7.459-19.103-17.935-37.382-31.437-53.69-13.391-16.174-29.633-30.467-48.598-41.475-9.405-5.459-19.416-10.052-29.93-13.58z" fill="#EC7495"/><path fill-rule="evenodd" clip-rule="evenodd" d="M248.339 223.577c-2.416-.093-4.88.253-7.291.463-.21.018-.289.305-.053.349 4.314.799 8.581 1.891 12.818 3l1.814.476c4.778 1.252 9.416 2.543 14.041 4.213 9.218 3.328 17.973 7.82 26.031 12.981 31.028 19.873 53.485 49.961 67.656 81.113 3.849 8.46 7.11 17.13 9.751 25.947a212.92 212.92 0 011.82 6.458c.168.634.901 2.256.499 2.904-.355.572-1.737.926-2.379 1.224l-2.167.996a2057.216 2057.216 0 01-11.973 5.411l-1.101.48c-18.01 7.821-37.254 14.454-57.521 14.913l-.159-1.533c-.904-8.477-2.09-16.998-4.678-25.214-.139-.441-.773-.292-.831.1-1.442 9.726-.981 19.528-.478 29.3.891 17.306 2.074 34.602 3.125 51.902.526 8.654 1.207 17.302 1.821 25.951.615 8.666.814 17.541 2.219 26.136.313 1.916 2.846 2.958 4.765 2.756 2.122-.224 3.755-1.88 3.765-3.778.026-5.008-.685-10.074-1.079-15.069-.375-4.745-.778-9.488-1.19-14.231-1.507-17.31-3.24-34.6-4.844-51.902a1772.54 1772.54 0 00-1.814-18.399c21.47-.613 41.528-7.658 60.663-15.889.277 5.571.946 11.132 1.594 16.679 1.807 15.482 3.401 30.957 4.594 46.486.603 7.844 1.041 15.697 1.423 23.551a630.675 630.675 0 01.564 15.445l.066 2.949c.053 1.869.267 3.6 2.042 4.961 1.803 1.381 4.239 1.455 6.023 0 2.389-1.949 1.966-4.604 1.895-7.22a608.173 608.173 0 00-.211-6.621 642.592 642.592 0 00-.632-13.236c-.896-15.418-2.686-30.775-5.026-46.069l-.913-5.905c-1.706-10.975-3.578-22.201-7.391-32.774a752.162 752.162 0 004.439-1.974c2.616-1.173 5.321-2.274 7.863-3.569 2.017-1.028 3.757-2.437 4.319-4.516.626-2.317-.332-4.851-.968-7.111l-.055-.198a192.07 192.07 0 00-2.005-6.798c-2.874-9.149-6.428-18.12-10.587-26.871-8.328-17.521-19.078-34.166-32.208-49.216-11.82-13.547-25.782-25.832-42.146-35.046-8.001-4.505-16.526-8.204-25.543-10.819-4.214-1.222-8.799-2.285-13.212-2.723-2.38-.236-4.764-.371-7.155-.463zm-42.811-27.763c-2.871-2.732-8.576.095-7.197 3.712 3.243 8.509 8.407 16.27 16.466 21.862 7.576 5.256 16.609 8.67 26.338 7.941a.633.633 0 00.197-.046l-.838 1.007c-6.582 7.887-13.526 15.665-21.895 22.112-17.052 13.135-40.269 20.22-62.687 15.18-17.639-3.965-33.179-16.321-37.749-32.067.655.26 1.434.349 2.289.184 3.656-.703 7.276-4.11 9.635-6.552 2.551-2.643 4.543-5.496 6.004-8.722 2.672-5.902 3.529-13.503-.12-19.221-.45-.705-1.489-.309-1.577.379l-.139 1.074c-.704 5.359-1.58 10.542-4.433 15.428-1.395 2.39-3.068 4.723-5.105 6.725-1.09 1.071-2.271 2.095-3.547 2.993-1.243.875-2.747 1.507-3.862 2.511l-.204.193-.005-.034c-.282-2.122-1.962-3.056-3.605-2.998-1.59.057-3.458.677-4.181.974l-.069.028c-11.094 4.718-21.311 10.867-30.927 17.689-19.884 14.109-34.783 32.552-42.002 54.272-3.543 10.659-5.576 21.643-7.722 32.575l-1.321 6.699c-2.003 10.092-4.24 20.384-8.763 29.772-1.17 2.429-.268 4.706 2.6 5.661a759.843 759.843 0 0010.776 3.488c-1.768 6.718-2.846 13.669-4.17 20.42-2.815 14.351-6.265 28.61-9.223 42.941-1.512 7.328-2.876 14.68-4.387 22.009-.727 3.529-1.487 7.053-2.225 10.581-.397 1.902-.758 3.81-1.138 5.715l-.066.316c-.217 1.005-.49 2.044-.178 3.05.356 1.147 1.366 1.957 2.268 2.779.743.677 1.816.682 2.726.312l.299-.122c1.625-.674 2.898-1.345 3.474-2.969.365-1.028.497-2.186.735-3.246.458-2.03.891-4.063 1.3-6.102.82-4.08 1.62-8.162 2.401-12.247l.73-3.826c2.503-13.185 4.881-26.45 6.083-39.774a2764.95 2764.95 0 011.669-17.724l.428-4.431c.542-5.607 1.203-11.357 1.297-17.041l2.153.677 10.504 3.29c2.604.815 5.92 2.486 8.723 2.182 1.372-.149 2.418-.532 3.226-1.227-.967 12.092-2.277 24.164-4.022 36.173-1.587 10.928-3.347 21.841-5.426 32.705-1.03 5.379-2.088 10.753-3.237 16.113a610.637 610.637 0 01-1.778 8.031c-.305 1.334-.667 2.67-.905 4.015-.272 1.54.207 2.488 1.179 3.755.798 1.041 2.393 1.575 3.687.857 1.713-.953 2.607-1.778 3.11-3.512.459-1.575.737-3.22 1.092-4.815a614.55 614.55 0 001.897-8.847 522.054 522.054 0 003.504-18.572c3.703-21.871 6.052-43.926 7.24-66.016.585-10.898.766-21.807.662-32.717-.053-5.592-.26-11.2-.706-16.779-.452-5.646-1.393-11.18-2.233-16.772-.03-.197-.343-.208-.356 0-.398 6.27-1.021 12.532-1.327 18.819-.291 5.998-.419 12.005-.65 18.006a736.132 736.132 0 01-1.287 23.666c-1.012-.981-2.538-1.546-4.065-1.325-2.212-.411-4.593-1.44-6.702-2.064l-7.95-2.352a1178.125 1178.125 0 00-12.552-3.656c3.75-11.175 6.318-22.516 8.511-34.023l.979-5.175c1.936-10.186 4.023-20.377 7.53-30.241 3.688-10.371 9.205-20.013 16.525-28.744 7.215-8.605 15.993-16.182 25.03-23.269 7.738-6.067 16.015-11.545 23.907-17.445-.083.391-.1.821-.027 1.294 1.677 10.879 8.084 21.01 17.012 28.546 17.936 15.138 44.487 18.279 67.443 11.18 22.207-6.867 41.84-23.129 48.777-43.253.118-.344-.402-.481-.611-.228l-1.159 1.402c.026-.186-.083-.388-.341-.476-8.094-2.769-16.041-6.695-22.108-12.249-2.957-2.707-5.537-5.774-7.574-9.082-.976-1.585-1.853-3.225-2.552-4.921l-.178-.439c-.847-2.124-1.555-4.29-3.325-5.972z" fill="#000"/><path fill-rule="evenodd" clip-rule="evenodd" d="M101.842 76.557c1.831-9.831-4.177-11.87 0-21.216 9.283-17.315 34.582-16.569 53.147-17.9 20.706-.705 41.664 1.722 60.753 9.09 4.56 1.76 8.945 3.828 13.149 6.18 3.636 2.033 3.136 5.899.844 8.008 16.528 20.778 7.075 48.668 20.263 70.54 2.436 3.909 5.659 7.415 7.776 11.483 3.219 6.183 3.425 15.043-3.874 19.15-10.282 4.898-16.019-4.801-21.07 9.259-25.23 49.025-75.955 51.786-124.109 26.226-4.166-2.057-8.418-4.382-11.564-7.614-7.141-7.134-6.3-17.166-6.458-26.075a562.52 562.52 0 01-.045-15.664c.224-21.151 8.121-50.49 11.188-71.467z" fill="#FFDBB4"/><path fill-rule="evenodd" clip-rule="evenodd" d="M204.407 17.758C175.332 6.05 142.355 1.61 110.64 4.523c-15.655 1.435-31.103 4.514-45.804 9.516l-1.289.442c-3.629 1.24-7.54 2.47-10.298 4.994-3.21 2.934-4.11 7.37-1.816 10.993 1.782 2.815 4.987 4.835 8.405 5.913a27.247 27.247 0 00-3.418 2.942c-1.806 1.826-1.944 4.43 0 6.232 3.745 3.472 8.604 5.984 13.838 7.188-.588 2.521-.27 5.311.991 7.824 3.619 7.212 13.812 8.072 21.656 7.643l.237-.013.436 4.431c.232 2.362 1.825 4.192 4.527 4.554.095.013.19.021.285.03-4.276 13.728-6.86 27.88-9.245 41.95-1.246 7.344-2.361 14.705-3.429 22.071l-.354 2.456c-1.138 7.941-2.56 15.963-3.053 23.963-.44 7.26 1.119 14.191 6.158 20.049 4.523 5.252 10.69 9.187 17.323 12.108 14.985 6.603 30.758 11.519 47.331 13.8l1.105.151c6.398.867 12.989 1.597 19.318.025 5.561-1.38 11.392-4.94 10.136-10.66-.422-1.931-3.466-2.016-4.509-.521l-.24.342c-1.251 1.761-2.622 3.399-4.804 4.307-2.555 1.07-5.518 1.368-8.31 1.398-7.799.08-15.92-1.645-23.429-3.375-14.023-3.232-28.425-8.501-39.912-16.485-4.888-3.392-8.813-7.634-10.197-13.092-1.712-6.73-.138-14.086.64-20.849 1.6-13.955 3.504-27.884 5.513-41.798l.403-2.783c1.692-11.632 3.47-23.269 4.314-34.968.351-.425.588-.91.683-1.44l.132-.761c.114-.652.133-1.25.053-1.801a100.49 100.49 0 00-.209-6.326 54.882 54.882 0 01-.057-1.132c2.475.484 4.969.876 7.472 1.208a268.662 268.662 0 0053.209 1.772c8.851-.586 17.635-1.591 26.392-2.85a392.572 392.572 0 0013.326-2.137c3.2-.568 6.334-1.339 9.482-2.062 3.247 4.196 5.001 9.36 4.66 14.43-.384 5.787-4.727 11.035-3.508 16.948 1.143 5.534 6.484 7.25 11.756 8.62l2.243.575c1.725.447 2.978.879 3.29 2.719.536 3.161-.123 6.717-.261 9.894-.166 3.759-.383 7.517-.483 11.275-.052 1.944-.137 3.897-.133 5.841.005 1.381.237 2.324.839 3.215a12.026 12.026 0 00-1.251 1.671c-.119.194.175.4.35.24.47-.433.968-.825 1.494-1.174.265.291.573.585.934.901l.028-.034c1.128.998 2.92 1.094 4.319.034l.367-.283c1.024-.796 1.728-1.46 2.013-2.777.014-.067.029-.134.038-.202 2.602-.08 5.248.467 7.589 1.616 3.712 1.823 6.325 4.419 7.87 7.626a9.668 9.668 0 01-2.176 1.692c-.118.071-.014.227.114.172a10.556 10.556 0 002.313-1.317 16.872 16.872 0 011.181 4.053c.834 5.067-.654 11.258-5.812 14.145a15.3 15.3 0 01-7.429 1.936c-1.289.003-2.404-.19-3.655-.463-.849-.186-1.693-.455-2.579-.455a4.51 4.51 0 00-2.11.505l.18.014c.438.037.354.053-.256.053-1.896.072-2.981 1.781-2.109 3.266l.114.23.061.115.069.394.021.116.027.079c.004.013.01.026.016.038l-2.844 3.85c-3.487 4.71-7.052 9.402-11.108 13.704-2.844 3.018-5.86 5.976-9.045 8.716-2.864 2.462-6.296 3.649-9.539 5.584-1.73 1.027-2.237 3.178-.664 4.562 4.618 4.07 11.156.838 14.943-2.47 3.584-3.135 6.68-6.906 9.349-10.681 4.736-6.713 8.505-13.85 10.155-21.598.687.56 1.564.909 2.451 1.183 1.777.547 3.735.774 5.613.833 3.598.105 7.201-.669 10.439-2.041 13.174-5.577 15.108-22.276 7.054-32.124 1.086-2.796 1.693-5.829 2.352-8.416l.299-1.157c3.331-12.917 5.567-26.516-.338-39.174-.758-1.633-1.611-3.223-2.621-4.747-.811-1.224-2.205-2.53-2.589-3.922-.853-3.06 4.414-6.275 5.95-8.703 1.806-2.85 2.062-6.212-.398-8.817a7.268 7.268 0 00-1.024-.896c2.332-3.754 2.441-8.476-.631-12.18-2.019-2.44-5.101-4.15-8.467-4.667-2.057-.316-4.532-.198-6.793.366-12.382-10.205-26.51-18.732-41.893-24.927zm47.549 127.698c-3.305-2.588-6.955-3.943-11.459-3.602-4.527.345-9.979 2.007-12.638 5.454-2.101 2.723 2.18 6.717 5.261 4.672 2.807-1.865 4.68-3.969 8.164-4.971 3.129-.896 7.002-1.473 10.278-.959.361.055.72-.341.394-.594z" fill="#000"/><path fill-rule="evenodd" clip-rule="evenodd" d="M129.709 175.09c-.729-1.122-2.407-2.162-3.942-2.003-6.879.715-6.867 8.103-4.211 12.415 2.355 3.825 7.229 6.069 12.107 5.742 5.125-.345 9.491-3.014 11.413-7.261 1.271-2.809 1.858-7.995-1.523-9.883-.063-.035-.166-.026-.216.025-1.621 1.67-1.685 4.178-3.104 6.038-1.319 1.729-3.37 3.158-5.772 3.378-1.794.165-3.608-.408-4.31-1.835-.38-.771-.337-1.19-.194-1.721l.13-.462c.449-1.617.651-2.848-.378-4.433zm-1.839-32.399c-3.587 1.932-9.053 6.436-5.194 11.225 4.543 4.223 11.083-.619 14.306-2.808 2.989-1.697 6.347 2.667 3.574 4.649-23.29 15.275-32.742-12.561-14.5-15.337 2.008-.306 2.754 1.674 1.814 2.271zm37.884-13.246c-2.202-2.926-7.228-2.495-8.441.977-.657 1.882.25 3.573.203 5.451-.039 1.587.078 3.356.627 4.893 1.253 3.504 4.811 5.98 9.02 5.877 4.196-.102 7.892-2.455 9.649-5.768 1.764-3.326 1.39-6.768.103-10.15-.062-.162-.302-.241-.447-.104-1.522 1.432-2.636 2.945-3.789 4.549l-1.181 1.644c-.903 1.238-2.215 2.82-3.901 2.721l-.253-.022c-.468-.036-.396.046-.758-.519-.167-.262-.137-.748-.217-1.057l-.028-.105.015-.056c.036-.15.071-.431.1-.921l.006-.108c.122-2.288.852-5.228-.708-7.302zm-55.817 1.949c.395-3.744-5.546-4.575-7.521-1.805-1.03 1.444-1.33 3.259-1.557 4.977l-.107.816c-.234 1.766-.326 3.602.539 5.249 1.362 2.594 4.325 3.965 7.522 3.748 3.052-.208 5.837-1.776 7.305-4.156 1.309-2.123 2.61-6.269 1.02-8.484-.096-.135-.288-.152-.419-.048-1.502 1.181-1.747 3.336-2.64 4.875-.921 1.587-2.318 3.134-4.436 3.375-2.026.231-2.799-.749-2.283-2.46.667-2.209 2.326-3.711 2.577-6.087zm54.212-24.202l-.971-.33c-3.328-1.113-7.898-2.401-10.604-.003-1.67 1.478-1.987 3.656-.796 5.46 1.444 2.186 4.033 2.24 6.534 2.562 2.844.366 5.737 1.062 8.385 2.054 2.983 1.118 5.751 2.512 8.464 4.069 2.577 1.479 5.146 3.897 8.232 4.353.126.018.269-.03.301-.152.701-2.673-1.246-5.302-2.984-7.387-2.103-2.525-4.65-4.596-7.498-6.454-2.748-1.793-5.889-3.089-9.063-4.172zm-60.461 9.501l-.297-.046c-2.018-.297-3.847-.229-5.368 1.187-1.161 1.081-1.609 2.481-1.055 3.909.51 1.318 1.653 2.657 3.31 2.933 5.596.932 11.794.778 17.418.072 2.573-.323 5.169-.719 7.676-1.342l1.153-.297c2.092-.529 4.487-1.082 6.007-2.445.547-.49.232-1.191-.422-1.418-2.652-.92-6.287-.431-9.114-.503a148.8 148.8 0 01-9.858-.602c-3.199-.295-6.295-.935-9.45-1.448z" fill="#000"/></svg>