<svg width="632" height="707" fill="none" xmlns="http://www.w3.org/2000/svg"><path d="M475.184 138.212c49.768 32.016 95.1 79.25 106.828 134.09 12.046 54.842-9.51 117.291-41.526 174.668-32.018 57.377-74.812 109.048-126.166 120.777-51.354 11.412-111.584-17.752-169.596-42.795-58.011-25.36-114.12-46.599-148.673-88.76-34.236-42.161-46.916-105.562-38.99-167.694 7.607-62.448 35.82-123.629 82.419-156.28 46.916-32.651 112.218-36.772 171.814-30.115 59.914 6.657 114.12 24.092 163.89 56.109z" fill="#FFDBB4"/><path fill-rule="evenodd" clip-rule="evenodd" d="M276.948 491.378c6.056-28.697 27.534-50.967 56.42-62.06 5.552-3.141 10.935-16.619 18.397-19.087 1.197-.396-.692 2.752 0 2.94 2.468.671 5.233.741 7.958-1.68 4.87-4.33 6.398-16.978 9.359-22.695 15.615-30.148 54.603-18.352 59.826 14.976 3.642 2.375 8.791 4.466 12.755 6.38 4.082 1.97 7.674 6.742 11.88 8.449 3.753 1.522 9.939.443 13.721 1.77 17.397 6.104 32.131 13.806 43.683 29.411 2.434 3.291 5.178 7.338 7.393 10.663 11.419 13.149 19.352 27.887 26.657 43.698 20.438 46.41 25.998 97.797 30.985 147.802-.113 8.749 5.691 33.01-2.894 37.204.514.532.328 1.601-.624 1.592-21.768-.22-43.486 1.729-64.916 5.516-10.34 1.829-20.623 4.335-31.156 4.748-21.863-.152-43.648-3.816-65.482-.349-26.249 0-58.148-.764-87.349-1.887-27.291-1.049-54.728 1.32-81.681-3.322-2.134-.337-3.176-2.941-2.728-4.805 3.162-11.526 4.714-23.387 6.488-35.183-.353-7.567.279-15.466 3.078-22.513 7.311-47.574 16.687-94.838 28.23-141.568z" fill="#FFDBB4"/><path fill-rule="evenodd" clip-rule="evenodd" d="M351.765 413.347c-.692-.189 1.197-3.338 0-2.942-7.462 2.468-12.845 15.947-18.397 19.088-28.886 11.093-50.364 33.362-56.42 62.06-11.543 46.729-20.919 93.993-28.23 141.568-2.799 7.048-3.431 14.946-3.078 22.512l-.278 1.863c-1.664 11.181-3.215 22.401-6.21 33.32-.448 1.866.594 4.468 2.728 4.805 26.646 4.59 53.767 2.326 80.751 3.287l5.624.211c27.894 1.026 57.807 1.712 82.655 1.712 21.834-3.468 43.619.197 65.482.348 10.533-.413 20.816-2.919 31.156-4.747 21.43-3.788 43.148-5.736 64.916-5.517.952.009 1.138-1.059.624-1.592 8.585-4.194 2.781-28.454 2.894-37.203l-.45-4.505c-4.885-48.579-10.71-98.279-30.535-143.298l-.594-1.28c-7.142-15.327-14.952-29.624-26.063-42.418l-.679-1.017c-2.081-3.11-4.524-6.683-6.714-9.646-11.552-15.604-26.286-23.306-43.683-29.41-3.782-1.328-9.968-.249-13.721-1.771-3.935-1.596-7.33-5.874-11.094-8.033v16.103L388 480.495l-30.882-47.365-3.142-19.398a11.084 11.084 0 01-2.211-.385z" fill="#8FA7DF"/><path fill-rule="evenodd" clip-rule="evenodd" d="M285.756 553.912c.575 2.797 1.383 5.594 2.456 8.244 1.034 2.557 2.592 4.848 3.664 7.375.144.34.38.597.664.793l-.089.688-.081.688c-.535 4.638-1.137 9.263-1.658 13.9l-.254 2.32c-1.024 9.683-2.643 19.32-3.9 28.977-1.23 9.456-2.483 18.913-3.822 28.356-1.383 9.736-2.792 19.459-4.437 29.155a847.784 847.784 0 01-2.174 12.276l-.583 3.129c-6.003 1.444-7.644 9.814-1.531 12.904 2.774 1.396 6.339 1.06 8.625-1.134 2.376-2.288 2.475-6.412 3.026-9.51l.532-2.879c3.975-21.647 7.425-43.542 9.038-65.495.414-5.668.763-11.341.99-17.019.216-5.34.113-10.68.195-16.02l.028-1.457c.126-5.695.022-11.381-.127-17.076a81.497 81.497 0 00-.083-2.086c.201-.235.345-.515.406-.785l.079-.358c.196-.921-.027-1.999-.734-2.658-.305-3.879-.706-7.754-.815-11.63-.009-.318-.467-.309-.494 0-.257 3.299-.771 6.607-1.286 9.911-3.312-2.662-5.759-7.053-7.204-10.727-.104-.266-.493-.17-.431.118zm78.349-154.23c-.549 2.514-1.637 4.771-3.093 6.869-.694 1.004-1.483 1.938-2.43 2.719-.812.668-1.737 1.104-2.601 1.685-1.256-.197-2.569.279-3.451 1.204l.14-1.353c.044-.436-.681-.523-.764-.101-3.818 19.255-7.298 38.522-10.311 57.916l-1.322 8.564-1.242 8.04c-2.064 13.398-4.06 26.79-5.563 40.286-2.002 18.011-3.686 36.068-4.916 54.152-1.235 18.211-1.995 36.435-2.536 54.68-.135 4.601-.279 9.195-.418 13.795l-.932-5.499c-.93-5.5-1.842-11.005-2.624-16.53-2.805-19.773-5.048-39.686-6.143-59.629-1.004-18.25-.668-36.862 3.974-54.641a109.371 109.371 0 014.328-13.166c1.676-4.172 3.962-8.038 5.764-12.148 2.094-4.783 2.723-9.296 1.645-14.445-.943-4.486-2.596-8.706-2.893-13.323-.554-8.571 2.234-16.872 6.173-24.372a132.91 132.91 0 013.278-5.861c3.459-5.844 7.359-11.474 11.408-16.871.218-.288-.244-.607-.48-.371-3.69 3.649-7.726 7.236-11.047 11.22a124.427 124.427 0 00-4.681 5.944c-16.37 2.736-30.436 12.933-40.051 26.401-10.912 15.282-16.431 33.677-20.515 51.79-4.542 20.132-8.373 40.446-12.452 60.676-4.223 20.935-8.424 41.869-12.674 62.797-2.112 10.39-4.224 20.781-6.33 31.176a820.602 820.602 0 01-3.364 15.758c-.603 2.688-1.249 5.373-1.807 8.07-.628 3.041-.043 4.986 2.016 7.221.759.83 1.959.816 2.901.376l.295-.139.285-.138c1.166-.573 2.08-1.166 2.806-2.443.798-1.399.925-2.953 1.199-4.511.507-2.868 1.008-5.735 1.514-8.606a702.371 702.371 0 012.416-12.856l4.198-21.394c1.12-5.703 2.241-11.407 3.369-17.108 4.027-20.389 8.059-40.773 12.089-61.157 3.871-19.572 7.296-39.279 11.702-58.738l.25-1.096.255-1.095c3.94-16.776 9.445-33.003 19.434-47.217 7.687-10.932 18.363-20.694 30.937-25.634a79.37 79.37 0 00-2.548 3.902c-5.096 8.326-8.817 18.21-7.945 28.125.428 4.844 2.269 9.605 2.095 14.489-.162 4.337-2.845 8.147-4.7 11.921-4.209 8.554-7.255 17.644-9.219 26.969-3.939 18.726-3.926 37.993-2.569 57.002 1.475 20.663 4.275 41.322 7.465 61.784 1.636 10.494 3.813 20.903 5.48 31.381.824 5.166 1.946 10.321 2.927 15.462l.468 2.455c.262 1.364.534 2.722.848 4.066l.194.805v.144c.008.991.279 1.811.715 2.466.598 1.915 1.34 3.784 2.325 5.577.507.916 1.24 1.43 2.038 1.619.803 1.838 2.623 3.251 4.795 3.242l28.573-.109c16.597-.065 33.193-.174 49.789-.267 4.188-.021 8.373-.099 12.556-.209 3.923-.109 7.684-.58 11.562-1.068 4.381-.55 6.754-3.654 6.099-8.03-.143-.965-.3-1.924-.449-2.885.873.289 1.911.153 2.614-.532l.659-.645c.913-.903 1.728-1.79 2.308-2.995.597-1.239 1.082-2.548 1.61-3.814a408.634 408.634 0 003.325-8.2c2.159-5.489 4.319-11.001 6.325-16.548a425.359 425.359 0 0010.55-33.41c5.453-20.117 9.398-40.623 11.885-61.312l.595-4.931.172-1.457c.944-8.019 1.737-16.162 1.362-24.165-.232-5.009-1.008-10.058-2.88-14.737-1.727-4.315-4.393-8.007-6.928-11.865l-.289-.445-.292-.456c-2.217-3.504-3.981-7.167-4.069-11.422-.091-4.318 1.168-8.52 2.574-12.563l.351-.997.235-.661c2.991-8.354 6.396-16.591 5.273-25.683-1.658-13.388-9.773-24.18-19.983-32.502 9.08 1.797 18.067 5.35 25.999 9.853 9.367 5.324 17.801 12.35 25.074 20.279 13.743 14.985 23.555 32.965 31.588 51.53 8.407 19.428 14.641 39.785 19.34 60.41 4.725 20.741 7.888 41.814 10.048 62.971 1.077 10.529 1.924 21.085 2.626 31.646.358 5.412.628 10.832 1.047 16.234.42 5.398.608 10.879 1.925 16.134.615 2.448 4.764 2.697 5.209 0 .986-6.023.71-12.252.435-18.351l-.025-.554a754.816 754.816 0 00-1.042-18.214c-.855-12.407-1.998-24.797-3.491-37.146-5.231-43.352-14.877-86.476-33.8-126.048-8.909-18.638-20.344-36.748-36.251-50.207-7.574-6.401-16.112-11.512-25.313-15.212-8.23-3.312-16.589-4.879-25.332-4.875-4.385-3.36-9.093-6.288-13.795-8.788-.283-.153-.58.214-.345.449.122.117.24.239.362.354-.532.034-1.082.283-1.574.803-1.729 1.811-3.186 4.075-4.49 6.427-1.985 2.479-3.879 5.041-5.86 7.493a534.19 534.19 0 01-9.703 11.638c-5.518 6.454-11.216 12.786-17.158 18.863l-.991 1.011c-3.081 3.12-6.2 6.855-9.843 9.325l-.194.129c-1.538 1.002-2.627 1.185-3.938-.311-1.192-1.362-2.183-2.942-3.203-4.443l-.236-.344a258.363 258.363 0 01-14.397-23.478 242.915 242.915 0 01-5.681-11.17l-.536-1.133c-.977-2.076-2.037-4.115-2.844-6.253-.188-.501-.371-1.003-.55-1.501 2.748-1.802 4.877-5.703 5.649-8.758.803-3.173.397-6.429-1.033-9.331-.27-.545-1.178-.41-1.309.17zM499.7 528.605c.38 12.062.611 24.137 1.178 36.191l.196 4.114c-.885.987-1.405 2.126-.99 3.688.162.599.637 1.139 1.23 1.341l.186 3.825c.842 17.214 1.828 34.391 3.632 51.561 2.256 21.488 4.865 42.94 7.469 64.39.371 3.037 2.483 5.445 5.768 5.001 3.324-.45 4.672-3.344 4.236-6.359-1.715-11.83-3.363-23.67-4.808-35.54l-1.644-13.522c-2.063-16.905-4.174-33.807-6.606-50.658a3456.66 3456.66 0 00-3.132-21.121l.37-.48c1.515-1.968 3.081-3.893 4.63-5.829 2.974-3.737 5.911-7.441 8.638-11.352.135-.196-.14-.484-.336-.336-3.821 2.824-7.439 5.843-11.078 8.912l-3.184 2.696c-1.833-12.162-3.648-24.328-5.266-36.522-.04-.304-.498-.327-.489 0zm-54.977-115.434c2.299 2.169 4.65 4.291 6.968 6.446l.849.794.845.796c4.071 3.863 7.973 7.883 11.224 12.502 5.969 8.479 9.525 18.816 7.042 29.167-2.06 8.575-6.785 16.348-8.054 25.137-.637 4.402-.328 8.828 1.331 12.987 1.693 4.242 4.397 7.876 6.828 11.704 5.279 8.317 5.999 17.447 5.475 27.083-.55 10.062-1.706 20.13-3.133 30.102a424.668 424.668 0 01-13.005 59.781c-2.885 9.806-6.291 19.402-9.681 29.037-1.689 4.797-3.657 9.479-5.686 14.139a439.639 439.639 0 01-3.277 7.326c.411-3.438.411-6.968.612-10.385.288-4.897.654-9.783.99-14.676.684-9.928 1.295-19.864 1.841-29.801 1.933-35.435 3.355-70.901 3.25-106.392-.052-17.748-.414-35.496-1.177-53.227-.358-8.349-1.052-16.691-1.678-25.03l-.134-1.785c-.553-7.485-1.216-14.986-2.355-22.405.337-.761.63-1.531.847-2.321l.078-.297-.057.008a2.53 2.53 0 00.057-.69zm-19.886-30.494c-.049-.205-.34-.188-.393 0-1.296 4.364-.837 9.163.279 13.554.602 2.378 1.457 4.687 2.491 6.913l.362.779c.886 1.894 1.884 3.847 3.608 5.029.72.492 2.008.523 2.728 0l.366-.279c.061-.047.121-.096.179-.145.672-.563 1.003-1.807.694-2.627-.799-2.116-2.61-3.67-3.862-5.555a36.378 36.378 0 01-2.905-5.281c-1.758-3.975-2.548-8.194-3.547-12.388z" fill="#000"/><path fill-rule="evenodd" clip-rule="evenodd" d="M394.322 224.494c-24.722 0-50.291 19.207-59.352 31.463-10.478 14.172-18.744 82.204-14.866 105.288 3.877 23.085 23.138 48.246 56.573 48.246 33.436 0 53.784-4.128 54.601-10.124.543-3.997 7.895-17.121 22.052-39.371 14.481-4.082 21.75-10.999 21.807-20.751.056-9.751-3.824-16.401-11.64-19.949 2.787-38.484.671-62.735-6.347-72.754-10.529-15.029-38.108-22.048-62.828-22.048z" fill="#FFDBB4"/><path fill-rule="evenodd" clip-rule="evenodd" d="M410.99 187.22c-3.325-3.922-9.189-.215-9.057 4.071-1.327.36-2.893 1.602-3.497 3.222-1.307-.085-2.624.176-3.81.856l-.25-.309c-4.112-5.032-9.554-9.35-15.169-5.645-1.528 1.009-2.213 2.676-1.876 4.482l.027.128-.125-.558c-.126-.53.063.531.133.755l.009.026c.148.377.296.568.431.853-5.749-4.094-14.503-1.697-9.89 6.227l-1.876-.733c-6.489-2.514-14.559-5.213-20.475-.693-2.645 2.55.291 5.95 2.985 6.774l-.463-.078c-5.171-.88-15.958-3.055-17.499 3.692-.554 2.427 1.062 4.201 3.101 5.178-4.315-.016-8.57.697-12.304 2.808-3.552 2.53-.681 6.716 3.033 6.534-1.152 1.427-1.534 3.842-.422 5.384-2.111.556-4.058 1.27-5.853 2.383l-.493.064c-3.588.449-7.681.716-9.654 4.247-2.905 7.663 7.438 7.358 11.878 4.667a4.514 4.514 0 00-.569 1.398l-1.438.405c-5.428 1.513-11.57 3.184-15.064 7.763-1.602 2.634.627 7.112 3.976 6.312-9.075 4.332-5.597 15.743 3.278 9.807.415.385.92.671 1.449.797l-1.873 1.018c-4.756 2.61-10.477 6.183-9.483 12.109.944 3.136 5.284 2.563 7.49 1.363-3.854 3.322-7.491 6.919-10.795 10.808l-.914 1.09c-2.569 3.087-7.039 8.769-2.197 11.738 5.969 3.045 8.944-5.947 12.416-9.156-2.776 6.546 6.248 11.112 9.398 4.518a5.131 5.131 0 001.583.032c-2.716 2.885-10.061 22.628-.925 18.299 1.455-1.543 2.732-3.23 3.906-5a503.114 503.114 0 00-3.234 34.05l-.246 4.122c-.253 4.277-.444 8.571.036 12.833.553 4.962 1.976 9.618 4.131 14.113 1.986 4.146 4.546 7.986 7.476 11.517 1.567 1.889 3.23 3.727 5.276 5.109 1.629 1.1 3.532 1.825 5.364 2.523 2.982 2.984 6.809 5.241 10.549 7.043 6.164 2.964 12.848 4.6 19.609 5.42a71.304 71.304 0 0020.754-.558c6.553-1.135 13.575-4.037 17.611-9.566.348-.476-.3-.925-.726-.729-11.712 5.433-24.873 6.851-37.639 5.137-5.955-.799-11.816-2.448-17.253-5.01-4.589-2.16-8.46-5.302-12.578-8.147-.801-1.07-1.611-2.122-2.534-3.099l-1.441-1.514c-1.077-1.138-2.134-2.291-3.095-3.535-2.97-3.836-5.43-8.187-7.054-12.764-3.159-8.911-2.305-18.584-1.746-27.87l.048-.819a408.885 408.885 0 012.808-29.692c.54-4.104 1.14-8.202 1.797-12.29 1.054-1.718 2.179-3.38 3.438-4.937-1.025 3.991 2.524 9.541 6.876 6.907 4.982-4.27 4.742-11.162 8.918-16.39 4.329-6.703 34.199-19.739 43.079-21.569-1.43 2.086-4.044 3.539-4.653 6.001-10.922 9.673 6.881 14.822 12.44 1.037-.123 4.589-.587 9.139-1.605 13.618-1.484 4.114-2.648 16.034 4.791 12.437 3.56 1.031 6.275-2.009 6.722-5.439 2.571 7.75.14 20.134 4.855 25.846 1.447 1.502 3.682.502 4.434-1.214 4.362-1.145 3.989-6.242 4.519-9.89 3.978 14.541 8.957 24.635 9.642 39.803-3.078 4.393 3.674 7.623 6.572 4.103 4.067-5.889.317-13.941-.641-20.389 1.144-.059 2.277-.568 3.222-1.68.515 2.023.219 4.688.046 6.884 2.579 10.106 12.384 3.633 11.977-4.566a74.28 74.28 0 01.948 7.003c-1.893 2.184-3.297 4.798-4.127 7.572-.597 2.005 1.436 3.207 2.987 2.916.826 2.824 4.407 4.861 6.763 2.162 2.328-2.36 2.732-5.77 2.917-9.165.325-.346.522-.798.49-1.346a3.098 3.098 0 00-.356-1.318c.04-.694.089-1.375.164-2.033 1.803 5.618.63 11.506.473 17.261-3.184 1.796-6.817 2.564-10.466 3.322l-.53.11c-1.127.236-1.485 1.92-.635 2.627-2.26 2.217-4.21 4.862-6.113 7.301-2.526 3.237-4.943 6.601-7.292 9.972l-1.381 1.981c-4.029 5.753-9.6 13.546-7.105 20.632.34.973 1.759 1.323 2.312.301 1.816-3.36 2.83-7.061 4.554-10.46 1.693-3.334 3.801-6.424 5.89-9.513l1.206-1.79c2.008-2.991 3.996-6.013 5.839-9.093l1.283-2.134c1.206-2.013 2.4-4.094 3.289-6.258 3.164.765 6.477.216 9.512-1.107l.039.211.076.381c.434 1.829 2.952 3.079 4.56 1.882 3.849-2.909 5.416-7.238 5.826-11.868a26.028 26.028 0 001.969-4.118c.253 2.851 1.351 5.615 4.732 5.53 5.868-.483 6.445-6.038 4.858-11.563 6.947 2.127 7.761-7.721 5.569-12.911.813-.243 1.568-.729 1.999-1.384l.36.633c1.335 2.317 2.849 4.566 4.958 5.769 2.947 1.68 7.232-.401 7.036-4.101-.631-6.028-5.903-10.621-9.113-15.452a5.44 5.44 0 001.748-.048c6.416 3.587 9.477-4.856 7.217-9.748-1.655-4.394-4.652-8.173-7.864-11.505l.942.564c1.699 1.004 3.593 1.972 5.461 1.578 12.222 8.05 16.233-5.488 2.519-9.719l.005-.063c1.376-1.331 1.973-3.437.903-5.54 5.031 1.771 12.212-2.236 7.779-7.713-2.893-2.729-6.305-5.078-10.088-6.306a11.67 11.67 0 00.171-3.057l.227.031c2.388.344 5.332 1.322 6.804-1.256.748-1.298.659-3.436-.564-4.446-4.216-3.474-9.027-6.364-14.251-7.536a63.587 63.587 0 00-.604-1.902c4.458-.083 9.462-6.017 4.342-9.379-4.501-2.299-9.138-3.777-14.22-3.64 2.979-2.945 1.22-8.283-2.742-9.104 2.595-5.538-3.815-8.395-8.597-7.522.176-2.46-1.138-5.202-3.667-5.82 1.327-7.786-6.899-7.049-12.052-5.204 1.725-3.001-.048-6.533-3.092-7.585-4.985-1.131-9.756 3.629-13.552 6.548 1.294-3.046.203-5.853-2.88-7.067-3.176-1.245-6.598 1.162-9.248 2.798-1.441-1.814-3.901-2.405-6.108-2.293-.235-.681-.582-1.25-1.026-1.699.013-4.197-7.116-6.504-9.604-2.594-.423-2.719-1.539-5.335-3.117-7.197zm-89.189 76.122l-.082.452c-.106.093-.205.192-.306.287a23.73 23.73 0 00-.916.237c.424-.344.86-.663 1.304-.976zm-5.503-11.014l.097.134c.016.022.033.044.051.065-.269.102-.537.206-.804.314l-.4.164-.141.062c.397-.25.796-.497 1.197-.739zm64.173-55.447l.24.06.216.052c.024.006.047.009.069.018l-.063-.014a7.6 7.6 0 00.388.271c-.122-.01-.244-.022-.366-.029-.16-.12-.322-.239-.484-.358z" fill="#000"/><path fill-rule="evenodd" clip-rule="evenodd" d="M357.491 369.417c-.668-1.165-2.209-2.243-3.619-2.077-6.318.74-6.306 8.401-3.867 12.873 2.162 3.966 6.638 6.293 11.118 5.953 4.706-.357 8.717-3.124 10.481-7.528 1.167-2.913 1.707-8.29-1.398-10.248-.058-.037-.152-.027-.198.025-1.489 1.732-1.548 4.333-2.851 6.261-1.212 1.794-3.095 3.275-5.3 3.503-1.648.171-3.315-.423-3.959-1.902-.349-.8-.309-1.235-.178-1.786l.119-.478c.412-1.677.598-2.952-.348-4.596zm-1.687-33.596c-3.295 2.003-8.315 6.673-4.772 11.64 4.172 4.378 10.179-.642 13.14-2.913 2.745-1.76 5.828 2.766 3.281 4.821-21.388 15.839-30.068-13.024-13.316-15.903 1.844-.318 2.53 1.735 1.667 2.355zm34.791-13.736c-2.023-3.034-6.639-2.587-7.752 1.014-.604 1.951.229 3.704.186 5.653-.036 1.645.072 3.479.576 5.072 1.15 3.635 4.418 6.201 8.284 6.095 3.854-.106 7.247-2.545 8.861-5.981 1.62-3.449 1.277-7.018.095-10.525-.057-.169-.278-.251-.412-.109-1.397 1.487-2.42 3.054-3.479 4.718l-1.084 1.705c-.829 1.284-2.034 2.923-3.582 2.821l-.233-.022c-.431-.038-.365.048-.696-.539-.153-.272-.126-.776-.2-1.096l-.026-.108.015-.059c.032-.155.065-.447.091-.954l.005-.113c.113-2.372.783-5.421-.649-7.572zm-51.261 2.021c.362-3.881-5.093-4.743-6.907-1.872-.946 1.498-1.221 3.38-1.43 5.162l-.098.846c-.215 1.831-.3 3.736.495 5.443 1.251 2.689 3.972 4.111 6.907 3.886 2.804-.215 5.361-1.841 6.709-4.31 1.203-2.201 2.397-6.501.937-8.797-.088-.14-.264-.157-.385-.05-1.379 1.225-1.604 3.459-2.424 5.056-.846 1.646-2.129 3.25-4.074 3.5-1.861.239-2.571-.777-2.097-2.551.613-2.291 2.136-3.849 2.367-6.313zm49.787-25.095l-.892-.342c-3.057-1.155-7.254-2.49-9.739-.004-1.533 1.533-1.825 3.791-.73 5.662 1.325 2.266 3.703 2.322 6 2.656a31.726 31.726 0 017.701 2.131c2.739 1.159 5.282 2.604 7.773 4.219 2.366 1.534 4.726 4.041 7.56 4.513.115.019.246-.03.277-.157.643-2.772-1.145-5.498-2.742-7.661-1.93-2.617-4.27-4.765-6.885-6.691-2.524-1.859-5.408-3.203-8.323-4.326zm-55.526 9.852l-.272-.048c-1.854-.309-3.534-.238-4.931 1.231-1.066 1.12-1.477 2.572-.968 4.053.468 1.366 1.517 2.755 3.04 3.041 5.139.968 10.831.807 15.996.075 2.363-.335 4.747-.745 7.048-1.392l1.059-.307c1.922-.549 4.122-1.123 5.518-2.536.502-.508.212-1.235-.388-1.47-2.435-.955-5.774-.447-8.371-.521-3.02-.087-6.046-.313-9.052-.625-2.939-.305-5.781-.97-8.679-1.501z" fill="#000"/><path fill-rule="evenodd" clip-rule="evenodd" d="M316.757 338.479c5.297 5.475 14.14 7.045 21.187 4.109 18.096-7.562 9.239-31.149-4.717-37.483-1.743-.435-4.072-1.466-6.195-1.7-.192-.094-.61.179-1.117-.08-15.388 1.719-18.893 25.612-9.158 35.154zm58.366 1.401c5.942 7.881 16.986 10.314 26.01 6.649 17.828-7.022 11.506-27.937-.692-36.137-25.766-9.685-36.407 14.956-25.318 29.488zm38.647-17.463c.017-.008.034-.013.05-.02l-.282-.125c.03.08.064.159.093.238.047-.031.088-.069.139-.093zm-109.278-8.52c1.455.003 3.556.242 4.76 1.251 2.969-10.016 13.93-19.287 23.462-12.527 7.506 2.414 13.077 7.77 16.242 14.889 5.708-3.396 14.684-1.946 19.633 2.545 3.242-10.713 11.22-14.465 20.716-15.02 10.364-1.697 20.695 8.371 23.918 16.448 2.681-.306 6.685-1.158 9.207.496 16.364-4.292 44.974-6.659 48.3-4.275 2.371.911 3.672 6.508.361 6.809-2.887-.409.337-4.1-2.573-4.503-15.498-.961-30.543 2.161-45.878 3.47-1.369 1.843-5.793 2.459-8.152 1.719 3.716 13.701-4.306 23.022-16.329 25.815-18.615 4.276-34.811-12.38-29.943-29.705-5.639-2.806-12.126-2.685-18.269-1.207 10.266 37.787-50.579 36.091-41.076-3.658-6.324 3.146-7.697-1.912-4.379-2.547z" fill="#000"/><path d="M237.539 535.957c-.169-2.651.329-5.544 1.993-7.419 1.655-1.887 4.478-2.757 7.395-3.113 2.917-.356 5.914-.17 7.701 1.383 1.775 1.56 2.324 4.515 2.963 7.28.627 2.775 1.352 5.371.751 7.739-.61 2.356-2.557 4.492-5.005 5.847-2.452 1.376-5.405 1.971-7.819 1.143-2.422-.838-4.304-3.097-5.647-5.433-1.352-2.349-2.163-4.776-2.332-7.427z" fill="#9093D1"/><path d="M121.269 573.503c-.336-5.302.659-11.088 3.986-14.838 3.312-3.774 8.956-5.513 14.79-6.225 5.834-.712 11.829-.341 15.402 2.764 3.55 3.121 4.648 9.031 5.925 14.563 1.255 5.547 2.705 10.74 1.503 15.476-1.219 4.713-5.113 8.984-10.01 11.696-4.903 2.75-10.81 3.939-15.637 2.286-4.844-1.676-8.61-6.194-11.296-10.868-2.702-4.697-4.326-9.551-4.663-14.854zm66.733 65.853c-.337-5.303.658-11.088 3.986-14.839 3.311-3.773 8.955-5.512 14.79-6.224 5.833-.712 11.829-.341 15.401 2.763 3.55 3.12 4.649 9.031 5.926 14.562 1.254 5.549 2.705 10.742 1.502 15.478-1.219 4.711-5.113 8.984-10.01 11.694-4.903 2.751-10.809 3.94-15.636 2.287-4.845-1.676-8.611-6.194-11.296-10.868-2.703-4.698-4.326-9.551-4.663-14.853z" fill="#F7859C"/><path d="M155.345 493.342c-.514-8.281 1.056-17.319 6.268-23.185 5.186-5.902 14.014-8.632 23.137-9.759 9.123-1.126 18.496-.561 24.073 4.278 5.542 4.866 7.245 14.094 9.227 22.73 1.947 8.662 4.202 16.768 2.31 24.167-1.917 7.363-8.015 14.046-15.678 18.291-7.672 4.308-16.909 6.181-24.452 3.611-7.569-2.606-13.445-9.653-17.632-16.946-4.214-7.33-6.74-14.906-7.253-23.187z" fill="#9FD8E5"/><path d="M185.141 573.504c-.337-5.302.658-11.088 3.986-14.839 3.311-3.773 8.956-5.512 14.79-6.224 5.833-.712 11.829-.341 15.401 2.763 3.55 3.122 4.649 9.032 5.926 14.564 1.254 5.547 2.705 10.74 1.503 15.476-1.22 4.712-5.114 8.984-10.011 11.695-4.903 2.75-10.809 3.939-15.636 2.286-4.845-1.676-8.611-6.194-11.296-10.868-2.703-4.696-4.326-9.55-4.663-14.853z" fill="#FFDBB4"/></svg>