<svg width="231" height="436" fill="none" xmlns="http://www.w3.org/2000/svg"><path d="M172.957 257.846c-.238-3.634.464-7.598 2.815-10.169 2.337-2.585 6.324-3.777 10.443-4.265 4.12-.488 8.353-.234 10.876 1.894 2.507 2.139 3.282 6.188 4.184 9.979.886 3.802 1.909 7.36 1.061 10.605-.862 3.229-3.611 6.157-7.068 8.014-3.463 1.886-7.634 2.701-11.042 1.567-3.421-1.149-6.079-4.245-7.976-7.447-1.909-3.218-3.055-6.545-3.293-10.178z" fill="#9093D1"/><path d="M8.756 309.303c-.476-7.267.93-15.196 5.63-20.336 4.675-5.172 12.646-7.555 20.885-8.531 8.24-.976 16.707-.467 21.752 3.788 5.014 4.277 6.564 12.377 8.368 19.958 1.771 7.604 3.82 14.72 2.122 21.211-1.722 6.458-7.221 12.313-14.137 16.029-6.924 3.77-15.265 5.399-22.083 3.134-6.84-2.298-12.159-8.49-15.952-14.895-3.817-6.438-6.109-13.091-6.585-20.358zm94.243 90.252c-.477-7.267.929-15.196 5.629-20.336 4.676-5.172 12.647-7.555 20.887-8.531 8.238-.976 16.706-.467 21.75 3.786 5.014 4.278 6.565 12.378 8.369 19.959 1.77 7.605 3.82 14.721 2.122 21.212-1.722 6.457-7.222 12.313-14.138 16.028-6.924 3.769-15.264 5.399-22.082 3.134-6.842-2.297-12.16-8.489-15.952-14.896-3.817-6.438-6.11-13.089-6.585-20.356z" fill="#F7859C"/><path d="M56.879 199.441c-.726-11.349 1.492-23.736 8.852-31.776 7.324-8.088 19.792-11.83 32.676-13.374 12.883-1.544 26.119-.77 33.997 5.863 7.826 6.668 10.23 19.316 13.031 31.151 2.749 11.872 5.933 22.982 3.262 33.122-2.708 10.091-11.32 19.25-22.142 25.069-10.835 5.904-23.879 8.47-34.532 4.948-10.69-3.571-18.988-13.229-24.901-23.225-5.951-10.046-9.518-20.429-10.243-31.778z" fill="#9FD8E5"/><path d="M98.959 309.304c-.477-7.267.929-15.196 5.629-20.336 4.675-5.172 12.647-7.555 20.886-8.531 8.238-.976 16.707-.467 21.751 3.786 5.014 4.279 6.565 12.379 8.369 19.96 1.77 7.604 3.819 14.72 2.122 21.211-1.722 6.457-7.222 12.313-14.138 16.028-6.924 3.769-15.264 5.399-22.082 3.134-6.842-2.297-12.16-8.489-15.952-14.896-3.817-6.436-6.11-13.089-6.585-20.356z" fill="#FFDBB4"/><path fill-rule="evenodd" clip-rule="evenodd" d="M2.924 186.964c1.237-.355 2.781-.447 4.134-.512 4.78-.281 9.654 2 14.342 3.028 2.051.508 4.224 1.106 6.42 1.551 1.949.265 3.964.464 5.99.59 1.638.049 3.543-.076 4.103 1.647 3.291.639 6.205.904 9.343.361-.294-1-.461-2.046-.157-3.124-.154-.256-.362-.601-.474-.834h.377c5.508-2.207 11.464-3.714 17-6 7.227-2.607 17.87-7.644 26.22-11.083-.567-3.103-.776-6.256-.536-9.32l-.336-.272c-.11-.602-.281-1.323-.592-1.869-.394-1.046-.403-2.474-.56-3.656-.326-2.312-.543-5.795.05-8.54.26-3.724 2.767-6.594 5.471-8.897 3.32-3.286 6.644-6.493 9.886-9.906 17.937-18.303 19.356-41.356 47.437-48.363l.013-.109c.222-.247.312-.443.564-.052.927-.356 2.083-.326 2.86-.927a11.113 11.113 0 002.996-4.436c.492-3.259.144-8.282 2.996-10.367 3.169-1.9 20.003-3.252 21.455.9.901.848 1.311 1.923 1.592 3.24.938 1.776 1.53 3.746 2.475 5.549 2.009 4.044 3.311 3.148 6.858 4.072.385-.859 1.553-.686 2.405-.561 10.314 1.45 22.889 5.41 27.305 15.113l-.376-.048c7.623 14.335 2.68 32.565 1.316 47.756-1.103 13.503.159 27.07 3.156 39.665 3.678 13.362 3.889 28.308-3.409 40.402-.742 1.385-1.645 3.341-3.244 2.473-.875.663-1.859 1.12-3.218 1.519-.375.272-.763.729-1.155.924-.018.027-.65-.338-.683-.348-1.193 1.705-66.711 7.401-73.51 8.285-5.99.723-13.905 2.569-18.787-1.756-4.034-1.153-8.255-4.157-11.479-7.139-1.956 28.398-3.038 86.555-4.784 86.96-.764.26-1.795.57-2.659.818-.006 2.04-.157 4.358.003 6.364.268 2.265.947 4.94 1.254 7.321 1.321-.088 1.709 1.238 1.863 2.138 1.14 7.44 1.106 13.438 1.024 21.615-13.404 7.903-29.114 12.249-44.197 17.357-1.445 1.086-4.575-.089-6.243-.383-5.792-1.141-12.372-4.517-10.91-10.707 1.07-4.66 5.564-7.342 9.347-10.084 4.139-3.001 8.502-6 12.308-9.574 3.053-2.879 5.334-5.113 7.88-8.362 1.13-1.511 2.334-3.994 3.854-5.107-1.605-1.906 1.638-.12 2.866-.01a94.422 94.422 0 012.69-9.935l-1.043.047c-3.423-3.2-5.342-18.56-5.58-23.117-1.716-29.706-1.675-63.944 5.207-88.962-5.228 3.223-10.96 5.914-16.16 9.101-3.279 1.923-6.605 4.592-10.28 5.524-.24.688-1.116.956-1.594.282-.658.081-1.505-.192-1.578-.492-.673-1.377-1.648-2.861-1.53-4.357l.903-2.096c-2.023.823-4.221 2.554-6.38 2.713-4.36 14.573-12.951 6.409-21.218.738a3290.582 3290.582 0 01-15.696-11.063c-4.455-3.547-13.152-6.913-8.888-13.938" fill="#FFDBB4"/><path d="M194.077 79.936c-.388.08-.641.49-.851.913l-.042.087-.089.186c-2.079 6.29-8.677 9.8-14.625 12.134l-.364.141-.368.142c-9.718 4.319-25.844 2.305-27.349-10.314-22.771 6.057-28.94 31.701-43.44 47.318-3.398 3.816-6.969 7.471-10.447 11.212-1.097 1.077-2.1 2.696-3.633 3.077-.92 1.445-1.579 3.081-1.692 4.79 4.924-2.203 10.482-1.156 15.694.512 1.521.487 17.161 8.225 26.27 6.386.465-.094-.414 18.343.495 18.591 7.881 2.15 31.935 4.29 36.756 3.014 16.449-4.354 41.421 55.887 50.598 45.02 2.311-2.737 8.253-13.69 8.168-25.674-.094-13.057-6.335-27.606-6.478-40.951-.217-20.139 2.526-32.087 2.643-33.673 1.998-14.756-.398-34.23-17.015-39.032-4.496-2.062-9.34-3.396-14.231-3.879zM91.991 152.553c-1.3.928-1.575 2.363-1.424 3.967.06.623.137 1.246.216 1.868 1.634-1.699 4.058-2.302 6.386-2.487-.09-.16-.189-.378-.183-.582a24.867 24.867 0 01-4.995-2.766z" fill="#E86BBB"/><path fill-rule="evenodd" clip-rule="evenodd" d="M79.72 324.819l-.219.309c-8.022 11.266-16.897 19.747-26.315 24.09l-.317.145-.03.017c-2.685 1.57-4.913 4.06-5.788 6.616-1.023 2.992-.157 5.813 2.749 7.876l.089.062.014.01c3.658 2.393 7.975 3.881 12.216 4.178l.157.011.205.013.176-.109c1.125-.695 2.206-1.094 4.517-1.758l.974-.279.402-.117.2-.06a21.456 21.456 0 002.001-.686l.188-.078.63-.212a380.1 380.1 0 0033.476-13.158l.646-.291.991-.448.023-.391c.503-8.568.482-15.407-.234-21.85l-.024-.21-1.289.122c.188 2.512-2.323 4.638-4.695 3.836l-.072-.025-.033-.011-.099-.031c-.668-.215-1.224-.528-2.212-1.201l-.732-.502-.186-.125-.135-.089a10.425 10.425 0 00-.193-.124l-.09-.057c-4.062-2.545-8.434-4.26-12.873-4.989a20.84 20.84 0 00-1.158-.177l-.458-.054-.47-.049-1.46-.143-.571-.061zM4.75 186.648l-.29.312c-.963 1.031-1.692 2.041-2.154 3.083-.576 1.301-.698 2.588-.269 3.834l.035.096.008.018c.722 1.66 2.415 3.127 5.656 5.267l.493.322c.52.337 1.92 1.243 2.344 1.524l.187.124c.762.51 1.335.923 1.793 1.298l.076.062 1.083.754 2.23 1.554 1.654 1.154 1.138.795c4.35 3.04 8.548 5.991 12.65 8.891l.209.142.164.113.235.165.332.235 1.104.791.22.156.218.153.22.153.223.153.219.148c2.243 1.504 3.896 2.248 5.657 2.351 1.253.073 2.434-.236 3.533-.967l.078-.053.034-.023.119-.107.098-.09.097-.091.095-.091c.505-.487.963-1.016 1.684-1.908l.606-.756.242-.299.179-.218.128-.153c.394-.471.694-.798 1.032-1.128l.112-.108.765-.73-.997-.351c-4.023-1.416-7.312-5.918-8.663-11.071l-.048-.185-.01-.029c-.244-.688-.332-1.392-.356-2.543l-.012-.878-.006-.289-.005-.195-.006-.191c-.052-1.378-.203-2.162-.639-3.031l-.055-.108-.018-.035-.022-.032c-.028-.04-.03-.046-.02-.066l.23-.389-.272-.348a6.489 6.489 0 00-.407-.469l-.067-.07-.15-.156-.215-.034c-6.73-1.065-13.638-2.636-21.869-4.881l-.828-.227-.413-.111-.278-.074-.276-.073c-2.722-.708-4.385-.981-6.286-.957l-.162.003a7.387 7.387 0 00-.58.036l-.263.024-.121.01-.117.009c-.427.029-.655.013-.878-.062l-.027-.009-.4-.144z" fill="#fff"/><path fill-rule="evenodd" clip-rule="evenodd" d="M190.317 78.745c-4.211-1.025-4.93-11.13-7.473-9.691-1.47 1.28.934 3.693 1.36 5.138l.187.366c.862 1.683 1.838 3.36 3.538 4.33 1.093 1.15 4.359.02 3.879 1.854-1.677 5.529-10.578 9.357-15.825 11.078-8.154 3.067-21.345 2.03-23.26-8.249 4.472-.82 7.779-8.898 5.022-12.262-.094 3.267-.985 6.64-3.547 8.853l-.142.13c-.45.412-1.034.903-1.616.812-.568-.791-1.669-.341-1.993.494-25.466 4.406-31.139 31.902-47.176 48.086-3.203 3.376-6.552 6.608-9.858 9.882-3.376 2.682-5.765 6.42-5.931 10.81-.302 2.441-.153 4.884.17 7.33l.023.221c.15 1.515.238 3.143.959 4.488.124.456.074 1.032.468 1.354-.172 2.79-.009 5.63.463 8.411l-1.229.549c-13.52 6.028-27.196 11.71-41.294 16.229-1.204-.219-1.106 1.183-.523 1.821-.154.75-.17 1.529.01 2.271-2.581.371-5.203.062-7.752-.409-.806-1.777-2.947-1.682-4.604-1.732a80.87 80.87 0 01-6.153-.616c-5.033-1.125-9.975-2.606-14.959-3.907-3.335-.94-6.932-.895-10.278-.03a14.35 14.35 0 00-1.536 2.041c-3.059 4.748-.045 9.098 4.224 11.591a3832.4 3832.4 0 0020.581 14.53l.5.357c8.185 5.865 17.394 13.289 21.766-.986 1.47-.172 2.757-1.16 4.126-1.742-.368 1.713.731 3.443 1.49 4.912.326.836 1.218 1.112 2.042 1.104.706.693 2.03.42 2.491-.401 3.742-1.073 6.834-3.576 10.146-5.521 4.71-2.864 9.65-5.305 14.427-8.047-7.936 32.893-5.995 67.155-3.883 100.637l.015.302c.261 4.888 1.381 7.201 5.431 10.197-.705 2.155-1.336 4.318-1.818 6.534-.17.514-.952.03-.958.736-1.439-.337-4.363.024-3.343 2.016-2.89 2.427-4.845 5.715-7.377 8.482-4.46 5.351-10.29 9.334-16.007 13.259-13.14 6.703-13.894 18.318 1.481 22.286l.154.037c2.117.51 4.667 1.676 6.72.694 3.07-.592 6.117-1.79 9.121-2.702 12.096-4.007 23.926-8.699 35.389-14.09.415-.196.65-.644.661-1.092-.128-3.699.876-23.972-2.956-24.409-.856-4.142-.99-8.417-.835-12.644 1.243-.392 2.5-.769 3.788-1.014 1.25-.394 3.205-.483 4.042-1.496.301-.109.521-.379.476-.804a402.711 402.711 0 01-1.564-19.1c-1.283-21.389-.847-42.846.613-64.212 3.01 2.606 6.44 4.887 10.258 6.101 2.107 2.113 5.487 2.567 8.364 2.823 3.699.229 7.334-.511 10.985-.971 6.199-.781 12.356-.089 18.511.677l2.103.262c15.068 1.655 31.352 1.997 45.396-4.45 2.644.235 5.927-2.625 7.576-4.537.729.45 1.444-.429 2.025-.892.958-.291 2.044-.71 2.913-1.32 2.206.722 3.395-2.144 4.233-3.702 13.296-22.792-1.511-45.479-.397-69.647-.675-18.949 7.959-38.689-.385-56.862-1.689-7.69-11.562-13.006-18.993-14.96-2.395-.396-11.461-3.677-12.459-.918-.473-.621-1.279-.668-2.003-.67zM80.028 325.503c1.246.134 2.462.211 3.693.437 4.495.738 8.783 2.48 12.646 4.901 1.251.781 2.368 1.765 3.803 2.2 2.95 1.072 5.85-1.59 5.634-4.469.822 7.234.681 14.677.254 21.948a379.338 379.338 0 01-35.35 13.932c-2.704 1.135-5.907 1.498-8.392 3.033-4.236-.268-8.5-1.757-12.058-4.085-5.902-4.099-1.984-10.601 2.909-13.461 10.77-4.866 19.938-14.711 26.861-24.436zm23.598-10.698c.225 2.145-1.403 5.485-1.173 9.759.177 1.334.592 2.733.448 4.072-.663 4.97-6.039-1.346-8.26-2.038-3.154-1.736-6.581-2.918-10.104-3.565.022-1.146.78-1.603.88-2.736.142-1.668.135-3.271.21-4.956 4.582 2.085 13.14.611 17.999-.536zM78.942 325.18c.08.053.164.099.251.139-.637.772-1.188 1.628-1.943 2.292l.321-.499c.43-.667.87-1.331 1.371-1.932zm142.284-177.814a6.327 6.327 0 001.281 2.573c-3.252 26.395 13.48 48.399-1.904 72.941a2.504 2.504 0 00-.542.344 8.123 8.123 0 01-.27-.187c-7.211-12.772-17.475-23.789-25.653-36.011-1.57-3.068-4.154-6.156-5.144-9.701 16.436-6.496 23.001-15.974 32.232-29.959zM4.933 187.402c.697.25 1.472.044 2.216.03 2.64-.056 5.22.634 7.746 1.331 7.345 2.01 14.728 3.791 22.253 4.981.152.158.297.319.43.488a.686.686 0 00.038.772c1.136 2.171.218 4.828 1.042 7.152 1.195 4.704 4.374 10.009 9.117 11.679-1.582 1.508-2.716 3.45-4.345 4.907-4.005 2.747-8.415-1.348-11.685-3.544a2936.572 2936.572 0 00-18.724-13.126c-2.804-2.326-9.006-5.258-10.347-8.339-.86-2.363.704-4.665 2.259-6.331zm42.899 5.998c2.679 5.47 4.226 11.285 5.773 17.158-1.61.443-3.092 1.137-4.674 1.604-2.228.502-5.373-3.808-6.49-5.519a17.881 17.881 0 01-2.333-6.219c-.315-2.157.021-4.397-.916-6.395 2.902.296 5.847.359 8.64-.629zm159.29-11.286c-2.516-.706 3.208 4.992 3.537 5.6 3.722 4.399 7.132 9.044 10.516 13.704l1.026 1.415c.098.143.777 1.148.286 1.02-.045-.011-.066.048-.03.072 3.129.554-13.826-21.424-15.335-21.811zm-61.34-2.69c-.204-.614.762-.876.966-.266l.641 1.934c2.421 7.305 4.826 14.621 7.719 21.756.242.598-.725.859-.966.267-3.146-7.764-5.717-15.743-8.36-23.691zm-28.136-2.558c.882 4.192 3.112 7.97 4.463 11.977-2.538-.56-4.493-2.928-5.973-4.965l-.044-.067c-.698-1.076-1.51-2.756-3.095-1.997-2.406 1.399-.682 6.362-.637 8.714.305 3.224 1.352 6.24 2.066 9.372-1.835-1.255-2.362-3.729-3.256-5.657l-3.441-8.263c-2.529-3.47-1.355 6.92-1.224 7.9.206 2.154 1.112 4.321.756 6.49-1.426-1.537-2.325-3.468-3.08-5.427-1.047-2.725-2.003-5.485-3-8.228-.344-.879-1.65-.571-1.461.397.064 3.113.115 6.226.165 9.339l.037 2.335c.007.443.225 1.736-.538 1.378-4.012-4.214-5.04-12.641-4.518-18.303 7.885.19 15.93-.834 22.78-4.995zm-70.168 15.723c.033.103.07.206.107.309a.865.865 0 00-.07.015 7.619 7.619 0 01-.037-.324zm175.002 0c.875-.647-13.826-19.541-12.874-14.087 4.102 4.858 8.884 9.115 12.874 14.087zM92.65 150.836c13.748-3.233 25.855 8.845 39.662 7.02-.16 4.326-.382 8.681-.294 13.009-18.336 1.514-16.249 9.326-37.356 8.539-2.728-1.828-3.848-13.036-3.617-16.42-.177-4 3.262-5.796 6.688-6.497 1.237.748 3.458-1.484 1.62-2.27a21.616 21.616 0 01-6.703-3.381zm101.426-70.9c4.892.482 9.736 1.817 14.231 3.88 16.618 4.802 19.014 24.274 17.016 39.031-.828 11.222-4.025 22.197-10.746 31.322-17.894 27.318-47.531 22.992-75.603 19.379-1.012-.705-2.727-.204-3.702-1.135a.979.979 0 00.272-.144c-.468-.366-.831-1.008-.939-1.691l-.202.02c-.198-4.236-.04-8.39-.104-12.593 9.224-2.533 19.117-3.827 28.465-6.349 1.063.742 2.288-.112 3.326-.515a217.235 217.235 0 018.14-3.271l.685-.258a223.914 223.914 0 005.33-2.07l.661-.269c1.012-.414 3.566-1.947 4.67-.99l-.089.192c-.655 1.429-2.909 6.718-.138 5.672 2.251-1.582 3.417-12.613 5.646-12.71.767 2.054 1.316 4.185 1.441 6.38.045.494.694.911 1.084.449 2.643-3.485-1.35-7.281-1.456-10.959-.252-4.278 1.638-8.28 2.58-12.374l.058-.282c.552-2.656 1.411-5.876 1.183-8.258l-.548 2.067c-.55 2.069-1.114 4.139-1.761 6.179-1.604 5.095-4.502 10.344-2.892 15.796-3.23.108-3.776 5.212-4.989 7.543-1.963-2.55-15.777 3.565-18.93 4.546l-.608-.691c-9.872-11.207-16.999-18.791-32.3-9.926 2.643-8.537 2.898-17.604 3.349-26.469-.154-1.686.819-6.135-.554-7.055-.238.034-.47.106-.688.202v.874c-.007 1.693-.086 4.5-.795 5.137l-.325 3.352c-.852 8.715-1.818 17.423-4.418 25.821-6.24 3.493-11.934 7.866-17.29 12.584l-.61-.223c-6.619-2.426-14.582-5.535-21.349-2.508.113-1.709.772-3.345 1.691-4.791 1.534-.38 2.537-1.999 3.634-3.076 3.478-3.741 7.049-7.396 10.447-11.212 14.5-15.617 20.669-41.261 43.44-47.319 1.505 12.62 17.631 14.633 27.348 10.315l.369-.142c6.041-2.334 12.868-5.857 14.989-12.275l.088-.186c.219-.453.479-.914.893-1zm-3.584 71.813c-.017-.019-.052.007-.036.028 2.831 3.557 5.135 8.409 2.321 12.658-.52.956.695 1.875 1.473 1.146 3.906-4.44-.427-10.458-3.758-13.832zm-98.5.804a24.917 24.917 0 004.994 2.766c-.006.204.093.422.183.582-2.328.185-4.752.787-6.386 2.487a59.305 59.305 0 01-.216-1.869c-.15-1.603.124-3.039 1.424-3.966zm107.055-15.724l-.018-.086c-.013-.097-.16-.104-.156 0 .054 1.272.978 2.176 1.761 3.082l3.485 4.028c1.943 2.34 4.805 4.693 4.161 8.083-.012 1.204 1.495 1.462 2.107.577 2.432-4.644-5.224-8.595-7.804-11.59-1.212-1.297-3.122-2.251-3.536-4.094zm-36.45 13.941a.536.536 0 00-.076.184c-.408.044-.814.09-1.22.14l1.296-.324zm60.892-10.86c-.072.485-.14.971-.205 1.458l-.065.487-.01-.043a.764.764 0 00-.177-.324l-.028-.028c.168-.514.33-1.031.485-1.55zm-111.766-5.023c-.975-.104 3.445 3.078 3.689 3.472.356.31.773-.241.393-.51-1.374-.97-2.727-1.966-4.082-2.962zm8.6-9.36c-.679-.278-1.14.853-.496 1.169 2.345 1.148 4.824 1.961 6.985 3.472.095.066.214-.088.124-.159l-.26-.206c-1.99-1.582-3.978-3.302-6.353-4.276zm102.357-14.308c-.656 3.09-4.202 4.105-6.954 4.928l-.86.328c-2.43.932-4.948 1.979-6.696 3.947-.685 2.219 4.204-1.647 4.887-1.843 3.339-2.073 9.373-2.425 9.623-7.36zm-72.391-28.852a5.396 5.396 0 00-.033.478c-.205 0-.41.002-.615.008.239-.14.459-.3.648-.486z" fill="#000"/><path fill-rule="evenodd" clip-rule="evenodd" d="M135.877 38.612c.612-10.083 3.874-21.513 13.474-26.464C170.515 3.63 198.341 25.083 199.815 47c.513 7.502-3.64 15.7-11.229 17.785-1.687 2.243-4.239 3.612-6.758 4.8-29.998 15.611-49.376 2.921-45.951-30.973z" fill="#FFDBB4"/><path fill-rule="evenodd" clip-rule="evenodd" d="M129.043 32.34a233.61 233.61 0 013.358-8.792c1.147-2.83 2.184-5.721 3.609-8.417C144.52-.971 159.995-.971 167.995 1.133c4.148-1.793 11.919-1.288 16.238.33 6.993 2.62 15.518 12.921 18.432 17.55 6.435 10.22 10.451 23.822 6.177 35.631-.559 1.544-1.271 2.973-2.074 4.35a16.955 16.955 0 001.732 1.978c1.914 1.9 3.829 3.737 5.483 5.88 1.644 2.13 3.007 4.395 4.021 6.892 1.913 4.709 2.005 10.04-.524 14.534-2.2 3.91-6.097 6.821-10.489 7.099-.225.031-.451.06-.677.083a12.756 12.756 0 01-2.101 2.618c-2.481 2.366-8.394 3.58-11.767 3.658-.173.139-.347.279-.522.417-2.064 1.629-4.229 3.272-6.598 4.431-1.605.786-3.709 1.443-5.384.876-.759.508-2.005.401-2.758-.015-1.238-.684-2.245-1.916-2.857-3.177-1.486-3.062-1.128-6.412-.747-9.683.42-3.613.824-7.228 1.235-10.841.321-2.825.657-5.698 1.514-8.42a19.379 19.379 0 011.773-4.038.666.666 0 01.014-.315c.246-.8.753-1.22 1.355-1.765.077-.07.155-.141.231-.214.3-.344.622-.663.966-.934.133-.134.264-.27.394-.407 1.088-1.142 2.116-2.343 3.029-3.63.886-1.248 1.686-2.552 2.447-3.88.774-1.35 1.286-2.839 2.059-4.18a.211.211 0 01.328-.042c.239.248.392.524.363.814l.12.018c.045-.438.447-.794.994-.699.817.143 1.49.196 2.198-.076a170.94 170.94 0 01-.353-2.49c-.207-1.53-.399-3.065-.564-4.6a6.653 6.653 0 00-1.183.409 5.706 5.706 0 00-1.52.992c-.44.405-.744.951-1.28 1.233-.618.323-1.363-.21-1.182-.91.367-1.416 2.444-2.226 3.729-2.494a5.928 5.928 0 011.343-.121 104.91 104.91 0 01-.366-4.36 7.32 7.32 0 00-3.107-.252c-.343.274-.686.545-1.017.819a202.437 202.437 0 00-3.133 2.642l-.28.24c-.614.53-1.38.005-1.277-.746.844-6.15-2.912-11.041-7.309-14.831-4.868-4.197-13.717-4.685-19.506-11.954-2.666.544-8.619 2.16-11.075 6.086-3.439 5.502-2.99 10.43-3.252 16.671-.262 6.246-.927 12.76.487 18.918 1.304 5.678 4.835 10.53 10.313 12.76.136.055.274.108.411.16 2.833 1.072 5.924 1.375 8.905.81 3.298-.625 6.052-2.139 8.796-4.001.158-.106.389.111.27.27-3.617 4.808-10.721 6.414-16.357 5.145-.263-.06-.525-.125-.785-.196 1.261 3.636 1.007 7.626-.635 11.166-.988 2.13-2.494 3.973-4.328 5.427-2.022 1.602-4.53 2.895-5.933 5.143-1.284 2.06-.903 4.375 1.297 5.565.554.301.767 1.276.218 1.704-.21.162-.42.327-.635.489-1.232.932-4.614 2.683-5.162 2.747-4.864.579-8.135-3.003-10.231-7.229-2.462-4.96-1.822-11.004.89-15.728 2.175-3.79 6.459-7.524 4.756-12.32-.608-1.713-1.85-3.174-3.058-4.493-1.376-1.503-2.857-2.91-4.177-4.466-1.312-1.545-2.476-3.225-3.126-5.164-.948-2.833-.476-5.897.236-8.725 1.528-6.072 3.511-12.063 5.623-17.952z" fill="#000"/><path fill-rule="evenodd" clip-rule="evenodd" d="M152.889 60.867c-.249-.433-.821-.833-1.344-.772-2.345.275-2.341 3.12-1.435 4.782.802 1.473 2.464 2.337 4.127 2.211 1.747-.133 3.235-1.16 3.89-2.796.433-1.082.634-3.08-.519-3.807-.021-.013-.057-.01-.074.01-.552.643-.574 1.609-1.058 2.325-.449.666-1.148 1.217-1.967 1.301-.612.064-1.23-.157-1.47-.706-.129-.297-.114-.459-.066-.663l.045-.178c.153-.623.222-1.097-.129-1.707zm-.627-12.479c-1.223.744-3.086 2.479-1.771 4.323 1.549 1.627 3.778-.238 4.877-1.081 1.019-.654 2.164 1.027 1.218 1.79-7.939 5.883-11.161-4.837-4.943-5.907.685-.118.939.645.619.875zm12.914-5.102c-.75-1.127-2.464-.96-2.877.377-.224.724.085 1.376.069 2.099-.013.611.027 1.292.214 1.884.427 1.35 1.64 2.304 3.075 2.264 1.43-.04 2.69-.945 3.289-2.221.601-1.282.474-2.607.035-3.91-.021-.062-.103-.093-.153-.04-.518.552-.898 1.134-1.291 1.752l-.403.633c-.308.477-.755 1.087-1.329 1.048l-.087-.008c-.159-.014-.135.018-.258-.2-.057-.1-.047-.288-.074-.407l-.01-.04.005-.022a2.38 2.38 0 00.034-.355l.003-.041c.041-.882.29-2.014-.242-2.813zm-19.027.75c.134-1.441-1.891-1.761-2.564-.694-.351.556-.453 1.255-.531 1.917l-.036.314c-.08.68-.112 1.387.183 2.022.465.998 1.475 1.527 2.564 1.443a3.122 3.122 0 002.491-1.6c.446-.818.889-2.415.348-3.268a.092.092 0 00-.143-.019c-.513.455-.596 1.285-.9 1.878-.314.611-.791 1.207-1.513 1.3-.69.089-.954-.289-.778-.948.228-.85.793-1.429.879-2.344zm18.48-9.32l-.331-.127c-1.135-.43-2.692-.925-3.615-.002a1.71 1.71 0 00-.271 2.103c.492.842 1.375.863 2.227.987.97.14 1.956.409 2.859.791 1.017.43 1.96.967 2.885 1.567.879.57 1.754 1.501 2.806 1.677.043.007.092-.012.103-.059.239-1.03-.425-2.042-1.017-2.845-.717-.972-1.586-1.77-2.556-2.486-.937-.69-2.008-1.19-3.09-1.607zm-20.611 3.659l-.101-.018c-.688-.114-1.311-.088-1.83.457-.396.416-.548.956-.359 1.506.174.507.563 1.023 1.128 1.13 1.908.358 4.021.3 5.938.027.877-.124 1.762-.277 2.616-.517l.393-.114c.714-.204 1.53-.417 2.048-.942.186-.189.079-.459-.144-.546-.904-.354-2.143-.166-3.107-.194a45.059 45.059 0 01-3.36-.232c-1.091-.113-2.146-.36-3.222-.557z" fill="#000"/></svg>