<svg width="193" height="284" fill="none" xmlns="http://www.w3.org/2000/svg"><path d="M162.954 105.263c-.236-3.644.461-7.62 2.791-10.198 2.317-2.593 6.269-3.788 10.353-4.278 4.084-.489 8.28-.234 10.781 1.9 2.485 2.145 3.254 6.206 4.148 10.008.878 3.813 1.893 7.381 1.052 10.636-.854 3.239-3.58 6.174-7.007 8.037-3.433 1.892-7.567 2.709-10.947 1.572-3.391-1.152-6.026-4.257-7.906-7.468-1.893-3.229-3.028-6.565-3.265-10.209z" fill="#9093D1"/><path d="M.177 156.871c-.471-7.289.922-15.241 5.58-20.396 4.636-5.187 12.538-7.577 20.706-8.555 8.167-.979 16.561-.469 21.563 3.798 4.97 4.29 6.507 12.414 8.295 20.017 1.756 7.625 3.786 14.763 2.104 21.272-1.707 6.478-7.159 12.349-14.014 16.076-6.865 3.78-15.134 5.415-21.892 3.143-6.782-2.305-12.053-8.515-15.814-14.939C2.921 170.831.65 164.159.177 156.871zm93.426 90.514c-.472-7.288.921-15.24 5.58-20.395 4.635-5.187 12.538-7.577 20.706-8.556 8.166-.978 16.561-.468 21.562 3.798 4.97 4.289 6.508 12.413 8.296 20.016 1.755 7.627 3.786 14.765 2.103 21.274-1.707 6.476-7.159 12.349-14.015 16.074-6.864 3.781-15.132 5.415-21.89 3.143-6.783-2.303-12.055-8.513-15.814-14.938-3.784-6.457-6.057-13.127-6.528-20.416z" fill="#F7859C"/><path d="M47.883 46.69c-.72-11.383 1.478-23.806 8.775-31.869 7.26-8.112 19.62-11.865 32.393-13.413 12.771-1.549 25.893-.772 33.702 5.88 7.758 6.687 10.142 19.371 12.918 31.242 2.725 11.906 5.881 23.048 3.233 33.218-2.683 10.12-11.221 19.305-21.949 25.141-10.741 5.922-23.672 8.495-34.233 4.963-10.597-3.582-18.823-13.268-24.685-23.293-5.9-10.075-9.435-20.488-10.154-31.87z" fill="#9FD8E5"/><path d="M89.598 156.872c-.473-7.289.92-15.241 5.58-20.396 4.635-5.187 12.537-7.577 20.705-8.555 8.167-.979 16.562-.469 21.563 3.797 4.97 4.291 6.507 12.415 8.296 20.018 1.755 7.625 3.786 14.763 2.103 21.272-1.707 6.476-7.159 12.349-14.015 16.075-6.864 3.78-15.132 5.415-21.89 3.143-6.783-2.304-12.055-8.514-15.814-14.939-3.784-6.455-6.057-13.127-6.528-20.415z" fill="#FFDBB4"/></svg>