<svg width="202" height="150" fill="none" xmlns="http://www.w3.org/2000/svg"><path d="M61.154 95.344c2.636 3.792 4.495 8.54 3.697 12.823-.775 4.293-4.207 8.119-8.243 11.268-4.037 3.149-8.681 5.564-12.745 4.859-4.055-.727-7.533-4.629-10.975-8.169-3.432-3.563-6.85-6.773-8.082-10.834-1.21-4.052-.224-8.976 2.214-13.19 2.424-4.247 6.3-7.783 10.648-8.72 4.371-.929 9.215.74 13.323 3.01 4.131 2.28 7.526 5.161 10.163 8.953z" fill="#9FD8E5"/><path d="M67.703 26.328c4.108 5.927 7.001 13.353 5.748 20.055-1.218 6.716-6.583 12.71-12.888 17.643-6.306 4.933-13.559 8.72-19.9 7.625-6.327-1.13-11.75-7.228-17.114-12.76-5.35-5.567-10.68-10.583-12.595-16.934-1.88-6.336-.332-14.043 3.48-20.64 3.792-6.648 9.847-12.186 16.635-13.661 6.825-1.46 14.382 1.142 20.79 4.686C58.3 15.9 63.594 20.4 67.702 26.328zm37.894 75.161c1.318 1.896 2.248 4.27 1.849 6.412-.388 2.146-2.104 4.059-4.122 5.634-2.018 1.574-4.34 2.782-6.372 2.429-2.028-.363-3.767-2.315-5.487-4.084-1.717-1.782-3.426-3.387-4.042-5.417-.605-2.026-.112-4.489 1.107-6.595 1.212-2.123 3.15-3.891 5.324-4.36 2.186-.464 4.607.37 6.661 1.505 2.066 1.14 3.764 2.58 5.082 4.476zm25.777-87.897c2.126 3.056 3.624 6.884 2.981 10.336-.625 3.46-3.392 6.544-6.645 9.082-3.253 2.538-6.997 4.485-10.272 3.917-3.269-.586-6.072-3.731-8.847-6.585-2.766-2.871-5.521-5.46-6.515-8.732-.975-3.266-.179-7.236 1.785-10.632 1.955-3.423 5.079-6.273 8.583-7.029 3.523-.748 7.428.597 10.739 2.427 3.33 1.838 6.066 4.16 8.191 7.216z" fill="#9093D1"/><path d="M118.093 56.18c2.637 3.791 4.495 8.54 3.697 12.823-.775 4.292-4.207 8.119-8.244 11.267-4.035 3.149-8.68 5.565-12.744 4.86-4.055-.727-7.533-4.63-10.974-8.17-3.433-3.562-6.851-6.773-8.083-10.834-1.21-4.051-.224-8.976 2.214-13.19 2.424-4.246 6.3-7.782 10.648-8.72 4.371-.928 9.215.741 13.323 3.011 4.131 2.28 7.526 5.16 10.163 8.952z" fill="#F7859C"/><path d="M186.141 96.28c4.108 5.928 7.001 13.354 5.747 20.056-1.217 6.716-6.582 12.709-12.887 17.643-6.306 4.932-13.559 8.72-19.901 7.625-6.327-1.13-11.748-7.228-17.113-12.76-5.35-5.567-10.68-10.583-12.596-16.934-1.879-6.336-.331-14.043 3.481-20.64 3.791-6.648 9.847-12.186 16.635-13.661 6.824-1.46 14.382 1.142 20.79 4.686 6.443 3.559 11.737 8.059 15.844 13.986z" fill="#FFDBB4"/></svg>