<svg width="157" height="197" fill="none" xmlns="http://www.w3.org/2000/svg"><path d="M44.374 66.612c2.258-5.385 3.85-12.128 3.167-18.21-.664-6.095-3.604-11.529-7.06-16-3.457-4.471-7.435-7.9-10.915-6.9-3.473 1.033-6.452 6.573-9.4 11.6-2.939 5.06-5.866 9.619-6.922 15.385-1.035 5.753-.19 12.746 1.897 18.73 2.076 6.03 5.395 11.051 9.12 12.382 3.743 1.319 7.891-1.052 11.41-4.275 3.537-3.237 6.445-7.328 8.703-12.712z" fill="#9FD8E5"/><path d="M49.983 164.615c3.519-8.417 5.996-18.962 4.923-28.478-1.043-9.538-5.637-18.048-11.038-25.053-5.4-7.005-11.612-12.383-17.043-10.829-5.419 1.605-10.062 10.265-14.657 18.12-4.582 7.905-9.146 15.028-10.787 24.046-1.61 8.997-.284 19.941 2.981 29.309 3.247 9.44 8.433 17.304 14.247 19.399 5.844 2.074 12.317-1.622 17.804-6.654 5.519-5.054 10.052-11.444 13.57-19.86zm32.454-106.73c1.13-2.692 1.925-6.063 1.583-9.104-.331-3.048-1.802-5.765-3.53-8.001-1.728-2.235-3.717-3.95-5.457-3.45-1.737.516-3.226 3.288-4.7 5.8-1.47 2.53-2.933 4.81-3.461 7.693-.518 2.876-.095 6.373.948 9.365 1.038 3.015 2.698 5.525 4.56 6.19 1.872.66 3.946-.525 5.705-2.138 1.77-1.618 3.223-3.663 4.352-6.355zM104.513 182.7c1.821-4.341 3.104-9.776 2.553-14.678-.535-4.913-2.904-9.293-5.691-12.897-2.786-3.603-5.992-6.368-8.797-5.561-2.8.832-5.2 5.298-7.577 9.35-2.369 4.078-4.728 7.752-5.58 12.4-.834 4.637-.153 10.274 1.53 15.098 1.673 4.86 4.349 8.907 7.35 9.98 3.017 1.063 6.361-.848 9.197-3.447 2.852-2.609 5.196-5.905 7.015-10.245z" fill="#9093D1"/><path d="M93.139 122.225c2.258-5.384 3.85-12.127 3.166-18.209-.663-6.096-3.603-11.53-7.06-16-3.456-4.471-7.434-7.902-10.914-6.9-3.473 1.032-6.452 6.573-9.4 11.6-2.939 5.059-5.867 9.617-6.922 15.384-1.036 5.753-.191 12.746 1.896 18.73 2.076 6.03 5.396 11.051 9.12 12.383 3.744 1.318 7.892-1.053 11.41-4.276 3.538-3.237 6.445-7.328 8.704-12.712z" fill="#F7859C"/><path d="M151.418 65.28c3.518-8.416 5.996-18.961 4.922-28.478-1.043-9.537-5.637-18.047-11.037-25.053C139.902 4.745 133.691-.633 128.259.922c-5.418 1.604-10.062 10.264-14.656 18.119-4.582 7.906-9.147 15.028-10.788 24.046-1.609 8.997-.284 19.941 2.981 29.309 3.247 9.44 8.434 17.304 14.248 19.399 5.844 2.074 12.317-1.622 17.804-6.654 5.518-5.054 10.052-11.444 13.57-19.86z" fill="#FFDBB4"/></svg>