<svg width="297" height="427" fill="none" xmlns="http://www.w3.org/2000/svg"><path fill-rule="evenodd" clip-rule="evenodd" d="M263.244 182.411l1.572-.156c.774-12.913-1.401-25.599-3.941-38.078l-1.581.094c-.558 7.191-4.223 14.003-2.544 21.404 1.604 5.844 5.005 10.883 6.494 16.736zM83.86 117.379l.92.197c-1.715-3.259-.115-4.332 1.825-7.025l.212.488.746-1.637c.148-.415.3-.768.71-.924.4-2.036 1.59-3.9 3.176-4.914l.303.342c.629-.551 1.386-.76 2.108-1.015-1.549-2.345-2.544-5.386-3.588-7.9-.85-2.64-2.18-5.201-2.429-7.878.201-2.572 2.625-.901 3.807.382 3.612 3.176 6.722 8.207 9.053 14.317 4.003-1.044 6.298.058 7.41 5.542 1.024 3.726 2.07 7.548 2.208 11.411.538-.184 1.491-.88 2.006-.334 8.895 9.761 19.399 17.283 29.556 25.513 7.676-5.663 11.671-16.868 15.893-25.279 7.365-14.439 14.73-35.575 33.674-35.5 2.511-.263 4.963-.564 7.333-1.295.918-.25 2.053-.551 2.364-1.11.561-1.8.668-3.75 1.654-5.4 2.709-4.416 8.576-4.763 13.174-3.804 7.807 1.45 7.61.604 8.173 8.838.17 1.955 1.681 2.235 3.293 2.64a54.23 54.23 0 005.578 1.433l-.586-.165c30.554.486 50.839 36.031 54.863 61.177 4.674 25.727-1.372 54.359-10.929 75.966.41 7.869-1.129 15.774-2.103 23.53-.612 1.94-2.729 2.129-3.335-.119l-.747-2.958-.798 2.944c-.507 1.823-1.321 2.039-2.053 2.051-.909 0-1.407-.449-1.437-2.818l-1.505-.362c-.58 1.107-1.156 2.088-2.067 2.769-1.832 13.359-2.982 27.25-7.43 40.177-1.773 4.797-4.497 9.153-6.497 13.86 9.431 21.349 11.012 45.006 13.276 67.864l-1.318.114.517 1.376c.704.3 1.119.93 1.333 1.629.476-.04 2.46-.025 2.349.43-.049.581-18.995.907-19.094 1.418-.095.487-.336 3.707 1.438 4.158 4.985 1.265 16.077-.385 15.253.424-.019.431-.045.87-.078 1.278 2.822 9.877 4.89 20.407 6.147 31.264 1.598 1.543 1.997 6.614-.386 7.967-6.578 4.542-15.414 6.699-23.734 5.88-9.004-.854-19.741-4.453-15.433-14.752.056-.319.493-.335.838-.265.764-.742 1.591-1.304 2.486-1.619 1.778-4.455 3.378-9.126 4.773-13.79.68-2.141 1.382-4.356 1.324-6.705-.335-5.768-.927-8.151-4.924-12.695-2.474 1.194-7.189-7.445-8.269-9.259-1.516-3.576-2.244-2.536-2.186 3.122-.946 3.314-1.319 8.85-3.684 11.316-1.288 8.587 7.518 12.521 1.844 22.044 1.921.131 2.099.902 2.066 3.241.006 1.679.05 3.442-.266 5.011-.382 1.929-2.157 2.447-4.822 3.015-2.159.479-4.238 1.026-6.381 1.543-2.167.722-4.45.663-5.341-1.535-10.731 3.648-41.666 3.231-51.897-1.603-2.826-1.134-4.818-1.775-2.224-4.968 1.429-9.114 27.221 1.158 30.515-8.839.47-1.298 6.673-9.426 8.355-10.393-.686-.991.028-8.967 0-9.258-.075-.8 6.146 1.163 9.697.376 1.718-.382 2.511-2.906 2.236-3.838-.109-.371-13.712-3.594-13.828-3.984-2.514-8.361-6.681-20.894-7.304-27.489-.901-15.761-.055-29.048-4.844-45.065-6.695-25.363-19.699-49.163-19.875-76 .224-4.45-1.006-9.187.108-13.552l-1.384-.723c-.199.231-.56.224-.632-.089-.908-1.478.111-3.251.319-4.87-.475-.51-.238-.976.336-1.254 6.151-21.775 16.44-24.956 13.608-52.174-4.621 9.819-14.859 19.759-26.143 18.297-11.368 1.704-37.885-26.064-43.007-35.04-.939.073-.95-.601-1.093-1.238-4.678.552-9.056-3.13-9.143-7.633-4.105 2.551-8.492-1.093-6.317-5.543.086-.241.172-.486.254-.734z" fill="#FFDBB4"/><path fill-rule="evenodd" clip-rule="evenodd" d="M230.289 408.906l-1.107 3.605c-.992 3.236.195 5.959 3.23 7.668 9.436 5.016 21.885 4.66 32.047-.501a34.302 34.302 0 002.494-1.421l.239-.152.202-.128.1-.065c.415-.275.681-.523.863-.874l.025-.051.013-.026.01-.028c.044-.132.085-.265.123-.399l.028-.105.028-.107c.185-.743.245-1.416.287-2.73l.02-.625.05-1.537-.914 1.236c-.375.505-.884.937-1.719 1.5l-.367.244-.715.47-.021.014c-1.804 1.21-3.819 2.224-6.043 3.068-8.047 2.995-17.213 2.622-24.344-1.2l-.21-.115-.562-.337-.174-.106c-1.084-.666-1.729-1.163-2.23-1.781l-.038-.048-.038-.049-.15-.196-.247.009c-.664.026-1.074-.572-1.052-1.418l.002-.047.17-3.768zm-9.178-7.452l-.691.441c-7.696 4.91-14.718 8.003-21.877 9.263-4.087.681-8.406.867-13.351.659l-.576-.026-.475-.024c-2.966-.152-5.703-.4-10.737-.935l-1.887-.201-2.355-.308-1.003-.133c-4.447-.598-7.278-1.058-10.221-1.697l-.317-.07-.009-.006a2.92 2.92 0 00-.294-.184l-.109-.062c-.298-.165-.41-.249-.466-.353l-.008-.015-.141-.289-.438.03-.007-.003a8.941 8.941 0 00-.276-.147l-.14-.072-.144-.071-.059-.027-.17-.031-.183-.036a17.68 17.68 0 01-1.154-.278l-.386-.105-.142-.039-.139.048c-1.131.384-1.43 1.455-.773 2.279l.028.035.021.024.003.023c.04.27.226.47.507.65l.041.025.061.036.05.029.019.024a.99.99 0 00.141.149l.041.033.043.032.019.013.386.249.126.08c.286.178.502.289.732.369l.053.018.002.003c.944.919 2.4 1.418 4.582 1.835l.228.043.115.021.346.061a134.375 134.375 0 0039.701 1.123l.588-.072.699-.089.763-.092.2-.025.197-.026c1.747-.242 2.773-.584 3.69-1.4l.05-.046.069-.063c.375-.357 1.092-.111 1.102.353v.026l-.002.031c-.048.694.377 1.131 1.063 1.257.462.084 1.053.039 1.769-.105.277-.054.566-.123.872-.205l.216-.06.298-.087.13-.038.652-.196.802-.221a107.2 107.2 0 001.07-.301l2.286-.645.552-.154c.485-.134.894-.244 1.325-.356l.207-.053.501-.098.178-.037.162-.035c1.696-.378 1.984-.844 2.019-2.976l.003-.19.09-.815.054-.472c.063-.525.122-.968.187-1.391l.038-.243.013-.081.05-.302c.004-.022.079-.368.109-.516.04-.207.072-.399.094-.583.05-.426.044-.771-.048-1.05-.114-.342-.362-.56-.685-.599l-.038-.004-.014-.001-.028-.523z" fill="#fff"/><path fill-rule="evenodd" clip-rule="evenodd" d="M262.77 203.576l-1.174.635c-4.511 2.437-9.474 4.464-15.153 6.268l-.463.147c-4.23 1.327-8.594 2.468-14.61 3.879l-.22.05-1.311.306-1.368.315c-18.39 4.465-37.517 4.406-55.619-.236l-.392-.087c-4.148-.934-7.195-1.868-10.021-3.179-2.074-.962-3.756-2.083-4.972-3.416l-.079-.087-.605-.68-.218.885c-.306 1.245-.447 2.568-.461 4.075v.188l.015.193.018.21c.061.698.145 1.371.295 2.409l.031.214.252 1.705c.139.956.218 1.569.276 2.197l.021.229.013.15.012.266c.28 6.257 1.339 12.664 3.147 19.73l.082.321.126.483.164.626c1.266 4.768 2.612 9.04 5.133 16.507l.335.993 1.719 5.06c.263.778.482 1.423.679 2.011l.084.25.757 2.283.451 1.228.409 1.122c4.318 11.857 7.102 20.481 9.244 29.176l.149.609c2.693 11.105 3.991 21.339 3.776 31.327-.202 11.822 2.058 24.001 6.516 36.88l.253.726.665-.026c9.648-.352 19.129.653 28.089 3.034l.289.078.474.127.118-.483c.036-.183.651-3.589 1.016-5.174l.022-.097.048-.197.074-.302c.817-3.217 1.803-4.997 2.798-4.833 1.515.25 3.677 2.544 6.011 6.099a57.674 57.674 0 012.331 3.894l.159.293.203.381c.428.815.745 1.477.779 1.603l.178.834.619-.574c.261-.243.678-.394 1.328-.505l.155-.026.791-.11.147-.023.118-.019.462-.084c1.7-.302 3.457-.55 5.293-.75l.446-.048.181-.103c2.841-1.594 6.652-1.964 9.975-1.032l.217.062.346-.06a33.182 33.182 0 015.558-.484l.225.001.545.005-.107-.902c-.057-.483-.112-.972-.167-1.467l-.089-.837a284.995 284.995 0 01-.593-6.23l-.175-2.054-.556-6.739c-.053-.63-.1-1.184-.149-1.74l-.071-.802-.049-.533c-1.434-15.45-4.138-31.116-8.052-47.055l-.169-.684-.731-1.724-.331 1.44a7.542 7.542 0 00-.177 2.346c.021.264-.129.402-.405.401-.303 0-.533-.184-.557-.48-.131-1.607.207-3.054 1.047-4.868l.051-.11.092-.195.096-.195.295-.596.412-.823 1.175-2.319c2.704-5.354 3.919-8.103 4.877-11.463l.06-.21.075-.268.646-2.316.143-.517c.294-1.079.501-1.911.684-2.76l.065-.311c1.414-6.692 2.439-13.246 3.727-23.176l.12-.93.233-1.818.618-4.878-.147-.162c-.46-.516-.712-1.292-.835-2.362l-.015-.138a8.359 8.359 0 00-.247-1.26l-.059-.224-.113-.421-.101-.384a9.528 9.528 0 01-.19-.875l-.019-.124-.022-.055c-.354-.853-.555-1.826-.677-3.108l-.011-.122a28.348 28.348 0 01-.049-.602l-.006-.084-.094-1.476-.093-1.297-.058-.847-.05-.762-.035-.557-.165-2.726-.157-2.524-.002-.042v-.018l.004-.308.001-.132-.002-.115c-.01-.43-.057-.683-.255-.882-.281-.283-.683-.318-1.352-.253l-.064.006c-.06.005-.119.012-.184.02l-.065.008-.484.063-.092.011-.049.004-.065.004c-1.229.119-2.724-.089-3.78-.582-1.197-.561-1.734-1.395-1.497-2.56l.008-.037.009-.027c.17-.505.51-.898 1.189-1.447l.129-.103.392-.306.114-.09.585-.471c.194-.155.39-.313.597-.477l.156-.125 4.35-3.451.829-.661.471-.377.734-.592.07-.061c.115-.103.223-.204.358-.338l.131-.131.373-.381c.507-.511.783-.747 1.139-.952l.369-.206-.156-.544-.064-.228c-.65-2.362-.797-4.083-.27-5.443l.025-.065.502-1.237z" fill="#E86BBB"/><path fill-rule="evenodd" clip-rule="evenodd" d="M202.363 74.239c-.132 1.823-.567 3.746-1.232 5.534a.914.914 0 00-.633.434c-.223.35-1.294.594-1.852.759l-.08.024c-2.317.717-4.735 1.007-7.138 1.262-11.304.627-15.418 4.177-21.794 13.146-7.57 10.105-11.817 22.098-17.523 33.251a92.13 92.13 0 01-4.587 7.92l-.239.364c-1.467 2.23-3.095 4.476-5.328 5.979-5.501-4.622-11.385-8.749-16.827-13.443l-.509-.441a162.23 162.23 0 01-11.693-11.214c-.438-.463-1.259-.585-1.866-.313-.237-3.535-1.234-7.003-2.153-10.418-.963-4.4-2.639-7.374-7.693-6.285l-.129-.323c-2.02-5.02-4.716-9.898-8.753-13.567l-.264-.239c-.879-.799-2.031-1.944-3.264-1.841-1.12.093-1.695 1.108-1.74 2.141-.051 1.225.482 2.473.864 3.621l.032.099a103.545 103.545 0 001.583 4.487 98.566 98.566 0 001.724 4.242c.617 1.171 1.07 3.113 2.195 3.82.58.346 1.178-.119 1.24-.712.087-.779-.36-1.464-.689-2.142-.303-.624-.6-1.25-.89-1.88a81.54 81.54 0 01-3.1-7.767l-.027-.086c-.305-.944-1.318-3.14-.951-3.914.378.004 1.157.805 1.433 1.043 4.332 3.596 7.148 8.565 10.369 13.099-2.021.578-4.216.85-5.895 2.209-3.453 3.019-.68 8.998 3.95 7.885-1.293 2.752-2.404 7.196-.114 9.681.688.647 2.026.44 2.235-.589.223-1.095-.045-2.032-.291-3.091-.446-2.159-.716-4.369-.412-6.567l.095-.057c.785-.476 1.279-1.012 1.255-1.999.101-.713-.657-1.674-1.418-1.09-.249.188-.55.202-.81.393-.442.421-.991.752-1.617.746l-.061-.001c-.805-.007-1.4-.493-1.645-1.247-.675-2.071 1.66-2.767 3.177-3.165l.391-.121c4.143-1.269 5.644-1.289 6.686 3.588l.124.404c1.078 3.512 2.068 7.104 3.903 10.306l-.298.711c-1.906 4.541-4.315 9.711-9.415 11.099-.182-1.528-1.831-1.583-3.025-1.545-1.541-.083-3.088-.867-4.176-1.992-.951-.959-1.43-2.296-2.481-3.152.476-1.084-.599-2.281-1.722-1.657-.757.419-1.214 1.018-2.128 1.139-.81.109-1.556-.174-2.17-.694-1.606-1.36-.843-3.357-1.236-5.137.518.898 1.377 1.585 2.297 2.06 6.145 3.521 6.083-3.382 2.687-2.249-3.688-.84-3.626-2.175-2.247-5.311l.037-.113c.23-.664.703-1.797.247-2.492-.025-.036-.072-.047-.105-.015-.422.416-.588 1.113-.945 1.602l-.338.405c-1.314 1.578-2.743 3.463-1.887 5.587-.09-.019-.187.019-.217.128-.396 1.445-1.184 2.863-1.02 4.408.34 3.385 4.003 5.243 7.036 3.833.583 4.351 4.867 7.484 9.16 7.29.136.596.577 1.121 1.26 1.176 6.317 10.139 31.152 36.227 43.332 35.137 1.164.529 2.647.263 3.88.103 9.459-1.236 17.365-8.166 21.774-16.38 1.621 26.908-7.539 26.58-13.668 48.873-.614.385-.972 1.226-.495 1.938-.263 1.348-.802 2.73-.594 4.114.101.395.308.755.495 1.116.384.738 1.398.65 1.874.076-.806 2.919-.463 5.983-.256 8.959.126 1.748.116 3.472.118 5.222.24 26.632 13.226 50.643 19.901 75.909 1.889 7.084 3.339 14.3 3.909 21.616.606 7.782.184 15.609.913 23.382.854 9.129 3.315 17.997 6.192 26.672l.109-.131-.033 1.165c.041.103.094.2.158.29l.024.005c2.264.406 4.443.957 7.673 1.897l.804.234 2.281.677.654.192.041.013.045.016a.92.92 0 01.366.255l.024.029.736.245.038.013.038.016c.483.21.677.715.541 1.181-.148.501-.635.805-1.174.626l-.982-.328-.502-.165-.501-.164c-3.725-1.214-6.291-1.897-8.925-2.291l-.291-.042-.161-.067-.055-.021a16.113 16.113 0 00-.159 3.182c.043 1.85.622 3.685.381 5.532-.187.81-.842 1.585-.426 2.452l-.19.12c-1.101.71-2.153 1.487-2.877 2.582-.158.24-.278.734-.458.903-.189.177-.541.198-.772.281-1.174.357-1.911 1.417-1.811 2.649-2.746.792-1.8 3.587-4.635 5.531-2.91 2.112-6.852 2.345-10.289 2.893l-5.859.935-.354.043c-3.857.478-8.855 1.409-9.325 6.059-.721.499-.968 1.518-1.175 2.326-.161.636-.145 1.295.323 1.8.551.593 1.531.837 2.255 1.154.947.374 1.77 1.015 2.797 1.195 1.226.508 2.58.806 3.697 1.015a134.633 134.633 0 0043.496.902l.241-.034c1.008-.151 2.048-.357 2.968-.789 1.287 2.169 3.764 1.897 5.85 1.281 1.638-.406 3.275-.806 4.913-1.206 2.534-.683 6.256-.825 6.882-3.978.316-1.591.295-3.362.279-4.978l.004-.484v-.139c-.004-1.352-.14-3.123-1.645-3.403 2.139-3.969 1.673-8.849-.319-12.782l-.105-.193c-1.466-2.693-2.381-4.94-1.895-8.121.976-.921 1.431-2.244 1.792-3.544a116.688 116.688 0 002.516-11.133c1.507 2.845 3.326 5.517 5.369 8.002.813 1.16 1.478 1.535 2.794 1.986a.892.892 0 00.607.032c1.219 1.654 2.698 2.965 3.338 4.94.697 2.184.964 4.587 1.102 6.87.073 2.975-1.164 5.784-1.941 8.609a162.204 162.204 0 01-4.085 11.553c-.986.234-2.48.118-2.839 1.302-.232.14-.422.365-.522.691l-.085.279c-.721 2.395-1.333 5.163-.396 7.562 2.588 5.814 10.904 7.264 16.591 7.96 8.424.802 17.26-1.215 24.273-6.023.99-.696 1.666-1.488 1.83-2.72l.026-.232c.219-2.046.253-4.451-1.159-6.029-1.221-10.459-3.222-20.913-6.103-31.044.022-.286.04-.572.054-.86.818-.853 1.382-1.882 1.764-2.987-1.226-.154-2.31-.194-3.309-.104l-.038.002.21.215-.969.116-.122.013c-.279.031-.544.049-.985.071l-.48.022c-.875.042-1.312.086-1.8.197l-.087.02-.126-.018c-.249-.032-.496-.025-.927.013l-.238.021c-.474.04-.727.046-1.05.011l-.167-.022-.017-.002-.044-.009-.049-.012a.902.902 0 01-.264-.119l-.013-.009-.42-.004-.55-.001-.572.003-1.161.009-.954.006a56.284 56.284 0 01-2.013-.024l-.336-.012-.209-.009c-.537-.025-.912-.444-.952-.939-.044-.54.33-1.003.922-.975.559.025 1.14.039 1.803.043l.289.001h.382l2.079-.014c1.686-.011 2.636.001 3.662.063l.272.017.191-.037c.153-.032.323-.07.545-.123l.461-.11.12-.028.254-.057.186-.038.019-.017.039-.029a.967.967 0 01.316-.143 16.187 16.187 0 012.307-.399c1.248-.138 2.563-.141 3.998-.029l.355.028c.041-.304.073-.608.097-.91-.027-1.327-1.717-1.21-2.664-1.436-2.391-23.654-3.766-48.047-13.421-70.114 1.924-4.457 4.526-8.705 6.254-13.274l.121-.327c.716-1.875 1.15-3.788 1.717-5.702.369-.917.674-1.846.822-2.829 2.27-10.411 3.555-21.001 4.894-31.562.902-.747 1.498-1.823 2.021-2.814l.004.251c.039 1.607.301 3.406 2.308 3.36 1.653-.04 2.377-1.276 2.747-2.643.72 2.858 3.92 3.015 4.858.199.419-1.135.402-2.43.526-3.621.668-6.539 2.063-13.073 1.663-19.657.421-.144.789-.467.967-1.006 7.988-24.247 15.097-50.197 9.912-75.783-5.186-25.069-19.226-53.132-45.762-60.24-5.372-1.36-10.829-1.822-16.336-2.174-.794-1.54-1.308-3.293-1.412-5.037-.032-.503-.008-1.002-.006-1.506.002-.465-.196-1.02-.104-1.455.022-.106-.121-.141-.159-.043-.117.305-.355.458-.517.716-.401.728-.507 1.592-.613 2.405-.403 3.211.529 6.517 2.49 9.078l.11.145c.617.812 1.683 2.054 2.785 1.403 1.045-.619.332-1.895-.288-2.54a13.59 13.59 0 01-2.073-2.772c2.491.665 4.964 1.398 7.447 2.091l.178.098c1.944 1.052 4.774 2.192 4.52 4.797-5.172 15.644-28.057 19.664-42.2 15.929-2.781-.743-5.591-1.95-7.483-4.202l-.076-.092c-3.27-3.879-3.019-10.287 1.074-13.472 2.432-1.996 5.792-3.056 8.825-3.747-.882 1.468-2.834 2.505-3.189 4.244-.09.597.239 1.164.895 1.177 1.668.032 2.898-1.752 3.774-2.952 1.827-2.509 2.863-5.542 3.084-8.632.111-1.503-.166-2.857-.541-4.292-.024-.094-.155-.067-.161.023zm27.198 338.419c-.043.948.421 2.01 1.546 1.968.819 1.062 2.047 1.762 3.186 2.446 7.525 4.13 16.989 4.312 24.957 1.347 2.152-.817 4.227-1.836 6.142-3.121l.18-.118c.965-.64 2.075-1.297 2.76-2.222l-.023.758c-.035 1.074-.096 2.065-.438 3.068-.208.434-.624.672-1.015.923a34.636 34.636 0 01-2.696 1.551c-9.607 4.879-21.952 5.635-31.602.504-2.77-1.56-3.943-4.024-2.997-7.104zm-8.964-10.352c.007.118.125.216.246.18.964-.279.385 1.828.326 2.169-.193 1.113-.316 2.232-.439 3.356l-.002.215c-.032 2.235-.253 2.251-2.487 2.682-1.858.478-3.699 1.026-5.549 1.539l-.739.203c-.789.226-4.408 1.493-4.372-.028l.002-.048c.071-.996-1.219-1.407-1.884-.814l-.025.022c-1.281 1.221-3.108 1.322-4.779 1.535l-.084.01a133.946 133.946 0 01-40.323-.915l-.727-.13c-.974-.177-2.374-.46-3.498-1-.43-.036-2.61-1.097-2.531-1.555a2.291 2.291 0 01-.1-.206c-.427-.464-.414-1.442.146-1.811.933.244 1.865.484 2.801.715l.001.003c.946.731 2.237.729 3.378.983 1.234.221 2.469.428 3.705.626 7.084 1.115 14.228 1.904 21.392 2.239 12.674 1.107 25.077-2.939 35.542-9.97zm41.231-197.672c-.76 1.872-.215 4.293.344 6.226-.861.481-1.453 1.303-2.188 1.94-2.554 2.067-5.153 4.08-7.71 6.144l-.11.087c-.752.592-1.586 1.176-1.886 2.134-.702 3.149 3.444 4.007 5.779 3.782.432-.018 1.672-.302 1.969-.003.172.173.101.947.116 1.176.162 2.5.294 5.003.469 7.502l.069.938c.142 1.894.146 4.034.893 5.833.161 1.084.612 2.18.722 3.252.1.958.326 2.011.964 2.725l-.59 4.661c-1.112 8.739-2.287 17.477-4.117 26.098-.41 1.935-.976 3.804-1.5 5.708-1.51 5.495-4.345 10.468-6.849 15.547l-.096.199c-.843 1.75-1.401 3.43-1.237 5.422.1 1.224 2.017 1.232 1.916 0a7.096 7.096 0 01.196-2.317c3.976 15.978 6.867 32.205 8.36 48.61.601 6.758 1.042 13.5 1.842 20.243-2.056-.019-4.124.183-6.106.531-3.407-.988-7.473-.671-10.551 1.098a80.783 80.783 0 00-5.671.793l-.403.073c-.877.163-2.154.176-2.841.813-.269-1.263-1.188-2.159-1.997-3.104a41.168 41.168 0 01-2.091-2.766c-1.813-2.59-3.315-5.382-4.586-8.275a1.296 1.296 0 00-.472-1.07c-5.156-11.879-8.356-24.492-11.196-37.094-6.52-28.31-12.121-56.851-15.483-85.724-.014-.133-.207-.139-.209 0-.685 21.386 3.019 42.568 7.486 63.402 4.567 20.586 8.108 41.635 16.482 61.113-.617 3.975-1.351 7.929-2.313 11.836-9.378-2.526-19.139-3.499-28.833-3.116-4.17-11.941-6.842-24.409-6.625-37.105.477-22.082-6.534-43.161-14.057-63.635-5.195-15.781-11.518-31.615-12.209-48.393-.322-3.887-1.507-7.808-.716-11.709 1.421 1.722 3.456 2.977 5.449 3.902 3.344 1.55 6.924 2.504 10.511 3.298 18.289 4.69 37.499 4.685 55.835.235l1.363-.314c10.912-2.528 21.981-5.349 31.877-10.696zm1.213 8.521c2.376 4.336 7.341 7.004 12.072 7.973.172.567.712.934 1.302 1.019-.91 7.215-2.384 14.353-3.169 21.585l-.046.269c-.079.458-.191.95-.539 1.262-.472-.188-.48-.973-.538-1.406-.186-2.507-.404-5.012-.619-7.517-.086-1.095-1.882-1.517-2.055-.278l-.768 5.48-.013.057c-.185.892-.246 3.969-1.117 4.102l-.029.004c-.539.081-.334-1.005-.333-1.398l-.049-2.846-.061-3.663c-.011-.611-.022-1.221-.035-1.832-.029-1.346-1.917-1.287-2.048 0l-.056.545c-.26 2.462-.613 5.072-1.826 7.237-.226-.156-.543-.194-.838-.114-.103-1.614-.451-3.154-1.093-4.631.188-1.57.013-3.246-.065-4.761l-.008-.16c-.094-1.948-.21-3.893-.321-5.84l-.066-1.167c-.095-1.696.051-3.847-1.87-4.562-1.873-.588-3.999.384-5.791-.622 2.096-1.871 4.244-3.585 6.384-5.402.764-.638 1.563-1.253 2.29-1.937.46-.43.831-.978 1.305-1.397zm-2.93-68.858l.64 3.303c1.062 5.505 2.085 11.017 2.726 16.593.672 5.993.847 12.02.562 18.043-1.464-5.832-4.891-10.961-6.49-16.743-1.637-7.182 2.043-14.096 2.562-21.196zm-168.018-42.05c-4.533 1.883-6.384 8.627-2.971 12.34 1.133 1.198 2.83 1.89 4.377 1.263 1.879-.32 2.985-2.202 3.246-3.957l.008-.061c.017-.083-.076-.12-.128-.068l-.01.011c-.717.887-1.85 1.481-2.881 1.935a3.736 3.736 0 00-.923-.356c-.453-.102-.916.253-.873.716-2.134-.392-2.99-2.936-3.054-4.868l-.002-.058c-.086-2.672 1.12-5.143 3.291-6.705.088-.061.04-.24-.08-.192z" fill="#000"/><path fill-rule="evenodd" clip-rule="evenodd" d="M182.516 26.418c.354-.896.98-2.023 2.027-2.067.809-2.483 2.822-5.011 5.622-4.944 8.217-8.43 18.562-8.032 29.378-6.248 5.707 1.062 11.5 3.14 15.757 7.243 5.097 4.83 7.082 13.257 3.09 19.364 3.45 1.854 3.517 6.255 2.042 9.43 1.773 1.231 1.88 4.217-.116 5.155.106.436.031.887-.172 1.275.99.827 2.279 1.438 3.344 1.963.472.231.743.61.855 1.038 3.499 2.302 12.221 7.928 12.118 12.405.051 2.336-1.677 3.874-3.776 4.486 1.249 2.504 2.198 5.43 1.002 8.132-.331.816-2.807 3.215-2.931 3.26-.219.187-3.771-1.449-5.497-2.283-.335 2.184-2.663 3.329-4.67 2.58-1.904-.575-3.074-2.192-4.274-3.662-1.593 3.487-6.28 3.527-9.31 2.024-2.721-1.261-4.79-3.572-5.942-6.357-6.119 3.004-13.277 3.88-19.924 2.68-.427.758-1.372 1.266-2.213.973-3.535-1.066-7.443-1.125-10.439-3.568-6.246-4.497-6.772-12.787-6.336-19.854.386-7.046.049-14.151 1.325-21.121-.554-2.052-1.476-3.866-2.329-5.794-.926-2.022-.907-5.027 1.369-6.11z" fill="#FFDBB4"/><path fill-rule="evenodd" clip-rule="evenodd" d="M210.871 12.432h-.243a48 48 0 00-1.202.024c-2.112.07-4.315.345-6.795.816l-.377.072c-.617.121-1.17.243-2.051.45l-1.749.413a54.95 54.95 0 01-2.151.468l-.08.015c-3.107 1.494-5.162 2.733-6.166 3.716l-.15.148-.064.064-.655.021-.006.083h-.006c-.65.102-1.238.44-1.785.965l-.058.057-.056.057c-.426.435-.766.898-1.233 1.632l-.107.168-.19.302-.154.243a21.6 21.6 0 00-.289.473l-.091.155-.065.114-1.691.99a2.906 2.906 0 00-.667.547l-.055.061-.054.063-.461.55.093.096-.045.06-.079.11-.079.112-.077.113-.033.05-.05.108-.024.054-.018.044-.058.03-.118.212a7.82 7.82 0 00-.96 3.642c-.015.888.095 1.694.354 2.471.179.538.42.96.834 1.542l.329.452.067.093.081.114.037.054c.534.775 5.096 2.243 7.9 2.314l.085.002.107.001c.268.001.527-.008.776-.03 1.079-.09 2.088-.317 3.26-.69l.242-.079 1.292-.435.096-.032.119-.037c.284-.087.49-.137.631-.155l.029-.004.003.053.001.051v.041c-.008.596.352 1.03.912 1.307.356.177.816.303 1.392.397l.093.015c.941.146 2.066.208 3.945.251.072.002.144 0 .217-.003.403-.018.72-.087 1.31-.257l.279-.08.151-.042c.281-.076.436-.106.584-.115l.043-.002h.042a.66.66 0 01.432.136l.064.051.867.729c.112.094.214.177.288.237l.03.023c1.19.936 2.324 1.47 3.659 1.521l.09.003.094.001c.068 0 .135-.001.204-.004.562-.021 1.146-.23 1.944-.634l.165-.085.116-.06.187-.1.595-.32.304-.159c.364-.187.566-.277.703-.315l.022-.006.013.013c.315.309.586.698.878 1.235l.043.081.064.122.414.826.078.154c.308.597.55.978.869 1.313.461.485 1.02.767 1.705.812l.069.004.081.002a3.73 3.73 0 001.035-.15l.087-.025.083-.026c.552-.175 1.426-.066 2.118.303.754.401 1.168 1.013 1.149 1.794a8.549 8.549 0 01-.131 1.256l-.023.124a18.836 18.836 0 01-.457 1.863l-.461 1.561-.052.183-.052.187a16.8 16.8 0 00-.184.735c-.188.856-.219 1.5-.031 2.047.832 2.416 2.276 3.699 3.921 3.753l.057.002h.069c1.263-.014 2.408-.84 2.394-1.909a.917.917 0 00-.059-.31l-.017-.04-.008-.018.013-.032c.387-.932 1.285-1.612 2.34-1.746l.059-.006.059-.006c.058-.005.116-.009.171-.01l.054-.002h.063c1.406.002 2.795.94 3.889 2.474.227.32.44.67.63 1.039l.062.124.304.624.206.603c1.131 3.323.558 6.8-1.65 8.597l-.068.054a5.256 5.256 0 01-3.073 1.131l-.081.002h-.096a3.712 3.712 0 01-.916-.121c-.228-.062-.388-.137-.497-.233a.656.656 0 01-.073-.07l-.017-.02-.007-.009-1.509.225c-.257 1.635-.999 3.329-2.206 5.271l-.075.122-.133.21-.134.21c-1.421 2.19-3.004 4.034-4.744 5.45l-.122.098-.163.13-.15.117a10.83 10.83 0 01-.775.56l-.061.039-.572.364.265.625a13.426 13.426 0 002.53 3.914l.1.105.733.759.564-.72c.004-.006.017-.013.032-.015l.01-.002h.006l.007.001.008.002.01.005c.422.23.654.405.987.748l.048.05.057.06.077.08a5.92 5.92 0 001.119.911 6.005 6.005 0 003.033.934l.1.002h.102c.036 0 .072 0 .109-.002 2.231-.062 4.231-1.496 5.215-3.598.039-.084.075-.111.14-.117h.043a.694.694 0 01.477.23l.02.025.376.507.145.191c1.341 1.768 2.444 2.735 3.924 3.028.116.023.24.038.37.043l.08.004h.046a4.093 4.093 0 001.942-.51c.757-.43 1.224-1.093 1.165-1.914l-.004-.053-.011-.088c-.049-.438.301-.676.569-.461l.018.015.022.02c1.102 1.038 2.371 1.834 3.737 2.325l.121.043.179.061c.862.292 1.469.436 2.109.448.553.009 1.013-.191 1.346-.576.223-.257.358-.543.494-.96l.023-.07.049-.162.03-.105c.397-1.4.406-2.895.094-4.546-.232-1.232-.602-2.423-1.224-4.093l-.121-.322-.25-.656c-.025-.066.125-.296.218-.322l.011-.002.084.01c.06.005.12.009.181.011l.092.002h.062c2.021-.02 3.565-2.009 3.551-4.115-.016-1.973-1.005-3.67-2.894-5.683l-.163-.174-.178-.184-.175-.18c-1.679-1.714-3.395-3.21-5.181-4.494l-.148-.106-.165-.116a40.409 40.409 0 00-1.996-1.312l-.476-.295-1.932-2.286-.137-.08-.024-.792-1.861.038a3.745 3.745 0 001.182-.916c1.055-1.256.923-3.001-.361-3.859l-.046-.03-.541-.335-.442.39c-.386.34-.796.565-1.222.669l-.068.015-.334.071-.065.106-.038-.055.003-.016.003-.008.007-.01.043-.053.046-.055a9.22 9.22 0 01.618-.638l.213-.205.166-.161c.433-.428.664-.692.91-1.06.612-.915.956-1.947.971-2.995.03-2.18-1.321-4.24-3.323-5.18-.07-.033-.122-.267-.038-.422 1.939-3.568 2.476-7.845 1.503-11.824-.909-3.713-3.17-6.99-6.406-9.5-5.556-4.309-13.264-6.531-21.442-6.608l-.248-.001h-.237z" fill="#ECDCBF"/><path fill-rule="evenodd" clip-rule="evenodd" d="M240.583 56.327c-.368-.093-.565.403-.253.602 1.983 1.266 4.033 2.397 5.949 3.774 1.823 1.309 3.506 2.8 5.076 4.404l.174.178c1.419 1.465 2.991 3.328 3.007 5.489.012 1.679-1.279 3.512-3.08 3.291-.678-.083-1.301.78-1.065 1.403l.249.656c1.003 2.656 2.021 5.664 1.23 8.458l-.029.1c-.191.64-.393 1.204-1.133 1.192-.687-.012-1.401-.245-2.045-.467-1.335-.46-2.544-1.228-3.57-2.193-.908-.854-2.068.013-1.946 1.099l.004.034c.168 1.218-1.767 1.784-2.646 1.61-1.736-.345-2.974-2.09-3.959-3.42-.475-.64-1.626-.891-2.042 0-.825 1.764-2.526 3.083-4.515 3.139-1.034.028-2.026-.267-2.901-.814a5.197 5.197 0 01-.969-.79l-.073-.076c-.434-.461-.734-.706-1.287-1.007-.546-.297-1.252.07-1.249.718.005.838.251 1.395.827 2.003a7.637 7.637 0 001.638 1.3c1.197.708 2.62 1.108 4.014 1.061 2.196-.073 4.292-1.17 5.652-2.879 1.387 1.665 3.108 3.194 5.345 3.153 1.674-.031 3.235-.905 3.982-2.26a12.3 12.3 0 003.454 1.673l.11.033c1.754.512 3.773.716 4.902-1.031 1.06-1.64 1.139-3.912.896-5.786-.217-1.675-.731-3.265-1.321-4.834 1.679-.502 2.983-2.085 3.431-3.79.676-2.579-.637-5.08-2.262-6.995-1.764-2.082-3.984-3.842-6.221-5.383-2.231-1.537-4.731-2.98-7.374-3.645zm-57.367-20.17c-.004-.072-.121-.097-.132-.018-.771 5.609-1.216 11.207-1.586 16.855-.187 2.861-.4 5.72-.633 8.577-.223 2.74-.595 5.554-.511 8.306.131 4.308 2.217 7.812 5.638 10.333 3.277 2.416 7.342 3.61 11.331 4.115 2.316.293 4.664.307 6.983.032a30.473 30.473 0 003.587-.62l.51-.127c.929-.238 1.967-.561 2.099-1.665.064-.535-.219-.93-.676-1.197-.596-.35-1.279-.144-1.894.015-1.035.269-2.081.5-3.139.659-2.272.343-4.608.363-6.891.126-3.841-.4-7.894-1.65-10.856-4.231-1.287-1.122-2.407-2.488-2.995-4.112-.757-2.088-.645-4.365-.62-6.55.059-5.084.007-10.166.078-15.25.071-5.099.009-10.157-.293-15.248zm38.631-23.754c-4.489-1.162-9.045-1.463-13.655-1.114-4.348.33-9.302 1.306-12.854 3.988-.172.13-.068.377.145.343 2.374-.38 4.688-1.07 7.052-1.527 2.274-.44 4.589-.77 6.905-.846 7.83-.259 16.543 1.521 22.858 6.419 2.96 2.296 5.219 5.383 6.119 9.057.922 3.768.423 7.843-1.429 11.251-.266.491-.156 1.267.4 1.529 1.688.793 2.891 2.549 2.864 4.444-.012.92-.328 1.801-.836 2.561-.536.804-1.355 1.366-1.955 2.116-.236.296-.245.703-.057.975-.352.155-.731.237-1.077.42-.293.154-.301.637 0 .79.763.384 1.587-.024 2.101-.645a2.92 2.92 0 00.243-.344c.616-.13 1.168-.44 1.65-.865.919.552 1.044 1.78.255 2.718-.403.478-.975.774-1.553.987l-.07.025c-.563.2-1.078.312-1.444.764a9.456 9.456 0 00-.827-1.413c-1.121-1.575-2.846-2.972-4.893-2.794-1.603.138-2.992 1.29-3.321 2.878-.024.118.152.21.205.087.769-1.8 3.203-1.865 4.652-.928 1.706 1.103 2.638 3.181 3.011 5.117.368 1.906.156 4.225-1.266 5.675a3.837 3.837 0 01-2.201 1.112c-.404.053-.761 0-1.146-.077l-.256-.054a1.842 1.842 0 00-.542-.05l-.277.037-.157.074c-.138.062-.125.045.037-.05-.472-.04-.716.31-.742.694a.163.163 0 00-.041.034c-1.79 2.197-3.118 4.722-5.018 6.847l-.555.623c-1.429 1.595-3.06 3.324-5.002 4.15l-.231.097c-.565.239-1.132.567-1.204 1.25-.065.611.415 1.072.97 1.215 1.262.325 2.702-.8 3.625-1.54 1.989-1.586 3.659-3.61 5.038-5.738l.137-.212c1.134-1.777 2.201-3.803 2.531-5.912l.06.097.01.015c.068.092.143.17.228.244.233.201.516.319.81.398.552.15 1.158.18 1.725.121a6.054 6.054 0 003.141-1.275c2.775-2.182 3.102-6.244 1.98-9.539.921.22 1.97-.4 2.689-.933.824-.612 1.504-1.494 1.666-2.532.161-1.03-.492-2.393-1.464-2.79 1.008-1.214 1.595-2.936 1.654-4.314.106-2.398-1.164-4.665-3.114-5.973a18.146 18.146 0 00.953-12.701c-2.451-8.306-10.657-12.95-18.527-14.986zm6.986 63.104l-.023-.073c-.196-.642-.448-1.92-1.405-1.433-.914.464-.331 1.84-.011 2.509.383.8 1.043 1.443 1.93 1.615.721.14 1.514-.04 2.018-.599.148-.163.23-.342.318-.539a.81.81 0 00.056-.163.357.357 0 00.092.159c.402.441.783.955 1.075 1.477.069.124.287.037.232-.098-.341-.835-.283-2.126-1.041-2.73-.669-.533-1.298-.114-1.652.506l-.018.032c-.516.942-1.34.048-1.571-.663zm7.273-3.017l-.07-.097c-.715-.98-1.92-2.16-3.127-1.248-.384.29-.398.774 0 1.062l.15.108c.528.374 1.053.728 1.439 1.266.421.584.799 1.203 1.365 1.662.999.81 2.616.97 3.484-.123l.086-.108a3.39 3.39 0 00.223-.32l.053.074.015.02.012.02a4.568 4.568 0 001.368 1.414c1.067.706 2.27.804 3.477.43.117-.037.085-.195-.028-.206-1.431-.134-2.824-1.153-3.406-2.466l-.066-.147c-.235-.522-.499-1.018-1.08-1.223-.566-.2-1.161.011-1.549.44-.325.36-.407 1.073-.994.916-.64-.172-1.001-.978-1.352-1.474zm4.096-8.719c-.317-.241-.813.018-.9.368-.395 1.584 1.246 3.45 2.824 3.5.405.012.796-.087 1.156-.275.279-.146.609-.52.915-.582.395-.08.745.449 1.024.72.345.337.687.65 1.075.936.154.115.394-.078.329-.254l-.131-.35c-.474-1.246-1.291-3.065-2.818-2.548-.748.254-1.312 1.108-2.1.431-.631-.541-.69-1.424-1.374-1.946zm-6.74-6.377c-1.423-1.64-4.771-.773-5.406 1.221-.14.44.006 1.014.349 1.325.452.411 1.096.536 1.645.214.473-.278.666-.731 1.013-1.12.509-.57 1.202-.887 1.916-1.114.178.094.343.218.492.367.077.076.22-.028.153-.118a2.09 2.09 0 00-.331-.343l.06-.018c.189-.053.229-.276.109-.414zm-9.255-18.104c-.319 0-.691.301-.65.652l.012.098c.092.668.306 1.046.973 1.357.566.263 1.16.408 1.78.466.235.021.483.023.736.004l.052.307c.106.613.203 1.227.222 1.852.033 1.16-.398 2.115-.861 3.15-.888 1.988-.987 3.972-.02 5.957.141.29.542.527.865.498.418-.038.621-.16.864-.498.204-.283.157-.684.016-.981l-.016-.032c-.488-.947-.641-2.016-.392-3.057.233-.978.763-1.857 1-2.831.384-1.588-.025-3.163-.827-4.526.605-.174 1.165-.486 1.538-.961h-.002c.143-.153.065-.472-.185-.453l-.283.023c-.809.068-1.554.138-2.372-.088-.42-.116-.782-.31-1.141-.544l-.078-.051c-.451-.3-.7-.343-1.231-.342zm-1.936-11.736c-2.029-.116-3.76 1.227-4.602 3.014-.915 1.94-.531 4.168.276 6.077l.229.534c.402.926.929 2.027 1.752 2.524.922.558 1.721-.09 1.449-1.118-.163-.613-.602-1.085-.957-1.59a13.963 13.963 0 01-.913-1.471c-.531-1-.928-2.114-.924-3.26.008-2.09 1.384-4.486 3.69-4.456.165.002.162-.245 0-.254zm-10.259-3.374c.127-.096.014-.31-.127-.22-2.352 1.5-4.109 4.32-4.462 7.089-.197 1.536-.047 3.178.606 4.596.373.814 1.015 1.59 1.913 1.813a1.622 1.622 0 001.933-1.076c.099-.313-.072-.641-.33-.813-.836-.555-1.51-1.255-1.905-2.197-.41-.98-.574-2.02-.579-3.076-.012-2.475.973-4.607 2.951-6.116zm-28.732 1.073c.109-.121-.028-.3-.173-.224-1.7.897-2.78 2.616-3.089 4.497-.304 1.843.105 4.351 1.526 5.684.802.752 2.239-.248 1.572-1.217-.47-.684-.978-1.246-1.247-2.054-.241-.72-.325-1.447-.312-2.204.029-1.651.617-3.251 1.723-4.482zm20.79-2.308c-2.905-.138-4.666 3.189-5.069 5.668-.249 1.532-.062 3.11.781 4.44l.05.077c.696 1.061 1.961 2.283 3.324 1.78.577-.212.731-.832.343-1.302-.593-.72-1.51-1.013-2.067-1.782-.626-.862-.83-1.942-.795-2.99l.005-.116c.097-1.929 1.014-5.63 3.428-5.564.135.003.133-.204 0-.21zm-9.088-.552c-2.809-.36-4.521 2.956-5.049 5.24-.329 1.428-.401 3.021.02 4.439l.031.101c.344 1.058 1.357 2.87 2.678 2.33.363-.148.733-.552.558-.987-.221-.556-.54-.7-.966-1.056-.328-.274-.557-.667-.726-1.054-.449-1.032-.549-2.238-.488-3.35l.009-.132c.158-2.173 1.333-5.41 3.933-5.351.119.002.111-.166 0-.18zm-5.144-3.118c-1.564-.597-2.846.903-3.745 1.973-1.126 1.342-2.147 2.787-2.725 4.457-.515 1.488-.605 3.142-.142 4.657.23.75.587 1.445 1.075 2.058l.062.077c.508.62.998 1.002 1.83.78.338-.09.481-.426.423-.747-.126-.686-.478-.863-.934-1.342a4.297 4.297 0 01-.901-1.488c-.414-1.127-.436-2.348-.158-3.51.311-1.3.923-2.5 1.631-3.625l.152-.241c.751-1.19 1.82-3.021 3.402-2.828.135.017.137-.18.03-.22z" fill="#000"/><path fill-rule="evenodd" clip-rule="evenodd" d="M193.934 64.457c-.548-.968-2.184-.811-2.434.318-.507 2.289 2.22 4.403 4.291 4.456 2.058.052 4.367-1.702 4.069-3.916-.074-.548-.804-.482-1.053-.138l-.097.131c-.677.91-1.571 1.853-2.827 1.63-.52-.09-.993-.416-1.308-.836-.379-.505-.338-1.11-.641-1.645zM207.02 47.71a1.222 1.222 0 00-.807.058c-.551.1-1.013.561-1.174 1.087-.013.046-.028.09-.043.135l-.025.066.066-.168c-.03.166-.166.34-.214.507a1.85 1.85 0 00-.054.663 6.934 6.934 0 00-.526.023l-.169.015c-.947.088-1.985.25-2.547 1.068-.314.46-.018 1.288.561 1.377.891.136 1.658-.358 2.545-.456a8.861 8.861 0 012.546.111c1.711.313 3.282 1.007 4.95 1.443l.226.058v-.002c.286.07.61-.328.327-.56-1.335-1.099-3.045-1.989-4.729-2.53.246-.391.322-.906.153-1.325a2.91 2.91 0 00-.091-.256l-.071-.173a1.249 1.249 0 00-.046-.242l-.003-.024-.002.001c-.126-.408-.453-.76-.873-.876zm-17.036.063c-.365-.366-.879-.312-1.259-.024l-.051.04c-.359.16-.656.508-.851.832-.204.336-.338.678-.343 1.048-.884.003-1.731.268-2.38.983-.21.23-.353.586-.237.899l.068.186c.218.59 1.197.93 1.531.236l.015-.034c.354-.825 1.712-.738 2.434-.654a9.31 9.31 0 011.486.325c.171.049.342.103.511.157l.17.055c.089.03.561.286.268.225-.079-.016-.139.099-.058.137.349.167.722-.166.699-.541-.041-.652-1.075-1.01-1.572-1.234l-.03-.013a9.418 9.418 0 00-.597-.252c.116-.173.212-.365.291-.57.076-.195.127-.384.154-.59a.578.578 0 000-.304l-.004-.029c.013-.067.02-.136.019-.206l.003-.026h-.003a.99.99 0 00-.264-.646zm5.836 6.94c-1.404.435-3.719 1.617-2.987 3.442 1.02 1.675 3.728.444 5.041-.098 1.178-.39 1.792 1.263.652 1.762-9.419 3.73-9.384-6.114-3.048-5.97.697.016.719.72.342.865zm12.461-12.835l-.239-.07c-1.244-.36-2.514-.983-3.618-.012-.434.382-.523 1.175-.213 1.65.707 1.085 1.756.92 2.897 1.012.869.07 1.725.326 2.536.645.663.261 1.278.629 1.858 1.039.57.403.96 1.033 1.545 1.396.214.133.462-.004.539-.22.273-.765-.188-1.718-.578-2.37-.477-.795-1.2-1.446-1.978-1.938-.852-.54-1.793-.85-2.749-1.132zm-18.122-.823c-2.102 0-4.124 1.17-5.3 2.885-.4.583-.107 1.447.466 1.782.644.377 1.332.106 1.755-.434l.026-.033a6.54 6.54 0 012.573-2.068 6.822 6.822 0 011.603-.5l.175-.03c.247-.041.533-.08.756-.042a.872.872 0 01.33.115c-.049.107.076.234.192.17.522-.286.459-.799.027-1.197-.611-.563-1.815-.648-2.603-.648z" fill="#000"/><path fill-rule="evenodd" clip-rule="evenodd" d="M161.558 412.706c.341-1.377-.213-3.164-.533-4.953-.496-2.782-1.67-6.814-3.905-8.075-.397-1.049-13.794-9.511-19.529-13.736-2.946-2.17-2.959-6.209-3.556-6.161-1.135-2.797-1.282-5.558-1.979-8.796 2.592-.341 7.018.272 9.06-1.205.366.024.361-3.978.413-4.542-1.538-4.174-5.32-106.272-1.538-154.905.4-5.412 1.444-11.469.413-17.053 1.688-.371 2.699-2.122 2.705-2.191 4.037-7.933-2.155-34.905-6.036-42.371 3.082-.081 7.141-.501 9.049-3.076.903-.298 1.472-.816 1.911-1.649.504-.793.972-1.626 1.395-2.479 2.053-4.27 3.32-9.011 2.635-13.716.131-.041.802-.045.835-.234.067-1.156-.145-2.176-.492-3.268-3.526-12.303-7.771-24.417-13.381-36-2.811-6.2-8.627-8.462-14.654-10.789-2.899-1.14-5.8-2.457-8.826-3.203-.038-.212.142-.857-.253-.805-.491.103-.394.891-.575 1.333-6.997-5.733-2.56-8.688-6.778-11.828-4.367-2.269-6.954-2.361-11.767-1.87-1.776.051-3.197.853-3.616 2.642-1.526 3.702-5.102 6.427-9.004 7.263-.323-.575-1.21-2.223-1.706-1.703-5.635.193-16.524 4.65-21.799 6.199-5.294 1.353-5.227 2.796-6.612 8.556-2.514 10.263-2.043 48.809 4.516 56.932 2.378 1.589 4.164 2.58 5.358 2.97-.04 3.797.595 9.455 0 13.168-1.34 6.735-2.972 13.498-4.465 20.27-.006.754-5.978 11.937-3.179 9.866.578.285 1.593 1.479 2.216 1.745-2.974 6.785-2.427 15.114-2.216 23.495.053 4.992-1.112 10.462-2.23 15.573-8.275 43.31-13.888 92.486-16.96 135.87a184.62 184.62 0 00-.267 4.395c-.061.433.523.425.74.205l.298-.291c.333.095.866.241 1.203.332.043 1.421-.097 2.896-.269 4.191-.157 1.238-2.167 6.644-1.706 7.853-1.531-.082-4.407 2.435-5.779 5.158-.703.63-.443 1.744-.959 2.714-.696.672-4.68 3.122-11.952 7.351-2.671 2.14-10.126 8.424-9.425 10.149l-.105.718c-1.475 8.593.981 8.233 8.928 9.497 11.61 2.05 22.59-4.167 32.402-9.437 3.26-2.202 6.436-1.617 6.081-4.276-.643-3.282-.758-15.031-4.48-14.766.613-.673.46-6.84 0-7.992-.29-2.969 2.393-5.741 2.25-8.796 1.558.116 4.743.847 5.41-.893-.03-.175-.767-.172-.894-.214l.013-.098-.083-.02c6.49-22.9 22.3-128.066 39.468-136.138.106.863 1.994-.162 3.139 0 5.309 41.471 11.388 80.562 14.631 124.919.325 1.316 1.075 10.492 1.392 12.013.662.549 1.19.877 1.58.986.178 4.68-.423 14.446-.444 14.456l-.31.76c-1.808 4.083-3.155 9.545-.826 13.546-1.729-.126-2.484 1.349-2.562 2.882-1.018 6.72 25.917 12.684 32.173 13.068 2.055.359 16.708-2.256 15.436-3.546z" fill="#FFDBB4"/><path d="M57.752 188.744l1.09.429c24.52 9.662 52.624 11.705 80.085 6.309l.832-.165 1.417-.287-.213 2.415c-2.81 32.08-4.406 59.237-4.795 85.229-.454 30.355.791 58.45 3.998 85.313l.099.813.099.83-.775.306c-1.964.778-4.023 1.211-6.907 1.56l-.547.065c-3.957.465-8.152.6-12.818.46l-.275-.008-.378-.013-.014.025-.529-.045-.321-.011-.007-.016-.225-.018-.079-.005-.106-.006-1.442-.062.424-1.346c.303-.958.374-1.999.221-3.091l-.022-.15-.003-.043c-.147-2.114-5.078-41.859-14.795-119.236-.264-2.031-2.648-13.087-3.743-14.587l-.038-.052-.001-.001-.022-.006a.762.762 0 00-.26.005c-.35.051-.833.243-1.387.556-.857.485-1.862 1.257-2.388 1.765l-.061.06-.077.11c-2.591 3.72-4.8 7.916-6.817 12.803l-.101.245-.099.242c-1.057 2.6-3.259 9.225-6.606 19.877-.654 2.155-7.644 30.925-20.97 86.311a2600.19 2600.19 0 01-2.328 10.659l-.335 1.514-.893 4.007-1.252-.059c-1.122-.057-2.213-.13-3.729-.25l-.621-.05-2.542-.21c-4.133-.335-6.257-.445-8.707-.404l-.16.003-1.29.028.017-1.097-.377-.106-.143-.091-.67-.318.053-.738c3.468-48.032 9.376-94.764 17.83-140.162l.247-1.319.018-.229c.207-2.694.587-20.989.843-24.07l.03-.347c.382-4.419 1.063-8.321 2.164-12.015l.062-.204.34-1.122z" fill="#E86BBB"/><path fill-rule="evenodd" clip-rule="evenodd" d="M117.697 387.9c-.531 1.987.433 2.981 2.893 2.981 3.691 0 6.03-5.677 7.855-6.326l7.418-3.946c1.066-.392 2.42 4.926 7.487 8.505 5.64 3.984 13.103 9.174 13.419 10.011 3.673 2.071 4.952 4.877 4.082 8.394 1.271 1.29 3.612 5.732 1.225 6.179-1.842.438-11.413 3.485-13.468 3.126-6.256-.384-34.25-8.477-35.235-11.476l.006-.143c.057-1.586-.154-4.715 1.523-4.594-2.282-3.921.202-8.037 2.005-12.042l.11-.245.054.125c.021-.01.423-.413.444-.378.025-.034.084-.096.161-.171h.021zm-77.04-3.671l.025.085c.426 1.47 1.59 6.567 2.963 6.567.935 0 3.24 1.727 4.61.568l.159-.146c1.204-1.105 2.176-1.85 2.916-2.234 1.611.08 2.151.709 1.62 1.884l.046.331c.38 2.739.054 5.269.094 5.561.59 1.949 2.975 4.757 2.134 6.395-1.308 2.545-6.537 3.647-8.52 4.986-9.812 5.27-18.488 9.214-30.098 7.164l-.7-.11c-7.39-1.157-9.66-1.34-8.228-9.674l.01-.077c.032-.269.095-.931.095-.931-.314-.771 1.969-4.194 5.794-7.035 4.725-3.507 15.018-9.966 15.596-10.523.516-.969 2.089-2.347 2.792-2.978 1.372-2.722.783-3.822 2.085-4.132 2.196.36 6.216 2.996 6.607 4.299z" fill="#fff"/><path fill-rule="evenodd" clip-rule="evenodd" d="M159.095 413.26c-3.395.78-6.708 2.069-10.061 2.83-10.919-.806-21.639-4.484-31.217-9.023-2.776-1.216-4.405-3.375-3.163-6.146 4.062 5.028 19.103 8.525 25.988 10.691 4.282.941 9.145 3.067 13.468 1.083 2.741-.469 5.859-1.785 6.914-4.254.073 1.052-.035 2.099-.127 3.148.108 1.288-.52 1.463-1.802 1.671zm-40.549-42.364a.267.267 0 00-.483-.024c-.208-.017-.429-.038-.65-.047.378-1.197.431-2.45.244-3.686a697.112 697.112 0 00-.796-10.219c-2.966-32.625-6.382-65.348-12.205-97.615a.23.23 0 00.102-.224c-.292-2.286-.909-4.515-1.339-6.778-.435-2.282-.801-4.577-1.202-6.865-.12-.683-.241-1.367-.369-2.05.092-1.66-.309-3.406-.52-5.014a28.328 28.328 0 00-.657-3.412c.124-.379.059-.83-.246-1.116l-.013-.011a2.67 2.67 0 01.075-.214c.21-.519.663-.751.991-1.119.943-.171 1.907-.218 2.857-.067.141.027.247-.17.103-.247-3.818-2.236-8.57-.08-11.387 2.836-8.654 12.312-11.784 27.944-16.566 42.071-8.657 30.727-14.729 62.158-21.683 93.269-5.5-.256-10.989-1.06-16.501-.921-.207-.468-.563-.969-.987-1.17 3.425-47.428 9.31-94.679 18.072-141.417.972-12.242-.549-24.724 3.078-36.695 25.742 10.143 54.525 11.653 81.527 6.198-5.049 57.322-7.716 115.243-.781 172.554-2.217.878-4.597 1.254-6.954 1.53-4.533.548-9.153.618-13.71.453zm-68.492 13.511c-.408.793.025 1.618.88 1.843-2.557.675-3.031 3.397-5.046 4.639-.189-.357-.722-.417-1.08-.522-1.076-4.007-2.319-8.722-7.361-10.195.32-.411.276-.895.261-1.381.375-1.906 1.724-6.164.888-8.351 4.634 1.057 9.39 1.49 14.088 2.176-.956 3.478-1.766 8.733-2.63 11.791zm3.223 16.947c.151-.042.303-.084.451-.128.74 3.245-4.27 4.304-6.74 5.456a2339.955 2339.955 0 00-11.154 4.658c-7.513 3.773-14.57 4.837-22.922 2.147-5.315-1.02-4.304-2.036-5.083-6.142 5.33 7.175 16.246 4.096 23.023.994 6.16-2.362 12.364-4.629 18.736-6.617 1.273.32 2.486-.014 3.689-.368zm54.106-262.298c-3.209.87-6.463 1.32-9.726 1.966.285-2.096.703-4.192.71-6.316 2.856 1.744 5.891 3.169 9.016 4.35zm-30.278-21.207c6.858-1.43 14.119-.909 20.599 1.811 2.225.74 5.23 2.671 7.541 1.777-1.715 5.445.444 11.054 2.677 16.009-5.124-1.711-9.636-4.719-14.3-7.357 1.746-2.302-14.14-5.092-15.864-5.031-.49-2.38-1.072-4.741-1.584-7.118.285.107.64-.036.93-.091zm35.437 2.575a.2.2 0 01.076.109c6.712.931 13.453 3.989 20.345 3.102 4.657-.602 2.513 2.064-.589 1.964-6.997.701-13.484-3.439-19.994-4.851l.162-.324zm3.663-45l-.048.22a.76.76 0 01-.21-.026c-.045-.044-.087-.088-.131-.133.128-.036.259-.058.389-.061zm47.311 336.463c-.096-1.626-.948-3.255-2.168-4.348.814-3.337-.816-7.588-4.297-9.024-.947-1.553-3.001-2.236-4.485-3.343 1.245-.077 2.386-.964 1.431-1.92-2.023.615-3.979 1.444-5.905 2.275-.519.109-1.756 1.141-1.852.22.365-.733 3.19-1.473 4.111-1.982-.683-.432-1.367-.865-2.046-1.3 1.208-.03 2.759-.938 1.576-1.967-3.189.71-6.505 1.336-9.315 2.953-2.318-.577 4.431-2.645 5.055-2.743a37.115 37.115 0 01-3.048-2.29c1.056-.02 3.259-1.084 1.851-2.034-1.773-.457-4.236 1.008-5.996 1.477h-.002a97.058 97.058 0 00-3.941 1.572c-.526.222-.749-.504-.23-.724 2.022-.852 4.069-1.659 6.161-2.355-.57-.622-1.107-1.27-1.645-1.919.142-1.019-.908-1.914-1.298-2.835.083-.471-.154-1.212-.712-1.309-.445-.431-1.116-.46-1.735-.362-.982-1.89-1.83-4.834-2.141-7.181 2.602-.348 5.622-.358 7.872-1.797.669-.041 1.337-.527 1.356-1.335.065-2.913-.222-5.783-.481-8.682a816.159 816.159 0 01-.728-8.69c-3.84-46.486-3.149-93.216.504-139.69.39-5.448.585-11.021-.319-16.431 1.122-.347 5.316-1.071 4.993-2.592 3.64-9.278-1.743-33.043-5.701-42.381 2.946-.172 6.482-.805 8.416-3.236 1.863-.658 2.516-2.845 3.444-4.42 1.998-4.198 3.292-8.923 2.787-13.597 2.062-.548-.495-6.219-.723-7.747-3.42-11.293-7.338-22.525-12.474-33.16-1.832-3.888-5.046-6.96-8.977-8.677-4.728-2.064-9.478-4.199-14.422-5.709.03-.843-.851-1.173-1.452-.868a1.672 1.672 0 00-.115-.035c-.608-.144-1.528.094-2.018.602-1.602-2.35-2.017-5.323-2.608-8.084-2.383 2.496-.182 10.85 3.529 11.57-2.418 17.457-22.685 13.315-28.853.594-1.338-2.457-2.24-4.874-3.575-7.375 3.852.79 7.792-1.34 9.188-5.038.287-.6.535-.934 1.063-1.309.65-.461.484-1.635-.433-1.605-3.618.813-1.242 6.58-10.041 7.59-.319-.493-.695-.96-1.09-1.2-.168-.185-.696-.237-.981-.025-6.621.398-13.08 2.074-19.43 3.879-5.454 1.342-11.173 4.259-12.523 10.2-2.585 9.447 1.538 56.399 8.655 62.204 1.174 1.137 2.582 1.919 4.107 2.47-1.46 10.441-3.734 20.815-5.671 31.191-.145 1.789-3.248 11.72.69 10.086l.323.151c-.232.475-.451.956-.663 1.442-.68 1.561-1.222 3.139-1.47 4.83-.258 1.758-.309 3.535-.387 5.308-.03.658-.053 1.307-.061 1.95-.761 6.223-.746 12.574-.807 18.826-3.441 23.634-8.381 47.09-11.19 70.849-3.415 25.382-6.125 50.868-7.7 76.434-.054 1.174 1.304 1.405 1.964.755.094.027.19.052.284.078.002 1.026-.086 2.054-.205 3.072-.226 1.485-1.924 5.221-1.496 6.568-1.546-.215-4.035.101-4.484 1.369-1.77 2.254-1.656 5.329-3.757 7.374 2.022.443 4.03 1.037 5.992 1.66.405.218.16.812-.353.658-1.089-.325-2.18-.661-3.278-.966v-.001a38.25 38.25 0 00-3.208-.761c-.037.03-.024.096.022.123-.772.599-1.65 1.12-2.53 1.621.568.125 8.106 2.144 5.85 2.777-2.186-.907-4.465-1.774-6.83-2.224-1.023.579-2.023 1.184-3.034 1.779.488.103 8.614 1.869 5.798 2.38-2.184-.795-4.449-1.329-6.73-1.827-2.797 1.663-5.6 3.322-8.36 5.033-1.154.712-2.41 1.397-3.151 2.468-.985 1.423-.997 3.199-.32 4.826-1.976 8.515 1.511 8.845 9.64 10.632 11.521 2.952 21.514-4.127 31.527-7.973 2.09-.981 4.403-1.717 6.277-3.009 1.77-1.261 2.937-3.911 1.316-5.728 1.12-2.097-.376-7.236-.734-9.693-.295-1.549-.493-4.048-2.793-4.128.615-.4.595-1.151.39-1.757-.269-2.975.655-8.259.877-11.619 1.758.127 4.366.643 5.278-1.308.352-.562-.102-1.167-.678-1.244v-.003c.123.01.089-.004.006-.024 9.321-38.507 15.332-77.958 28.783-115.352 3.079-7.222 4.45-16.537 11.33-21.199.094.583.193 1.254.559 1.674l.06.226c.24.938.51 1.868.75 2.808 5.382 41.461 11.597 82.835 14.583 124.574.453 1.933-.283 8.814 2.42 8.504.335.189.772.28 1.134.37-.559 2.48-.402 6.227-.385 8.489-.039 2.259-.412 4.6-.16 6.838.289 1.471 3.038.585 2.589-.894-.063-4.24-.319-9.472-1.047-14.18 4.213.823 8.53 1.023 12.821.825-.23 2.486.505 5.595 1.361 7.634-2.568.863-5.056 2.025-7.041 3.778-1.88 1.709-3.608 5.629-6.922 4.334-.919-.409-1.925-1.118-2.242-2.033-.307-.229-.147.322-.087.454l-.124.043c-.763-.487-2.163 4.561-2.28 5.191-.586 2.702-1.264 5.781.122 8.308-2.978 1.237-2.657 5.263-.449 6.949 8.767 5.683 23.385 10.322 34.265 11.1 1.925.134 3.952-.431 5.783-1.038a146 146 0 006.442-1.868c1.874-.431 3.286-2.04 3.052-3.797z" fill="#000"/><path fill-rule="evenodd" clip-rule="evenodd" d="M102.532 14.372c8.158 0 20.101 5.466 20.999 10.724 1.059 6.197 3.41 29.498 2.13 37.123-1.281 7.626-6.271 13.26-17.306 13.26-11.036 0-19.272-6.037-21.164-8.11-1.26-1.382-2.655-4.223-4.183-8.523-4.027-.685-6.05-2.638-6.07-5.86-.018-3.22.993-5.328 3.036-6.324-1.102-13.362-.495-21.698 1.821-25.007 3.475-4.965 12.578-7.283 20.737-7.283z" fill="#FFDBB4"/><path fill-rule="evenodd" clip-rule="evenodd" d="M99.844 3.093l.331.002c1.5.025 3.012.08 4.517.205l.213-.02c2.834-.273 5.663-.028 8.495.092 2.699.114 5.548.393 7.971 1.69.311.165.575.355.801.565.316.045.617.135.887.286.78-.159 1.651.192 1.835 1.1.269 1.33.371 2.672.21 4.022l-.011.099c.326 1.252.304 2.619.033 3.854.114 1.56.179 3.124.188 4.686.006 1.08.055 2.18-.046 3.257-.087.947-.476 1.697-1.088 2.416-.115.135-.31.158-.472.125a.615.615 0 01-.111-.034c.369.793.66 1.634.959 2.437.473 1.277.933 2.576 1.259 3.9a54.707 54.707 0 011.35 8.123c.446 4.87.615 9.783.701 14.673.083 4.633-.323 9.464-2.955 13.425-2.3 3.466-5.803 5.981-9.705 7.339-2.219.774-4.678 1.06-7.023 1.131a27.243 27.243 0 01-3.63-.14c-1.168-.123-2.377-.11-3.23-.998-.234-.244-.231-.744.114-.903.66-.3 1.107-.333 1.83-.233a26.71 26.71 0 005.692.183c2.376-.183 4.808-.856 6.966-1.877 3.384-1.603 6.29-4.23 7.86-7.676 1.824-4 1.705-8.634 1.621-12.932-.094-4.714-.267-9.413-.675-14.11-.198-2.278-.504-4.54-.78-6.807a49.53 49.53 0 00-.571-3.595c-.124-.63-.284-1.251-.417-1.877a2.44 2.44 0 01-.294.029c-.601.02-1.258-.127-1.703-.555-.171.117-.388.19-.65.203-2.47.123-4.978-.029-7.453-.03-2.483-.002-4.967 0-7.452.007-2.482.007-4.97.03-7.45-.036-2.31-.062-4.697-.011-6.976-.435-.765 2.73-.738 5.73.858 8.168.451.688.085 1.498-.503 1.928-.6.438-1.68 1.11-2.604 1.18-.09.2-.182.401-.27.602-.44 1.008-.837 2.022-1.115 3.09-.144.55-.267 1.108-.37 1.67.008.1.017.198.027.296l.003.032.017.112c.053.283.105.565.161.846.134.685.237 1.375.31 2.069.134 1.268.121 2.917-1.112 3.668-.66.402-1.45.36-2.147.09-.468-.18-.866-.437-1.297-.69-.256-.15-.523-.272-.773-.428a1.525 1.525 0 01-.197-.15c-.467.1-.923.286-1.178.413-.686.341-1.288.836-1.8 1.404-1.087 1.21-1.413 2.913-1.261 4.494.142 1.472.718 3.163 1.878 4.142a2.742 2.742 0 001.8.668c.327-.003.629-.072.945-.155.311-.083.697-.058.984-.173.427-.172.953.351.779.781-.131.323-.206.608-.37.86a65.406 65.406 0 003.88 5.65c1.25 1.631 2.722 3.003 4.113 4.498.613.66.87 1.96-.242 2.243-1.108.284-1.935-.91-2.572-1.635-2.637-3.008-4.63-6.462-5.562-10.36-.421.3-.904.462-1.413.533a4.573 4.573 0 01-2.925-.575c-3.363-1.948-4.176-7.21-2.601-10.509.38-.794.94-1.503 1.624-2.053a.483.483 0 01-.04-.355c.06-.227.127-.453.198-.677a.197.197 0 01-.122-.21c.063-.648.124-1.297.186-1.946-.021-.98-.069-1.959-.057-2.945.017-1.57.112-3.14.118-4.712.018-5.48.24-10.955.257-16.435.008-2.68.014-5.364-.056-8.042l-.003-.107c-.058-2.143-.624-5.012 1.466-6.398.343-.228.771-.23 1.145-.084 1.075-.75 2.422-1.113 3.712-1.322 2.455-.398 4.933-.59 7.405-.842a32.493 32.493 0 013.948-.152c1.313.029 2.644-.091 3.966-.07l-.331-.003zm-19.587 47.97c.47-.448 1.171-.344 1.748-.237.801.148 1.58.5 2.256.951.727.486 1.625 1.16 1.768 2.08.131.846-.708 1.779-1.572 1.212-.8-.526-1.19-1.49-1.878-2.15a8.1 8.1 0 00-1.089-.867c-.175-.118-.348-.249-.539-.34-.018-.008-.806-.265-.654.074.052.112-.083.238-.18.138-.272-.278-.12-.612.14-.86z" fill="#000"/><path fill-rule="evenodd" clip-rule="evenodd" d="M114.542 60.945c.222-.384.73-.74 1.195-.686 2.085.245 2.081 2.775 1.276 4.252-.714 1.31-2.191 2.079-3.67 1.967-1.552-.118-2.876-1.032-3.459-2.487-.385-.962-.563-2.739.461-3.385.02-.012.051-.01.066.008.492.573.511 1.431.941 2.069.401.592 1.022 1.081 1.75 1.157.543.056 1.093-.14 1.307-.629.114-.264.101-.408.058-.59l-.039-.158c-.137-.553-.198-.975.114-1.518zm.557-11.097c1.088.662 2.745 2.205 1.575 3.845-1.377 1.446-3.36-.212-4.336-.962-.906-.581-1.924.913-1.084 1.592 7.06 5.232 9.925-4.302 4.396-5.253-.609-.105-.836.573-.551.778zm-11.482-4.537c.667-1.002 2.191-.855 2.558.335.2.644-.075 1.223-.061 1.867.012.543-.024 1.15-.191 1.675-.379 1.2-1.458 2.049-2.733 2.014-1.272-.035-2.392-.841-2.926-1.976-.534-1.14-.42-2.318-.031-3.477.019-.055.092-.082.136-.035.461.49.799 1.008 1.148 1.558l.359.563c.273.424.671.966 1.182.932l.077-.008c.141-.012.12.016.229-.177.051-.09.042-.257.067-.363l.008-.035-.004-.02a2.322 2.322 0 01-.031-.315l-.002-.037c-.037-.783-.258-1.79.215-2.5zm16.918.667c-.119-1.282 1.681-1.566 2.279-.618.313.495.404 1.116.473 1.705l.032.28c.072.604.099 1.233-.163 1.797-.413.889-1.311 1.358-2.28 1.284a2.778 2.778 0 01-2.215-1.423c-.396-.728-.79-2.148-.309-2.906a.083.083 0 01.128-.017c.455.405.529 1.143.799 1.67.28.544.704 1.074 1.345 1.156.615.08.849-.257.692-.843-.202-.756-.705-1.27-.781-2.085zm-16.432-8.289l.294-.113c1.009-.381 2.394-.822 3.215 0a1.52 1.52 0 01.241 1.87c-.438.748-1.223.766-1.981.877-.862.125-1.739.363-2.541.703-.904.383-1.743.86-2.565 1.394-.782.506-1.56 1.335-2.496 1.49-.038.007-.081-.01-.091-.051-.213-.916.378-1.816.904-2.53.638-.865 1.41-1.575 2.273-2.21.833-.615 1.785-1.059 2.747-1.43zm18.327 3.255l.089-.016c.612-.102 1.167-.079 1.628.406.352.37.487.85.319 1.34-.155.45-.5.909-1.003 1.004-1.696.319-3.575.266-5.28.024-.779-.11-1.567-.246-2.326-.46l-.35-.101c-.634-.181-1.36-.37-1.821-.838-.165-.167-.07-.408.129-.485.803-.315 1.905-.148 2.762-.172a40.008 40.008 0 002.988-.207c.97-.1 1.908-.32 2.865-.495z" fill="#000"/></svg>