<svg width="392" height="501" fill="none" xmlns="http://www.w3.org/2000/svg"><path fill-rule="evenodd" clip-rule="evenodd" d="M31.186 320.946c1.605-3.63-.738-7.251-2.038-10.763-4.617-12.18 8.012-42.9 16.845-43.349 3.23-6.887 11.85-9.744 18.636-13.71 7.7-3.96 15.19-8.509 23.198-11.981.445-3.28 5.272-4.093 8.224-1.747 8.108-4.156 17.83-3.384 26.521-6.107 6.603-8.796 7.099-18.045 8.847-26.53.762-3.699-.047-7.268 3.02-10.566 10.303-11.942 51.015-17.119 66.025-10.043 8.08-4.152 8.274 3.368 9.558 8.01 1.426 2.322 2.198 4.952 1.959 7.723 3.825 6.584 7.069 14.819 15.107 19.736 10.201 6.239 25.894 8.611 35.839 11.67 1.487-1.179 2.458-2.621 2.913-4.326 15.413 2.761 30.372 7.615 43.285 15.194 14.672 3.536 25.004 13.369 32.476 23.912.823 1.112 1.017 2.245.777 3.286 22.976 27.753 33.942 60.979 35.482 94.537 14.775 7.307-7.023 72.95-12.097 86.578l-.015-.005c-3.292 4.802-7.03 18.507-15.269 17.447-5.651 5.265-14.658 4.23-22.327 4.635 1.249 3.948.635 8.466-.851 12.367-1.759 4.645-10.387 4.802-11.611-.261-76.373 12.227-154.735 2.471-231.966 4.306-22.33.131-44.658.7-66.934 2.011-3.137.184-6.317-2.457-6.104-5.03 4.79-41.989 9.287-97.226 14.643-138.804 1.27-9.482 2.275-19.068 5.857-28.19z" fill="#EDB98A"/><path fill-rule="evenodd" clip-rule="evenodd" d="M265.84 228.963a8.175 8.175 0 01-.08.279l.292.546c1.85 3.517 2.775 6.429 2.775 8.736 0 5.259-28.407 57.306-91.428 52.523-42.014-3.188-67.623-18.917-76.827-47.186l-.539-6.108a27.413 27.413 0 00-3.982 1.643c-2.951-2.346-7.779-1.533-8.224 1.747-8.008 3.472-15.498 8.021-23.198 11.981l-.47.272c-6.708 3.828-15.01 6.709-18.166 13.438l-1.264.066c-8.434.456-20.198 31.103-15.58 43.283 1.299 3.512 3.642 7.133 2.037 10.763-3.582 9.122-4.587 18.708-5.857 28.19-5.356 41.578-9.853 96.815-14.643 138.804-.213 2.573 2.974 4.794 6.104 5.03 64.809 4.898 308.752 1.114 310.511-3.53 1.486-3.902 2.1-10.945.851-14.893 7.669-.405 16.676.63 22.327-4.635 8.239 1.06 11.977-12.645 15.269-17.447l.015.005c5.074-13.628 26.872-79.271 12.097-86.578-1.54-33.558-12.506-66.783-35.482-94.537.23-.998.062-2.08-.677-3.147l-.1-.139c-7.472-10.543-17.804-20.376-32.476-23.912-12.913-7.579-27.872-12.433-43.285-15.194zM79.196 316.826c3.298-2.108 29.213 2.108 48.045 5.897 12.555 2.525 21.3 5.94 26.237 10.245l22.099 19.988 5.592 2.979c0 6.222-.431 12.766-1.293 19.631-.863 6.865-4.665 14.13-11.405 21.794-19.862-4.497-31.739-7.049-35.63-7.656-5.836-.91-10.459-8.806-13.202-11.52-2.744-2.715-13.264-3.017-21.28-5.108-5.344-1.394-9.061-4.955-11.15-10.682-11.681-2.078-19.403-3.463-23.165-4.157-3.763-.693-3.763-2.454 0-5.281l43.744-1.262c-17.46-3.074-28.06-4.823-31.799-5.247-5.61-.635-20.679-4.49-20.679-7.477 0-2.928 22.94-2.875 35.168-2.871h.984c8.028.013 20.826.633 38.394 1.86l-10.217-4.033c-23.053-3.678-36.116-5.517-39.19-5.517-3.074 0-5.252-1.896-6.533-5.686 1.321-2.526 3.081-4.492 5.28-5.897z" fill="#FFCF77"/><path fill-rule="evenodd" clip-rule="evenodd" d="M107.497 317.525l-22.448-41.9c-2.261-4.746-5.312-7.119-9.151-7.119-3.84 0-23.168.449-57.985 1.348-7.125.749-9.538 2.673-7.237 5.771 2.3 3.099 20.557 33.478 54.768 91.138h21.764v-4.369l-24.23-5.583c-2.94-2.57-2.118-3.855 2.466-3.855s20.21-.421 46.88-1.262l-38.145-4.612-18.869-5.98 2.776-3.143 16.093-1.895 52.41 1.895-14.265-3.975-31.875-5.575c-4.18-2.426-6.27-4.828-6.27-7.206 0-2.379 5.598-4.026 16.795-4.94l16.523 1.262z" fill="#fff"/><path fill-rule="evenodd" clip-rule="evenodd" d="M208.762 188.742c-.219-.493-1.112-.427-1.129.126-.351 11.806 3.215 26.233 14.68 34.207 5.885 4.094 13.665 5.968 20.81 8.12l.806.245 12.624 3.875c3.348 1.028 6.96 2.609 9.917 1.157-2.393 4.891-4.402 9.916-7.317 14.629a74.665 74.665 0 01-13.383 16.117c-21.269 19.342-54.929 25.242-85.136 19.574-15.554-2.918-30.69-8.449-41.302-18.537-8.065-7.668-12.699-17.959-13.79-28.11.319.042.653.04.997-.022 3.822-.687 7.68-2.375 11.043-4.031l.324-.16c3.236-1.605 6.609-3.445 8.931-5.939 1.537-1.651 3.113-5.169 4.727-10.555.659-3.037 1.277-9.086 1.172-12.155-.01-.289-1.569-.46-1.736-.159-1.44 2.605-1.906 8.33-3.018 11.042l-.225.541c-1.187 2.832-2.206 6.28-4.668 8.57-4.622 4.299-11.596 6.119-17.821 8.275-.447-4.859-9.864-4.746-9.745.321.007.275.022.549.033.823-.742.336-1.457.721-2.124 1.092l-.652.365c-2.466 1.382-4.95 2.695-7.576 3.868-5.083 2.27-10.464 4.07-15.672 6.131-5.27 2.085-10.197 4.57-14.798 7.543a73.781 73.781 0 00-6.198 4.463l-.533.434c-1.871 1.535-4.305 3.252-5.371 5.269-.235.445-1.412 1.48-2.05 1.514-9.896.535-19.77 1.29-29.604 2.421-2.545.293-3.552 1.375-2.61 3.123 3.233 6.009 15.893 30.006 19.26 36.446-.394 4.732.137 10.302-.217 15.034a487.408 487.408 0 01-2.01 20.697c-2.912 24.635-7.325 49.15-11.312 73.678-1.996 12.275-3.816 24.568-5.612 36.864a373.896 373.896 0 00-2.937 26.48l-.17 2.309c-.234 2.906-.775 5.68 1.407 8.174.99 1.132 3.25 1.769 4.55.484 1.635-1.616 2.243-2.823 2.4-4.945.119-1.625.147-3.257.237-4.883.194-3.525.438-7.048.724-10.57a813.43 813.43 0 011.976-21.104c2.644-24.642 7.669-49.098 11.012-73.68 1.686-12.392 2.883-24.808 3.517-37.268a296.83 296.83 0 00.357-18.674 97.304 97.304 0 00-.355-6.952 635.585 635.585 0 0015.78 27.827l1.305 2.17c3.489 5.791 7.072 11.605 11.265 17.065l.72.93c1.7 2.218 4.02 5.715 7.118 6.415 2.157.488 4.794.144 7.007.109 2.195-.034 4.393-.042 6.587-.115 2.461-.082 4.81-.348 7.188-.877a9.387 9.387 0 001.11-.303c2.396 3.231 6.467 5.692 10.63 7.126 3.334 1.148 6.829 1.936 10.329 2.664l1.236.256c3.752.77 8.045 1.136 10.162 4.123l.491.692c1.574 2.203 3.084 4.138 5.688 5.717 2.803 1.701 6.124 2.77 9.433 3.602 3.387.852 6.854 1.504 10.293 2.203l.937.192c2.271.468 4.562.898 6.819 1.408.963.217 1.943.441 2.888.708 1.106.314 1.91.803 2.783 1.335.784 2.258 4.137 3.484 6.894 3.327 1.448-.083 2.746-.488 3.928-1.081 2.063 1.447 4.334 2.743 6.436 4.083a950.36 950.36 0 0027.416 16.833c11.074 6.536 22.388 12.772 33.896 18.778 4.798 2.504 9.628 5.004 14.506 7.444l-.52.159-1.033.321c-2.441.751-5.16 1.964-5.633 4.311-.375 1.861.887 3.143 3.116 3.371 2.65.269 4.713-1.274 6.363-2.746.728-.65 1.543-1.253 2.241-1.922.284-.273.503-.588.695-.918 4.814 2.337 9.679 4.596 14.621 6.709l1.237.525c12.255 5.164 24.184 10.822 36.544 15.839 3.224 1.309 7.154 2.725 11.252 3.691-1.087 3.473-1.071 7.286-1.098 10.81-.026 3.435 6.598 3.419 6.458 0l-.067-1.651c-.121-2.776-.318-5.657-1.117-8.359 12.072 1.65 24.132-1.935 26.378-3.012 2.478-1.188 4.728-3.088 6.6-4.851 4.007-3.774 6.787-8.297 9.254-12.848 5.283-9.745 9.027-20.162 11.764-30.58 10.09-38.409 5.75-79.518-10.636-116.337a204.107 204.107 0 00-14.466-26.866l-.688-1.072c-5.527-8.575-11.669-17.117-19.472-24.413-8.127-7.601-18.153-13.511-29.069-18.099-5.327-2.239-10.808-4.18-16.411-5.899-.9-.277-1.806-.525-2.714-.761-5.838-3.067-12.924-6.001-20.012-5.886-.481.007-.871.158-1.162.385-.342.049-.684.109-1.026.191-.755.18-1.553.862-1.445 1.563l.037.233c.02.114.045.224.088.332-.253.031-.502.08-.745.149-6.782-1.578-13.454-3.992-20.072-5.939l-1.507-.438c-5.543-1.601-11.229-3.17-15.776-6.337-4.523-3.152-7.924-7.233-10.383-11.646-3.03-5.437-4.386-11.326-6.874-16.907zM72.987 475.475c-1.343-.823-2.93.132-3.433 1.151-1.65 3.343-.835 8.539 1.49 11.496 2.41 3.063 8.177 1.854 8.317-1.857.145-3.869-2.584-8.465-6.374-10.79zm-13.87-92.329c-.12-.435-.94-.431-1.062 0-1.118 3.923-1.092 8.149-1.42 12.171l-.038.446a377.042 377.042 0 00-.961 13.329 1463.19 1463.19 0 01-1.638 26.223 1230.11 1230.11 0 01-.99 12.994 33.894 33.894 0 00-3.413-1.343c-1.763-.587-3.48-.654-5.374-.638-2.307.019-4.044 1.691-3.738 3.554.333 2.028 2.5 2.897 4.75 2.607 2.492-.321 4.995-.819 7.511-1.025-.28 3.348-.57 6.695-.877 10.041-.407 4.429-.937 8.853-1.31 13.284-.036.423-.074.846-.114 1.271-1.5-.643-3.093-.972-4.9-1.378l-.469-.108c-2.622-.621-5.427-1.479-7.854-.026-1.63.977-1.957 2.584-.605 3.873 2.048 1.954 5.08 1.575 7.91 1.476l1.523-.046c1.435-.047 2.759-.122 4.085-.421-.244 2.887-.372 5.784.058 8.629.232 1.537 2.688 1.941 3.338.372 1.698-4.099 2.05-8.519 2.67-12.812.581-4.009.934-8.048 1.314-12.076l.115-1.208a667.016 667.016 0 002.038-26.604c.5-8.877.8-17.753.92-26.639a199.14 199.14 0 00-.218-12.119l-.061-1.21c-.22-4.149-.067-8.552-1.19-12.617zm224.415 92.983c-.065-.567-.616-1.272-1.436-1.184-.755.081-1.533.043-2.281.145-.986.135-1.779.615-2.697.917-1.49.491-3.115.745-4.645 1.147-2.87.755-4.433 3.244-3.245 5.569 1.25 2.444 4.39 2.998 7.103 1.973 2.139-.808 3.733-2.1 5.171-3.596l.408-.426c.62-.642 1.323-1.359 1.583-2.137.253-.759.128-1.637.039-2.408zM144.111 464.64c-3.574-.415-6.627.592-9.934 1.541l-.269.077c-3.366.957-8.277 1.62-10.003 4.459-1.04 1.712-.232 3.986 2.217 4.492 3.88.802 7.358-1.534 10.565-3.107l.169-.082c3.096-1.495 6.291-2.751 8.268-5.329.528-.687.07-1.925-1.013-2.051zm124.775-234.242c1.432.265 2.864.498 4.295.723 5.441 2.403 10.723 4.897 16.341 7.039 5.961 2.272 11.9 4.618 17.562 7.367 11.44 5.553 20.87 12.773 28.662 21.623 13.46 15.287 23.473 32.917 30.638 50.805a185.888 185.888 0 014.946 13.93c-2.577-1.964-5.627-3.171-9.049-4.205-1.45-.439-3.254.303-3.989 1.337-.331.465-.517.925-.483 1.47.076 1.202 1.026 2.569 2.594 2.807 3.655.555 7.209 1.636 10.733 2.587.535.144.994.09 1.36-.08 3.499 12.212 5.688 24.676 6.463 37.215a163.672 163.672 0 01-1.175 31.915c-1.097-.406-2.169-.787-3.371-1.017a63.982 63.982 0 01-4.614-1.073c-4.389-1.187-6.391 4.784-1.905 5.694 1.669.339 3.349.62 5.05.826 1.483.179 2.794.1 4.192-.088a168.661 168.661 0 01-4.384 19.652l-.41 1.416c-2.414 8.267-5.226 16.61-9.294 24.422a42.265 42.265 0 01-7.899 10.667c-1.603 1.571-3.382 2.918-5.321 4.194-1.615 1.063-7.104 3.367-13.605 3.367s-8.261-.507-11.541-1.438c-6.487-1.839-12.645-4.776-18.728-7.392l-.63-.27a822.35 822.35 0 01-8.042-3.484c.338-2.245-.253-4.131-1.673-6.205-1.534-2.243-5.337-1.126-5.62 1.168l-.009.088a10.07 10.07 0 01-.278 1.57c-17.871-8.066-35.362-16.698-52.575-25.692a1064.738 1064.738 0 01-32.868-17.903 761.65 761.65 0 01-16.064-9.382 839.812 839.812 0 01-8.296-5.049c-1.147-.707-2.272-1.449-3.421-2.16.28-.288.552-.575.815-.86 4.291-4.629 7.075-10.147 8.462-15.84.838-3.435 1.242-7.001 1.365-10.503l.055-1.523c.084-2.566.106-5.251-.467-7.737.781.354 1.578.7 2.374 1.072 2.853 1.332 5.709 2.661 8.569 3.983 5.728 2.648 11.473 5.265 17.291 7.777 10.392 4.486 20.886 8.754 31.663 12.579l5.244 1.862c9.102 3.226 18.277 6.394 27.74 8.792 5.337 1.352 13.34 3.026 18.754 4.058-4.349 3.377-4.95 5.647-1.802 6.809 4.722 1.743 8.634-4.942 8.789-5.548 1.663.287 4.868.777 9.616 1.47 6.768 1.076 13.33 3.207 19.38 5.935 2.103.948 2.689-.894.461-2.177-6.516-3.754-14.116-5.878-21.957-7.66l-.385-.087a489.17 489.17 0 01-8.614-2.028c.315-.939.497-1.914.46-2.988-.08-2.395-.337-4.797-.491-7.19a470.801 470.801 0 00-1.222-15.039 217.293 217.293 0 00-.632-5.802c1.536-.679 2.862-1.58 4.575-2.023l.289-.07c1.833-.407 1.214-2.353-.414-2.519a15.903 15.903 0 00-4.395.176c-.225.04-.438.085-.641.136a137.493 137.493 0 00-.9-5.356c-.89-4.696-1.52-9.644-3.373-14.156-.137-.334-.739-.453-.962-.103-2.696 4.225-2.79 9.409-3.093 14.114l-.038.562c-.358 5.134-.378 10.318-.263 15.458.119 5.298.339 10.582.627 15.875.116 2.131.112 4.342.552 6.381-16.04-4.297-31.797-9.441-46.9-15.531a993.106 993.106 0 01-31.657-13.399c-5.231-2.322-10.488-4.607-15.714-6.938a2698.12 2698.12 0 01-5.489-2.457l-2.743-1.233c-2.567-1.154-4.709-2.303-7.699-2.383a3.212 3.212 0 00-2.258.84c-1.607-.939-3.463-1.515-5.412-1.502-2.934-3.339-5.912-6.651-9.009-9.89l-2.288-2.399c-3.96-4.138-8.155-8.339-13.204-11.489-2.254-1.405-4.733-2.459-7.318-3.331a4.188 4.188 0 001.734-.774c2.469-1.887 2.809-5.391 3.311-8.024.52-2.73.319-5.173-.195-7.895-.199-1.057-2.325-1.277-2.844-.306-1.093 2.048-2.251 4.011-3.246 6.082l-.293.625c-1.068 2.331-3.343 4.784-3.193 7.313.041.693.323 1.297.758 1.783-2.17-.594-4.371-1.123-6.538-1.675-6.822-1.737-13.669-3.425-20.622-4.773a197.62 197.62 0 00-5.579-.997c-.978-3.828-2.404-7.585-4.085-11.275 1.592-.672 2.622-1.798 3.993-2.801 1.283-.938 2.164-2.081 3.259-3.158.996-.98.436-2.751-1.354-2.694l-.507.018c-1.855.071-3.652.229-5.334.942l-.599.255c-.822.351-1.722.754-2.523 1.23a229.927 229.927 0 00-3.237-5.9l-1.429-2.518c-3.704-6.553-7.397-13.356-12.047-19.458-2.068-2.713-4.819-4.407-8.767-4.669-4.067-.27-8.294.078-12.366.198-4.72.14-9.44.305-14.155.509 1.208-1.043 2.312-2.205 3.526-3.206a70.43 70.43 0 016.382-4.689c4.43-2.879 9.3-5.252 14.358-7.294 5.06-2.044 10.267-3.825 15.017-6.349 3.005-1.598 5.692-3.608 8.143-5.782 1.542 13.715 9.579 26.457 21.653 36.031 12.541 9.943 29.872 15.405 46.825 17.729 17.292 2.37 35.34 1.5 51.882-3.453 8.53-2.554 16.71-6.203 24.006-10.78.08.398.176.792.366 1.162.254.497.565.92.922 1.357l.636.766c.401.482.81.96 1.265 1.407 1.102 1.082 2.665 1.555 4.347 1.55 3.223-.008 5.663-2.612 4.795-5.187-.544-1.618-1.71-2.592-3.531-3.225a29.51 29.51 0 00-1.751-.533l-.443-.124c-.596-.168-1.187-.328-1.8-.421 3.454-2.513 6.659-5.245 9.529-8.193 9.003-9.247 17.882-22.197 14.872-34.477-.052-.21-.282-.343-.53-.377-.175-.862-.732-1.695-1.494-2.256.513-.111 1.03-.197 1.55-.256zm-93.478 212.316c-1.783-.817-3.625 1.125-2.176 2.324l2.163 1.783c2.008 1.663 3.962 3.343 5.68 5.238l.416.463c2.32 2.6 4.794 5.614 8.595 6.586 4.597 1.175 9.015-3.44 6.353-6.811-2.326-2.945-6.804-4.057-10.665-5.275-3.653-1.152-6.952-2.743-10.366-4.308zm148.309-13.594c-1.048-1.13-3.779-.535-3.064 1.064 2.325 5.192 3.272 12.273 9.142 15.723 1.894 1.112 4.868.601 6.428-.684 1.771-1.46 1.842-3.516.829-5.297-1.236-2.172-4.275-3.748-6.406-5.403l-.191-.15c-2.292-1.835-4.771-3.131-6.738-5.253zm-245.336 5.976c-1.87-.664-6.743-1.956-8.187-.427a.926.926 0 00-.171.184c-.354.508-.407 1.223 0 1.726 1.682 2.084 3.435 3.64 5.827 5.123l.269.164c2.605 1.578 5.051 3.431 8.225 4.143 4.399.987 7.47-3.552 4.382-6.202-2.49-2.135-6.289-3.243-9.586-4.434l-.76-.277zm176.644-29.67c.736-1.095-.767-2.44-2.129-1.754-3.884 1.956-8.408 3.423-12.771 4.478-1.765.426-3.358 1.901-3.227 3.492l.021.241c.052.562.146 1.121.579 1.588 1.52 1.637 3.693 2.268 6.014 1.299 5.173-2.16 8.714-5.175 11.513-9.344zm-113.518-3.318c.095-.461-.314-.817-.883-.728-3.282.513-6.314 1.819-9.132 3.321-1.512.805-2.97 1.69-4.478 2.503-1.863 1.004-2.561 1.834-2.836 3.677-.182 1.216 1.197 2.327 2.461 2.663 3.445.916 7.392-2.088 9.726-4.04l.105-.088c2.443-2.052 4.458-4.479 5.037-7.308zm-98.582-3.188c.748-1.665-1.83-3.046-3.516-2.228-1.588.77-3.31 1.408-4.809 2.29-1.376.811-2.631 1.772-3.951 2.651l-.652.426c-2.421 1.603-6.417 5.569-2.956 7.87 3.295 2.19 7.662-.607 9.873-2.651l.155-.145c1.272-1.211 2.84-2.526 3.763-3.941.869-1.331 1.458-2.859 2.093-4.272zm32.487-128.884c4.125.66 5.807 4.857 7.545 7.592 4.1 6.456 7.871 13.03 11.659 19.612 1.165 2.025 2.3 4.065 3.446 6.102.07.159.16.316.266.472 2.347 4.163 4.763 8.299 7.588 12.251a153.749 153.749 0 00-7.792-1.006c.132-2.024-1.55-4.732-2.382-6.436l-.069-.143c-1.037-2.184-2.124-5.623-4.794-6.756-.89-.377-1.841.096-1.91.903-.202 2.403 2.65 5.153 4.044 7.193a145.157 145.157 0 012.466 3.726c.3.469.551.929.86 1.343-1.346-.12-2.693-.227-4.043-.305l-.88-.05c-5.006-.272-10.323-.349-14.846 1.685-4.196 1.887-6.341 5.915-4.036 9.582 2.872 4.569 9.197 5.175 14.759 5.545 6.946.462 13.909 1.296 20.806 2.109 7.135.841 13.853 3.008 20.881 4.122.654.104 1.061-.601.461-.902-5.544-2.781-12.283-4.311-18.482-5.87l-.501-.126c-3.362-.851-6.648-1.823-10.126-2.306a193.038 193.038 0 00-10.178-1.137l-.331-.025c-3.75-.259-13.315-.17-12.91-4.745.267-3.027 6.24-3.55 8.965-3.586 12.5-.165 25.088 2.568 36.967 5.498l2.652.655c4.864 1.206 9.734 2.447 14.507 3.86 5.408 1.602 9.669 4.1 13.608 7.518 4.368 3.791 8.598 7.667 13.129 11.33a477.925 477.925 0 008.666 6.826c.659.703 1.186 1.468 1.551 2.46.617 1.675.475 3.233.242 4.954-.587 4.347-.717 8.739-1.453 13.073-.682 4.014-1.636 8.176-3.659 11.9a21.6 21.6 0 01-3.031 4.219l-.958 1.026c-.418.446-.885.934-1.376 1.393a3.648 3.648 0 00-2.972-1.077c-2.574.25-4.597.19-7.121-.297-1.954-.377-3.893-.819-5.838-1.227-3.82-.803-7.675-1.534-11.456-2.456l-.65-.161c-2.817-.712-5.635-1.604-7.98-3.103-2.725-1.742-3.563-4.255-5.581-6.428-4.31-4.64-13.622-4.543-19.927-5.814-5.359-1.079-10.515-2.783-14.223-5.987l-.217-.191c.165-.572-.102-1.217-.746-1.513l-.14-.064a1.81 1.81 0 00-.788-.16 14.991 14.991 0 01-.978-1.304c-.249-.378-.87-.1-.788.273.049.223.116.44.18.657-3.592-.761-7.537-.616-11.184-.614l-4.733-.013c-.819-.009-2.04-.042-2.148-.083l-.112-.041c-.295-.105.124.069-.082-.156-.227-.249-.45-.501-.67-.755a63.53 63.53 0 01-2.253-2.776c7.925 1.664 16.136 2.699 24.228 3.562 8.682.927 17.479 1.57 26.238 1.577 2.415.002 2.393-3.002 0-3.077-9.275-.292-18.502-.697-27.715-1.676a284.847 284.847 0 01-14.227-1.887 283.213 283.213 0 01-5.451-.913l-1.359-.244c-.852-.156-3.26-.379-4.435-1.029-.231-.327-.462-.653-.69-.979.112-1.147 3.65-.993 4.48-.995 2.351-.004 4.703.012 7.056.017 4.704.011 9.407-.023 14.112-.054 9.399-.063 18.834-.333 28.225-.002 2.28.08 3.477-2.933 1.224-3.726-9.947-3.499-20.99-4.26-31.611-5.336-5.586-.565-11.175-1.218-16.635-2.363l-1.35-.283c-3.43-.725-7.218-1.608-10.107-3.335 4.342-1.447 9.738-1.282 14.239-1.486l.344-.017a384.056 384.056 0 0118.928-.49c12.918-.015 25.839.362 38.743.867.324.013.39-.409.076-.465-13.263-2.384-26.742-3.533-40.314-3.71a382.921 382.921 0 00-18.96.221l-2.318.089c-5.385.191-11.36.242-15.865 2.922-.687.408-1.05.93-1.106 1.481-6.042-9.925-11.622-20.057-17.225-30.122-4.356-7.826-8.55-15.718-13.064-23.483l-1.462-2.512c-1.957-3.352-3.962-6.704-6.188-9.935 8.325-.917 16.697-1.554 25.073-2.041 7.633-.445 32.537-1.429 36.212-.842zm3.686 107.567c-.95-.435-2.404-.081-2.638.884-.174.718-.471 1.516-.471 2.251 0 .88.382 1.837.586 2.698.468 1.98 1.044 3.59 2.267 5.354.764 1.104 2.308 1.853 3.86 1.824 1.228-.023 2.317-.295 3.16-1.079 1.01-.939 1.704-2.32 1.15-3.584-1.452-3.312-4.12-6.612-7.914-8.348zm201.369-3.305c-2.221-3.206-7.487-6.072-12.083-5.788-6.9.426-8.308 8.082-1.627 9.909 3.993 1.092 9.487-.029 12.98-1.826.942-.484 1.287-1.491.73-2.295zm70.916-10.954c.505-.604-.329-1.295-1.081-1.159-1.668.302-3.465.434-5.098.843-1.673.42-3.292 1.115-4.949 1.593-3.47 1.002-7.178 1.505-10.537 2.714-1.342.484-2.398 2.086-2.274 3.267l.031.277c.075.586.198 1.097.596 1.633 1.069 1.439 3.187 2.182 5.186 1.739 3.708-.82 7.331-2.929 10.493-4.681l.584-.32c1.382-.75 2.867-1.534 3.98-2.5 1.162-1.008 2.117-2.265 3.069-3.406zm-127.47-11.661c.427-1.267-1.486-2.104-2.601-1.248-2.228 1.71-4.557 3.296-6.739 5.05l-.146.119c-1.563 1.294-3.835 3.787-1.804 5.461 2.604 2.145 6.23-1.038 7.626-2.697 1.772-2.104 2.835-4.225 3.664-6.685zM53.437 341.209c3.305 2.885 8.397 4.211 12.88 5.309 5.315 1.302 10.792 2.08 16.274 2.72 5.297.617 10.554 1.17 15.768 1.879-3.944.04-7.887.064-11.822.123-4.537.067-9.072.148-13.609.257-3.303.079-7.18-.295-10.319.717a6.312 6.312 0 00-1.556.742 309.325 309.325 0 01-7.616-11.747zm203.843-26.974c-3.449-.903-6.693-2.101-10.35-1.79-.971.082-1.667.862-1.137 1.632 1.733 2.513 4.551 3.932 7.325 5.613l.244.149c3.036 1.861 6.296 3.556 9.598 5.084 5.685 2.628 10.779-4.895 5.038-7.103-3.454-1.329-7.083-2.633-10.718-3.585zm-62.102-6.532c-5.277.287-10.551.481-15.834.657-6.121.204-4.063 7.965 1.05 6.394 5.05-1.552 10.102-3.084 15.198-4.532 1.551-.44 1.427-2.54-.315-2.522l-.099.003zm135.351-13.807c-1.368-.079-2.748.167-4.117.277l-1.458.116c-3.004.247-5.821.551-8.686 1.558-5.287 1.859-2.448 8.863 2.86 8.702 3.922-.119 7.277-1.507 10.589-3.123 2.896-1.413 4.671-3.181 6.626-5.399.648-.735-.254-1.558-1.136-1.632-1.554-.131-3.124-.409-4.678-.499zM65.515 279.594c.875 4.499 3.047 8.715 6.319 12.386 1.644 1.844 4.531 1.914 6.16 0 2.306-2.709.885-5.811-.852-8.413l-.514-.761c-.778-1.142-1.972-2.808-3.337-3.959l-.023-.117c-.731-4.71-8.654-3.77-7.753.864zm213.441-28.869c-1.315-.976-3.738-.683-4.165.906-.598 2.226-.961 4.733-.57 6.992.212 1.224.291 2.599.876 3.74.628 1.227 1.836 2.17 2.975 3.093 2.272 1.842 7.063 1.233 7.672-1.669l.077-.356c.306-1.373.698-2.841.245-4.201-.343-1.027-1.107-2.075-1.74-3.027l-.134-.203c-1.267-1.945-3.243-3.797-5.236-5.275zM94.034 255.46l-.475.004c-3.672.06-10.386.796-10.421 4.535-.009.882.783 1.795 1.845 1.998 2.195.419 3.614-.65 5.178-1.73 1.28-.882 2.77-1.587 4.32-2.095 1.672-.548 1.563-2.715-.447-2.712z" fill="#000"/><path fill-rule="evenodd" clip-rule="evenodd" d="M99.68 76.557c1.968-9.831-4.49-11.87 0-21.216 9.98-17.315 37.176-16.569 57.133-17.9 22.26-.705 44.789 1.722 65.31 9.09a114.207 114.207 0 0114.135 6.18c3.908 2.033 3.371 5.899.907 8.008 17.768 20.778 7.606 48.668 21.783 70.54 2.619 3.909 6.083 7.415 8.359 11.483 3.461 6.183 3.683 15.043-4.165 19.15-11.052 4.898-17.22-4.801-22.65 9.259-27.121 49.025-81.651 51.786-133.417 26.226-4.478-2.057-9.05-4.382-12.431-7.614-7.677-7.134-6.773-17.166-6.942-26.075a522.627 522.627 0 01-.05-15.664c.242-21.151 8.731-50.49 12.028-71.467z" fill="#EDB98A"/><path fill-rule="evenodd" clip-rule="evenodd" d="M209.937 17.758C178.682 6.05 143.232 1.61 109.138 4.523c-16.829 1.435-33.435 4.514-49.24 9.516l-1.385.442c-3.9 1.24-8.106 2.47-11.07 4.994-3.451 2.934-4.42 7.37-1.953 10.993 1.917 2.815 5.362 4.835 9.036 5.913a28.823 28.823 0 00-3.674 2.942c-1.942 1.826-2.09 4.43 0 6.232 4.026 3.472 9.25 5.984 14.876 7.188-.632 2.521-.29 5.311 1.065 7.824 3.89 7.212 14.847 8.072 23.28 7.643l.254-.013.47 4.431c.249 2.362 1.961 4.192 4.866 4.554.102.013.205.021.306.03-4.597 13.728-7.374 27.88-9.938 41.95-1.34 7.344-2.538 14.705-3.686 22.071l-.38 2.456c-1.224 7.941-2.753 15.963-3.283 23.963-.474 7.26 1.203 14.191 6.62 20.049 4.862 5.252 11.492 9.187 18.622 12.108 16.109 6.603 33.065 11.519 50.881 13.8l1.188.151c6.878.867 13.964 1.597 20.767.025 5.977-1.38 12.246-4.94 10.896-10.66-.454-1.931-3.726-2.016-4.847-.522l-.259.343c-1.344 1.761-2.817 3.399-5.164 4.307-2.746 1.07-5.931 1.368-8.933 1.398-8.383.08-17.113-1.645-25.186-3.375-15.074-3.232-30.557-8.501-42.905-16.485-5.254-3.392-9.474-7.634-10.962-13.092-1.84-6.73-.148-14.086.688-20.849 1.72-13.955 3.767-27.885 5.927-41.798l.433-2.783c1.819-11.632 3.73-23.269 4.638-34.968.377-.425.631-.91.733-1.44l.143-.761c.122-.652.143-1.25.056-1.801a93.488 93.488 0 00-.224-6.326 43.776 43.776 0 01-.061-1.132c2.66.484 5.341.876 8.031 1.208a310.308 310.308 0 0057.201 1.772c9.515-.586 18.958-1.591 28.371-2.85a451.475 451.475 0 0014.326-2.137c3.439-.568 6.808-1.339 10.192-2.062 3.491 4.196 5.377 9.36 5.01 14.43-.413 5.787-5.081 11.035-3.772 16.948 1.23 5.534 6.971 7.25 12.639 8.62l2.411.575c1.854.447 3.201.879 3.537 2.719.575 3.161-.133 6.717-.281 9.894-.178 3.759-.412 7.517-.52 11.275-.056 1.944-.147 3.897-.142 5.841.005 1.381.255 2.323.902 3.215-.5.518-.948 1.078-1.346 1.671-.127.194.189.4.377.24a12.8 12.8 0 011.606-1.174c.285.291.616.585 1.004.901l.03-.034c1.213.998 3.14 1.094 4.644.034l.394-.283c1.101-.796 1.857-1.46 2.163-2.777a2.33 2.33 0 00.041-.202c2.798-.08 5.642.467 8.159 1.616 3.991 1.823 6.799 4.419 8.46 7.626a10.32 10.32 0 01-2.339 1.692c-.128.071-.015.227.122.172a11.595 11.595 0 002.487-1.317 16.025 16.025 0 011.269 4.053c.897 5.067-.703 11.258-6.248 14.145-2.4 1.25-5.142 1.927-7.986 1.936-1.385.003-2.584-.19-3.929-.463-.912-.186-1.819-.455-2.772-.455a5.14 5.14 0 00-2.268.505l.193.014c.471.037.381.053-.275.053-2.038.072-3.205 1.781-2.268 3.266l.123.23.066.115.074.394.023.116.028.079a.264.264 0 00.018.038l-3.058 3.85c-3.748 4.71-7.58 9.402-11.941 13.704-3.057 3.017-6.299 5.976-9.723 8.716-3.078 2.462-6.768 3.649-10.254 5.584-1.861 1.027-2.405 3.178-.714 4.562 4.964 4.07 11.992.838 16.064-2.47 3.853-3.135 7.181-6.906 10.05-10.681 5.091-6.713 9.143-13.85 10.916-21.598.739.56 1.682.909 2.635 1.183 1.911.547 4.016.774 6.034.833 3.868.105 7.741-.669 11.222-2.041 14.162-5.577 16.242-22.276 7.583-32.124 1.168-2.796 1.82-5.829 2.528-8.416l.322-1.157c3.58-12.917 5.985-26.516-.363-39.174-.815-1.633-1.733-3.223-2.818-4.747-.872-1.224-2.37-2.53-2.783-3.922-.917-3.06 4.745-6.275 6.396-8.703 1.942-2.85 2.217-6.212-.428-8.817a7.636 7.636 0 00-1.101-.896c2.507-3.754 2.625-8.476-.678-12.18-2.171-2.44-5.483-4.15-9.102-4.667-2.211-.316-4.872-.198-7.303.366-13.311-10.205-28.498-18.732-45.035-24.927zm51.116 127.698c-3.553-2.588-7.477-3.943-12.319-3.602-4.867.345-10.727 2.007-13.586 5.454-2.258 2.723 2.344 6.717 5.657 4.672 3.017-1.865 5.03-3.969 8.775-4.971 3.364-.896 7.528-1.473 11.05-.959.387.055.774-.341.423-.594z" fill="#000"/><path fill-rule="evenodd" clip-rule="evenodd" d="M150.471 164.544c-2.857-3.873-8.947 5.614-9.594 7.245a18.286 18.286 0 00-1.143 4.423c-2.215.409-4.515.41-6.785.051-3.373-.533-5.435-2.027-8.366-3.31-2.025-.887-4.577.153-5.63 1.623-1.238 1.731-.449 3.527 1.18 4.818 3.089 2.446 9.167 3.008 13.2 2.359 2.31-.373 4.428-1.087 6.298-2.124.012.193.02.387.039.58l.035.336c.31 2.713 1.215 6.126 3.773 7.891 4.195 2.897 9.372-2.674 5.296-5.567l-.126-.087c-2.534-1.687-3.087-6.213-2.95-8.706a15.237 15.237 0 011.072-4.825l.129-.308c.187-.438 2.234-4.591 2.973-4.062l.035.03c.305.3.798-.05.564-.367zm-22.811-21.853c-3.856 1.932-9.732 6.436-5.584 11.225 4.884 4.223 11.915-.619 15.38-2.808 3.213-1.697 6.822 2.667 3.841 4.649-25.036 15.275-35.197-12.561-15.587-15.337 2.159-.306 2.961 1.674 1.95 2.271zm41.181-17.855c-3.769-.551-7.63.221-10.748 2.039l-.237.14c-3.005 1.811-6.366 4.99-4.642 8.112.692 1.253 2.764 1.449 4.079.881 2.19-.946 2.587-3.273 4.54-4.562 1.602-1.056 3.759-1.696 5.823-1.542 4.847.363 7.828 4.303 9.334 7.698.192.434.966.603 1.268.136 3.55-5.467-2.734-11.925-9.417-12.902zm-60.37-2.063c-7.22-.491-15.67 5.677-13.77 11.957.912 3.013 6.336 2.927 7.3 0 .531-1.61.478-3.035 1.885-4.373 1.161-1.104 2.811-1.746 4.585-1.647 1.955.109 3.758.914 5.128 2.045 1.238 1.022 1.978 2.517 3.26 3.422a.887.887 0 001.049 0c2.206-1.676.882-5.166-.517-6.916-2.002-2.504-5.262-4.24-8.92-4.488zm74.119-9.075c-4.632-3.378-13.047-6.641-19.293-4.978-3.591.955-5.156 5.723-1.147 7.234 4.641 1.75 9.993 1.038 14.718 2.852 1.984.762 3.85 1.715 5.231 3.111 1.089 1.101 2.196 2.55 3.77 3.185.413.167.974.171 1.305-.139 3.45-3.216-1.571-9.068-4.584-11.265zm-66.159-5.146c-2.862-.662-6.038-.649-8.946-.233-2.907.416-5.858 1.409-8.231 2.857l-.276.169c-2.59 1.609-5.682 3.95-5.516 6.8.138 2.38 3.176 3.99 5.799 2.742 2.138-1.017 3.144-3.055 4.955-4.411 1.494-1.12 3.248-2.003 5.121-2.622 2.079-.687 4.162-1.009 6.394-1.04 1.719-.023 3.448.441 5.134.59-.139.235 1.194.125 1.958-.083.566-.199.569-.788.373-1.171-.973-1.895-4.513-3.078-6.765-3.598z" fill="#000"/></svg>