<svg width="392" height="501" fill="none" xmlns="http://www.w3.org/2000/svg"><path d="M58.925 310.586H173.45v126.921H58.925V310.586z" fill="#FDEA6B"/><path fill-rule="evenodd" clip-rule="evenodd" d="M206.855 186.444c-12.346-8.46-43.339-12.265-56.515-4.119-13.014 8.18-14.433 21.409-20.497 33.578-5.722-2.428-15.171 1.049-16.83 5.827-2.057 2.254-2.149 8.585-3.568 11.615-61.735 8.843-71.108 52.158-78.538 101.332-9.83 49.899-32.146 99.689-22.458 151.037a28.709 28.709 0 00-3.178 5.139c-2.205 3.376.635 8.155 5.083 7.97 5.756-.455 11.456-1.076 17.24-1.27 16.033-.501 32.081-.441 48.121-.258l2.187.026c80.835.906 161.665 2.69 242.503 3.163 2.933.004 4.369-2.363 3.977-4.698-.788-4.701-1.52-9.404-2.284-14.107 19.121 4.545 39.447 5.688 58.513.478 1.334-1.223-3.107-.56-3.812-.746 17.547-10.791 12.307-33.523 10.753-49.895-9.666-56.103-13.073-118.176-50.416-166.049-16.155-19.537-39.84-35.005-67.055-38.485l-.755-.093c-7.958-.955-16.827-1.263-23.785-5.159-7.825-5.622-11.16-16.01-19.393-16.107-2.718-.032-6.416 3.063-10.396 5.164-.297-4.622-3.065-8.523-3.676-12.108l-.05-.306c-.637-4.179.236-7.938-5.171-11.929zM74.181 336.159c17.349-10.847 62.166-5.397 63.192-4.789 2.259 1.337 3.231 1.455 4.453 3.192 1.206.144 2.412.293 3.616.447 2.416.71.626 3.384-2.165 2.43 1.678 6.515-3.261 11.148-5.228 17.588-.638 2.091-.023 5.852 0 7.989-.19 2.724-3.537 5.942-2.979 8.675 1.983 9.717 12.744 19.195 8.207 28.618-3.006 5.323-12.046 8.036-18.056 9.846-12.452 4.301-34.15-.162-41.385-9.846-3.859-5.165-8.33-18.193-10.63-22.234l-.51-6.411c-1.258-15.936-2.377-33.091 1.485-35.505z" fill="#D08B5B"/><path fill-rule="evenodd" clip-rule="evenodd" d="M226.79 205.652l-4.965 2.742-28.835 12.828c-5.591 1.409-8.386 3.097-8.386 5.065v20.037c0 2.681-5.246 8.758-15.738 18.231l-9.693-8.696.217-1.139c.923-4.906 1.384-8.188 1.384-9.845 0-1.783-9.483-8.55-28.449-20.301l-8.298-7.03.885-2.422c-5.116.218-10.664 3.053-11.899 6.609-2.057 2.253-2.149 8.585-3.568 11.614-61.735 8.844-71.108 52.158-78.538 101.332-9.83 49.9-32.146 99.69-22.458 151.037a28.78 28.78 0 00-3.178 5.139c-2.205 3.377.635 8.156 5.083 7.971 5.756-.455 11.456-1.076 17.24-1.27 16.033-.501 32.081-.442 48.121-.258l2.187.026c80.835.905 161.665 2.69 242.503 3.163 2.933.004 4.369-2.363 3.977-4.698-.788-4.701-1.52-9.405-2.284-14.108 19.121 4.545 39.447 5.689 58.513.478 1.334-1.223-3.107-.56-3.812-.746 17.547-10.79 12.307-33.522 10.753-49.895-9.666-56.102-13.073-118.175-50.416-166.048-16.155-19.537-39.84-35.005-67.055-38.486l-.755-.093-.761-.089c-7.758-.889-16.287-1.297-23.024-5.069-7.619-5.474-10.981-15.465-18.751-16.079zm-69.094 117.607c2.828 0 8.621 3.953 17.377 11.858l.771.321c10.585 4.425 17.597 8.263 21.037 11.514l.122.118c3.475 3.354 10.356 12.275 20.643 26.761l14.896 7.928h5.637l4.013 26.196-9.65 18.705-21.857-6.626-35.612-8.447-20.436-18.658-11.527-3.483c1.398 3.636 1.905 7.254.167 10.864-3.006 5.322-12.046 8.036-18.056 9.845-12.452 4.301-34.15-.162-41.385-9.845-3.859-5.165-8.33-18.194-10.63-22.235l-.66-8.328c-1.19-15.367-2.073-31.27 1.635-33.588 17.349-10.846 62.166-5.396 63.192-4.789 2.259 1.337 3.231 1.456 4.453 3.192l.633.076-3.557-4.341 1.259-.605c8.986-4.288 14.831-6.433 17.535-6.433zm-14.419 14.181c1.607 6.237-2.852 10.749-4.961 16.773l5.388-9.282v-7.371a3.936 3.936 0 01-.427-.12z" fill="#9DDADB"/><path fill-rule="evenodd" clip-rule="evenodd" d="M229.171 204.683c-1.198-.955-2.97.245-2.209 1.534 1.71 2.898 3.465 5.644 5.76 8.206 1.392 1.553 2.883 3.022 4.394 4.475-3.878 3.019-7.203 6.767-10.343 10.279-4.015 4.492-7.812 9.175-12.319 13.285-4.446 4.054-9.361 6.888-15.304 8.778l-1.201.375c-5.97 1.886-12.351 4.434-15.717 9.521-.663 1.003.673 2.243 1.796 1.617 5.848-3.259 12.719-3.914 19.085-6.067 6.149-2.08 11.509-5.281 16.245-9.367 4.728-4.078 8.698-8.718 12.839-13.26 4.095-4.492 8.504-8.328 13.347-12.128 7.475 4.525 16.007 6.495 24.682 8.428l.947.211c8.686 1.936 17.325 4.183 25.474 7.554 7.185 2.971 14.251 6.518 20.104 11.353 6.212 5.131 11.047 11.684 15.473 18.093 9.899 14.337 16.859 30.045 22.985 45.943a438.41 438.41 0 0116.006 50.473c2.189 8.682 3.966 17.425 5.427 26.23.703 4.241 1.328 8.49 1.876 12.75.586 4.548.72 9.227 2.271 13.599.664 1.875 2.234 2.652 3.805 2.586l.319 3.591c.423 4.788.817 9.577.95 14.395.221 8.01.121 15.998-.519 23.991l-.091 1.09c-.503 5.834-1.627 12.389-6.502 16.661-5.048 4.424-12.811 5.815-19.615 5.895-15.847.186-31.102-6.553-45.125-12.465-14.442-6.088-28.49-12.846-42.201-20.175a655.817 655.817 0 01-20.709-11.558 554.612 554.612 0 01-9.966-5.943c-1.889-1.153-3.679-2.417-5.602-3.44.942-.79 1.363-2.031.574-3.115 5.558-4.342 7.872-12.091 8.142-18.361.219-5.061-.609-10.108-1.262-15.121-.329-2.528-.737-5.052-1.159-7.568-.167-.995-.295-2.058-.49-3.108 15.01 7.423 30.441 14.034 46.28 19.907 8.119 3.011 16.341 5.717 24.678 8.198l1.689.5c7.899 2.327 15.987 4.525 24.153 5.855.436.071.791-.509.325-.694-7.958-3.16-16.191-5.825-24.269-8.735l-1.327-.487c.152-.008.31-.026.476-.062 4.737-1.029 9.437-2.614 14.083-3.949 4.312-1.239 9.156-2.018 13.187-3.888.31-.144.136-.532-.166-.551-4.53-.282-9.448.906-13.889 1.605l-1.669.263c-2.795.443-5.652.92-8.433 1.542-.101-.838-.621-1.68-1.362-2.174-8.15-5.432-7.323-16.403-8.194-24.493l-.647-6.006c-1.137-10.512-2.34-21.022-4.167-31.455-.098-.557-1.055-.398-1.059.129-.095 12.932.99 25.805 1.534 38.718l.084 2.118c.301 7.968.536 16.241 6.112 22.372-.779-.41-1.833-.41-2.465.266-.776.831-1.224 1.765-1.21 2.681a876.969 876.969 0 01-15.048-5.842c-16.05-6.4-31.763-13.561-47.061-21.309-1.647-.834-3.212-.179-4.026.921l-.117-.015a.405.405 0 00-.06-.005l-.117-.005-.013.001c-2.153-1.065-5.087-.307-6.935 1.247-.054.046-.101.097-.149.146a25.167 25.167 0 01-6.507-3.838c-4.057-3.309-7.493-7.401-10.489-11.503-5.516-7.557-10.203-15.96-17.655-22.181-6.055-5.054-13.561-8.2-21.437-10.176a.66.66 0 00-.214-.574c-.404-.373-.693-.502-1.215-.276a.184.184 0 00-.084.071l-.768-1.182c-.42-.641-.851-1.287-1-1.457a112.488 112.488 0 00-2.748-3.002c-1.584-1.667-3.389-3.312-5.479-4.467-4.576-2.53-9.387-1.099-14.091.284-2.843.836-5.676 1.699-8.514 2.547l-.292.086c-2.116.612-4.592 1.147-5.539 3.164a3.753 3.753 0 00-.258 2.431c-20.096-4.599-42.417-2.486-62.028 2.913-.753.207-1.504.764-1.663 1.496-2.247 10.37-3.248 21.005-2.231 31.552.877 9.104 3.119 18.026 7.343 26.361l.24.471c3.97 7.724 10.261 17.246 19.87 19.667 5.802 1.462 12.218.6 18.136.332 5.751-.26 11.629-.298 17.325-1.112 5.073-.724 9.518-2.771 12.654-6.483 2.704-3.203 4.128-7.073 5.295-10.924.534.153 1.065.316 1.587.5 2.204.774 4.072 2.025 5.76 3.496 3.565 3.107 6.331 6.881 10.061 9.846 3.377 2.684 7.225 4.772 11.352 6.377 8.553 3.325 17.728 4.654 26.774 6.417l.631.124c6.811 1.345 13.763 2.996 19.774 6.187.117.939.593 1.823 1.355 2.402-1.06.896-1.509 2.315-.577 3.646 2.602 3.717 7.085 5.832 11.109 8.209l.262.156a556.045 556.045 0 0011.978 6.945c8.185 4.611 16.54 8.969 25.013 13.135 13.629 6.7 27.55 13.02 41.723 18.753-.85 3.767-.54 7.651-1.179 11.442l-.098.541c-.273 1.407.096 2.585 1.173 3.504l.114.094-.002-.013.101.084.034.025-.012-.008c.125.103.253.198.383.279l.166.097c1.038.567 2.373.56 3.435.06l.122-.06.204-.106c1.403-.726 2.371-2.526 1.789-3.956-1.431-3.514-1.972-7.264-3.293-10.802l1.048.422 1.382.542c14.942 5.814 31.54 10.711 47.821 6.747 7.193-1.752 13.917-5.458 17.516-11.498 3.542-5.944 4.043-12.846 4.231-19.457.232-8.16-.254-16.445-1.45-24.535-.803-5.431-1.773-10.964-3.271-16.339a3.945 3.945 0 001.486-2.575c.707-5.133-.53-10.47-1.287-15.576a411.027 411.027 0 00-2.481-14.923c-1.866-10.018-4.034-20.015-6.558-29.916-4.492-17.621-10.424-34.928-17.566-51.822l-.625-1.472c-6.599-15.441-14.24-30.554-24.88-44.119-5.09-6.49-10.47-12.374-17.662-17.051-6.737-4.382-14.337-7.537-22.18-9.948-7.851-2.414-15.921-4.031-24.133-5.037-8.34-1.021-17.144-1.648-24.924-4.727.984-1.587.139-3.731-1.517-4.716-5.574-3.314-10.729-7.626-15.725-11.61zM50.728 348.806c-.234-.319-.788-.117-.686.261 2.711 9.995 5.256 20.011 6.918 30.198 3 18.385 2.448 37.011 2.203 55.532l-.012.958c-.126 9.976-.301 19.954-.668 29.926-.185 5.04-.55 10.129-.352 15.172.109 2.735.919 5.323 1.206 8.026.252 2.363.027 4.763-.098 7.129-.084 1.574 2.496 1.507 2.672 0l.224-1.948c.292-2.466.653-4.917 1.55-7.277 1.08-2.839 1.598-5.626 1.973-8.607.574-4.567.829-9.18 1.05-13.779l.152-3.181c.924-19.22.892-38.53-.605-57.73l-.11-1.371c-1.482-18.149-4.054-37.758-15.417-53.309zm57.79-114.384c.709-.262.461-1.226-.324-1.058l-1.426.306c-10.45 2.252-20.71 4.693-30.463 8.884-9.76 4.194-18.022 10.455-24.588 18.154-12.763 14.966-18.066 33.153-22.253 51.323-4.653 20.191-8.89 40.456-13.583 60.64l-.872 3.76c-4.343 18.8-8.443 37.61-11.465 56.632l-.217 1.379c-3.047 19.561-4.88 39.8-1.555 59.411.658 3.88 7.833 2.914 7.552-.919-.81-11.082-1.39-22.106-.83-33.213a317.65 317.65 0 013.445-33.182c1.453-9.267 3.618-18.419 5.534-27.613l.3-1.452c1.604-7.819 3.258-15.631 4.909-23.443l2.466-11.696c3.696-17.514 7.465-35.043 11.723-52.447l.253-1.024c4.167-16.744 10.311-34.283 22.811-47.579 12.686-13.494 30.846-20.289 48.583-26.863zm46.094 177.598c-.305-.612-1.372-.545-1.7 0-1.286 2.134-1.428 4.859-1.671 7.268l-.026.249c-.309 2.94-.583 5.89-.75 8.84-.318 5.598-.47 11.19-.45 16.795.02 5.745.148 11.483.492 17.219l.094 1.537c.314 4.985.841 10.545 3.473 14.903.956 1.585 3.559 1.119 4.113-.483 1.815-5.246.883-11.466.417-16.839l-.361-4.193c-.358-4.193-.7-8.387-.971-12.585-.371-5.744-.677-11.492-.971-17.238a753.05 753.05 0 00-.309-5.6l-.168-2.798c-.143-2.342-.131-4.911-1.212-7.075zm204.12 7.435l-.803-.699c-2.467-2.173-5.585-5.519-9.232-5.311-1.454.083-2.381 1.169-2.08 2.457.645 2.752 3.765 4.181 6.011 5.861 2.46 1.841 4.779 3.808 7.094 5.794a132.87 132.87 0 015.955 5.44l.721.703c.691.679 5.61 4.683 5.078 5.722l-.029.047c-.148.199.099.472.345.403 2.124-.604 1.991-2.243 1.188-3.903-1.543-3.19-4.246-6.142-6.606-8.866-2.353-2.718-4.901-5.248-7.642-7.648zm-211.818-80.002c1.643-3.495 7.695-3.421 11.131-3.212 8.651.526 18.013 2.496 25.711 6.135 7.981 3.773 13.357 9.818 18.167 16.503l.225.314c4.689 6.559 9.205 14.323 16.546 18.833 3.74 2.298 8.106 4.395 12.643 5.304a2.3 2.3 0 001.478 1.025l.307.063c1.293.257 3.3.541 5.034.371-.011.764-.002 1.521-.024 2.244a212.03 212.03 0 00-.087 6.228c-.001 4.346.259 8.7.057 13.045-.178 3.843-.782 7.859-2.832 11.294-1.504 2.521-3.489 4.189-5.885 5.781-5.894-3.233-12.559-5.203-19.324-6.685-8.181-1.792-16.557-2.988-24.552-5.417-3.848-1.17-7.547-2.701-10.899-4.779-3.557-2.208-6.274-5.195-9.07-8.116l-.437-.454c-2.853-2.945-5.966-5.763-9.998-7.359-3.472-1.375-8.049-1.62-11.085-3.748-1.588-1.114-1.721-2.73-1.888-4.384 1.945.25 4.003-.151 5.941-.355l1.004-.106c1.833-.196 3.623-.411 5.427-.831a.31.31 0 000-.61c-2.132-.496-4.245-.707-6.431-.938l-.513-.057c-1.978-.234-4.056-.586-5.996-.194a13.929 13.929 0 00-1.556-3.469c-.99-1.601-2.863-3.416-3.116-5.286-.075-.559.069-1.217.362-1.711l.101-.168c.123-.199.268-.399.481-.523.024.025.074.053.183.084 1.492.423 2.795-.235 3.486-1.248 2.934.327 6.136.217 8.888.326l2.782.122c2.973.122 6.08.176 8.874-.365.39-.075.508-.659.117-.809-3.434-1.322-7.6-1.744-11.277-2.252-2.053-.284-4.122-.5-6.181-.749-1.371-.167-2.827-.442-4.247-.508-3.563-3.991-1.643-10.287 3.314-12.005 1.806.714 3.43.299 5.403.146 1.969-.152 3.944-.255 5.921-.247 3.963.016 8.162.954 12.086.55.638-.066 1.231-.831.596-1.297-3.003-2.206-7.308-2.925-11.121-3.395l-.79-.095c-1.278-.151-2.833-.371-4.445-.502-.365-.64-1.019-1.124-2.001-1.244-.292-.036-.586-.057-.879-.08l.004-.026c-2.396-.103-2.292-3.746-1.635-5.144zm164.071 68.152c.043.059.089.115.138.169l.077.079-.395-.144.18-.104zm-205.891-75.96c10.087-.976 20.189-.77 30.306-.508.809 2.382 3.626 4.411 6.355 4.488-2.138 2.928-2.358 6.89-.859 9.995-3.183 1.14-5.924 3.188-7.589 6.105-2.308 4.043-2.006 8.542.276 12.278-1.947 1.586-3.096 4.162-2.981 6.59.128 2.707 1.921 5.019 3.411 7.261 1.61 2.424 1.664 4.558 2.159 7.273.723 3.973 3.701 6.383 7.532 7.888l-.203.721c-.988 3.46-2.217 7.111-5.04 9.641-3.632 3.255-9.266 3.225-14.065 3.431l-.231.011c-4.394.197-8.786.429-13.178.653l-3.294.166c-5.057.25-9.914.28-14.043-2.729-6.74-4.911-11.36-13.039-14.285-20.234-6.138-15.103-6.212-31.677-3.394-47.406 9.45-2.741 19.254-4.67 29.123-5.624zm83.888 25.056l-.074.005c-2.077.213-3.504 1.727-4.012 3.522-.738 2.609-.376 4.969-2.152 7.324-1.827 2.423-2.95 4.362-3.216 7.355-.109 1.231-.059 2.459-.363 3.665l-.221.844c-.235.901-.427 1.768-.31 2.735.106.881.584 1.568 1.566 1.851 3.202.922 5.675-1.202 6.502-3.888.715-2.319-.239-5.084.769-7.262.559-1.207 1.589-2.217 2.171-3.433.577-1.205.866-2.464.959-3.774.175-2.477-2.259-5.453-.901-7.698.289-.478-.038-1.261-.718-1.246zm42.536-25.564c-2.169-.396-4.629-1.305-6.767-.55-1.099.389-1.643 1.596-.714 2.434 1.613 1.455 3.956 1.536 6.128 1.879l.191.031c2.568.427 5.141.833 7.717 1.217 4.846.722 9.704 1.361 14.58 1.904 5.007.558 10.028 1.054 15.056 1.428l1.947.143c4.247.306 8.666.537 12.834-.049.605-.085.508-.878 0-1.018-4.566-1.243-9.574-1.577-14.294-2.103-5.018-.56-10.028-1.152-15.024-1.854a570.977 570.977 0 01-14.935-2.286 446.99 446.99 0 01-6.719-1.176zm-78.245-3.992c1.903-.607 3.996-1.505 6.058-1.204 3.556.518 6.721 3.636 9.535 5.689l-1.413-.247c-7.231-1.251-16.807-2.598-22.878 1.539-.015-.024-.027-.047-.045-.071-.49-.67-1.057-1.193-1.677-1.765a8.65 8.65 0 01-.173-.155l-.334-.321.765-.238c1.637-.521 3.578-1.194 3.884-1.292l.022-.007c2.088-.636 4.178-1.265 6.256-1.928zm59.414-136.406c.298-3.445-5.659-3.416-5.954 0-.644 7.457 1.221 14.845 5.235 21.383.03.047.062.09.093.135-2.511 1.175-5.05 2.303-7.645 3.311-3.32 1.29-6.703 2.465-10.146 3.461-3.115.902-6.953 1.258-9.571 3.135-5.522 3.957-3.447 12.169-2.385 17.492l.166.841c.528 2.739.911 5.549-.372 8.178-1.371 2.808-4.142 4.891-6.614 6.9l-.499.407c-2.19 1.796-4.692 3.978-6.299 6.412-1.466-2.729-3.465-4.958-5.578-7.468-1.508-1.792-.435-2.382.648-4.132 1.043-1.684 1.552-3.48 1.226-5.401-.602-3.548-3.753-6.112-6.89-8.037-3.704-2.274-7.838-3.958-11.668-6.073-7.869-4.345-15.532-9.313-22.436-14.83-.19-.153-.52.047-.368.255 5.454 7.466 11.849 13.917 19.708 19.392 3.187 2.221 6.535 4.062 9.905 5.998l.969.56c1.353.789 3.041 1.843 3.652 3.186.616 1.351-.697 2.371-1.403 3.489-2.244 3.554-1.162 6.869 1.498 9.882l.124.139c2.644 2.932 4.647 5.658 5.606 9.404 2.059 8.046-.809 16.426-3.811 23.98l-.119.298c-1.624 4.071-3.35 8.113-4.76 12.249l-.389 1.144c-1.278 3.806-2.325 7.56-.891 11.473.488 1.331 2.505 1.645 3.343.393 2.955-4.417 3.691-9.733 5.544-14.589 1.805-4.733 3.878-9.38 5.622-14.133 2.246-6.119 3.748-12.705 2.933-19.123.024-.037.05-.072.07-.112l.572-1.125c1.559-3.047 3.064-5.708 5.899-8.137 2.956-2.533 6.166-4.776 8.492-7.843 5.054-6.661 1.928-14.072 1.318-21.356l-.07-.893c-.111-1.512-.172-3.568.926-4.614 1.235-1.179 4.131-1.479 5.769-2.001 4.234-1.348 8.406-2.919 12.38-4.806 3.783-1.796 7.447-3.78 10.859-6.104l1.73-1.171c2.728-1.853 5.557-3.876 7.386-6.398.211-.29-.148-.758-.53-.619-3.053 1.115-5.842 2.888-8.698 4.431a3.079 3.079 0 00-.154-.285c-3.534-5.755-4.987-12.132-4.423-18.678zm-97.513 39.433c-1.217-3.001-6.76-2.77-6.539.797.17 2.74 1.462 5.213 2.644 7.7l.126.267a47.943 47.943 0 004.316 7.401c3.222 4.541 6.997 8.756 11.028 12.733 3.655 3.606 8.452 5.811 13.98 5.445 2.329-.155 4.68-.688 6.721-1.735 2.424-1.244 5.056-4.979 8.149-4.075.299.088.578-.307.32-.493-3.571-2.588-7.623 1.424-11.041 2.391-5.151 1.456-10.437-.154-13.752-3.901-3.461-3.913-6.647-8.293-9.556-12.553a58.886 58.886 0 01-3.989-6.722c-1.175-2.336-1.442-4.874-2.407-7.255zm8.302-18.472c.15-.415-.422-.809-.827-.572-2.346 1.374-4.379 3.19-6.543 4.782a320.252 320.252 0 01-7.275 5.2c-3.581 2.484.572 7.057 3.724 4.343 4.313-3.711 9.036-8.565 10.921-13.753zm12.88-14.528c-.953-3.308-6.59-1.944-5.768 1.325l.027.1c1.556 5.399-.66 10.896-5.391 14.396l-.174.128c-2.993 2.155 1.247 5.923 4.21 3.788 6.469-4.659 9.16-12.573 7.096-19.737z" fill="#000"/><path fill-rule="evenodd" clip-rule="evenodd" d="M87.928 43.45c1.108-2.523 3.068-5.694 6.345-5.82 2.534-6.987 8.835-14.103 17.599-13.914C137.598-.01 169.985 1.109 203.846 6.13c17.864 2.988 36.003 8.84 49.327 20.385 15.958 13.593 22.172 37.312 9.675 54.5 10.801 5.22 11.01 17.606 6.391 26.544 5.552 3.463 5.89 11.867-.362 14.508.332 1.227.097 2.497-.536 3.588 3.099 2.327 7.134 4.045 10.469 5.523 1.474.653 2.324 1.72 2.678 2.922 10.951 6.479 38.258 22.314 37.933 34.916.161 6.575-5.247 10.902-11.819 12.625 3.911 7.049 6.878 15.283 3.135 22.888-1.034 2.297-8.786 9.05-9.176 9.175-.682.527-11.802-4.077-17.207-6.426-1.048 6.148-8.338 9.37-14.622 7.263-5.958-1.62-9.62-6.169-13.378-10.307-4.988 9.813-19.664 9.926-29.149 5.695-8.519-3.549-14.994-10.053-18.601-17.891-19.155 8.456-41.566 10.921-62.376 7.544-1.336 2.131-4.292 3.563-6.926 2.738-11.066-3-23.301-3.168-32.682-10.042-19.552-12.657-21.199-35.99-19.835-55.881 1.21-19.831.15-39.828 4.148-59.445-1.735-5.776-4.62-10.882-7.29-16.308-2.9-5.69-2.84-14.149 4.285-17.195z" fill="#D08B5B"/><path fill-rule="evenodd" clip-rule="evenodd" d="M176.694 4.085l-.76.003c-1.256.008-2.511.03-3.762.067-6.613.196-13.509.97-21.273 2.294l-1.181.205c-1.931.34-3.661.683-6.42 1.264l-5.476 1.164c-2.789.586-4.841.991-6.734 1.318l-.248.042c-9.729 4.205-16.165 7.691-19.307 10.458l-.47.418-.2.18-2.049.058-.02.234-.018.002c-2.034.285-3.875 1.236-5.586 2.715l-.183.16-.176.16c-1.334 1.223-2.397 2.526-3.862 4.592l-.332.472-.596.852-.482.685c-.314.447-.615.89-.904 1.329l-.285.437-.205.322-5.291 2.783a8.933 8.933 0 00-2.09 1.542l-.172.172-.17.177-1.44 1.547.29.273-.14.166-.252.311-.246.315-.239.32-.103.14-.155.303-.076.15-.06.125-.18.084-.368.598a20.275 20.275 0 00-3.004 10.25c-.048 2.498.293 4.767 1.105 6.956.561 1.513 1.313 2.703 2.614 4.34l1.028 1.271.21.263.25.319c.04.05.08.101.117.151 1.672 2.183 15.956 6.315 24.735 6.515l.265.005.337.003a30.77 30.77 0 002.428-.083c3.377-.254 6.535-.895 10.203-1.943l.761-.222 4.042-1.224c.128-.039.232-.07.304-.09l.369-.104c.89-.247 1.537-.388 1.978-.44l.09-.01.009.152.003.142-.001.115c-.026 1.678 1.104 2.9 2.856 3.68 1.116.496 2.554.85 4.359 1.117l.288.04c2.95.412 6.468.587 12.353.708.224.004.45.002.678-.008 1.263-.052 2.256-.246 4.102-.724l.873-.226.473-.118c.878-.214 1.367-.3 1.829-.322l.134-.005.134-.002c.554-.001.955.11 1.35.381l.202.146 2.713 2.05c.353.265.67.5.902.667l.094.067c3.724 2.634 7.275 4.138 11.457 4.28l.28.008.292.003c.212 0 .425-.003.639-.01 1.762-.06 3.59-.65 6.087-1.785l.517-.238.362-.17c.185-.089.378-.18.587-.282l1.863-.899.952-.448c1.137-.528 1.771-.782 2.198-.887l.07-.017.04.035c.988.87 1.835 1.965 2.747 3.476l.138.23.199.342 1.296 2.326.245.433c.962 1.679 1.723 2.752 2.718 3.694 1.445 1.366 3.196 2.159 5.34 2.286l.215.01.256.006c1.01.01 2.08-.13 3.24-.421l.27-.07.262-.073c1.729-.492 4.461-.186 6.631.853 2.357 1.128 3.655 2.85 3.598 5.05-.029 1.092-.168 2.264-.413 3.533l-.07.349c-.321 1.57-.757 3.144-1.429 5.245l-1.445 4.394-.163.513-.163.527a37.608 37.608 0 00-.576 2.068c-.589 2.41-.688 4.22-.097 5.762 2.606 6.799 7.127 10.411 12.273 10.563l.178.004h.22c3.954-.038 7.537-2.361 7.493-5.371a2.245 2.245 0 00-.186-.875l-.053-.112-.025-.048.04-.09c1.216-2.624 4.026-4.539 7.326-4.914l.187-.02.185-.016c.181-.014.362-.024.533-.029l.168-.004.201-.001c4.398.006 8.75 2.646 12.173 6.965a23.6 23.6 0 011.972 2.923l.196.349.952 1.756.643 1.698c3.542 9.352 1.749 19.138-5.166 24.198l-.211.152c-2.491 1.761-5.421 2.832-8.548 3.12-.36.033-.722.054-1.071.063l-.259.004-.297-.001a12.878 12.878 0 01-2.869-.339c-.714-.174-1.211-.385-1.557-.654a2.44 2.44 0 01-.228-.199l-.053-.057-.02-.024-4.725.632c-.804 4.601-3.126 9.369-6.904 14.837l-.238.343-.415.589-.422.591c-4.445 6.165-9.402 11.356-14.851 15.34l-.38.276-.511.365-.469.331a34.58 34.58 0 01-2.428 1.576l-.19.11-1.792 1.024.832 1.759a37.577 37.577 0 007.921 11.017l.311.296 2.295 2.134 1.764-2.026a.2.2 0 01.1-.043l.032-.003h.018l.024.002.029.007.028.011c1.321.646 2.047 1.14 3.089 2.107l.152.141.176.167.242.228a18.48 18.48 0 003.502 2.562 20.338 20.338 0 009.497 2.63l.315.006h.316c.114-.001.227-.003.341-.006 6.988-.175 13.249-4.212 16.327-10.129.122-.235.234-.311.441-.327l.059-.002.074-.001c.513.003 1.142.278 1.493.648l.062.071 1.179 1.427.451.539c4.202 4.975 7.652 7.696 12.286 8.523a8.67 8.67 0 001.161.121l.248.009h.146c1.993.005 4.289-.516 6.079-1.433 2.368-1.213 3.832-3.078 3.646-5.389l-.014-.148-.032-.248c-.155-1.234.94-1.904 1.778-1.298l.057.043.069.057c3.453 2.919 7.424 5.16 11.7 6.542l.379.12.562.173c2.697.821 4.599 1.228 6.601 1.26 1.734.027 3.175-.537 4.217-1.621.695-.723 1.12-1.526 1.544-2.699l.071-.198.155-.456.096-.297c1.241-3.937 1.268-8.148.293-12.793-.727-3.47-1.886-6.822-3.834-11.521l-.378-.906-.78-1.848c-.079-.185.39-.832.68-.905l.034-.006.265.026c.186.016.373.027.564.033l.292.007h.191c6.328-.059 11.161-5.655 11.118-11.583-.05-5.553-3.147-10.328-9.06-15.996l-.513-.488-.556-.519-.549-.507c-5.254-4.824-10.625-9.035-16.218-12.647l-.463-.298-.516-.328c-1.883-1.192-3.715-2.272-6.249-3.692l-1.492-.831-6.046-6.434a81.37 81.37 0 01-.429-.223l-.076-2.232-5.826.109c1.478-.684 2.703-1.514 3.698-2.577 3.306-3.536 2.891-8.448-1.129-10.862l-.142-.083-1.694-.944-1.387 1.097c-1.208.956-2.489 1.59-3.825 1.882l-.212.044-1.045.199-.204.297-.117-.153c0-.016.004-.031.009-.046l.011-.022.022-.031.131-.145.146-.157c.465-.493.987-.972 1.935-1.795l.665-.576.518-.455c1.358-1.203 2.082-1.948 2.851-2.984 1.914-2.575 2.995-5.479 3.04-8.429.094-6.133-4.136-11.932-10.404-14.579-.22-.092-.382-.751-.118-1.187 6.069-10.043 7.753-22.081 4.704-33.28-2.844-10.449-9.922-19.672-20.054-26.736C227.946 10.56 203.817 4.306 178.215 4.09l-.776-.005h-.745z" fill="#ECDCBF"/><path fill-rule="evenodd" clip-rule="evenodd" d="M269.714 127.629c-1.153-.261-1.771 1.135-.793 1.696 6.21 3.563 12.625 6.744 18.625 10.62 5.706 3.685 10.976 7.882 15.89 12.395l.545.503c4.443 4.122 9.364 9.366 9.414 15.447.038 4.727-4.003 9.886-9.641 9.265-2.124-.234-4.076 2.196-3.335 3.948l.78 1.847c3.137 7.474 6.328 15.941 3.851 23.804l-.091.28c-.6 1.801-1.232 3.392-3.549 3.356-2.15-.034-4.388-.688-6.401-1.313-4.178-1.295-7.964-3.456-11.177-6.174-2.842-2.403-6.474.039-6.091 3.093l.014.098c.523 3.428-5.532 5.019-8.285 4.529-5.435-.97-9.31-5.881-12.397-9.625-1.484-1.799-5.087-2.507-6.391 0-2.583 4.967-7.907 8.679-14.136 8.835-3.236.08-6.34-.75-9.08-2.29a16.007 16.007 0 01-3.036-2.225l-.228-.214c-1.357-1.297-2.294-1.987-4.028-2.835-1.708-.835-3.918.2-3.907 2.022.014 2.359.78 3.928 2.584 5.639 1.493 1.417 3.267 2.661 5.131 3.655 3.747 1.997 8.202 3.12 12.564 2.99 6.876-.205 13.439-3.296 17.693-8.103 4.344 4.684 9.733 8.988 16.735 8.872 5.242-.086 10.127-2.547 12.468-6.36a40.479 40.479 0 0010.81 4.71l.346.092c5.492 1.441 11.811 2.014 15.346-2.902 3.319-4.616 3.567-11.009 2.806-16.285-.679-4.713-2.287-9.189-4.134-13.604 5.256-1.415 9.336-5.868 10.737-10.668 2.12-7.257-1.992-14.296-7.077-19.689-5.523-5.858-12.474-10.813-19.477-15.15-6.985-4.325-14.81-8.389-23.085-10.259zM90.118 70.859c-.013-.2-.38-.272-.413-.05-2.413 15.788-3.81 31.543-4.966 47.44a1371.093 1371.093 0 01-1.98 24.141c-.7 7.713-1.864 15.631-1.6 23.376.411 12.126 6.94 21.987 17.647 29.082 10.26 6.801 22.987 10.163 35.474 11.583a99.89 99.89 0 0021.864.09c3.77-.403 7.536-.939 11.229-1.743l1.597-.36c2.908-.67 6.155-1.579 6.57-4.686.201-1.505-.685-2.615-2.116-3.37-1.866-.985-4.006-.405-5.929.044-3.24.756-6.515 1.405-9.827 1.854-7.113.965-14.425 1.022-21.574.354-12.027-1.124-24.713-4.642-33.985-11.907-4.03-3.157-7.534-7.004-9.377-11.574-2.37-5.875-2.019-12.285-1.94-18.437.185-14.306.023-28.612.243-42.919.222-14.35.029-28.588-.917-42.917zM211.057 4.005C197.004.735 182.742-.114 168.308.87c-13.613.927-29.12 3.674-40.238 11.225-.54.366-.217 1.06.451.964 7.433-1.069 14.678-3.012 22.079-4.298 7.119-1.237 14.366-2.165 21.614-2.38 24.515-.73 51.793 4.28 71.56 18.064 9.269 6.463 16.343 15.153 19.158 25.492 2.887 10.605 1.325 22.074-4.472 31.668-.835 1.38-.491 3.566 1.251 4.301 5.285 2.232 9.049 7.175 8.967 12.51-.039 2.588-1.028 5.069-2.618 7.208-1.681 2.261-4.239 3.844-6.119 5.956-.74.832-.769 1.977-.182 2.743-1.1.434-2.286.668-3.368 1.181-.917.435-.943 1.794 0 2.222 2.386 1.083 4.965-.066 6.575-1.813a8.61 8.61 0 00.763-.968c1.928-.368 3.656-1.241 5.164-2.435 2.875 1.553 3.269 5.008.799 7.649-1.261 1.348-3.052 2.18-4.863 2.778l-.218.071c-1.762.564-3.376.879-4.521 2.151a26.172 26.172 0 00-2.588-3.977c-3.513-4.432-8.912-8.364-15.32-7.865-5.019.39-9.367 3.631-10.396 8.102-.075.331.477.589.642.244 2.408-5.064 10.027-5.25 14.566-2.611 5.337 3.104 8.254 8.953 9.424 14.4 1.152 5.366.486 11.892-3.967 15.973-1.822 1.67-4.301 2.825-6.888 3.129-1.264.15-2.38.003-3.589-.217l-.802-.151c-.556-.104-1.108-.187-1.692-.141l-.868.106-.494.208c-.428.173-.39.126.116-.143-1.476-.109-2.24.875-2.32 1.954a.516.516 0 00-.131.098c-5.602 6.183-9.762 13.29-15.707 19.271l-1.74 1.752c-4.475 4.488-9.582 9.354-15.66 11.683l-.724.27c-1.768.673-3.544 1.595-3.769 3.518-.202 1.722 1.303 3.017 3.038 3.419 3.952.914 8.456-2.253 11.35-4.331 6.223-4.467 11.454-10.161 15.773-16.153l.427-.596c3.551-5.001 6.888-10.705 7.925-16.64l.187.273.032.043c.211.26.444.478.715.688.726.566 1.613.896 2.534 1.12 1.728.421 3.623.504 5.399.34 3.609-.333 6.982-1.571 9.835-3.588 8.685-6.143 9.711-17.574 6.198-26.848 2.883.62 6.166-1.129 8.417-2.628 2.581-1.72 4.709-4.203 5.218-7.124.505-2.899-1.544-6.737-4.583-7.856 3.153-3.414 4.989-8.26 5.179-12.14.329-6.75-3.647-13.129-9.751-16.811 5.74-11.095 6.846-23.967 2.981-35.747-7.67-23.377-33.363-36.449-58-42.18zm21.869 177.61l-.072-.206c-.612-1.808-1.401-5.404-4.396-4.035-2.861 1.308-1.034 5.178-.034 7.062 1.197 2.254 3.265 4.062 6.042 4.546 2.258.394 4.739-.112 6.319-1.686.46-.458.72-.962.993-1.517.107-.216.155-.364.175-.46.026.105.099.263.288.448 1.261 1.243 2.451 2.689 3.366 4.158.217.348.899.104.727-.276-1.066-2.35-.887-5.985-3.262-7.685-2.093-1.498-4.06-.319-5.167 1.426l-.057.091c-1.618 2.65-4.197.133-4.922-1.866zm22.771-8.493l-.218-.273c-2.239-2.759-6.014-6.078-9.791-3.512-1.201.816-1.246 2.178 0 2.988l.471.303c1.651 1.055 3.294 2.051 4.506 3.564 1.317 1.645 2.499 3.387 4.27 4.678 3.132 2.281 8.193 2.732 10.91-.345l.267-.305c.228-.264.488-.582.7-.899l.165.206.045.059.038.052a13.592 13.592 0 004.285 3.981c3.34 1.987 7.103 2.264 10.882 1.212.369-.104.27-.551-.088-.58-4.477-.378-8.839-3.246-10.66-6.94l-.206-.414c-.737-1.47-1.562-2.866-3.383-3.443-1.772-.561-3.632.032-4.848 1.241-1.016 1.01-1.277 3.019-3.11 2.576-2.008-.485-3.137-2.752-4.235-4.149zm12.823-24.539c-.991-.68-2.544.049-2.817 1.034-1.237 4.459 3.901 9.712 8.839 9.851a7.941 7.941 0 003.619-.773c.874-.412 1.907-1.463 2.866-1.637 1.238-.225 2.335 1.262 3.207 2.026 1.081.947 2.151 1.826 3.363 2.634.484.323 1.235-.219 1.031-.715l-.41-.985c-1.484-3.507-4.039-8.626-8.822-7.171-2.343.713-4.106 3.117-6.574 1.213-1.975-1.524-2.16-4.009-4.302-5.477zm-21.099-17.949c-4.458-4.615-14.938-2.177-16.925 3.438-.439 1.24.019 2.851 1.093 3.729 1.415 1.156 3.433 1.506 5.151.599 1.478-.78 2.085-2.056 3.171-3.151 1.594-1.605 3.761-2.495 5.994-3.133a6.372 6.372 0 011.544 1.032c.239.214.69-.08.478-.333a6.08 6.08 0 00-1.039-.966l.193-.051c.588-.147.715-.775.34-1.164zm-28.974-50.955c-.999.002-2.163.848-2.035 1.836l.038.274c.288 1.881.958 2.946 3.046 3.82 1.771.74 3.631 1.15 5.573 1.311a15.46 15.46 0 002.3.012l.166.864c.329 1.727.634 3.454.692 5.214.106 3.263-1.244 5.952-2.691 8.864-2.78 5.596-3.092 11.181-.066 16.768.442.817 1.696 1.483 2.707 1.401 1.311-.108 1.944-.45 2.707-1.401.64-.798.494-1.927.05-2.762l-.05-.091c-1.525-2.664-2.006-5.674-1.227-8.602.731-2.753 2.389-5.226 3.129-7.97 1.206-4.469-.078-8.902-2.588-12.736 1.894-.492 3.646-1.37 4.815-2.706l-.005-.002c.446-.43.202-1.328-.581-1.274l-.885.065c-2.533.19-4.865.39-7.426-.248-1.314-.326-2.447-.871-3.574-1.53l-.242-.144c-1.41-.845-2.192-.964-3.853-.963zm-6.062-33.032c-6.35-.325-11.772 3.454-14.407 8.485-2.863 5.462-1.662 11.729.865 17.103l.718 1.504c1.257 2.606 2.906 5.704 5.48 7.103 2.89 1.57 5.389-.251 4.537-3.146-.508-1.725-1.883-3.054-2.996-4.478a39.292 39.292 0 01-2.856-4.139c-1.664-2.814-2.906-5.95-2.892-9.173.023-5.884 4.334-12.628 11.551-12.541.515.005.507-.692 0-.718zm-32.116-9.494c.396-.271.042-.874-.401-.62-7.363 4.224-12.861 12.157-13.968 19.951-.615 4.325-.146 8.946 1.897 12.937 1.171 2.29 3.181 4.476 5.992 5.104 2.584.576 5.247-.755 6.049-3.03.311-.882-.224-1.805-1.032-2.287-2.62-1.562-4.729-3.534-5.964-6.185-1.284-2.758-1.796-5.684-1.811-8.658-.038-6.965 3.044-12.967 9.238-17.212zm-89.95 3.018c.34-.34-.088-.843-.54-.63-5.323 2.526-8.705 7.362-9.675 12.66-.95 5.185.328 12.245 4.78 15.995 2.511 2.117 7.01-.698 4.923-3.425-1.473-1.923-3.064-3.507-3.907-5.78-.752-2.027-1.018-4.072-.977-6.203.09-4.648 1.931-9.151 5.396-12.617zm65.085-6.493c-9.095-.391-14.607 8.973-15.87 15.952-.779 4.312-.193 8.754 2.447 12.494l.156.217c2.178 2.988 6.139 6.428 10.406 5.013 1.806-.598 2.287-2.343 1.073-3.666-1.856-2.027-4.726-2.852-6.471-5.016-1.959-2.426-2.601-5.466-2.487-8.417l.015-.326c.304-5.427 3.174-15.845 10.731-15.66.424.01.419-.574 0-.591zm-28.449-1.556c-8.798-1.014-14.155 8.32-15.807 14.75-1.032 4.019-1.258 8.503.062 12.492l.098.285c1.075 2.977 4.245 8.078 8.383 6.557 1.134-.417 2.292-1.552 1.749-2.777-.694-1.564-1.694-1.97-3.028-2.972-1.027-.77-1.744-1.878-2.272-2.968-1.406-2.905-1.72-6.299-1.527-9.43l.026-.37c.497-6.115 4.174-15.229 12.316-15.06.372.007.346-.468 0-.507zm-16.106-8.775c-4.897-1.681-8.908 2.54-11.723 5.554-3.526 3.776-6.724 7.843-8.532 12.543-1.61 4.188-1.894 8.845-.443 13.108a16.883 16.883 0 003.364 5.79l.195.218c1.59 1.748 3.124 2.822 5.727 2.196 1.06-.255 1.507-1.2 1.324-2.103-.392-1.929-1.494-2.43-2.922-3.776-1.26-1.188-2.194-2.65-2.822-4.189-1.295-3.172-1.363-6.61-.493-9.878.973-3.659 2.889-7.038 5.105-10.204l.478-.678c2.348-3.348 5.695-8.503 10.648-7.96.425.047.43-.506.094-.62z" fill="#000"/><path fill-rule="evenodd" clip-rule="evenodd" d="M128.469 161.77c-.767-1.2-2.534-2.312-4.15-2.142-7.241.765-7.229 8.665-4.433 13.278 2.479 4.089 7.61 6.49 12.745 6.14 5.395-.369 9.991-3.223 12.014-7.765 1.338-3.004 1.956-8.551-1.602-10.569-.067-.038-.176-.029-.228.026-1.706 1.786-1.773 4.468-3.267 6.457-1.39 1.85-3.548 3.377-6.077 3.613-1.888.177-3.799-.436-4.537-1.962-.4-.825-.354-1.273-.204-1.841l.136-.494c.473-1.729.686-3.045-.397-4.741zm-1.936-34.649c-3.777 2.066-9.531 6.883-5.468 12.005 4.782 4.516 11.667-.662 15.06-3.004 3.146-1.814 6.681 2.853 3.762 4.972-24.517 16.336-34.467-13.432-15.264-16.402 2.114-.327 2.899 1.79 1.91 2.429zm39.88-14.165c-2.318-3.13-7.609-2.669-8.886 1.045-.691 2.011.264 3.82.214 5.829-.041 1.697.082 3.588.661 5.232 1.318 3.748 5.064 6.396 9.495 6.286 4.417-.11 8.308-2.625 10.158-6.169 1.856-3.557 1.463-7.238.108-10.855-.065-.173-.318-.258-.471-.111-1.602 1.532-2.775 3.149-3.988 4.865l-1.244 1.758c-.95 1.325-2.332 3.016-4.106 2.91l-.266-.024c-.494-.038-.418.05-.798-.555-.176-.28-.144-.8-.229-1.13l-.03-.112.016-.06c.038-.16.075-.462.105-.985l.007-.115c.128-2.447.897-5.592-.746-7.809zm-58.759 2.083c.416-4.003-5.837-4.892-7.916-1.93-1.085 1.545-1.4 3.485-1.64 5.323l-.112.873c-.246 1.888-.344 3.852.567 5.613 1.434 2.774 4.553 4.24 7.918 4.008 3.213-.222 6.145-1.899 7.69-4.444 1.378-2.271 2.748-6.705 1.075-9.074a.305.305 0 00-.442-.051c-1.581 1.263-1.839 3.568-2.779 5.214-.97 1.697-2.441 3.352-4.67 3.61-2.132.246-2.947-.802-2.403-2.631.702-2.362 2.448-3.969 2.712-6.511zm57.07-25.882l-1.022-.352c-3.504-1.192-8.315-2.568-11.163-.004-1.758 1.58-2.092 3.91-.838 5.84 1.52 2.337 4.246 2.394 6.878 2.738 2.995.392 6.04 1.136 8.827 2.198 3.141 1.196 6.055 2.686 8.91 4.351 2.714 1.582 5.418 4.168 8.666 4.655.132.02.283-.031.317-.162.738-2.858-1.312-5.671-3.141-7.9-2.214-2.7-4.896-4.916-7.893-6.902-2.894-1.918-6.199-3.304-9.541-4.462zm-63.648 10.161l-.312-.049c-2.125-.318-4.05-.245-5.651 1.269-1.223 1.156-1.694 2.653-1.111 4.181.537 1.409 1.74 2.841 3.485 3.136 5.89.997 12.415.832 18.336.077 2.708-.345 5.441-.768 8.08-1.435l1.214-.317c2.202-.566 4.724-1.158 6.324-2.616.575-.524.243-1.273-.445-1.516-2.792-.984-6.618-.46-9.595-.537-3.462-.09-6.931-.323-10.377-.645-3.368-.315-6.626-1-9.948-1.548z" fill="#000"/><path fill-rule="evenodd" clip-rule="evenodd" d="M82.797 129.243c4.59 5.162 22.563 10.892 32.128 4.672 9.566-6.22 13.346-10.555 14.624-18.327.137-.829 1.802-1.38 2.506-.791 3.941 3.294 6.492 7.49 9.02 11.697 2.851 4.745 5.659 9.519 10.84 12.731 9.176 4.427 25.777 5.057 30.681 3.104 9.395-3.74 16.827-11.74 18.517-22.748 1.146-3.256 2.221-5.226 3.225-5.911 1.428-.974 9.306-1.842 10.169-1.986 15.553-2.597 35.224-4.253 49.076 4.884 1.875 1.02 8.293 4.852 8.389 3.909.066-3.69-4.581-12.042-15.149-16.016-13.069-4.915-32.496-5.202-43.751-4.118-.566.055-2.495-.372-2.631-.425-17.051-6.643-36.67-4.879-54.914-2.087-2.614.457-26.018 5.672-35.327 2.512-15.392-5.654-31.802-9.751-48.423-8.14-.139.014-2.237 11.476-.603 12.258 1.301.622 3.514 2.217 4.3 3.089.704.78 1.147 1.75 1.107 3.094-.316 7.772 2.148 14.026 6.216 18.599zm63.283-6.935c-1.951-2.541-2.567-8.248-1.75-12.412.414-2.108 1.217-3.786 2.225-4.622.67-.555 1.435-.816 2.269-.778.457.022.952.139 1.476.393 7.099-3.455 15.698-4.699 23.849-4.342 6.489-.001 11.118 1.378 14.258 3.523 3.778 2.582 5.48 6.293 5.578 10.318.117 4.776-2.063 10.001-5.639 14.136-3.423 3.957-8.106 6.89-13.185 7.567-5.767 1.031-11.644.034-16.753-2.404-5.24-2.501-9.667-6.516-12.328-11.379zm-56.902 2.694c-3.289-3.498-5.476-8.048-5.809-12.557-.303-4.103.918-8.167 4.294-11.526 3.06-2.364 8.468-2.403 14.156-1.087 7.356 1.703 14.965 5.507 17.502 7.963.598.282 1.152.773 1.635 1.826l.004.376c.768 3.189.312 6.426-1.017 9.412-1.444 3.243-3.92 6.188-6.94 8.434-4.012 2.974-8.2 3.885-12.119 3.404-4.44-.544-8.569-2.909-11.706-6.245z" fill="#fff"/><path fill-rule="evenodd" clip-rule="evenodd" d="M120.729 99.08c-15.586-5.727-32.246-9.855-49.113-8.219-1.395-.478-3.126-.075-3.744 1.7-6.008 16.47 7.39 11.89 7.21 18.047-1.405 34.522 50.154 40.418 55.951 5.178l.107.056c8.341 7.005 10.098 18.403 19.923 24.495 19.821 13.045 47.919 2.709 51.528-20.515l.078-.314c1.212-4.739 2.66-5.915 8.635-5.891l.943-.169c15.523-2.752 36.195-5.226 50.492 4.24 3.11 1.627 3.256 5.811 5.883 7.629 2.879.503 4.652-2.613 4.848-4.769.456-21.497-42.289-23.043-61.432-21.199-.366-.34-1.147-.298-1.41.126-17.313-6.745-36.817-5.812-55.355-2.975-11.483 2-22.824 6.558-34.544 2.58zm-47.561-4.25c9.352-.421 18.003.04 27.183 2.063 4.839 1.05 8.551 2.378 13.182 3.975 28.886 11.517 32.218-8.954 96.966-.93-.837 3.229-.991 6.426-1.036 9.46-13.221-.48-10.108 10.881-15.061 18.861l-.153.24c-7.218 11.643-24.252 17.074-37.993 9.351-11.464-6.013-12.582-21.264-23.995-27.316-9.894-.35-5.942 11.667-11.326 16.606-7.579 9.101-23.688 10.373-33.191 1.813-4.459-4.119-6.828-9.349-6.96-14.968-.248-3.59.436-7.238-2.58-9.763-2.113-1.932-5.87-1.287-6.3-4.209-.275-1.727.524-3.6 1.264-5.183zm101.643 4.705c-9.291-.412-19.121 1.04-27.098 5.141-5.905-4.229-7.352 12.578-3.432 17.439 5.646 10.397 18.793 17.234 31.451 14.963 19.748-2.575 33.507-37.574-.921-37.543zm-26.531 6.268l.505-.067c8.559-1.175 31.861-6.62 40.849 1.974 8.722 14.253-13.406 38.194-36.434 19.125-6.409-5.872-8.893-12.993-4.92-21.032zm-27.121 1.821c-4.432-4.722-27.02-14.288-34.893-8.15-14.37 14.493 8.42 43.808 27.507 29.526 6.357-4.774 10.539-12.38 8.709-19.746l-.003-.309c-.004-.112-.027-.086-.16-.226a1.958 1.958 0 00-1.16-1.095zm-34.692 8.785c-4.846-23.655 15.408-14.663 32.042-8.349-.893.734-.889 1.736-.633 2.56 1.755 17.551-21.949 27.497-31.41 5.789zm125.907-15.91c6.938 2.114 52.829-1.667 57.068 17.692-4.475-6.524-13.743-9.114-22.075-10.519-11.333-1.911-22.604-.805-33.778 1.207l-.231-2.081c-.248-2.208-.509-4.273-.984-6.299z" fill="#000"/></svg>