<svg width="17" height="19" viewBox="0 0 17 19" fill="none" xmlns="http://www.w3.org/2000/svg">
<g clip-path="url(#clip0_1_437)">
<path d="M2.08332 4.21619C3.17014 2.54643 4.76601 1.03033 6.6081 0.64929C8.45025 0.257558 10.5386 1.00088 12.4542 2.09561C14.3697 3.19034 16.0911 4.647 16.4708 6.38171C16.8398 8.11636 15.8459 10.1396 14.9907 12.0892C14.1249 14.0386 13.3979 15.925 11.9749 17.079C10.5521 18.2223 8.42275 18.6332 6.3414 18.3495C4.24931 18.0765 2.20522 17.1091 1.12269 15.5292C0.0402404 13.9386 -0.0806391 11.7355 0.158386 9.72771C0.397495 7.70921 0.996507 5.88596 2.08332 4.21619Z" fill="#FF8961"/>
</g>
<defs>
<clipPath id="clip0_1_437">
<rect width="17" height="18" fill="white" transform="translate(0 0.484375)"/>
</clipPath>
</defs>
</svg>
