<svg width="40" height="42" viewBox="0 0 40 42" fill="none" xmlns="http://www.w3.org/2000/svg">
<path fill-rule="evenodd" clip-rule="evenodd" d="M19.6803 1.24377C24.9439 1.24377 30.3882 5.35887 32.3176 7.98477C34.5486 11.0212 36.3085 25.5973 35.4829 30.5433C34.6573 35.4893 30.5563 40.8801 23.437 40.8801C16.3178 40.8801 11.9852 39.9957 11.8115 38.711C11.6957 37.8546 10.1304 35.0428 7.1158 30.2756C4.0326 29.401 2.4849 27.919 2.4728 25.8297C2.4608 23.7404 3.287 22.3156 4.9512 21.5555C4.3578 13.3102 4.8083 8.11417 6.3028 5.96747C8.5445 2.74747 14.4167 1.24377 19.6803 1.24377Z" fill="#EDB98A"/>
<path fill-rule="evenodd" clip-rule="evenodd" d="M17.0004 0.00406674L17.0943 0.00446633C22.9181 0.0424663 28.8413 2.74537 32.3061 7.46707L32.4103 7.61077C32.416 7.61827 32.5197 7.77397 32.5442 7.81827C32.6878 8.07827 32.857 8.32147 32.9867 8.58577C33.0963 8.81017 33.1692 9.06087 33.2497 9.29987L33.2741 9.37117C33.4809 9.96777 33.6551 10.5699 33.8091 11.1823C34.1075 12.3744 34.3402 13.5852 34.5665 14.7932C35.3748 19.1189 35.9034 23.5063 36.1698 27.8994L36.2223 28.7828C36.2761 29.699 36.3167 30.6191 36.2147 31.5323C36.0968 32.5953 35.7938 33.593 35.3349 34.556C34.9121 35.4442 34.3671 36.267 33.7433 37.0234C33.4096 37.4283 33.0554 37.8219 32.6197 38.1182C32.273 38.3539 31.8678 38.5091 31.4776 38.6587C30.8427 39.2983 30.0278 39.7816 29.2315 40.1678C27.9189 40.8026 26.4959 41.1533 25.0563 41.329C23.5842 41.5075 22.0973 41.4646 20.6373 41.2094C19.2421 40.9663 17.7468 40.3445 16.8875 39.1599C16.8134 39.058 16.9514 38.9617 17.0423 39.0037C19.536 40.1678 22.3382 40.4717 25.0563 40.1042C26.3244 39.9331 27.5721 39.5797 28.73 39.0308C29.7071 38.568 30.5311 37.8948 31.4081 37.2852C31.5787 37.0562 31.751 36.8308 31.9477 36.6214L32.2544 36.297C32.4837 36.0533 32.7088 35.8063 32.9135 35.5396C33.5458 34.7178 34.0695 33.7856 34.4154 32.8048C35.088 30.8956 34.9061 28.8232 34.7872 26.8335L34.7769 26.6582C34.6545 24.5302 34.4551 22.4096 34.179 20.2965C33.9026 18.1807 33.5513 16.0732 33.1361 13.9807C32.9312 12.9494 32.7012 11.9247 32.4983 10.8934C32.3935 10.3614 32.3203 9.82187 32.2406 9.28427C32.1923 8.95697 32.1932 8.64187 32.1923 8.32217C32.1831 8.33707 32.1719 8.35117 32.1608 8.36517C32.1942 8.44467 32.1711 8.54657 32.0895 8.59327C31.7808 8.77097 31.4248 8.71107 31.0772 8.71207C30.7082 8.71387 30.3392 8.71487 29.9703 8.71577C29.586 8.71717 29.2018 8.71717 28.8175 8.71657L27.6648 8.71387L23.0539 8.69987C20.0342 8.69077 16.9633 8.81187 13.9534 8.52477L13.7236 8.50187C13.4871 8.47437 10.8178 8.14517 10.096 8.06017L10.074 8.05757C8.7548 7.90417 7.4543 7.67697 6.1723 7.33667C6.5912 7.50587 6.9945 7.73407 7.4097 7.90697C7.9456 8.12957 8.4953 8.32397 9.0451 8.51007C10.1732 8.89247 11.3032 9.26367 12.4267 9.65827C12.7488 9.77117 13.4808 12.5545 13.6653 12.9948L13.6707 13.0074C13.7644 13.2196 13.8933 13.4524 13.8218 13.6937C13.6643 14.2266 12.829 14.6212 12.4147 14.9222L11.9887 15.2323L11.4316 15.6388C11.2031 15.8039 10.9922 15.9302 10.6932 15.8357C10.6923 15.8348 10.6914 15.8348 10.6905 15.8348C10.9464 17.0325 11.0706 20.9062 11.1086 21.5859C11.1419 22.1777 11.3143 22.936 11.0399 23.4755C10.975 23.6036 10.8064 23.7046 10.6626 23.6943C10.0359 23.6466 9.4094 23.5998 8.7827 23.5531C8.6148 23.54 8.4619 23.4437 8.4155 23.2717L8.4137 23.2623C8.3934 23.2679 8.3702 23.2642 8.3507 23.2436C8.3164 23.209 8.2812 23.1754 8.245 23.1426C7.42 22.4003 6.1296 22.217 5.1117 22.6032C4.5778 22.8051 3.9706 23.1454 3.5942 23.5868C3.1761 24.0767 3.0863 24.7611 3.0853 25.3866C3.0834 26.5927 3.5155 27.8138 4.397 28.6506C5.207 29.4188 6.2521 29.6423 7.3036 29.8622L7.4163 29.8858C7.6563 29.9362 7.7324 30.2971 7.5517 30.4486C8.0328 30.9236 8.4481 31.4902 8.8532 32.0128C9.3911 32.7062 9.9055 33.4271 10.406 34.1495L10.6475 34.499C11.5085 35.7382 12.7546 37.4452 12.2126 38.9944C12.1403 39.2029 11.8381 39.2777 11.7203 39.0589C11.3338 38.339 11.1178 37.5461 10.7507 36.8177C10.3902 36.1034 9.9415 35.4414 9.4964 34.7795L9.2397 34.3958C8.8124 33.7552 8.389 33.1076 7.9965 32.4476L7.7233 31.9907C7.4665 31.5592 7.2124 31.1133 7.0232 30.6496C5.7578 30.9572 4.3821 30.2728 3.4931 29.3612C2.3753 28.2131 1.8497 26.5217 1.9942 24.9313C2.0703 24.0991 2.3141 23.2941 2.9184 22.6957C2.9796 22.6359 3.0436 22.5788 3.1095 22.5218C3.0863 22.5097 3.0668 22.491 3.0575 22.4685C2.6524 21.498 2.5661 20.3414 2.5318 19.2961C2.4958 18.2153 2.519 17.1316 2.6004 16.0526C2.7498 14.0742 3.1038 12.1061 3.6657 10.2043C4.4971 7.39367 5.9257 4.64207 8.208 2.75617C10.6417 0.744767 13.9023 -0.00113326 17.0004 0.00406674ZM4.8856 24.5872C5.2293 24.4299 5.7655 24.7101 6.0715 24.8887L6.0916 24.9004C6.9954 25.4305 7.6388 26.3337 7.9363 27.3342C8.1273 27.9793 7.0547 28.2364 6.9639 27.6044C6.8898 27.0892 6.7192 26.6068 6.4384 26.1757C6.3715 26.1982 6.3066 26.2272 6.2483 26.2646C6.0249 26.4104 5.895 26.661 5.5846 26.6236C5.3546 26.5965 5.1191 26.4357 5.1349 26.1701C5.16 25.7316 5.5103 25.5568 5.8859 25.5343C5.8323 25.4859 5.7782 25.4381 5.7228 25.3919L5.6622 25.3428C5.5935 25.2928 4.8589 24.7817 4.8378 24.9132L4.8373 24.921C4.8383 24.9733 4.7687 25.0033 4.7335 24.964C4.5917 24.8107 4.7234 24.662 4.8856 24.5872Z" fill="black"/>
<path fill-rule="evenodd" clip-rule="evenodd" d="M23.732 29.9509C24.2517 29.0906 25.3593 31.1982 25.477 31.5606C25.5813 31.8816 25.6501 32.2105 25.6851 32.5432C26.0879 32.6341 26.5063 32.6342 26.9191 32.5546C27.5327 32.4361 27.9077 32.1041 28.441 31.8191C28.8093 31.6221 29.2735 31.8531 29.465 32.1797C29.6903 32.5643 29.5468 32.9634 29.2505 33.25C28.6885 33.7936 27.5829 33.9185 26.8494 33.7741C26.4291 33.6914 26.044 33.5328 25.7038 33.3023C25.7016 33.3453 25.7001 33.3883 25.6967 33.4313L25.6902 33.5058C25.6338 34.1087 25.4692 34.8668 25.0039 35.259C24.2409 35.9025 23.2991 34.665 24.0406 34.0222L24.0636 34.0029C24.5244 33.6281 24.625 32.6226 24.6002 32.0687C24.5839 31.7072 24.5185 31.3411 24.4051 30.9968L24.3817 30.9282C24.3476 30.8309 23.9754 29.9084 23.8409 30.0258L23.8345 30.0325C23.779 30.0991 23.6894 30.0215 23.732 29.9509ZM27.8812 25.096C28.5827 25.5252 29.6515 26.5259 28.8969 27.5899C28.0086 28.528 26.7296 27.4524 26.0994 26.9659C25.515 26.5889 24.8584 27.5585 25.4006 27.9987C29.9547 31.3923 31.8029 25.2082 28.236 24.5914C27.8432 24.5235 27.6974 24.9633 27.8812 25.096ZM20.3904 21.1292C21.076 21.0068 21.7783 21.1784 22.3456 21.5821L22.3886 21.6132C22.9351 22.0155 23.5467 22.7219 23.233 23.4154C23.1072 23.6938 22.7302 23.7375 22.491 23.6113C22.0927 23.4011 22.0205 22.884 21.6652 22.5978C21.3738 22.3632 20.9814 22.2209 20.6061 22.2552C19.7244 22.3358 19.1821 23.211 18.9082 23.9653C18.8732 24.0618 18.7325 24.0992 18.6775 23.9957C18.0317 22.7809 19.1747 21.3463 20.3904 21.1292ZM31.3718 20.6707C32.685 20.5618 34.2222 21.9321 33.8764 23.3273C33.7106 23.9968 32.724 23.9776 32.5486 23.3273C32.452 22.9695 32.4617 22.6529 32.2058 22.3558C31.9945 22.1104 31.6944 21.9679 31.3718 21.9898C31.0161 22.014 30.6881 22.1928 30.4389 22.4442C30.2138 22.6712 30.0792 23.0034 29.846 23.2044C29.7886 23.2537 29.7118 23.2569 29.6551 23.2044C29.2538 22.832 29.4947 22.0567 29.7491 21.6679C30.1133 21.1116 30.7062 20.726 31.3718 20.6707ZM17.8895 18.6547C18.732 17.9041 20.2629 17.1792 21.3989 17.5486C22.052 17.761 22.3368 18.8202 21.6076 19.156C20.7633 19.5447 19.7898 19.3865 18.9304 19.7895C18.5695 19.9588 18.2301 20.1704 17.9788 20.4807C17.7808 20.7253 17.5794 21.0472 17.2931 21.1882C17.2179 21.2253 17.116 21.2262 17.0557 21.1574C16.4281 20.4429 17.3415 19.1429 17.8895 18.6547ZM29.9237 17.5114C30.4444 17.3643 31.022 17.3673 31.551 17.4597C32.0797 17.552 32.6166 17.7726 33.0483 18.0943L33.0984 18.132C33.5697 18.4894 34.1321 19.0095 34.1019 19.6427C34.0767 20.1714 33.5241 20.529 33.047 20.2519C32.658 20.0259 32.475 19.5732 32.1457 19.2718C31.874 19.023 31.5548 18.8268 31.2142 18.6894C30.836 18.5367 30.457 18.4651 30.0511 18.4583C29.7385 18.4531 29.424 18.5563 29.1173 18.5893C29.1425 18.6415 28.9001 18.6172 28.7611 18.5709C28.6582 18.5268 28.6576 18.3958 28.6933 18.3108C28.8703 17.8898 29.5141 17.6269 29.9237 17.5114Z" fill="black"/>
<path fill-rule="evenodd" clip-rule="evenodd" d="M38.6686 17.9774C38.5922 17.9646 38.5156 17.9526 38.4391 17.9413C38.3793 17.9071 38.3092 17.8809 38.2276 17.865C38.0414 17.8175 37.8564 17.7854 37.6718 17.7681C35.0212 17.1677 28.8894 18.0202 28.6364 20.2967C27.7923 20.5802 27.062 20.3263 26.0837 20.3516C25.339 17.2189 12.4651 17.661 11.846 19.5497C11.8436 19.5491 11.8413 19.5485 11.8389 19.5477C11.244 19.3624 10.367 19.4071 9.686 19.3778C8.2321 19.3471 6.7765 19.4775 5.354 19.7862C2.6902 20.2122 -0.945304 20.7111 0.907296 24.0591C0.907696 24.0596 0.907995 24.0603 0.908395 24.0608L0.908696 24.0605C1.228 24.3899 1.7699 24.1247 1.79 23.6788C1.1671 22.0927 2.574 21.9022 3.6564 21.4464C6.3497 20.4725 9.0919 20.3375 11.8775 20.6388C12.087 20.8871 12.405 21.1037 12.7411 21.217C14.6036 21.5281 13.6221 22.9187 14.7993 23.1209C14.5831 27.968 20.4301 30.6139 23.8179 27.4275C25.1706 26.0965 25.493 24.1247 25.8066 22.3474C25.9725 22.3099 26.0779 22.2186 26.1395 22.0978C26.5383 21.6971 26.7888 21.327 27.5774 21.217C28.366 21.107 28.9731 21.3278 29.0552 21.3954C29.0759 21.4374 29.0982 21.4794 29.124 21.5215C29.16 21.5842 29.2091 21.6343 29.2648 21.6736C28.4861 26.5004 32.2091 29.5529 35.9676 27.0495C37.6007 25.5033 37.9458 23.1361 38.014 21.0232C38.2354 20.8888 38.3755 20.6282 38.2989 20.3006C38.1933 19.849 38.4409 19.458 38.8354 19.2616C39.3479 19.0067 39.2572 18.0755 38.6686 17.9774ZM22.5188 20.2673C22.0523 20.164 21.853 20.888 22.321 20.9915C22.6525 21.0649 22.9333 21.2331 23.1231 21.518L23.1431 21.549C23.3977 21.9569 24.0416 21.5804 23.7852 21.1699C23.4967 20.708 23.0484 20.3845 22.5188 20.2673ZM36.1826 19.8185C36.0181 19.7019 35.7692 19.7884 35.6738 19.9532C35.5687 20.1346 35.6376 20.3366 35.7916 20.4553L35.8073 20.4669C35.9486 20.5671 36.0862 20.7468 36.1034 20.9309L36.105 20.9539C36.1235 21.4356 36.8673 21.4381 36.8487 20.9539C36.8306 20.4802 36.5581 20.0845 36.1826 19.8185Z" fill="black"/>
</svg>
