<svg width="563" height="831" viewBox="0 0 563 831" fill="none" xmlns="http://www.w3.org/2000/svg">
<path d="M404.184 335.212C453.952 367.228 499.283 414.462 511.012 469.302C523.058 524.144 501.502 586.593 469.486 643.97C437.468 701.347 394.674 753.018 343.32 764.747C291.966 776.159 231.736 746.995 173.724 721.952C115.713 696.592 59.604 675.353 25.0511 633.192C-9.1849 591.031 -21.8649 527.63 -13.9399 465.498C-6.3319 403.05 21.8811 341.869 68.48 309.218C115.396 276.567 180.698 272.446 240.294 279.103C300.208 285.76 354.414 303.195 404.184 335.212Z" fill="#FFDBB4"/>
<path fill-rule="evenodd" clip-rule="evenodd" d="M252.579 375.44L247.114 388.962L250.125 431.821L252.365 432.17C276.028 435.841 292.107 437.696 300.603 437.733L300.866 437.734C309.422 437.734 319.674 435.821 331.622 431.996L332.166 431.821L333.546 399.729H330.293L324.409 385.923L324.414 385.918C324.479 386.029 324.547 386.136 324.617 386.24C327.07 389.871 328.492 386.939 334.255 388.223C341.155 389.761 344.219 396.741 350.294 401.957C353.114 404.379 359.034 405.52 361.867 407.186L364.843 408.936C374.168 414.44 384.885 421.127 390.512 429.837C397.109 440.049 401.656 449.739 405.855 461.099C414.906 485.584 421.188 510.569 425.676 536.264C430.226 562.306 432.96 588.672 435.049 615.017C436.016 627.225 436.836 639.444 437.517 651.671L437.685 654.728C438.042 661.381 437.731 667.891 431.687 671.988C427.357 674.923 421.61 675.37 416.529 675.671L416.253 675.688C378.69 677.892 341.126 680.081 303.562 682.274L247.218 685.571C237.843 686.121 228.467 686.667 219.092 687.209L196.207 688.532C185.422 689.146 174.623 689.678 163.823 689.615C150.235 689.536 136.704 688.531 123.241 686.719L122.054 686.557C113.584 685.386 101.303 682.425 99.7813 672.259C99.5629 670.799 100.847 669.887 101.925 670.097C101.57 668.442 101.35 666.785 101.139 665.345C100.236 659.194 99.6697 653.003 99.3896 646.793C98.8277 634.366 99.3011 621.881 100.542 609.508C102.596 589.038 105.475 568.604 108.449 548.241L109.112 543.717C112.275 522.143 116.042 500.606 121.937 479.591C127.382 460.178 135.876 439.983 147.564 427.708C159.253 415.432 175.917 404.767 193.041 398.235C194.524 397.669 223.987 391.213 225.972 392.153L226.328 391.873C232.202 387.232 240.582 379.079 249.21 381.646L249.229 381.614C249.433 381.24 250.23 378.735 251.331 375.44H252.579Z" fill="#8FA7DF"/>
<path fill-rule="evenodd" clip-rule="evenodd" d="M258.81 357.443C265.946 348.389 273.468 345.51 284.583 346.185C292.121 345.915 299.639 347.874 306.021 352.199C311.869 355.258 317.055 359.467 320.757 364.887C323.923 369.52 321.517 380.969 324.409 385.923C324.381 386.462 324.366 386.953 324.366 387.397C324.366 391.684 327.347 396.467 333.309 401.748L333.546 401.957V433.107C323.523 436.192 311.114 437.734 296.319 437.734C281.744 437.734 266.585 435.285 250.841 430.387L250.125 430.162L247.114 396.307L250.125 386.939L250.124 379.092L251.288 375.582C253.348 369.411 256.502 360.372 258.81 357.443Z" fill="#694D3D"/>
<path fill-rule="evenodd" clip-rule="evenodd" d="M250.125 430.162C267.767 435.304 282.61 437.875 294.654 437.875C306.698 437.875 319.202 435.304 332.167 430.162L329.012 684.049L278.236 684.67L250.125 430.162Z" fill="#9FD8E5"/>
<path fill-rule="evenodd" clip-rule="evenodd" d="M163.01 541.018C162.815 540.651 163.269 540.321 163.57 540.586C170.41 546.593 173.991 556.241 174.742 565.159C175.537 574.615 174.409 584.406 173.978 593.859C173.498 604.388 173.067 614.921 172.482 625.445C171.887 636.122 171.247 646.796 170.698 657.476L169.463 681.5C169.331 684.06 169.616 687.209 168.634 689.598C167.113 693.302 162.593 692.729 161.644 689.633L161.614 689.531L161.527 689.598C160.689 686.808 161.317 683.494 161.459 680.61L162.753 654.362C163.667 635.809 164.482 617.256 165.464 598.707L165.798 592.524C166.257 584.201 166.609 575.898 166.892 567.577L166.984 564.803C167.252 556.448 167.039 548.561 163.01 541.018ZM328.822 387.001C332.633 386.639 335.511 387.904 338.97 389.236C340.477 389.816 341.904 390.486 343.35 391.18C345.16 392.049 346.324 393.584 347.439 395.208L348.035 396.083C352.676 402.889 355.799 410.741 359.322 418.151C363.443 426.819 367.605 435.468 371.638 444.177L373.628 448.468C374.623 450.614 375.615 452.76 376.593 454.914L378.281 458.662C379.978 462.463 381.498 466.485 379.081 470.406C376.832 474.053 372.847 476.875 369.691 479.694C367.058 482.046 364.425 484.398 361.791 486.75C367.236 492.206 370.891 499.077 373.039 506.446C376.092 505.173 379.818 504.929 382.974 504.378C387.392 503.607 387.933 510.301 383.764 510.22C380.684 510.159 377.071 510.474 373.912 509.825C374.461 512.246 374.86 514.704 375.113 517.169C376.441 530.086 373.54 543.079 370.515 555.578L370.266 556.604C366.98 570.131 363.865 583.695 361.078 597.335C358.285 611.004 355.773 624.731 353.543 638.503C351.273 652.521 349.666 666.617 347.94 680.709C347.679 682.842 346.338 684.67 343.983 684.67C342.021 684.67 339.779 682.838 340.025 680.709C341.806 665.363 344.333 650.097 346.843 634.855C351.166 608.608 356.607 582.588 362.866 556.74L363.96 552.238C366.776 540.563 369.331 528.534 367.918 516.492C366.768 506.686 362.671 496.231 354.575 490.14L354.328 489.957C352.437 488.569 351.709 485.914 353.572 484.086C354.757 482.923 355.944 481.761 357.132 480.6L364.259 473.635L365.696 472.229C366.894 471.058 368.098 469.894 369.338 468.767C370.088 468.084 372.123 466.783 372.271 465.661C372.368 464.929 371.502 463.643 371.15 462.968L369.542 459.718C368.628 457.865 367.743 455.999 366.851 454.135C365.003 450.274 363.127 446.425 361.319 442.545L350.456 419.248C347.391 412.676 344.661 405.737 340.654 399.661L339.864 398.476C339.205 397.479 338.622 396.519 338.205 395.299C337.805 394.126 337.302 392.837 336.561 391.836C334.826 389.486 331.509 388.153 328.733 387.66C328.332 387.589 328.478 387.034 328.822 387.001ZM245.269 380.882C245.511 380.882 245.547 381.227 245.325 381.294C241.976 382.302 238.777 383.928 236.166 386.275C234.918 387.398 233.66 388.672 232.889 390.184C232.594 390.763 232.431 391.374 232.311 392.008L232.273 392.22C232.074 393.364 231.789 394.002 231.208 394.918L231.108 395.074C227.791 400.201 225.466 405.896 223.34 411.598L218.711 424.031L214.084 436.466C212.594 440.472 211.102 444.479 209.611 448.486C208.788 450.698 207.941 452.901 207.094 455.104C206.728 456.058 206.334 457.005 205.999 457.971C205.953 458.103 205.806 458.899 205.697 459.092L205.734 459.157C206.667 460.728 209.156 462.041 210.566 463.182L215.423 467.112C218.887 469.915 222.439 472.639 225.798 475.567C227.908 477.405 226.595 480.697 224.242 481.465C220.299 482.75 216.435 484.289 212.551 485.744C210.982 486.331 209.348 486.843 207.797 487.49L206.853 487.899C206.485 488.065 206.662 488.063 206.677 488.744C206.691 489.458 206.894 490.203 207.01 490.905C208.318 498.822 209.705 506.726 211.169 514.616C216.347 542.517 222.533 570.214 229.588 597.698C233.152 611.578 236.974 625.389 240.615 639.249C244.248 653.071 249.028 666.695 253.592 680.232C254.88 684.049 248.832 685.693 247.576 681.892C242.315 665.97 237.503 649.91 232.534 633.898C223.705 605.448 216.747 576.379 210.594 547.241C207.544 532.799 204.755 518.302 202.228 503.76C201.75 501.006 201.281 498.252 200.821 495.495L200.152 491.441C199.693 488.551 199.431 485.541 201.676 483.254C203.867 481.021 207.629 480.23 210.513 479.183L210.723 479.106C212.558 478.421 214.406 477.761 216.247 477.08C213.535 474.943 210.856 472.759 208.151 470.623C205.968 468.9 203.751 467.212 201.6 465.45C199.826 463.996 198.38 462.129 198.195 459.765C198.006 457.349 199.041 455.107 199.875 452.891L199.955 452.677C200.775 450.465 201.596 448.253 202.439 446.049L207.651 432.406C210.964 423.736 214.137 414.996 217.621 406.394C218.999 402.99 220.501 399.639 222.276 396.421C223.132 394.869 224.05 393.351 225.048 391.886C226.165 390.244 227.18 389.443 228.911 388.537C231.68 387.088 233.854 384.659 236.634 383.165C239.363 381.699 242.171 380.916 245.269 380.882ZM254.258 365.415C254.364 365.233 254.645 365.314 254.648 365.521C254.721 369.83 253.698 374.233 253.069 378.493C252.436 382.769 252.234 387.282 251.319 391.512C251.3 391.709 251.262 391.903 251.208 392.094L251.165 392.239C250.779 393.424 249.775 394.428 248.544 394.742C248.931 396.89 249.296 399.041 249.603 401.204C250.13 404.921 250.611 408.644 251.084 412.369L251.65 416.838C252.185 421.05 252.705 425.264 253.219 429.479C254.526 430.026 255.861 430.477 257.227 430.869C260.374 431.77 263.597 432.136 266.845 432.455C273.458 433.104 280.122 433.405 286.759 433.774L288.18 433.854C295.642 434.282 303.144 434.358 310.586 433.592C314.277 433.212 317.938 432.574 321.537 431.671C323.366 431.211 325.143 430.526 326.968 430.077C327.573 429.928 328.114 429.585 328.721 429.218C328.99 428.877 329.368 428.619 329.86 428.52L329.994 428.497L330.126 428.477L330.171 428.457L330.168 428.471C330.541 428.421 330.896 428.421 331.23 428.467C331.364 425.181 331.508 421.895 331.689 418.61C332.174 409.787 333.515 400.583 331.725 391.837C331.665 391.543 332.065 391.439 332.169 391.714C335.681 400.973 335.286 411.098 335.463 420.843C335.636 430.372 335.531 439.909 335.484 449.441C336.166 449.732 336.775 450.125 337.257 450.678C338.219 451.782 338.496 453.702 337.257 454.768C336.707 455.24 336.099 455.568 335.454 455.796C335.42 464.077 335.361 472.358 335.278 480.64C336.852 481.856 336.999 484.744 335.219 485.945C334.923 512.763 334.436 539.581 334.032 566.395L333.186 622.651C333.073 630.147 332.887 637.642 332.82 645.136L332.873 645.157L333.06 645.244C333.375 645.392 333.844 645.632 333.942 645.877C333.967 645.941 333.974 645.985 333.971 646.018C334.487 646.09 334.999 646.335 335.441 646.755C336.534 647.794 336.312 649.36 335.441 650.418L335.209 650.701C334.666 651.36 333.635 651.614 332.794 651.48C332.802 656.158 332.832 660.836 332.817 665.514C332.813 666.942 332.791 668.371 332.766 669.8L332.708 673.226C332.668 675.18 332.495 677.665 330.495 678.543C328.238 679.534 326.214 678.722 325.3 676.428C325.052 675.807 325.106 675.228 325.196 674.613C325.168 673.69 325.023 672.62 325.041 671.764L325.116 668.192C325.127 667.642 325.15 667.091 325.165 666.541L325.1 666.547C317.08 666.937 309.004 666.747 300.971 666.742L297.398 666.747C294.418 666.75 291.43 666.734 288.454 666.62L287.338 666.572C285.109 666.468 282.766 666.434 280.455 666.235C280.75 668.608 281.025 670.983 281.27 673.361C281.502 675.615 279.177 677.531 277.103 677.531C274.64 677.531 273.232 675.593 272.937 673.361C271.545 662.83 270.975 652.201 269.646 641.663C268.455 632.225 267.422 622.765 266.372 613.309L266.021 610.157C262.18 575.745 258.45 541.319 254.883 506.877L253.221 490.777C251.544 474.549 249.856 458.32 248.433 442.068C247.619 432.776 246.869 423.483 246.164 414.182C245.646 407.35 245.321 400.555 245.109 393.735C244.274 392.876 243.856 391.62 244.226 390.324C244.442 389.568 244.693 388.815 244.959 388.064C244.942 387.326 244.925 386.588 244.91 385.849C244.897 385.15 245.606 384.79 246.174 384.906C247.206 382.406 248.342 379.927 249.291 377.451C250.825 373.442 252.09 369.123 254.258 365.415ZM168.543 408.735C184.587 398.672 203.685 391.431 222.814 392.21C223.249 392.228 223.371 392.892 222.919 392.992C212.716 395.272 202.401 398.049 192.742 402.091C183.054 406.145 173.843 411.603 165.638 418.163C150.501 430.266 138.736 446.008 130.989 463.753C126.451 474.148 123.27 485.122 120.492 496.1C117.553 507.719 115.131 519.462 113.117 531.277C109.139 554.613 106.823 578.207 105.59 601.841C104.337 625.883 104.853 649.942 103.959 673.987C103.805 678.153 97.8548 678.071 97.5523 673.987C95.5262 646.649 96.6487 618.875 98.5225 591.556C100.207 566.998 103.15 542.491 107.888 518.328L108.3 516.233C112.73 493.878 118.072 470.981 128.78 450.735C137.922 433.45 152.035 419.09 168.543 408.735ZM391.342 515.58C391.426 515.34 391.742 515.343 391.826 515.58C393.655 520.704 393.721 526.486 394.207 531.887L394.245 532.302C394.712 537.229 395.063 542.162 395.389 547.098L395.51 548.95C396.821 569.09 398.458 589.207 400.926 609.241C403.385 629.199 406.71 649.018 410.305 668.798C410.706 671.001 409.731 673.244 407.423 673.878C405.389 674.437 402.778 673.184 402.348 670.994C400.116 659.641 398.311 648.272 396.7 636.821C393.866 616.655 391.75 596.397 390.39 576.079C389.708 565.874 389.287 555.673 389.12 545.446C389.043 540.701 389.166 535.945 389.419 531.205L389.479 530.111C389.758 525.266 389.729 520.2 391.342 515.58ZM217.973 643.858C218.188 643.742 218.453 643.981 218.317 644.203C215.211 649.256 211.008 653.613 206.946 657.907C202.699 662.396 198.558 667.02 194.225 671.421C191.095 674.6 186.059 669.472 189.363 666.555C194.008 662.454 198.863 658.558 203.591 654.549L205.658 652.795C209.535 649.517 213.526 646.269 217.973 643.858ZM365.53 641.328C365.298 640.885 365.828 640.527 366.188 640.82C368.694 642.859 370.94 645.292 373.36 647.444C375.756 649.576 378.242 651.565 380.796 653.504C383.36 655.451 385.98 657.321 388.671 659.09C390.903 660.557 393.203 661.732 395.541 662.951C396.623 663.09 397.626 663.622 398.428 664.63C399.696 666.224 399.831 669.23 398.072 670.614L397.756 670.862C395.703 672.477 393.265 672.674 391.244 670.862C388.987 668.84 386.854 666.614 384.686 664.476L384.035 663.838C381.706 661.572 379.434 659.233 377.291 656.789L375.352 654.581C371.754 650.475 368.009 646.049 365.53 641.328ZM353.987 404.598C353.57 404.321 353.827 403.577 354.342 403.755L355.286 404.081C359.229 405.453 363.287 406.974 366.867 409.085C370.715 411.354 374.267 414.057 377.661 416.956C384.686 422.958 390.663 430.338 395.742 438.031C405.933 453.467 412.236 471.146 417.324 488.834C422.75 507.694 426.928 526.961 430.339 546.281C433.804 565.916 436.478 585.728 438.235 605.591C439.101 615.375 439.682 625.165 439.974 634.983C440.125 640.034 440.12 645.081 440.078 650.134C440.067 651.433 440.076 652.732 440.091 654.03L440.14 657.927C440.166 660.391 440.461 662.98 439.876 665.387C438.934 669.261 432.534 668.538 432.744 664.578C432.551 663.261 432.543 661.899 432.593 660.535C432.563 660.359 432.53 660.18 432.493 659.997C432.388 659.474 432.478 658.989 432.683 658.572C432.716 657.918 432.746 657.267 432.757 656.628C432.799 654.027 432.796 651.436 432.724 648.835C432.573 643.351 432.355 637.868 432.135 632.387C431.695 621.434 431.083 610.476 430.196 599.551C427.109 561.52 420.592 523.272 409.644 486.684C404.559 469.693 397.55 453.014 387.497 438.332C383.035 431.814 378 425.793 372.419 420.206C366.802 414.583 360.613 408.989 353.987 404.598ZM278.236 649.762L278.994 655.254C279.374 658 279.749 660.747 280.106 663.497C282.527 663.165 285.004 663.026 287.338 662.819C291.423 662.457 295.536 662.281 299.633 662.112C308.105 661.762 316.619 661.156 325.1 661.198C325.187 661.199 325.269 661.204 325.352 661.211L325.772 650.375L319.814 650.366C314.765 650.358 309.718 650.315 304.669 650.271C300.123 650.232 295.574 650.226 291.028 650.131L289.08 650.085C285.633 649.992 281.826 650.184 278.236 649.762ZM326.272 634.033C326.029 634.062 325.782 634.086 325.519 634.097C324.339 634.147 323.149 634.112 321.968 634.122C319.453 634.144 316.939 634.161 314.424 634.16C309.394 634.16 304.365 634.19 299.336 634.251C294.159 634.314 288.986 634.404 283.808 634.414C281.3 634.418 278.799 634.352 276.291 634.282C276.697 637.848 277.121 641.412 277.589 644.967C281.483 644.441 285.671 644.706 289.477 644.67L289.971 644.663C295.166 644.575 300.365 644.64 305.561 644.646C310.906 644.653 316.25 644.67 321.596 644.714L325.987 644.75L325.995 644.529C326.124 641.034 326.207 637.534 326.272 634.033ZM274.36 616.971C274.846 621.181 275.303 625.398 275.769 629.613C276.079 629.566 276.392 629.524 276.712 629.491C279.224 629.228 281.731 629.003 284.252 628.846C289.277 628.535 294.302 628.37 299.336 628.235C304.512 628.096 309.689 627.99 314.867 627.916C317.383 627.881 319.896 627.885 322.412 627.902C323.592 627.91 324.784 627.873 325.962 627.952C326.103 627.962 326.237 627.976 326.37 627.992L326.459 621.662C326.474 620.607 326.49 619.553 326.507 618.498C322.619 618.738 318.666 618.647 314.781 618.648L313.885 618.65C309.004 618.672 304.12 618.605 299.239 618.504C294.204 618.399 289.179 618.234 284.152 617.911C282.116 617.781 280.094 617.607 278.069 617.384L277.056 617.268C276.174 617.164 275.267 617.08 274.36 616.971ZM326.908 599.109C317.544 599.853 308.23 600.164 298.842 600.256L297.433 600.268C289.136 600.331 280.771 600.674 272.455 600.454C272.952 604.768 273.448 609.083 273.948 613.397C275.139 613.341 276.335 613.341 277.499 613.299C279.867 613.213 282.227 613.192 284.596 613.186C289.477 613.175 294.358 613.218 299.239 613.208C304.27 613.197 309.299 613.112 314.329 613.017C318.407 612.941 322.528 612.634 326.617 612.645L326.908 599.109ZM327.304 580.702C326.219 581.063 324.938 581.086 323.534 581.15L319.909 581.331C318.229 581.414 316.548 581.491 314.867 581.552C309.265 581.758 303.664 581.949 298.061 582.128C292.32 582.31 286.551 582.416 280.809 582.235C277.996 582.146 275.207 581.999 272.403 581.764C271.709 581.706 271.003 581.668 270.295 581.618C270.947 587.334 271.603 593.05 272.26 598.765C280.537 597.749 288.877 597.116 297.143 596.064L304.618 595.109C312.089 594.155 319.554 593.219 327.052 592.429L327.304 580.702ZM327.703 562.092C326.111 562.485 324.296 562.466 322.768 562.562L322.484 562.582C319.588 562.802 316.683 562.912 313.78 562.983C308.089 563.124 302.395 563.194 296.702 563.229L293.279 563.25C288.716 563.277 284.155 563.288 279.591 563.182C276.663 563.114 273.741 562.97 270.816 562.824C269.939 562.779 269.043 562.75 268.144 562.705C268.756 568.117 269.374 573.528 269.99 578.939C270.951 578.786 271.917 578.67 272.838 578.514C275.196 578.116 277.549 577.797 279.924 577.512C285.068 576.896 290.239 576.452 295.407 576.077C300.713 575.692 306.023 575.367 311.329 574.994L315.088 574.729C316.34 574.642 317.593 574.558 318.847 574.481C320.987 574.35 323.475 574.498 325.598 574.032C326.173 573.792 326.811 573.737 327.451 573.874L327.703 562.092ZM328.185 540.308C327.634 541.008 326.811 541.375 325.83 541.502C320.721 542.166 315.48 542.272 310.327 542.585L309.419 542.642C304.098 542.993 298.775 543.269 293.45 543.552C287.981 543.842 282.512 544.079 277.038 544.27C274.714 544.351 272.378 544.36 270.051 544.331L269.054 544.316C268.098 544.299 267.097 544.302 266.094 544.269C266.649 549.33 267.21 554.39 267.778 559.449C268.801 559.337 269.824 559.253 270.816 559.147C273.74 558.838 276.66 558.532 279.591 558.301C285.144 557.863 290.701 557.6 296.264 557.324C301.956 557.042 307.651 556.855 313.344 556.589C316.104 556.459 318.864 556.299 321.616 556.045C323.544 555.867 325.835 555.21 327.848 555.452C327.958 550.404 328.072 545.356 328.185 540.308ZM328.634 520.794C328.547 520.929 328.445 521.06 328.321 521.181C326.072 523.406 323.299 523.234 320.318 523.468L320.135 523.482C317.214 523.728 314.291 523.962 311.366 524.173C305.519 524.596 299.661 524.891 293.806 525.154C287.814 525.424 281.783 525.61 275.785 525.487C271.944 525.408 267.921 525.422 264.003 525.048C264.605 530.621 265.21 536.194 265.82 541.766C266.921 541.559 268.03 541.399 269.08 541.234C271.727 540.817 274.376 540.399 277.038 540.092C282.357 539.479 287.677 538.906 293.007 538.389C297.564 537.946 302.12 537.497 306.681 537.093L309.419 536.856C314.86 536.398 320.371 535.643 325.83 535.531C326.73 535.513 327.748 536.003 328.263 536.776C328.384 531.448 328.509 526.121 328.634 520.794ZM329.012 504.997C327.622 505.166 326.125 505.07 324.842 505.112C321.6 505.218 318.357 505.316 315.114 505.412L295.656 505.987C289.032 506.182 282.384 506.329 275.756 506.235C272.841 506.194 269.913 506.189 266.999 506.03L266.028 505.971C264.828 505.891 263.356 505.88 261.919 505.734L263.616 521.464C267.515 520.901 271.533 520.69 275.398 520.359L276.224 520.286C281.926 519.767 287.655 519.423 293.366 519.036C299.225 518.639 305.076 518.157 310.927 517.664C313.851 517.418 316.775 517.172 319.698 516.903L320.059 516.868C322.819 516.579 325.415 515.965 327.859 517.594C328.217 517.832 328.497 518.15 328.689 518.507C328.796 514.004 328.9 509.5 329.012 504.997ZM329.465 486.639C317.615 487.116 305.763 487.478 293.904 487.637C287.229 487.727 280.563 487.664 273.888 487.524C270.994 487.463 268.076 487.325 265.184 487.103L264.101 487.016C262.726 486.9 261.282 486.816 259.843 486.677C260.438 492.086 261.027 497.495 261.613 502.905C263.027 502.642 264.506 502.521 265.746 502.362L266.028 502.325C269.108 501.9 272.218 501.653 275.314 501.381C281.342 500.849 287.401 500.507 293.445 500.216C299.635 499.917 305.828 499.665 312.018 499.389L318.209 499.112C319.241 499.066 320.273 499.021 321.305 498.978C322.779 498.915 324.253 498.856 325.727 498.795C326.454 498.765 327.21 498.666 327.938 498.704L328.146 498.676C328.241 498.664 328.325 498.654 328.403 498.645C328.601 498.495 328.814 498.369 329.04 498.275L329.177 498.221L329.465 486.639ZM257.9 469.241C258.451 474.11 258.995 478.98 259.532 483.851C261.222 483.658 262.932 483.551 264.546 483.405C267.8 483.114 271.069 482.858 274.333 482.708L280.856 482.404C285.205 482.203 289.553 482.009 293.904 481.85C305.814 481.415 317.723 480.916 329.625 480.308C329.709 477.005 329.796 473.701 329.884 470.398C329.313 471.01 328.487 471.413 327.403 471.411C314.907 471.377 302.402 471.449 289.908 471.244C283.654 471.141 277.407 470.989 271.16 470.668C268.104 470.511 265.03 470.191 261.997 469.77C260.703 469.591 259.288 469.463 257.9 469.241ZM255.9 451.891C256.488 456.879 257.064 461.868 257.631 466.858C259.183 466.581 260.786 466.433 262.234 466.236C265.344 465.813 268.474 465.475 271.607 465.298C277.703 464.953 283.803 464.779 289.908 464.65C302.401 464.384 314.907 464.386 327.403 464.287C328.577 464.278 329.448 464.743 330.02 465.437C330.107 462.322 330.199 459.207 330.293 456.092C329.086 455.965 327.889 455.784 326.782 455.707C323.379 455.469 319.974 455.252 316.568 455.056C309.461 454.648 302.346 454.3 295.234 453.99C288.12 453.68 281.003 453.378 273.887 453.114L270.774 453C265.825 452.816 260.792 452.583 255.9 451.891ZM253.663 433.107C254.274 438.159 254.876 443.211 255.477 448.264L255.66 449.828C261.612 448.67 267.884 448.33 273.887 448.075C281.004 447.772 288.11 447.616 295.234 447.638C302.351 447.659 309.457 447.828 316.568 448.122C320.121 448.269 323.674 448.439 327.225 448.632C328.202 448.685 329.347 448.656 330.525 448.673C330.551 447.879 330.572 447.085 330.6 446.292C330.708 443.076 330.814 439.86 330.924 436.644C328.522 437.879 325.399 438.377 322.985 438.903L322.71 438.964C318.724 439.86 314.655 440.44 310.586 440.795C302.597 441.493 294.524 441.232 286.543 440.557L285.145 440.437C278.135 439.829 270.869 439.058 264.074 437.322C260.838 436.495 257.492 435.338 254.591 433.661C254.29 433.487 253.978 433.302 253.663 433.107ZM321.15 373.079C321.22 372.806 321.628 372.744 321.763 372.999C322.707 374.793 323.058 376.947 323.713 378.87C324.418 380.937 325.076 383.02 325.854 385.062C327.48 389.328 329.397 393.428 331.684 397.381C333.948 401.294 327.608 404.088 325.942 399.803C324.222 395.382 322.808 390.81 321.953 386.138C321.535 383.859 321.163 381.548 321.042 379.232C320.938 377.242 320.659 375.02 321.15 373.079Z" fill="black"/>
<path fill-rule="evenodd" clip-rule="evenodd" d="M358.234 245.541C342.552 204.163 314.285 173.868 266.63 192.896C265.263 191.963 263.479 191.713 261.77 192.806C235.81 209.154 217.117 235.364 209.015 264.919C204.085 265.86 199.294 267.499 195.015 270.188C185.715 276.033 179.459 285.332 173.593 294.39C171.83 297.113 173.463 301.621 176.777 302.239C178.217 302.508 179.644 302.668 181.063 302.71C180.717 303.968 180.263 305.183 179.684 306.297C177.587 310.332 181.548 314.615 185.259 313.512C185.671 313.731 186.103 313.91 186.55 314.045C186.601 316.331 187.772 319.39 190.089 319.852C193.837 320.658 198.817 317.781 197.933 313.577C199.065 313.777 200.193 313.802 201.293 313.663C201.416 315.853 201.378 318.137 201.679 320.156C202.664 329.673 212.145 336.066 221.186 333.171C221.741 336.136 222.392 340.303 225.304 341.911C228.709 351.49 234.587 362.422 244.216 366.787C243.359 368.989 243.824 371.669 246.406 373.143C264.031 383.221 285.185 386.631 305.112 382.884C313.075 382.409 320.834 380.604 328.281 376.759C333.712 373.955 338.705 370.394 343.579 366.723C348.455 363.051 353.669 359.476 357.561 354.708C361.788 349.53 363.756 343.437 365.033 336.953C370.885 307.519 368.864 278.619 358.234 250.58C345.075 215.873 371.388 280.25 358.234 245.541Z" fill="#694D3D"/>
<path fill-rule="evenodd" clip-rule="evenodd" d="M194.969 268.496C209.607 259.836 228.274 262.078 237.068 275.492C238.586 277.807 239.634 280.355 240.375 283.304L240.494 283.794L240.614 284.31C240.997 286.015 241.248 287.619 241.589 290.347L241.967 293.442L242.075 294.286C242.441 297.087 242.762 298.857 243.263 300.661L243.362 301.011L243.941 303.009L241.757 303.818C237.574 305.333 236.698 305.469 234.284 304.203C232.399 303.215 231.415 301.884 230.105 299.188L229.916 298.793L229.498 297.914L229.271 297.45C228.418 295.742 227.735 293.92 226.769 293.258C225.458 292.359 221.326 292.002 218.452 292.356L218.302 292.375L218.178 292.401L217.965 292.449C213.132 293.595 208.727 297.508 205.821 301.643C203.482 304.972 202.138 309.166 201.973 313.525L201.963 313.815L201.906 316.04L197.221 315.94L197.267 315.074L197.197 315.228C195.721 318.349 192.012 320.427 188.91 318.361L188.799 318.286L188.687 318.205C186.067 316.271 185.752 312.357 187.902 309.979L188.001 309.872L188.098 309.774L188.078 309.765L188.056 309.757L188.042 309.756C187.31 309.891 186.666 310.267 185.796 311.069L185.572 311.279L185.123 311.767L184.658 312.265L184.458 312.471C184.33 312.6 184.213 312.714 184.103 312.814C183.954 312.95 183.816 313.064 183.667 313.168C183.528 313.264 183.385 313.348 183.212 313.424C182.785 313.61 182.329 313.698 181.745 313.554C180.944 313.357 180.493 312.871 180.22 312.299C180.114 312.077 180.053 311.872 180.01 311.657C179.965 311.431 179.943 311.201 179.931 310.936C179.924 310.762 179.921 310.572 179.922 310.365L179.928 310.041L179.939 309.689L179.951 309.408L180.004 308.365C180.193 304.942 181.09 301.58 182.626 298.406L182.782 298.09L182.84 297.975L182.679 298.191C181.632 299.575 180.621 300.535 179.358 301.168L179.185 301.253L179.015 301.33C177.263 302.102 175.499 301.802 174.434 300.372C173.697 299.382 173.479 298.079 173.63 296.709C173.923 294.05 174.972 291.616 177.024 288.064L177.312 287.57L178.439 285.653C182.781 278.324 188.362 272.404 194.969 268.496Z" fill="#E8E1E1"/>
<path fill-rule="evenodd" clip-rule="evenodd" d="M282.422 184.833C290.447 184.265 298.619 185.622 306.262 188.049C318.451 191.919 329.645 198.748 338.842 207.638C348.32 216.801 355.331 228.097 359.593 240.574C364.733 255.621 365.503 271.687 366.95 287.395C367.68 295.33 368.885 303.145 370.137 311.004L370.335 312.246C371.558 319.903 372.246 327.647 370.557 335.292C367.747 347.998 359.327 358.784 349.331 366.754C328.797 383.126 296.831 393.107 272.923 378.042C269.225 375.711 272.73 369.75 276.34 372.179C278.882 373.889 281.574 375.388 284.461 376.423C296.523 380.746 309.771 379.206 321.693 375.185C333.441 371.222 344.714 364.525 353.383 355.589C362.489 346.204 367.535 334.61 366.806 321.418C366.371 313.57 364.588 305.866 363.599 298.081C362.722 291.186 362.196 284.253 361.591 277.33L361.369 274.84C360.084 260.735 358.24 246.244 351.841 233.44C346.459 222.669 338.578 213.087 329.101 205.686C319.18 197.938 307.33 192.519 294.897 190.498C280.275 188.122 266.279 192.443 254.083 200.489C243.265 207.624 233.966 217.158 226.835 227.977C223.377 233.223 220.431 238.825 217.887 244.57C215.49 249.983 213.837 255.656 211.909 261.235C213.495 261.188 215.108 261.249 216.746 261.431C225.145 262.364 232.971 266.73 237.953 273.614C244.041 282.026 242.396 292.352 244.774 301.919C244.958 302.662 244.645 303.389 244.011 303.8C240.405 306.137 235.58 306.215 232.09 303.583C229.061 301.299 227.639 297.169 228.865 293.561C229.025 293.091 229.708 293.174 229.727 293.678C229.958 299.819 235.638 304.547 241.206 301.625C238.817 293.376 240.074 284.162 235.19 276.711C226.544 263.523 208.652 262.978 196.085 270.412C189.471 274.324 184.236 280.207 180.338 286.786L179.215 288.696C177.721 291.248 176.139 294.135 175.829 296.946C175.65 298.568 176.247 300.092 178.102 299.275C179.603 298.614 180.765 297.072 181.656 295.746C183.177 293.486 186.671 295.439 185.415 297.846L185.372 297.925C183.544 301.172 182.419 304.751 182.213 308.48L182.16 309.512C182.126 310.265 182.101 311.335 182.26 311.374C182.45 311.421 183.772 309.889 183.993 309.677C185.053 308.655 186.146 307.82 187.623 307.548C189.564 307.191 191.523 309.6 189.837 311.179L189.767 311.243C188.263 312.554 188.33 315.169 189.991 316.395C192.336 318.126 195.222 315.301 195.563 312.975L195.574 312.89C195.875 310.377 199.355 310.288 199.544 312.89C199.954 318.536 193.252 323.268 188.152 320.42C186.136 319.294 184.854 317.233 184.452 315.023C183.808 315.364 183.114 315.601 182.38 315.666C179.99 315.879 178.291 314.193 177.904 311.931C177.454 309.296 177.721 306.474 178.413 303.737C177.115 304.051 175.75 303.931 174.378 303.137C170.225 300.734 171.418 295.389 172.986 291.78C179.678 276.377 193.544 262.401 210.723 261.291C210.817 258.574 211.184 256.005 211.785 253.283C217.661 226.666 236.696 202.019 261.476 190.5C268.098 187.421 275.121 185.35 282.422 184.833ZM217.436 291.159L217.671 291.105C220.349 290.527 227.394 289.847 226.545 294.366C226.505 294.578 226.197 294.552 226.142 294.366C225.31 291.525 219.66 293.797 218.011 294.481C215.736 295.423 213.493 296.813 211.636 298.429C207.57 301.968 204.845 306.956 204.431 312.372C204.02 317.745 205.574 323.549 209.439 327.436C211.333 329.341 213.751 330.634 216.467 330.729C218.908 330.814 221.604 328.909 223.856 330.025C224.3 330.245 224.652 330.848 224.611 331.346C224.536 332.287 224.116 333.019 223.491 333.588C227.261 340.478 230.346 347.771 235.155 354.037C237.569 357.181 240.303 360.092 243.4 362.57C244.872 363.748 246.472 364.782 248.122 365.691C250.056 366.757 251.729 367.424 253.109 369.23C254.286 370.77 253.108 373.748 251.169 374.014C246.6 374.638 242.161 370.934 238.807 368.159C235.456 365.386 232.56 361.966 230.167 358.337C225.572 351.369 222.428 343.149 221.171 334.832C219.711 335.296 218.068 335.438 216.832 335.441C213.544 335.448 210.404 334.262 207.819 332.257C198.358 324.917 197.306 309.849 203.983 300.346C207.178 295.799 212.033 292.439 217.436 291.159ZM217.495 308.636C219.689 308.443 221.881 308.79 223.943 309.54L224.793 309.849C226.589 310.508 228.5 311.282 229.797 312.632C231.778 314.696 229.806 318.271 226.983 317.48C223.863 316.606 221.326 313.97 218.207 312.864C215.418 311.876 212.26 312.016 209.785 313.718C209.458 313.943 209.028 313.499 209.242 313.173C211.135 310.282 214.124 308.932 217.495 308.636Z" fill="black"/>
<path fill-rule="evenodd" clip-rule="evenodd" d="M326.043 341.778C326.729 340.586 328.306 339.481 329.75 339.65C336.217 340.409 336.206 348.257 333.709 352.838C331.495 356.901 326.912 359.285 322.326 358.937C317.507 358.571 313.402 355.736 311.595 351.225C310.4 348.24 309.848 342.731 313.027 340.726C313.086 340.689 313.183 340.698 313.23 340.752C314.754 342.527 314.814 345.191 316.148 347.166C317.389 349.004 319.317 350.521 321.575 350.755C323.262 350.93 324.968 350.322 325.628 348.806C325.985 347.986 325.944 347.541 325.81 346.977L325.688 346.487C325.266 344.769 325.076 343.462 326.043 341.778ZM327.772 307.362C331.145 309.414 336.285 314.198 332.656 319.286C328.385 323.771 322.235 318.628 319.205 316.302C316.395 314.5 313.238 319.136 315.845 321.241C337.743 337.467 346.629 307.898 329.478 304.949C327.59 304.624 326.888 306.727 327.772 307.362ZM292.153 293.291C294.223 290.182 298.949 290.64 300.089 294.329C300.707 296.327 299.854 298.123 299.898 300.119C299.935 301.805 299.825 303.683 299.309 305.316C298.131 309.039 294.785 311.669 290.827 311.56C286.882 311.451 283.408 308.952 281.755 305.432C280.097 301.899 280.448 298.243 281.659 294.65C281.717 294.478 281.943 294.394 282.079 294.539C283.51 296.061 284.557 297.668 285.641 299.372L286.752 301.119C287.601 302.434 288.835 304.114 290.42 304.009L290.657 303.985C291.098 303.947 291.03 304.035 291.37 303.434C291.527 303.156 291.499 302.639 291.575 302.311L291.601 302.2L291.587 302.14C291.553 301.981 291.52 301.682 291.493 301.162L291.487 301.048C291.372 298.617 290.686 295.493 292.153 293.291ZM344.634 295.36C344.263 291.384 349.848 290.501 351.705 293.443C352.673 294.978 352.955 296.905 353.169 298.731L353.27 299.598C353.489 301.473 353.576 303.424 352.763 305.173C351.482 307.928 348.696 309.385 345.691 309.154C342.821 308.933 340.202 307.268 338.822 304.74C337.592 302.484 336.368 298.08 337.863 295.727C337.953 295.584 338.133 295.566 338.257 295.676C339.669 296.931 339.9 299.22 340.739 300.855C341.605 302.541 342.919 304.184 344.91 304.44C346.815 304.685 347.542 303.644 347.056 301.827C346.43 299.481 344.87 297.885 344.634 295.36ZM293.661 269.652L294.575 269.302C297.704 268.119 302.001 266.751 304.545 269.298C306.115 270.868 306.414 273.182 305.293 275.098C303.936 277.42 301.501 277.477 299.15 277.819C296.475 278.208 293.756 278.948 291.266 280.002C288.461 281.19 285.858 282.67 283.308 284.324C280.884 285.895 278.469 288.464 275.568 288.948C275.45 288.967 275.315 288.916 275.284 288.786C274.626 285.948 276.457 283.154 278.09 280.939C280.067 278.258 282.463 276.057 285.14 274.084C287.724 272.179 290.677 270.802 293.661 269.652ZM350.509 279.745L350.788 279.696C352.686 279.38 354.406 279.453 355.836 280.957C356.927 282.104 357.348 283.592 356.828 285.109C356.348 286.509 355.274 287.931 353.715 288.224C348.454 289.215 342.626 289.051 337.338 288.301C334.919 287.958 332.478 287.538 330.121 286.875L329.037 286.56C327.07 285.998 324.818 285.41 323.389 283.962C322.875 283.442 323.171 282.697 323.786 282.456C326.279 281.479 329.697 281.999 332.356 281.923C335.448 281.834 338.546 281.602 341.624 281.282C344.632 280.969 347.543 280.289 350.509 279.745Z" fill="black"/>
<path fill-rule="evenodd" clip-rule="evenodd" d="M379.641 273.325C379.273 273.263 378.905 273.206 378.537 273.152C378.25 272.989 377.913 272.863 377.52 272.787C376.625 272.56 375.735 272.406 374.847 272.324C362.103 269.453 332.619 273.529 331.402 284.414C327.343 285.77 323.832 284.556 319.128 284.676C315.547 269.698 253.645 271.812 250.668 280.842C250.657 280.839 250.645 280.837 250.634 280.833C247.773 279.947 243.556 280.161 240.282 280.02C233.291 279.874 226.292 280.497 219.452 281.973C206.643 284.01 189.163 286.395 198.071 302.403C198.072 302.406 198.074 302.409 198.076 302.412L198.077 302.41C199.613 303.985 202.218 302.717 202.315 300.585C199.32 293.001 206.085 292.091 211.289 289.911C224.24 285.255 237.425 284.609 250.819 286.05C251.827 287.237 253.356 288.272 254.972 288.814C263.927 290.302 259.208 296.951 264.869 297.918C263.829 321.094 291.943 333.744 308.233 318.509C314.737 312.145 316.288 302.717 317.796 294.219C318.593 294.04 319.1 293.604 319.396 293.026C321.314 291.11 322.518 289.34 326.31 288.814C330.102 288.288 333.021 289.344 333.416 289.667C333.516 289.868 333.622 290.069 333.747 290.27C333.92 290.57 334.156 290.809 334.424 290.998C330.679 314.076 348.581 328.672 366.653 316.702C374.506 309.309 376.165 297.99 376.493 287.888C377.557 287.245 378.231 285.999 377.863 284.433C377.355 282.273 378.546 280.404 380.443 279.465C382.907 278.246 382.471 273.794 379.641 273.325ZM301.987 284.274C299.743 283.78 298.785 287.241 301.036 287.736C302.629 288.087 303.98 288.891 304.892 290.254L304.988 290.402C306.213 292.352 309.309 290.552 308.076 288.589C306.689 286.381 304.533 284.834 301.987 284.274ZM367.687 282.127C366.896 281.57 365.699 281.984 365.24 282.772C364.735 283.639 365.066 284.605 365.807 285.172L365.882 285.228C366.562 285.707 367.223 286.566 367.306 287.446L367.314 287.556C367.403 289.86 370.979 289.871 370.89 287.556C370.803 285.292 369.493 283.4 367.687 282.127Z" fill="black"/>
<path d="M350.171 115.684C353.369 120.285 355.624 126.047 354.656 131.243C353.716 136.452 349.553 141.094 344.658 144.914C339.762 148.735 334.129 151.665 329.2 150.811C324.282 149.928 320.064 145.194 315.889 140.898C311.727 136.575 307.581 132.68 306.086 127.753C304.619 122.837 305.815 116.862 308.772 111.749C311.712 106.597 316.412 102.306 321.686 101.169C326.988 100.042 332.863 102.068 337.846 104.822C342.856 107.588 346.974 111.083 350.171 115.684Z" fill="#9FD8E5"/>
<path d="M358.115 31.9444C363.098 39.1361 366.606 48.1459 365.086 56.2776C363.609 64.4273 357.103 71.6988 349.455 77.6844C341.807 83.67 333.01 88.2652 325.318 86.937C317.645 85.5655 311.069 78.1664 304.562 71.4545C298.072 64.6994 291.609 58.6136 289.285 50.9078C287.005 43.2201 288.883 33.8694 293.507 25.8647C298.105 17.7988 305.45 11.079 313.683 9.28895C321.96 7.51702 331.126 10.675 338.897 14.9749C346.712 19.2928 353.133 24.7527 358.115 31.9444Z" fill="#9093D1"/>
<path d="M404.076 123.141C405.675 125.44 406.802 128.321 406.318 130.919C405.848 133.524 403.766 135.845 401.319 137.756C398.871 139.665 396.054 141.131 393.59 140.703C391.131 140.263 389.022 137.895 386.935 135.748C384.853 133.586 382.78 131.638 382.033 129.175C381.3 126.717 381.897 123.729 383.376 121.173C384.846 118.597 387.196 116.452 389.833 115.883C392.484 115.32 395.421 116.332 397.912 117.71C400.418 119.092 402.476 120.84 404.076 123.141Z" fill="#9093D1"/>
<path d="M435.34 16.4915C437.918 20.1999 439.736 24.8441 438.955 29.0328C438.197 33.2308 434.842 36.9734 430.895 40.0526C426.95 43.1318 422.409 45.494 418.437 44.8049C414.472 44.0937 411.073 40.2774 407.707 36.8153C404.352 33.331 401.011 30.1915 399.806 26.2199C398.623 22.2576 399.588 17.441 401.97 13.3197C404.341 9.16678 408.13 5.70902 412.38 4.79181C416.653 3.88392 421.389 5.51658 425.405 7.73673C429.444 9.96621 432.763 12.7831 435.34 16.4915Z" fill="#9093D1"/>
<path d="M419.231 68.1642C422.429 72.765 424.684 78.5268 423.716 83.7234C422.776 88.9317 418.613 93.5748 413.717 97.395C408.822 101.215 403.189 104.146 398.26 103.291C393.342 102.409 389.123 97.674 384.949 93.3788C380.786 89.056 376.64 85.1609 375.146 80.2336C373.679 75.3178 374.875 69.3423 377.831 64.2291C380.771 59.0769 385.473 54.787 390.746 53.6491C396.048 52.5228 401.923 54.5483 406.906 57.3026C411.916 60.0686 416.033 63.5636 419.231 68.1642Z" fill="#F7859C"/>
<path d="M501.765 116.821C506.748 124.012 510.256 133.023 508.736 141.155C507.259 149.303 500.753 156.575 493.105 162.561C485.457 168.546 476.66 173.141 468.968 171.813C461.295 170.442 454.719 163.043 448.212 156.331C441.723 149.576 435.259 143.49 432.935 135.784C430.656 128.097 432.533 118.745 437.157 110.741C441.755 102.675 449.1 95.9554 457.333 94.1655C465.61 92.3936 474.777 95.5515 482.548 99.8514C490.363 104.169 496.783 109.629 501.765 116.821Z" fill="#FFDBB4"/>
</svg>
