<svg width="392" height="501" viewBox="0 0 392 501" fill="none" xmlns="http://www.w3.org/2000/svg">
<path fill-rule="evenodd" clip-rule="evenodd" d="M46.5525 289.098C53.4267 260.507 77.806 238.321 110.594 227.268C116.896 224.139 123.006 210.71 131.476 208.251C132.834 207.857 130.691 210.994 131.476 211.182C134.277 211.85 137.416 211.92 140.509 209.506C146.036 205.193 147.77 192.592 151.131 186.897C168.856 156.86 213.11 168.613 219.039 201.818C223.173 204.183 229.017 206.267 233.517 208.173C238.151 210.136 242.227 214.89 247.002 216.59C251.263 218.107 258.283 217.032 262.577 218.355C282.323 224.436 299.048 232.109 312.16 247.656C314.923 250.935 318.038 254.966 320.552 258.279C333.514 271.379 342.517 286.062 350.809 301.815C374.009 348.053 380.319 399.249 385.98 449.068C385.851 457.785 392.44 481.955 382.695 486.134C383.278 486.664 383.067 487.729 381.986 487.72C357.278 487.501 332.627 489.442 308.302 493.216C296.566 495.037 284.892 497.535 272.937 497.945C248.121 497.795 223.394 494.144 198.61 497.599C168.816 497.599 132.608 496.836 99.4622 495.718C68.4846 494.672 37.341 497.034 6.7472 492.409C4.32554 492.072 3.14292 489.479 3.65052 487.621C7.23992 476.139 9.00196 464.321 11.016 452.569C10.6149 445.031 11.3325 437.161 14.5089 430.14C22.8079 382.742 33.4498 335.654 46.5525 289.098Z" fill="#FFDBB4"/>
<path fill-rule="evenodd" clip-rule="evenodd" d="M131.476 211.355C130.691 211.168 132.834 208.031 131.476 208.425C123.006 210.884 116.896 224.312 110.594 227.442C77.8058 238.494 53.4266 260.68 46.5524 289.272C33.4497 335.827 22.8077 382.916 14.5087 430.314C11.3323 437.335 10.6148 445.204 11.0159 452.742L10.6997 454.598C8.81128 465.737 7.05089 476.917 3.65041 487.795C3.1428 489.653 4.3254 492.246 6.74705 492.582C36.9932 497.155 67.7768 494.899 98.406 495.857L104.79 496.067C136.451 497.089 170.405 497.772 198.61 497.772C223.394 494.317 248.121 497.968 272.937 498.119C284.892 497.708 296.565 495.211 308.302 493.39C332.627 489.615 357.278 487.674 381.986 487.893C383.067 487.902 383.278 486.838 382.695 486.308C392.44 482.129 385.851 457.958 385.98 449.241L385.468 444.754C379.925 396.356 373.312 346.84 350.809 301.989L350.135 300.714C342.027 285.443 333.163 271.199 320.552 258.453L319.78 257.439C317.418 254.341 314.647 250.781 312.16 247.83C299.048 232.283 282.323 224.609 262.576 218.528C258.283 217.206 251.263 218.28 247.002 216.764C242.536 215.174 238.681 210.912 234.41 208.761L234.41 224.804L172.605 278.254L137.551 231.066L133.986 211.74C133.127 211.692 132.287 211.549 131.476 211.355Z" fill="#8FA7DF"/>
<path fill-rule="evenodd" clip-rule="evenodd" d="M56.5497 351.399C57.2034 354.186 58.1196 356.973 59.3378 359.612C60.5115 362.16 62.2795 364.442 63.4973 366.959C63.6607 367.298 63.9281 367.555 64.2505 367.751L64.15 368.435L64.0573 369.12C63.4499 373.741 62.7668 378.349 62.1752 382.97L61.8878 385.281C60.7245 394.928 58.8872 404.528 57.4609 414.149C56.0644 423.571 54.6426 432.992 53.1227 442.401C51.5529 452.1 49.9533 461.787 48.0863 471.448C47.2981 475.528 46.4754 479.604 45.6184 483.678L44.9565 486.795C38.1421 488.234 36.2801 496.573 43.2182 499.651C46.3674 501.042 50.4134 500.708 53.0088 498.521C55.706 496.242 55.8179 492.133 56.4439 489.047L57.0469 486.179C61.5591 464.613 65.4752 442.798 67.306 420.927C67.7765 415.28 68.1727 409.628 68.4302 403.971C68.6749 398.651 68.558 393.331 68.6516 388.01L68.6827 386.559C68.8259 380.885 68.7075 375.22 68.5391 369.546C68.5193 368.855 68.4847 368.164 68.445 367.468C68.6724 367.233 68.8363 366.955 68.9051 366.685L68.9947 366.329C69.2176 365.412 68.965 364.338 68.1623 363.681C67.8161 359.816 67.3605 355.955 67.2367 352.095C67.2268 351.777 66.7068 351.786 66.6766 352.095C66.3844 355.381 65.8005 358.677 65.2162 361.968C61.4574 359.316 58.6792 354.942 57.04 351.282C56.9211 351.016 56.4799 351.112 56.5497 351.399ZM145.483 197.742C144.859 200.247 143.625 202.495 141.971 204.586C141.184 205.586 140.288 206.516 139.213 207.295C138.291 207.959 137.241 208.394 136.261 208.973C134.835 208.777 133.345 209.251 132.344 210.172L132.502 208.825C132.552 208.39 131.73 208.303 131.636 208.725C127.303 227.907 123.352 247.102 119.931 266.424L118.432 274.957L117.021 282.967C114.679 296.315 112.413 309.658 110.707 323.104C108.434 341.047 106.523 359.038 105.127 377.054C103.725 395.198 102.863 413.353 102.249 431.532C102.096 436.114 101.932 440.692 101.774 445.274L100.716 439.796C99.6604 434.316 98.6251 428.832 97.7378 423.327C94.5535 403.628 92.0075 383.789 90.765 363.92C89.6255 345.738 90.0068 327.195 95.276 309.483C96.6037 305.026 98.2281 300.639 100.189 296.365C102.091 292.21 104.685 288.357 106.731 284.262C109.108 279.497 109.821 275.001 108.598 269.871C107.528 265.402 105.651 261.197 105.315 256.598C104.685 248.059 107.85 239.789 112.322 232.316C113.501 230.346 114.744 228.403 116.041 226.476C119.968 220.655 124.396 215.046 128.991 209.668C129.239 209.382 128.714 209.064 128.446 209.299C124.257 212.934 119.676 216.507 115.907 220.477C114.075 222.407 112.288 224.376 110.594 226.398C92.0125 229.124 76.0464 239.285 65.1321 252.702C52.7465 267.928 46.4818 286.253 41.846 304.3C36.6907 324.356 32.3426 344.595 27.7123 364.75C22.919 385.607 18.1499 406.463 13.3264 427.314C10.9295 437.666 8.53215 448.018 6.1407 458.374C4.9274 463.618 3.65419 468.848 2.32252 474.074C1.63862 476.752 0.905686 479.426 0.271797 482.113C-0.440834 485.143 0.222767 487.082 2.55974 489.308C3.42193 490.134 4.7838 490.121 5.85349 489.682L6.18788 489.544L6.51106 489.407C7.83468 488.836 8.87241 488.244 9.69594 486.973C10.6027 485.578 10.7463 484.03 11.0578 482.478C11.6328 479.621 12.2018 476.765 12.7763 473.904C13.6346 469.626 14.5679 465.36 15.5178 461.095L20.2838 439.782C21.5546 434.099 22.8274 428.416 24.1075 422.736C28.6785 402.424 33.2544 382.116 37.8298 361.808C42.2229 342.308 46.1104 322.674 51.1117 303.287L51.3961 302.195L51.6853 301.104C56.1575 284.391 62.4061 268.225 73.7441 254.063C82.47 243.172 94.5877 233.446 108.861 228.524C107.855 229.794 106.889 231.09 105.968 232.411C100.184 240.707 95.9599 250.554 96.9504 260.432C97.4352 265.258 99.5251 270.001 99.3275 274.867C99.1442 279.188 96.0981 282.984 93.9934 286.744C89.215 295.266 85.7578 304.322 83.5293 313.613C79.0574 332.269 79.0722 351.464 80.6129 370.402C82.2867 390.989 85.4656 411.571 89.0857 431.957C90.9428 442.413 93.414 452.783 95.3062 463.222C96.2417 468.369 97.5149 473.504 98.6292 478.626L99.1602 481.073C99.4576 482.431 99.766 483.784 100.122 485.123L100.342 485.925V486.069C100.352 487.056 100.66 487.873 101.155 488.526C101.833 490.434 102.675 492.295 103.794 494.082C104.368 494.995 105.201 495.508 106.107 495.695C107.018 497.525 109.083 498.934 111.549 498.925L143.982 498.817C162.82 498.751 181.659 498.642 200.497 498.551C205.251 498.53 210 498.451 214.749 498.343C219.201 498.234 223.47 497.764 227.873 497.277C232.845 496.73 235.539 493.638 234.796 489.278C234.633 488.316 234.455 487.36 234.286 486.404C235.277 486.691 236.455 486.556 237.252 485.873L238 485.231C239.036 484.331 239.963 483.448 240.62 482.247C241.298 481.013 241.849 479.708 242.448 478.448C243.74 475.735 244.998 473.013 246.222 470.278C248.672 464.809 251.124 459.318 253.402 453.791C257.913 442.848 261.905 431.74 265.376 420.506C271.567 400.463 276.044 380.033 278.867 359.421L279.542 354.508L279.738 353.057C280.808 345.068 281.709 336.954 281.284 328.982C281.021 323.991 280.14 318.961 278.015 314.3C276.054 310 273.028 306.322 270.151 302.479L269.822 302.035L269.491 301.581C266.974 298.09 264.972 294.44 264.872 290.201C264.77 285.899 266.198 281.712 267.794 277.684L268.192 276.691L268.459 276.034C271.855 267.71 275.719 259.503 274.444 250.446C272.562 237.107 263.351 226.355 251.763 218.064C262.069 219.855 272.27 223.394 281.273 227.881C291.906 233.185 301.479 240.185 309.734 248.085C325.334 263.014 336.472 280.927 345.588 299.422C355.132 318.778 362.209 339.06 367.542 359.608C372.905 380.272 376.495 401.267 378.947 422.345C380.17 432.836 381.131 443.353 381.928 453.874C382.334 459.266 382.641 464.665 383.116 470.048C383.592 475.426 383.805 480.886 385.301 486.121C385.999 488.56 390.709 488.808 391.213 486.121C392.333 480.121 392.02 473.915 391.708 467.839L391.679 467.287C391.372 461.235 390.971 455.187 390.496 449.14C389.525 436.779 388.228 424.436 386.534 412.132C380.596 368.942 369.646 325.978 348.168 286.553C338.056 267.984 325.076 249.941 307.02 236.533C298.423 230.154 288.732 225.063 278.287 221.377C268.947 218.077 259.458 216.516 249.534 216.52C244.557 213.173 239.214 210.255 233.876 207.764C233.554 207.612 233.217 207.977 233.484 208.212C233.622 208.329 233.757 208.451 233.895 208.564C233.291 208.599 232.667 208.847 232.108 209.364C230.146 211.168 228.492 213.425 227.012 215.768C224.758 218.238 222.609 220.789 220.36 223.233C216.761 227.146 213.076 231.002 209.346 234.828C203.083 241.258 196.616 247.566 189.872 253.621L188.745 254.628C185.249 257.737 181.708 261.458 177.573 263.919L177.352 264.048C175.608 265.045 174.371 265.226 172.883 263.736C171.531 262.38 170.405 260.806 169.248 259.311L168.981 258.967C163.073 251.432 157.595 243.62 152.638 235.576C150.379 231.916 148.229 228.202 146.19 224.448L145.581 223.32C144.472 221.251 143.268 219.22 142.353 217.09C142.14 216.59 141.932 216.09 141.729 215.594C144.849 213.799 147.265 209.912 148.141 206.869C149.053 203.708 148.592 200.464 146.968 197.573C146.661 197.03 145.631 197.164 145.483 197.742ZM299.393 326.186C299.825 338.204 300.087 350.234 300.731 362.242L300.953 366.342C299.949 367.325 299.359 368.459 299.83 370.016C300.012 370.612 300.553 371.151 301.226 371.351L301.436 375.162C302.392 392.312 303.512 409.426 305.56 426.532C308.12 447.94 311.081 469.313 314.037 490.682C314.458 493.708 316.856 496.108 320.585 495.665C324.358 495.216 325.888 492.334 325.393 489.33C323.447 477.543 321.575 465.748 319.935 453.922L318.068 440.449C315.727 423.608 313.331 406.768 310.571 389.98C309.417 382.964 308.218 375.951 307.015 368.937L307.436 368.459C309.155 366.499 310.933 364.581 312.691 362.651C316.068 358.929 319.401 355.238 322.496 351.342C322.65 351.147 322.337 350.86 322.115 351.008C317.777 353.821 313.671 356.829 309.541 359.886L305.925 362.572C303.846 350.455 301.785 338.334 299.949 326.186C299.904 325.883 299.384 325.86 299.393 326.186ZM236.99 211.181C239.6 213.342 242.269 215.455 244.899 217.603L245.863 218.393L246.822 219.188C251.444 223.036 255.872 227.042 259.562 231.642C266.337 240.089 270.373 250.389 267.556 260.702C265.218 269.245 259.855 276.988 258.414 285.745C257.691 290.131 258.042 294.54 259.924 298.683C261.846 302.909 264.916 306.531 267.675 310.344C273.667 318.631 274.484 327.726 273.889 337.326C273.265 347.351 271.953 357.381 270.334 367.316C267.056 387.446 262.113 407.367 255.571 426.875C252.297 436.644 248.43 446.205 244.582 455.805C242.666 460.583 240.432 465.248 238.13 469.891C236.916 472.335 235.673 474.765 234.41 477.191C234.876 473.765 234.876 470.248 235.104 466.844C235.431 461.965 235.847 457.096 236.228 452.222C237.005 442.331 237.698 432.432 238.317 422.532C240.511 387.229 242.126 351.895 242.007 316.535C241.947 298.853 241.536 281.171 240.67 263.506C240.263 255.187 239.476 246.876 238.765 238.569L238.614 236.789C237.985 229.333 237.233 221.859 235.941 214.468C236.323 213.71 236.655 212.943 236.902 212.156L236.99 211.86L236.926 211.868C236.985 211.638 237.005 211.408 236.99 211.181ZM214.417 180.8C214.364 180.595 214.032 180.613 213.972 180.8C212.501 185.147 213.021 189.93 214.289 194.304C214.972 196.673 215.943 198.973 217.116 201.19L217.527 201.966C218.533 203.855 219.665 205.8 221.624 206.977C222.44 207.468 223.902 207.499 224.719 206.977L225.135 206.7C225.204 206.653 225.272 206.605 225.338 206.555C226.1 205.995 226.477 204.755 226.125 203.938C225.219 201.829 223.163 200.282 221.742 198.403C220.484 196.734 219.37 194.973 218.444 193.143C216.448 189.182 215.552 184.978 214.417 180.8Z" fill="black"/>
<path fill-rule="evenodd" clip-rule="evenodd" d="M223.283 16.2822L219.014 20.748C221.378 22.2133 223.609 23.6856 225.707 25.165L225.709 25.1605C215.988 19.5806 205.222 16.2822 193.592 16.2822C171.192 16.2822 125.691 33.2108 115.406 45.4215C110.301 51.4812 100.816 70.084 95.8953 90.3085C91.9419 106.559 86.0618 152.468 91.9419 169.718C99.4674 191.796 124.226 212.201 149.756 212.201C175.286 212.201 214.921 195.986 243.13 160.452C244.42 158.827 259.232 156.943 269.799 150.845L267.025 177.734L264.916 193.376L265.382 194.489C272.95 212.496 278.947 221.89 283.373 222.672C287.89 223.47 297.088 216.956 310.968 203.131L312.742 196.582C317.246 179.875 319.499 170.908 319.499 169.679L319.496 169.455C319.429 166.628 318.322 150.625 318.299 146.318L318.299 81.7704C303.372 38.1116 289.127 16.2822 275.564 16.2822H223.283Z" fill="#FFDBB4"/>
<path fill-rule="evenodd" clip-rule="evenodd" d="M258.653 1.41405C254.264 -0.0815593 249.179 0.201042 245.013 2.45315C236.834 2.14446 228.7 6.35304 224.436 12.4963C224.347 12.5833 224.252 12.6702 224.168 12.7572L223.264 13.6839C222.409 14.5689 221.506 15.5443 220.791 16.5514C224.294 16.6219 227.212 17.8779 229.249 20.4148C230.702 22.2249 227.373 23.9451 225.887 22.233L225.835 22.1704C224.612 20.6474 222.766 20.0574 220.71 20.0266C220.12 20.0179 219.673 19.8192 219.356 19.5261C219.23 19.93 219.118 20.3383 219.014 20.7483C208.665 17.2071 197.509 16.2693 186.397 17.1092C186.884 17.8031 187.291 18.5466 187.605 19.3279C187.96 20.2135 187.202 21.2304 186.224 21.4669C185.166 21.7226 184.21 21.1773 183.828 20.3347L183.793 20.2522C183.366 19.1879 182.668 18.2744 181.732 17.5662C176.501 18.1901 171.308 19.1822 166.241 20.4613C160.151 22 154.118 23.8778 148.219 26.0277C149.218 26.3725 150.081 26.9551 150.686 27.9276C151.892 29.869 148.575 31.6078 147.317 29.7519L147.272 29.6832C147.149 29.4842 147.039 29.3645 146.959 29.2964L146.931 29.2732L146.757 29.2028L146.432 29.1211L146.308 29.0942C146.198 29.0724 146.153 29.0738 145.864 29.0598C145.479 29.0406 145.094 29.0424 144.709 29.0419C143.804 29.0415 143.226 28.5976 142.965 28.0298C140.054 29.1859 137.179 30.4032 134.356 31.6784L133.685 31.9841C124.97 35.9899 116.715 41.2505 111.925 48.9909C111.608 49.5083 111.51 50.0735 111.589 50.6126C110.566 51.6909 109.578 52.8039 108.629 53.9343C105.733 57.395 103.613 61.3297 101.607 65.2296C97.5692 73.0728 94.8512 81.1291 92.7312 89.5289C90.6798 97.6243 89.0248 105.807 87.4874 113.989C85.783 123.08 84.3647 132.249 84.0677 141.471C83.5439 157.91 87.1964 174.444 97.6878 188.283C107.047 200.63 121.141 210.434 137.855 213.573C154.855 216.764 172.843 213.651 186.24 203.686C188.4 202.082 188.103 198.843 186.24 197.2C184.13 195.348 181.017 195.604 178.867 197.2C166.251 206.586 147.887 208.034 132.685 203.252C118.631 198.826 107.621 188.617 100.865 177.152C92.6225 163.17 91.2333 147.11 92.4989 131.641C93.1903 123.145 94.6288 114.719 96.1114 106.307L97.0063 101.243C97.9826 95.7576 99.0083 90.28 100.346 84.8508L100.659 83.5859C102.294 77.0387 104.209 70.3236 107.171 64.1688C108.723 60.9384 110.59 57.8255 112.503 54.7516C112.874 54.156 113.255 53.5517 113.645 52.943C114.169 53.1039 114.767 53.1299 115.394 52.956C120.796 51.4778 126.345 50.4865 131.993 50.1561C134.567 50.0048 137.144 49.9813 139.718 50.0696C144.125 49.844 148.654 50.1848 152.852 51.3735C153.263 51.0635 153.679 50.76 154.095 50.4566C154.207 50.4487 154.32 50.4383 154.432 50.4187C155.503 50.2335 156.256 49.564 156.71 48.7183C156.734 48.6736 156.755 48.6288 156.775 48.584C157.312 48.2227 157.854 47.8671 158.401 47.5162C159.733 47.8201 160.9 46.8449 161.214 45.7762C161.511 45.6002 161.812 45.4297 162.112 45.2571C162.347 45.3076 162.58 45.3493 162.807 45.3641C163.788 45.4263 164.735 45.2941 165.605 44.8824C166.705 44.3611 167.408 43.5202 167.879 42.565C169.543 42.655 171.228 42.1798 172.715 41.3207C173.923 40.6238 174.848 39.6616 175.768 38.7012C186.975 34.3035 199.158 31.7071 211.369 31.0419C212.572 31.2454 213.766 31.4875 214.946 31.7693C215.225 31.8362 215.621 31.9675 216.077 32.1249C213.355 31.8353 210.597 31.8067 207.801 32.161C194.53 33.8492 184.194 42.5907 175.299 50.8422C173.182 50.4661 171.044 52.8769 173.002 54.4734L188.271 66.9213C187.896 68.3134 189.711 69.6856 191.301 69.3512C193.966 68.7878 196.636 68.2399 199.308 67.7013C202.096 68.8877 205.6 68.6847 208.128 66.9648C208.246 66.8848 208.501 66.7569 208.723 66.63C208.931 66.7809 209.21 66.9322 209.321 66.9965C210.22 67.52 211.315 67.6739 212.365 67.5269C213.445 67.3761 214.42 66.8939 215.261 66.2935C215.796 65.911 217.043 64.3152 217.737 64.1977L217.805 64.1909C217.342 64.2027 218.83 65.4196 219.23 65.6713C220.163 66.257 221.194 66.5648 222.355 66.4526C224.378 66.2568 226.118 64.6346 227.107 63.1368L227.182 63.0218L227.213 62.9505L227.239 63.0277C227.244 63.0413 227.25 63.0559 227.256 63.0723C227.405 63.4249 227.87 63.8257 228.186 64.0722C229.088 64.7735 230.204 65.0818 231.396 64.8987C232.404 64.7443 233.253 64.208 233.935 63.5591L234.041 63.4557C234.243 63.2555 235.572 61.6844 235.362 61.308L235.338 61.2762L235.404 61.2641C236.212 61.4388 236.891 61.2636 237.388 60.8971C240.162 60.3623 242.901 59.7393 245.551 58.9472C245.759 59.4602 245.962 59.9732 246.159 60.4906C244.712 61.2775 243.373 62.3992 242.142 63.1992C239.809 64.7122 237.477 66.2252 235.149 67.7426L225.927 73.7276L224.872 73.4785C223.525 73.1602 222.369 73.8504 221.874 74.9054L221.833 74.9967C221.637 75.4589 221.401 75.8862 221.123 76.2954C218.818 76.2145 216.866 77.4597 216.235 79.2457C215.665 79.2344 215.09 79.2535 214.502 79.3105C212.891 79.4661 211.806 80.5183 212.098 81.963L212.12 82.0622L212.159 82.223C211.225 82.5717 210.548 83.2452 210.398 84.2634C210.148 84.5943 209.946 84.9542 209.817 85.3551C209.144 87.4351 210.454 90.0063 211.152 91.9988L211.206 92.1549C211.654 93.4644 212.118 94.7677 212.587 96.0703L213.755 99.3045C216.995 108.318 220.154 117.822 217.532 127.271C216.973 129.271 219.879 130.176 221.139 128.61C224.194 124.821 227.495 121.25 230.961 117.822L231.129 117.799C233.556 117.37 234.498 115.862 235.612 114.324C236.268 114.494 236.974 114.534 237.656 114.419C238.643 114.251 239.528 113.755 240.226 113.129C240.818 112.597 241.36 111.235 242.059 110.897C242.934 110.475 244.692 111.078 245.737 110.943C246.586 110.833 247.379 110.576 248.149 110.254C249.563 111.95 250.501 113.944 250.73 116.093C250.82 116.911 251.097 117.602 251.497 118.176C250.024 118.128 248.547 118.219 247.088 118.458C241.692 119.341 237.822 122.271 235.648 126.637C235.555 126.828 235.836 126.984 235.965 126.802C239.191 122.432 246.214 122.211 251.314 123.75C256.73 125.384 259.77 129.58 260.851 134.367C262.037 139.614 260.516 145.271 257.268 149.74C255.762 151.818 253.705 153.714 250.973 154.479C247.726 155.388 244.727 153.762 241.401 154.601C239.137 155.17 238.139 157.097 238.549 159.023C238.712 159.779 239.014 160.44 239.419 161.014C238.223 163.101 237.116 165.248 235.708 167.222C233.533 170.27 230.904 172.792 228.038 175.335C225.078 177.961 222.063 180.535 218.896 182.97C215.861 185.304 212.382 186.965 209.199 189.104C206.966 190.604 205.859 192.709 206.961 195.117C207.87 197.108 210.935 198.804 213.415 197.904C218.164 196.182 222.32 193.252 226.105 190.235C229.614 187.435 232.669 184.087 234.976 180.452C237.154 177.026 238.758 173.134 240.111 169.386L240.279 168.918C240.917 167.135 241.588 165.131 242.023 163.109C244.627 164.362 248.161 164.544 250.948 164.205C255.45 163.662 259.557 161.666 262.66 158.757C264.107 157.404 265.385 155.86 266.489 154.187C266.389 155.205 266.329 156.191 266.265 157.088C263.685 159.574 262.65 163.162 263.566 166.435C261.407 168.39 260.802 171.324 261.929 173.822C259.566 175.884 259.655 179.165 260.677 182.144C257.884 184.89 257.619 189.169 259.8 192.268L259.866 192.491C257.664 195.732 258.16 199.922 260.919 202.784C259.035 206 259.327 210.325 264.036 211.573C265.752 212.027 267.416 211.639 268.66 210.793C267.524 215.767 267.015 220.816 268.531 225.812C269.134 227.794 271.338 229.242 273.656 229.242C275.593 229.242 277.002 228.386 277.975 227.125C277.861 229.634 278.034 232.155 278.642 234.699C279.009 236.235 280.628 237.432 282.347 237.803C281.727 238.419 281.48 239.308 282.074 240.235C284.595 244.161 290.686 242.533 291.098 238.772C292.818 237.642 293.618 235.787 293.949 233.783C294.431 230.861 294.606 227.987 295.152 225.102L295.361 225.273L295.469 225.355L295.504 225.564C295.817 226.99 296.731 227.989 297.918 228.584C297.66 231.072 298.137 233.606 299.931 235.495C301.126 236.754 303.162 237.249 304.907 236.976C305.016 236.981 305.128 236.981 305.245 236.967C309.197 236.505 311.484 233.207 310.443 230.18C312.035 228.465 312.705 226.288 312.234 224.137C315.313 222.343 315.25 218.403 314.184 215.238C317.412 212.997 318.626 208.807 317.004 205.477C319.913 202.299 320.318 197.869 318.341 194.25C321.542 191.936 321.524 187.47 318.349 185.104C320.04 182.151 321.059 178.614 319.37 175.912C320.562 174.754 321.216 173.105 321.078 171.511C320.876 169.17 319.116 167.553 316.932 166.475L316.78 165.743C316.267 165.799 315.721 165.673 315.239 165.266C314.762 164.863 314.271 164.538 313.764 164.27C313.189 164.264 312.694 164.038 312.346 163.692C311.395 163.408 310.371 163.282 309.236 163.271C306.784 163.247 306.698 160.022 308.98 159.813C309.34 159.493 309.836 159.292 310.374 159.292L310.796 159.293C311.781 159.301 312.776 159.355 313.69 159.699C314.284 159.923 314.742 160.26 315.077 160.672C315.14 161.296 315.526 161.917 316.36 162.431C317.324 163.024 318.643 163.093 319.675 162.556C321.119 161.805 321.134 160.632 320.967 159.358C320.603 156.569 322.425 153.945 321.991 151.092C321.799 149.831 321.322 148.742 320.543 147.862C322.185 145.701 322.474 142.911 321.211 140.538C323.843 138.047 324.298 134.206 322.62 131.207C322.595 131.135 322.577 131.06 322.55 130.989C322.361 130.479 322.099 130.019 321.811 129.58C323.285 127.334 323.274 124.578 321.776 122.341C324.045 120.015 324.117 116.312 322.099 113.805C322.087 113.597 322.063 113.389 322.042 113.181C322.968 111.066 322.746 108.661 321.571 106.694C321.99 105.845 322.314 104.929 322.52 103.955C323.049 101.442 322.777 98.9982 321.987 96.5461C321.859 96.1591 321.715 95.7722 321.562 95.3852C321.536 93.7057 321.464 92.0336 321.368 90.3645C321.744 88.9516 321.804 87.3989 321.812 85.9575L321.815 85.0228C321.833 82.6441 322.022 79.1612 320.312 77.1393C321.41 74.955 320.959 72.2029 319.127 70.4716C320.413 68.526 320.682 66.137 319.39 63.9783C319.183 63.6309 318.942 63.3075 318.678 63.0014C318.785 61.0245 318.312 58.9859 317.114 57.0211C316.337 55.742 315.175 54.6347 313.793 53.7486C313.817 53.4865 313.831 53.2247 313.826 52.9669C313.802 51.8165 313.512 50.6613 313.024 49.5835C313.9 48.2679 314.306 46.7849 313.793 45.1867C313.22 43.3781 311.712 41.8216 309.83 40.9433C309.678 39.2382 309.375 37.543 308.943 35.8704C310.099 33.604 309.178 30.6128 306.564 29.2776C306.905 27.4663 306.597 25.5881 305.099 24.1734C304.531 23.6373 303.862 23.2308 303.142 22.9613C303.489 21.14 303.097 19.2453 301.666 17.7623C300.497 16.5514 298.764 15.8158 297.001 15.7076C296.322 12.5398 292.882 10.1712 289.252 10.3599C288.799 8.96514 287.715 7.74908 286.034 7.13258C285.603 6.97476 285.168 6.87085 284.735 6.81302C281.784 4.19397 277.39 2.4188 273.586 1.5097C269.771 0.601444 265.903 0.513529 262.627 1.56951L262.389 1.64883L262.122 1.61839C260.965 1.50535 259.809 1.44014 258.653 1.41405ZM287.646 216.076C288.665 215.796 289.802 216.407 290.078 217.29C290.37 218.224 289.72 219.149 288.697 219.429C287.423 219.779 286.084 219.866 284.756 219.867C283.688 219.868 282.779 219.067 282.779 218.128C282.779 217.184 283.684 216.39 284.756 216.389C285.836 216.388 286.634 216.353 287.646 216.076ZM296.711 197.607C298.235 197.608 299.541 197.928 300.671 198.867C301.424 199.494 301.443 200.704 300.671 201.327C299.891 201.957 298.76 201.993 297.96 201.394L297.806 201.272C297.787 201.258 297.773 201.246 297.761 201.236C297.697 201.2 297.632 201.162 297.564 201.131L297.693 201.205C297.791 201.267 297.563 201.166 297.436 201.117L297.396 201.103L297.383 201.1L297.28 201.093C297.091 201.085 296.901 201.085 296.711 201.085C295.677 201.084 294.687 200.286 294.734 199.346C294.783 198.404 295.603 197.606 296.711 197.607ZM267.961 186.573C265.821 185.419 267.732 182.467 269.878 183.53L269.956 183.57C271.056 184.164 272.409 184.084 273.655 184.084C276.199 184.085 276.203 187.563 273.655 187.562L273.234 187.561C271.407 187.548 269.559 187.436 267.961 186.573ZM284.8 173.879C286.416 173.611 288.227 173.372 289.928 173.535L290.211 173.566H290.734C291.189 173.566 291.629 173.727 291.982 173.98C292.542 174.184 293.071 174.458 293.555 174.826C295.481 176.296 292.674 178.747 290.759 177.286C290.653 177.205 290.529 177.138 290.392 177.083L290.287 177.044H288.172C287.98 177.044 287.793 177.009 287.61 176.958C286.924 177.041 286.284 177.161 285.851 177.232C283.364 177.644 282.299 174.293 284.8 173.879ZM286.605 140.497C289.704 139.233 293.135 139.242 296.001 140.997C298.05 142.253 296.147 145.214 294.08 144.044L294.006 144.001C293.749 143.843 293.485 143.712 293.218 143.592C291.763 143.962 290.299 143.98 288.892 143.525L288.709 143.463L288.6 143.5C286.307 144.436 284.297 141.439 286.605 140.497ZM252.864 135.047C255.994 134.739 256.019 130.388 252.864 130.7C246.202 131.357 240.157 133.963 235.73 138.437C233.67 140.518 237.062 143.563 239.159 141.575L239.224 141.511C242.744 137.953 247.495 135.577 252.864 135.047ZM287.93 112.712C288.626 112.645 289.321 112.612 290.004 112.641C291.646 112.71 293.645 113.674 292.925 115.415C292.347 116.809 290.453 116.865 289.518 116.121C289.129 116.129 288.741 116.152 288.354 116.186C287.322 116.28 286.299 116.453 285.282 116.629C282.796 117.059 281.732 113.708 284.231 113.275L285.335 113.083C285.708 113.019 286.083 112.956 286.461 112.899C286.687 112.8 286.929 112.733 287.187 112.716L287.318 112.712H287.93ZM307.572 85.7281L307.804 85.7004C311.142 85.3247 316.501 85.6704 316.906 89.4089C317.13 91.4793 313.73 91.6093 313.059 89.8389C310.594 89.448 308.108 89.3732 305.66 89.6106C304.726 88.7759 304.719 87.1711 306.274 86.7707C306.493 86.2516 306.951 85.8068 307.572 85.7281ZM231.268 79.414C232.039 78.7909 233.304 78.7083 234.063 79.414C234.501 79.82 234.866 80.2713 235.155 80.7678L235.347 81.1031C235.38 81.1587 235.413 81.2141 235.448 81.2687C235.513 81.37 235.585 81.4665 235.656 81.5648L235.704 81.6059C235.722 81.6227 235.745 81.643 235.771 81.6678C236.482 82.3291 236.573 83.4799 235.771 84.1273C235 84.7503 233.735 84.8329 232.976 84.1273C232.539 83.7212 232.173 83.2704 231.884 82.7734L231.692 82.4385C231.659 82.3829 231.626 82.3277 231.591 82.273C231.527 82.1713 231.453 82.0748 231.383 81.9765L231.305 81.9074C231.293 81.8971 231.281 81.8859 231.268 81.8735C230.556 81.2126 230.467 80.0613 231.268 79.414ZM271.803 74.885C274.589 73.1485 277.901 73.0676 280.461 75.1567C282.309 76.6646 279.594 79.0805 277.731 77.6677L277.665 77.6162C277.598 77.5605 277.529 77.5118 277.461 77.4653C277.127 77.7158 276.702 77.8744 276.217 77.8749C276.09 77.8752 275.963 77.8749 275.837 77.8772L275.647 77.8831L275.545 77.8905L275.532 77.8927L275.444 77.926C275.281 77.9905 275.057 78.0901 275.364 77.9205C275.296 77.9523 275.231 77.9897 275.166 78.0262L275.053 78.117C274.307 78.737 273.018 78.8188 272.278 78.1331C270.968 77.7436 270.273 75.8384 271.803 74.885ZM244.573 69.1874L244.522 69.1734C242.08 68.5599 243.118 65.2031 245.573 65.8191C248.178 66.4735 249.422 68.606 249.943 70.7903C250.162 71.709 249.636 72.6702 248.562 72.9298C247.581 73.1668 246.351 72.6385 246.13 71.7151C245.976 71.0657 245.797 70.5147 245.515 70.0035L245.344 69.7116C245.265 69.5786 245.237 69.5565 244.967 69.3495C244.922 69.3147 244.716 69.2304 244.573 69.1874ZM285.938 51.67L286.32 51.5933C288.7 51.1348 291.858 50.8954 293.294 52.9704C294.604 54.8608 291.3 56.5816 289.94 54.7947C289.919 54.7941 289.895 54.7943 289.867 54.7963L289.823 54.8008L289.213 54.7573C288.453 54.7525 287.726 54.8708 286.99 55.0242C284.516 55.5394 283.46 52.1865 285.938 51.67ZM200.526 38.2991C198.725 36.7143 201.519 34.254 203.321 35.84C204.746 37.0935 206.12 38.3556 207.046 39.9482C207.532 40.7838 207.294 41.8351 206.337 42.3277C205.454 42.782 204.121 42.5429 203.632 41.7038C202.83 40.3234 201.817 39.4356 200.526 38.2991ZM223.255 34.1392C225.035 35.0661 226.187 36.593 226.886 38.3604C227.237 39.2473 226.486 40.2625 225.505 40.4994C224.451 40.7543 223.488 40.211 223.109 39.3673L223.074 39.2847C222.887 38.8121 222.587 38.2539 222.217 37.8326C221.901 37.473 221.409 37.113 221.039 36.9935C220.148 36.7056 219.516 35.9952 219.598 35.1657C221.064 35.6113 222.424 35.0753 223.255 34.1392ZM276.527 26.5742C278.322 25.1081 280.731 24.9138 282.907 25.8012C283.876 26.1959 284.119 27.425 283.616 28.1807C283.035 29.055 281.884 29.2011 280.912 28.8046C281.162 28.9063 280.711 28.772 280.516 28.7228C280.491 28.733 280.165 28.7199 280.052 28.7213L279.917 28.7289C279.916 28.7297 279.949 28.7291 280.017 28.7272C279.922 28.746 279.828 28.7685 279.736 28.7945L279.618 28.8303C279.677 28.8195 279.41 28.9726 279.336 29.0235L279.322 29.0333C277.459 30.5545 274.657 28.1007 276.527 26.5742Z" fill="black"/>
<path fill-rule="evenodd" clip-rule="evenodd" d="M137.977 167.588C137.217 166.429 135.468 165.355 133.867 165.519C126.697 166.258 126.709 173.89 129.478 178.345C131.933 182.296 137.013 184.615 142.098 184.276C147.44 183.92 151.992 181.163 153.995 176.776C155.32 173.873 155.932 168.516 152.408 166.566C152.343 166.529 152.235 166.538 152.183 166.591C150.493 168.317 150.427 170.907 148.947 172.829C147.572 174.616 145.434 176.091 142.93 176.319C141.06 176.489 139.169 175.897 138.437 174.423C138.041 173.626 138.086 173.193 138.235 172.645L138.37 172.168C138.839 170.498 139.049 169.226 137.977 167.588ZM136.06 134.118C132.32 136.113 126.622 140.767 130.645 145.714C135.381 150.076 142.199 145.075 145.558 142.813C148.674 141.06 152.174 145.568 149.283 147.615C125.006 163.395 115.153 134.64 134.168 131.771C136.262 131.455 137.04 133.5 136.06 134.118ZM175.551 120.433C173.255 117.41 168.016 117.855 166.751 121.443C166.066 123.386 167.012 125.133 166.963 127.074C166.922 128.714 167.045 130.541 167.617 132.128C168.922 135.749 172.632 138.306 177.02 138.2C181.394 138.095 185.246 135.664 187.078 132.241C188.916 128.805 188.527 125.249 187.185 121.756C187.12 121.588 186.87 121.507 186.719 121.648C185.132 123.128 183.971 124.69 182.77 126.348L181.538 128.046C180.597 129.326 179.229 130.96 177.472 130.857L177.208 130.834C176.72 130.797 176.795 130.882 176.418 130.298C176.244 130.028 176.276 129.525 176.191 129.206L176.162 129.098L176.178 129.04C176.215 128.885 176.252 128.594 176.282 128.089L176.288 127.977C176.416 125.613 177.177 122.576 175.551 120.433ZM117.366 122.446C117.777 118.579 111.585 117.721 109.526 120.582C108.452 122.074 108.14 123.948 107.902 125.724L107.791 126.567C107.548 128.391 107.451 130.288 108.353 131.989C109.773 134.669 112.862 136.085 116.194 135.861C119.376 135.646 122.279 134.027 123.809 131.568C125.173 129.374 126.53 125.091 124.873 122.803C124.773 122.664 124.573 122.646 124.435 122.753C122.869 123.974 122.614 126.2 121.683 127.79C120.723 129.43 119.267 131.028 117.06 131.277C114.948 131.515 114.141 130.503 114.68 128.735C115.375 126.454 117.104 124.901 117.366 122.446ZM173.878 97.4443L172.865 97.1038C169.396 95.9531 164.632 94.623 161.811 97.0999C160.071 98.6273 159.74 100.877 160.982 102.741C162.487 104.999 165.186 105.054 167.793 105.387C170.758 105.765 173.773 106.484 176.534 107.51C179.643 108.665 182.529 110.105 185.356 111.713C188.043 113.241 190.721 115.739 193.938 116.21C194.069 116.229 194.218 116.179 194.252 116.053C194.983 113.292 192.953 110.575 191.141 108.421C188.949 105.814 186.293 103.673 183.325 101.754C180.46 99.9016 177.187 98.5629 173.878 97.4443ZM110.852 107.26L110.543 107.212C108.439 106.905 106.532 106.976 104.946 108.439C103.736 109.555 103.269 111.001 103.846 112.477C104.379 113.838 105.569 115.221 107.297 115.506C113.13 116.47 119.592 116.311 125.454 115.581C128.136 115.247 130.843 114.838 133.455 114.194L134.657 113.888C136.838 113.341 139.335 112.77 140.919 111.362C141.489 110.855 141.161 110.131 140.479 109.897C137.715 108.946 133.926 109.452 130.978 109.378C127.549 109.292 124.115 109.066 120.702 108.755C117.368 108.451 114.141 107.789 110.852 107.26Z" fill="black"/>
</svg>
