<svg width="392" height="501" viewBox="0 0 392 501" fill="none" xmlns="http://www.w3.org/2000/svg">
<path fill-rule="evenodd" clip-rule="evenodd" d="M23.6075 429.565C25.5225 419.985 27.2779 410.379 28.8732 400.753C29.6305 396.182 30.3692 391.608 31.0334 387.026C31.4984 383.815 32.2068 380.144 29.7411 377.767C26.2717 374.42 23.1201 371.556 22.6953 366.762C22.2958 362.252 24.0175 357.335 25.094 352.957C27.3516 343.776 30.1621 334.708 33.2676 325.726C36.4226 316.601 39.8821 307.562 43.3914 298.539C46.6723 290.104 49.8263 281.592 54.0996 273.499C62.2096 258.14 75.9297 246.766 92.886 239.171C97.1033 237.282 105.705 230.54 110.111 229.03C114.161 227.642 114.147 231.695 118.133 230.168C121.32 228.948 124.287 227.32 126.071 224.595C128.009 221.635 132.867 217.496 133.607 214.05C135.174 206.748 133.476 200.533 139.36 195.037C144.583 190.156 151.603 186.813 158.867 185.018C174.846 181.07 196.157 183.83 205.798 196.984C210.403 203.265 212.012 210.858 218.226 215.985C223.651 220.461 222.437 223.521 229.465 225.828C229.863 225.959 240.65 223.909 241.049 224.04C248.736 222.583 256.084 226.663 263.137 229.03C273.652 232.559 283.662 237.152 293.067 242.61C312.032 253.618 328.275 267.911 341.665 284.086C355.167 300.393 365.643 318.672 373.102 337.776C374.914 342.416 376.541 347.113 377.976 351.855C378.779 354.509 379.638 357.263 378.659 359.98C377.859 362.203 376.08 363.858 373.99 365.192C371.157 367 365.475 368.176 365.585 371.812C365.67 374.578 366.729 377.488 367.246 380.22C367.861 383.474 368.367 386.748 368.872 390.016C371.171 404.893 372.961 419.854 373.752 434.857C374.532 449.63 375.178 464.704 374.021 479.473C373.945 480.446 373.617 481.34 373.088 482.096C373.582 482.263 373.62 483.078 373.006 483.194C372.575 483.275 372.146 483.355 371.715 483.436C370.821 484.035 369.706 484.403 368.423 484.439C367.553 484.463 366.684 484.498 365.815 484.537C356.646 486.235 347.478 487.839 338.188 489.054C326.897 490.53 315.572 491.733 304.212 492.712C280.869 494.722 257.71 494.055 234.337 492.972C210.999 491.89 187.676 491.637 164.314 492.175C140.932 492.714 117.558 493.615 94.1707 493.984C68.0421 494.395 41.9534 493.763 15.9004 491.923C12.3283 491.671 10.1182 489.153 10.8228 486.01C15.0438 467.181 19.8273 448.476 23.6075 429.565Z" fill="#FFDBB4"/>
<path fill-rule="evenodd" clip-rule="evenodd" d="M263.137 229.03L262.626 228.856C255.729 226.469 248.551 222.618 241.048 224.04C240.783 223.953 235.901 224.834 232.558 225.393L235.731 228.328L241.332 229.283C222.01 257.533 199.156 271.658 172.772 271.658C146.389 271.658 126.368 257.533 112.711 229.283L110.848 228.826C110.618 228.873 110.373 228.94 110.11 229.03C105.705 230.539 97.1032 237.282 92.886 239.171C75.9297 246.766 62.2095 258.14 54.0995 273.499C49.9687 281.322 46.8837 289.537 43.7191 297.695L43.3914 298.539C39.882 307.561 36.4225 316.601 33.2675 325.726C30.297 334.317 27.5964 342.987 25.3915 351.76L25.0939 352.957C24.0174 357.335 22.2957 362.252 22.6953 366.762C22.8466 368.47 23.344 369.933 24.0786 371.26L62.2965 383.442L44.089 493.449C60.7672 494.083 77.4608 494.247 94.1706 493.984C117.558 493.615 140.932 492.714 164.314 492.175C186.968 491.653 209.586 491.875 232.215 492.876L237.962 493.136C260.107 494.117 282.077 494.618 304.212 492.712L305.72 492.58L305.721 476.489L297.945 386.885L337.35 380.315L376.031 363.672C377.2 362.637 378.138 361.429 378.659 359.98C379.565 357.463 378.896 354.915 378.154 352.444L377.976 351.855C376.541 347.112 374.913 342.416 373.102 337.775C365.643 318.672 355.167 300.393 341.665 284.085C328.274 267.911 312.032 253.618 293.067 242.61C283.662 237.151 273.651 232.558 263.137 229.03Z" fill="#EC7495"/>
<path fill-rule="evenodd" clip-rule="evenodd" d="M248.339 223.577C245.923 223.484 243.459 223.83 241.048 224.04C240.838 224.058 240.759 224.345 240.995 224.389C245.309 225.188 249.576 226.28 253.813 227.389L255.627 227.865C260.405 229.117 265.043 230.408 269.668 232.078C278.886 235.406 287.641 239.898 295.699 245.059C326.727 264.932 349.184 295.02 363.355 326.172C367.204 334.632 370.465 343.302 373.106 352.119C373.748 354.264 374.353 356.417 374.926 358.577C375.094 359.211 375.827 360.833 375.425 361.481C375.07 362.053 373.688 362.407 373.046 362.705L370.879 363.701C366.653 365.63 359.612 368.803 358.906 369.112L357.805 369.592C339.795 377.413 320.551 384.046 300.284 384.505L300.125 382.972C299.221 374.495 298.035 365.974 295.447 357.758C295.308 357.317 294.674 357.466 294.616 357.858C293.174 367.584 293.635 377.386 294.138 387.158C295.029 404.464 296.212 421.76 297.263 439.06C297.789 447.714 298.47 456.362 299.084 465.011C299.699 473.677 299.898 482.552 301.303 491.147C301.616 493.063 304.149 494.105 306.068 493.903C308.19 493.679 309.823 492.023 309.833 490.125C309.859 485.117 309.148 480.051 308.754 475.056C308.379 470.311 307.976 465.568 307.564 460.825C306.057 443.515 304.324 426.225 302.72 408.923C302.152 402.786 301.538 396.655 300.906 390.524C322.376 389.911 342.434 382.866 361.569 374.635C361.846 380.206 362.515 385.767 363.163 391.314C364.97 406.796 366.564 422.271 367.757 437.8C368.36 445.644 368.798 453.497 369.18 461.351C369.368 465.211 369.521 469.072 369.638 472.934C369.677 474.221 369.713 475.508 369.744 476.796L369.81 479.745C369.863 481.614 370.077 483.345 371.852 484.706C373.655 486.087 376.091 486.161 377.875 484.706C380.264 482.757 379.841 480.102 379.77 477.486C379.712 475.278 379.641 473.071 379.559 470.865C379.394 466.451 379.183 462.039 378.927 457.629C378.031 442.211 376.241 426.854 373.901 411.56L372.988 405.655C371.282 394.68 369.41 383.454 365.597 372.881C367.081 372.227 368.562 371.568 370.036 370.907C372.652 369.734 375.357 368.633 377.899 367.338C379.916 366.31 381.656 364.901 382.218 362.822C382.844 360.505 381.886 357.971 381.25 355.711L381.195 355.513C380.571 353.237 379.899 350.971 379.19 348.715C376.316 339.566 372.762 330.595 368.603 321.844C360.275 304.323 349.525 287.678 336.395 272.628C324.575 259.081 310.613 246.796 294.249 237.582C286.248 233.077 277.723 229.378 268.706 226.763C264.492 225.541 259.907 224.478 255.494 224.04C253.114 223.804 250.73 223.669 248.339 223.577ZM205.528 195.814C202.657 193.082 196.952 195.909 198.331 199.526C201.574 208.035 206.738 215.796 214.797 221.388C222.373 226.644 231.406 230.058 241.135 229.329C241.21 229.323 241.275 229.307 241.332 229.283L240.494 230.29C233.912 238.177 226.968 245.955 218.599 252.402C201.547 265.537 178.33 272.622 155.912 267.582C138.273 263.617 122.733 251.261 118.163 235.515C118.818 235.775 119.597 235.864 120.452 235.699C124.108 234.996 127.728 231.589 130.087 229.147C132.638 226.504 134.63 223.651 136.091 220.425C138.763 214.523 139.62 206.922 135.971 201.204C135.521 200.499 134.482 200.895 134.394 201.583L134.255 202.657C133.551 208.016 132.675 213.199 129.822 218.085C128.427 220.475 126.754 222.808 124.717 224.81C123.627 225.881 122.446 226.905 121.17 227.803C119.927 228.678 118.423 229.31 117.308 230.314L117.104 230.507L117.099 230.473C116.817 228.351 115.137 227.417 113.494 227.475C111.904 227.532 110.036 228.152 109.313 228.449L109.244 228.477C98.1503 233.195 87.9327 239.344 78.3174 246.166C58.4327 260.275 43.5339 278.718 36.3152 300.438C32.7722 311.097 30.7391 322.081 28.593 333.013L27.2718 339.712C25.2687 349.804 23.0312 360.096 18.5094 369.484C17.3398 371.913 18.2415 374.19 21.1095 375.145C24.6906 376.338 28.285 377.493 31.8851 378.633C30.1173 385.351 29.0394 392.302 27.7149 399.053C24.8996 413.404 21.4501 427.663 18.4923 441.994C16.9801 449.322 15.6157 456.674 14.105 464.003C13.3776 467.532 12.6185 471.056 11.8802 474.584C11.4826 476.486 11.122 478.394 10.7424 480.299L10.6764 480.615C10.4589 481.62 10.1857 482.659 10.4978 483.665C10.8536 484.812 11.864 485.622 12.7662 486.444C13.5088 487.121 14.5819 487.126 15.4917 486.756L15.791 486.634C17.4158 485.96 18.6888 485.289 19.2652 483.665C19.6301 482.637 19.7617 481.479 20.0002 480.419C20.4577 478.389 20.8914 476.356 21.3009 474.317C22.12 470.237 22.92 466.155 23.701 462.07L24.4305 458.244C26.9343 445.059 29.312 431.794 30.514 418.47C31.0473 412.559 31.6124 406.653 32.1827 400.746L32.611 396.315C33.1526 390.708 33.8144 384.958 33.908 379.274L36.0607 379.951L46.5649 383.241C49.1693 384.056 52.4853 385.727 55.2882 385.423C56.6602 385.274 57.7063 384.891 58.5139 384.196C57.5467 396.288 56.2374 408.36 54.4924 420.369C52.9047 431.297 51.1446 442.21 49.0657 453.074C48.0362 458.453 46.9782 463.827 45.829 469.187C45.2546 471.867 44.6617 474.544 44.0508 477.218C43.7462 478.552 43.3838 479.888 43.1462 481.233C42.8745 482.773 43.3534 483.721 44.3249 484.988C45.1226 486.029 46.7183 486.563 48.0119 485.845C49.7251 484.892 50.6187 484.067 51.1227 482.333C51.5807 480.758 51.8591 479.113 52.2135 477.518C52.8677 474.573 53.5 471.624 54.1105 468.671C55.387 462.497 56.5638 456.307 57.6146 450.099C61.3178 428.228 63.6675 406.173 64.8543 384.083C65.44 373.185 65.621 362.276 65.517 351.366C65.4638 345.774 65.2576 340.166 64.811 334.587C64.3588 328.941 63.4181 323.407 62.5782 317.815C62.5487 317.618 62.2352 317.607 62.2219 317.815C61.8242 324.085 61.201 330.347 60.8955 336.634C60.6038 342.632 60.476 348.639 60.2441 354.64C59.9396 362.527 59.5173 370.42 58.9581 378.306C57.9457 377.325 56.4198 376.76 54.8929 376.981C52.681 376.57 50.2999 375.541 48.191 374.917L40.2411 372.565C36.062 371.328 31.8827 370.1 27.6888 368.909C31.4384 357.734 34.0071 346.393 36.2004 334.886L37.1786 329.711C39.1148 319.525 41.2025 309.334 44.7097 299.47C48.3968 289.099 53.9142 279.457 61.2337 270.726C68.4487 262.121 77.2266 254.544 86.2644 247.457C94.002 241.39 102.279 235.912 110.171 230.012C110.088 230.403 110.071 230.833 110.144 231.306C111.821 242.185 118.228 252.316 127.156 259.852C145.092 274.99 171.643 278.131 194.599 271.032C216.806 264.165 236.439 247.903 243.376 227.779C243.494 227.435 242.974 227.298 242.765 227.551C242.38 228.018 241.993 228.485 241.606 228.953C241.632 228.767 241.523 228.565 241.265 228.477C233.171 225.708 225.224 221.782 219.157 216.228C216.2 213.521 213.62 210.454 211.583 207.146C210.607 205.561 209.73 203.921 209.031 202.225L208.853 201.786C208.006 199.662 207.298 197.496 205.528 195.814Z" fill="black"/>
<path fill-rule="evenodd" clip-rule="evenodd" d="M101.842 76.5566C103.673 66.726 97.6652 64.6863 101.842 55.3414C111.125 38.0262 136.424 38.7722 154.989 37.4409C175.695 36.7364 196.653 39.1631 215.742 46.5305C220.302 48.2901 224.687 50.3595 228.891 52.7106C232.527 54.7439 232.027 58.6099 229.735 60.7188C246.263 81.4969 236.81 109.387 249.998 131.259C252.434 135.168 255.657 138.674 257.774 142.742C260.993 148.925 261.199 157.785 253.9 161.892C243.618 166.79 237.881 157.091 232.83 171.151C207.6 220.176 156.875 222.937 108.721 197.377C104.555 195.32 100.303 192.995 97.1569 189.763C90.016 182.629 90.857 172.597 90.6991 163.688C90.611 158.467 90.5963 153.246 90.6536 148.024C90.8783 126.873 98.775 97.5334 101.842 76.5566Z" fill="#FFDBB4"/>
<path fill-rule="evenodd" clip-rule="evenodd" d="M204.407 17.7583C175.332 6.05026 142.355 1.6103 110.64 4.52257C94.9854 5.95775 79.5374 9.03683 64.836 14.0385L63.5474 14.4806C59.9183 15.7205 56.0063 16.9513 53.2485 19.4753C50.0386 22.4086 49.1383 26.8444 51.4328 30.4679C53.2153 33.2834 56.42 35.303 59.8381 36.3808C58.634 37.2562 57.4915 38.2326 56.4201 39.3226C54.6138 41.1491 54.4764 43.7537 56.4201 45.5553C60.1652 49.0273 65.0244 51.5394 70.2582 52.7434C69.6703 55.2643 69.988 58.0545 71.249 60.567C74.8675 67.7791 85.0607 68.6386 92.9046 68.2104L93.1416 68.197L93.5778 72.6285C93.8101 74.9895 95.4029 76.8202 98.1051 77.1821C98.2 77.1947 98.2953 77.2032 98.3896 77.2112C94.1135 90.9397 91.5298 105.092 89.1452 119.162C87.8993 126.506 86.784 133.867 85.7164 141.233L85.3621 143.689C84.2243 151.63 82.8021 159.652 82.3091 167.652C81.8682 174.912 83.4279 181.843 88.4673 187.701C92.9899 192.953 99.1576 196.888 105.79 199.809C120.775 206.412 136.548 211.328 153.121 213.609L154.226 213.76C160.624 214.627 167.215 215.357 173.544 213.785C179.105 212.405 184.936 208.845 183.68 203.125C183.258 201.194 180.214 201.109 179.171 202.604L178.931 202.946C177.68 204.707 176.309 206.345 174.127 207.253C171.572 208.323 168.609 208.621 165.817 208.651C158.018 208.731 149.897 207.006 142.388 205.276C128.365 202.044 113.963 196.775 102.476 188.791C97.5884 185.399 93.6631 181.157 92.2788 175.699C90.5674 168.969 92.1413 161.613 92.9188 154.85C94.5188 140.895 96.4229 126.966 98.4321 113.052L98.8352 110.269C100.527 98.637 102.305 87.0005 103.149 75.3009C103.5 74.8759 103.737 74.3919 103.832 73.8616L103.964 73.0999C104.078 72.4476 104.097 71.85 104.017 71.2987C104.012 69.186 103.946 67.086 103.808 64.9729C103.785 64.5945 103.766 64.2158 103.751 63.8412C106.226 64.3252 108.72 64.7166 111.223 65.0491C128.82 67.4016 146.693 67.9908 164.432 66.8208C173.283 66.2354 182.067 65.23 190.824 63.9717C195.281 63.332 199.722 62.625 204.15 61.8338C207.35 61.2656 210.484 60.4955 213.632 59.7716C216.879 63.9675 218.633 69.1313 218.292 74.2025C217.908 79.9892 213.565 85.2372 214.784 91.1501C215.927 96.6838 221.268 98.3996 226.54 99.7702L228.783 100.345C230.508 100.792 231.761 101.224 232.073 103.064C232.609 106.225 231.95 109.781 231.812 112.958C231.646 116.717 231.429 120.475 231.329 124.233C231.277 126.177 231.192 128.13 231.196 130.074C231.201 131.455 231.433 132.398 232.035 133.289C231.57 133.807 231.154 134.367 230.784 134.96C230.665 135.154 230.959 135.36 231.134 135.2C231.604 134.767 232.102 134.375 232.628 134.026C232.893 134.317 233.201 134.611 233.562 134.927L233.59 134.893C234.718 135.891 236.51 135.987 237.909 134.927L238.276 134.644C239.3 133.848 240.004 133.184 240.289 131.867C240.303 131.8 240.318 131.733 240.327 131.665C242.929 131.585 245.575 132.132 247.916 133.281C251.628 135.104 254.241 137.7 255.786 140.907C255.17 141.547 254.449 142.119 253.61 142.599C253.492 142.67 253.596 142.826 253.724 142.771C254.582 142.414 255.35 141.972 256.037 141.454C256.592 142.717 256.981 144.072 257.218 145.507C258.052 150.574 256.564 156.765 251.406 159.652C249.173 160.902 246.622 161.579 243.977 161.588C242.688 161.591 241.573 161.398 240.322 161.125C239.473 160.939 238.629 160.67 237.743 160.67C236.984 160.67 236.283 160.838 235.633 161.175L235.813 161.189C236.251 161.226 236.167 161.242 235.557 161.242C233.661 161.314 232.576 163.023 233.448 164.508L233.562 164.738C233.586 164.784 233.607 164.822 233.623 164.853L233.692 165.247C233.698 165.284 233.706 165.323 233.713 165.363L233.74 165.442C233.744 165.455 233.75 165.468 233.756 165.48L230.912 169.33C227.425 174.04 223.86 178.732 219.804 183.034C216.96 186.052 213.944 189.01 210.759 191.75C207.895 194.212 204.463 195.399 201.22 197.334C199.49 198.361 198.983 200.512 200.556 201.896C205.174 205.966 211.712 202.734 215.499 199.426C219.083 196.291 222.179 192.52 224.848 188.745C229.584 182.032 233.353 174.895 235.003 167.147C235.69 167.707 236.567 168.056 237.454 168.33C239.231 168.877 241.189 169.104 243.067 169.163C246.665 169.268 250.268 168.494 253.506 167.122C266.68 161.545 268.614 144.846 260.56 134.998C261.646 132.202 262.253 129.169 262.912 126.582L263.211 125.425C266.542 112.508 268.778 98.9085 262.873 86.2514C262.115 84.6185 261.262 83.0277 260.252 81.5042C259.441 80.2796 258.047 78.9749 257.663 77.5819C256.81 74.5224 262.077 71.3071 263.613 68.8788C265.419 66.0296 265.675 62.667 263.215 60.0616C262.902 59.7337 262.561 59.4303 262.191 59.1656C264.523 55.4116 264.632 50.6897 261.56 46.9862C259.541 44.5453 256.459 42.8367 253.093 42.319C251.036 42.0034 248.561 42.1212 246.3 42.6852C233.918 32.4796 219.79 23.9532 204.407 17.7583ZM251.956 145.456C248.651 142.868 245.001 141.513 240.497 141.854C235.97 142.199 230.518 143.861 227.859 147.308C225.758 150.031 230.039 154.025 233.12 151.98C235.927 150.115 237.8 148.011 241.284 147.009C244.413 146.113 248.286 145.536 251.562 146.05C251.923 146.105 252.282 145.709 251.956 145.456Z" fill="black"/>
<path fill-rule="evenodd" clip-rule="evenodd" d="M129.709 175.09C128.98 173.968 127.302 172.928 125.767 173.087C118.888 173.802 118.9 181.19 121.556 185.502C123.911 189.327 128.785 191.571 133.663 191.244C138.788 190.899 143.154 188.23 145.076 183.983C146.347 181.174 146.934 175.988 143.553 174.1C143.49 174.065 143.387 174.074 143.337 174.125C141.716 175.795 141.652 178.303 140.233 180.163C138.914 181.892 136.863 183.321 134.461 183.541C132.667 183.706 130.853 183.133 130.151 181.706C129.771 180.935 129.814 180.516 129.957 179.985L130.087 179.523C130.536 177.906 130.738 176.675 129.709 175.09ZM127.87 142.691C124.283 144.623 118.817 149.127 122.676 153.916C127.219 158.139 133.759 153.297 136.982 151.108C139.971 149.411 143.329 153.775 140.556 155.757C117.266 171.032 107.814 143.196 126.056 140.42C128.064 140.114 128.81 142.094 127.87 142.691ZM165.754 129.445C163.552 126.519 158.526 126.95 157.313 130.422C156.656 132.304 157.563 133.995 157.516 135.873C157.477 137.46 157.594 139.229 158.143 140.766C159.396 144.27 162.954 146.746 167.163 146.643C171.359 146.541 175.055 144.188 176.812 140.875C178.576 137.549 178.202 134.107 176.915 130.725C176.853 130.563 176.613 130.484 176.468 130.621C174.946 132.053 173.832 133.566 172.679 135.17L171.498 136.814C170.595 138.052 169.283 139.634 167.597 139.535L167.344 139.513C166.876 139.477 166.948 139.559 166.586 138.994C166.419 138.732 166.449 138.246 166.369 137.937L166.341 137.832L166.356 137.776C166.392 137.626 166.427 137.345 166.456 136.855L166.462 136.747C166.584 134.459 167.314 131.519 165.754 129.445ZM109.937 131.394C110.332 127.65 104.391 126.819 102.416 129.589C101.386 131.033 101.086 132.848 100.859 134.566L100.752 135.382C100.518 137.148 100.426 138.984 101.291 140.631C102.653 143.225 105.616 144.596 108.813 144.379C111.865 144.171 114.65 142.603 116.118 140.223C117.427 138.1 118.728 133.954 117.138 131.739C117.042 131.604 116.85 131.587 116.719 131.691C115.217 132.872 114.972 135.027 114.079 136.566C113.158 138.153 111.761 139.7 109.643 139.941C107.617 140.172 106.844 139.192 107.36 137.481C108.027 135.272 109.686 133.77 109.937 131.394ZM164.149 107.192L163.178 106.862C159.85 105.749 155.28 104.461 152.574 106.859C150.904 108.337 150.587 110.515 151.778 112.319C153.222 114.505 155.811 114.559 158.312 114.881C161.156 115.247 164.049 115.943 166.697 116.935C169.68 118.053 172.448 119.447 175.161 121.004C177.738 122.483 180.307 124.901 183.393 125.357C183.519 125.375 183.662 125.327 183.694 125.205C184.395 122.532 182.448 119.903 180.71 117.818C178.607 115.293 176.06 113.222 173.212 111.364C170.464 109.571 167.323 108.275 164.149 107.192ZM103.688 116.693L103.391 116.647C101.373 116.35 99.5439 116.418 98.0228 117.834C96.8618 118.915 96.4142 120.315 96.9677 121.743C97.4784 123.061 98.6205 124.4 100.278 124.676C105.874 125.608 112.072 125.454 117.696 124.748C120.269 124.425 122.865 124.029 125.372 123.406L126.525 123.109C128.617 122.58 131.012 122.027 132.532 120.664C133.079 120.174 132.764 119.473 132.11 119.246C129.458 118.326 125.823 118.815 122.996 118.743C119.706 118.66 116.412 118.442 113.138 118.141C109.939 117.846 106.843 117.206 103.688 116.693Z" fill="black"/>
</svg>
