<svg width="157" height="197" viewBox="0 0 157 197" fill="none" xmlns="http://www.w3.org/2000/svg">
<path d="M44.3741 66.6121C46.6322 61.2271 48.2244 54.484 47.5409 48.4024C46.8771 42.3066 43.9374 36.8733 40.4806 32.4027C37.0238 27.9308 33.0463 24.5017 29.5658 25.5019C26.0933 26.5352 23.1143 32.0755 20.1667 37.1028C17.2273 42.1618 14.2997 46.7207 13.2443 52.487C12.2085 58.2404 13.0532 65.2329 15.1408 71.2169C17.2169 77.2468 20.536 82.2682 24.2601 83.5991C28.0037 84.9176 32.1522 82.5471 35.6705 79.3238C39.2084 76.0865 42.116 71.9959 44.3741 66.6121Z" fill="#9FD8E5"/>
<path d="M49.9834 164.615C53.5017 156.198 55.9792 145.653 54.9056 136.137C53.8627 126.599 49.2685 118.089 43.8681 111.084C38.4677 104.079 32.256 98.7007 26.8248 100.255C21.4062 101.86 16.7628 110.52 12.168 118.375C7.58588 126.28 3.02167 133.403 1.38094 142.421C-0.229168 151.418 1.09695 162.362 4.36195 171.73C7.60908 181.17 12.7951 189.034 18.609 191.129C24.4534 193.203 30.9257 189.507 36.4133 184.475C41.9315 179.421 46.4651 173.031 49.9834 164.615Z" fill="#9093D1"/>
<path d="M82.437 57.8847C83.5661 55.1933 84.3621 51.8218 84.0203 48.781C83.6886 45.7331 82.2184 43.0159 80.4906 40.78C78.762 38.5452 76.7729 36.8294 75.0329 37.3308C73.2965 37.8462 71.8071 40.6175 70.3334 43.13C68.8633 45.6601 67.3995 47.9396 66.872 50.8227C66.3544 53.6988 66.7766 57.1962 67.8203 60.1876C68.8583 63.2026 70.5178 65.7127 72.3802 66.3788C74.2519 67.0378 76.3258 65.8527 78.085 64.2405C79.8541 62.6224 81.3079 60.5772 82.437 57.8847Z" fill="#9093D1"/>
<path d="M104.513 182.7C106.334 178.359 107.617 172.924 107.066 168.022C106.531 163.109 104.162 158.729 101.375 155.125C98.5894 151.522 95.3828 148.757 92.5778 149.564C89.7785 150.396 87.3778 154.862 85.0014 158.914C82.6321 162.992 80.2727 166.666 79.4219 171.314C78.5868 175.951 79.2682 181.588 80.9505 186.412C82.6242 191.272 85.2997 195.319 88.3012 196.392C91.3184 197.455 94.6623 195.544 97.498 192.945C100.35 190.336 102.694 187.04 104.513 182.7Z" fill="#9093D1"/>
<path d="M93.1388 122.225C95.397 116.841 96.9889 110.098 96.3055 104.016C95.642 97.9203 92.7024 92.4863 89.2452 88.0154C85.7888 83.5446 81.8112 80.1143 78.3306 81.1157C74.8577 82.1478 71.879 87.689 68.9316 92.7158C65.992 97.7748 63.0644 102.333 62.009 108.1C60.9732 113.853 61.8179 120.846 63.9053 126.83C65.9813 132.86 69.3011 137.881 73.0245 139.213C76.7686 140.531 80.917 138.16 84.4354 134.937C87.973 131.7 90.8805 127.609 93.1388 122.225Z" fill="#F7859C"/>
<path d="M151.418 65.2807C154.936 56.8643 157.414 46.319 156.34 36.8022C155.297 27.2655 150.703 18.7549 145.303 11.7495C139.902 4.74517 133.691 -0.63279 128.259 0.921753C122.841 2.52573 118.197 11.1858 113.603 19.0409C109.021 26.9466 104.456 34.0686 102.815 43.0875C101.206 52.0841 102.531 63.0283 105.796 72.3956C109.043 81.8359 114.23 89.7001 120.044 91.795C125.888 93.8687 132.361 90.1729 137.848 85.1405C143.366 80.0871 147.9 73.6971 151.418 65.2807Z" fill="#FFDBB4"/>
</svg>
