<svg width="193" height="284" viewBox="0 0 193 284" fill="none" xmlns="http://www.w3.org/2000/svg">
<path d="M162.954 105.263C162.718 101.619 163.415 97.6431 165.745 95.0655C168.062 92.4721 172.014 91.2768 176.098 90.7875C180.182 90.298 184.378 90.5532 186.879 92.6872C189.364 94.832 190.133 98.8933 191.027 102.695C191.905 106.508 192.92 110.076 192.079 113.331C191.225 116.57 188.499 119.505 185.072 121.368C181.639 123.26 177.505 124.077 174.125 122.94C170.734 121.788 168.099 118.683 166.219 115.472C164.326 112.243 163.191 108.907 162.954 105.263Z" fill="#9093D1"/>
<path d="M0.177246 156.871C-0.294412 149.582 1.09854 141.63 5.7576 136.475C10.3932 131.288 18.2947 128.898 26.4625 127.92C34.6305 126.941 43.0242 127.451 48.026 131.718C52.9959 136.008 54.5331 144.132 56.3211 151.735C58.0771 159.36 60.1074 166.498 58.4245 173.007C56.7179 179.485 51.2664 185.356 44.4105 189.083C37.5461 192.863 29.2774 194.498 22.5191 192.226C15.7372 189.921 10.4655 183.711 6.70532 177.287C2.92138 170.831 0.649038 164.159 0.177246 156.871Z" fill="#F7859C"/>
<path d="M93.6031 247.385C93.1306 240.097 94.524 232.145 99.1832 226.99C103.818 221.803 111.721 219.413 119.889 218.434C128.055 217.456 136.45 217.966 141.451 222.232C146.421 226.521 147.959 234.645 149.747 242.248C151.502 249.875 153.533 257.013 151.85 263.522C150.143 269.998 144.691 275.871 137.835 279.596C130.971 283.377 122.703 285.011 115.945 282.739C109.162 280.436 103.89 274.226 100.131 267.801C96.3471 261.344 94.0742 254.674 93.6031 247.385Z" fill="#F7859C"/>
<path d="M47.8825 46.6891C47.1636 35.3071 49.3615 22.8841 56.6585 14.8211C63.9187 6.70873 76.2783 2.95636 89.0507 1.40766C101.822 -0.140901 114.944 0.635677 122.753 7.28749C130.511 13.9752 132.895 26.6594 135.671 38.5298C138.396 50.4362 141.552 61.578 138.904 71.7478C136.221 81.8684 127.683 91.0531 116.955 96.8891C106.214 102.811 93.2828 105.384 82.7219 101.852C72.1249 98.2704 63.8992 88.5839 58.0367 78.5589C52.1374 68.4845 48.6015 58.0712 47.8825 46.6891Z" fill="#9FD8E5"/>
<path d="M89.5979 156.872C89.1254 149.583 90.5188 141.631 95.178 136.476C99.8131 131.289 107.715 128.899 115.883 127.921C124.05 126.942 132.445 127.452 137.446 131.718C142.416 136.009 143.953 144.133 145.742 151.736C147.497 159.361 149.528 166.499 147.845 173.008C146.138 179.484 140.686 185.357 133.83 189.083C126.966 192.863 118.698 194.498 111.94 192.226C105.157 189.922 99.8852 183.712 96.1255 177.287C92.3419 170.832 90.069 164.16 89.5979 156.872Z" fill="#FFDBB4"/>
</svg>
