<svg width="392" height="501" viewBox="0 0 392 501" fill="none" xmlns="http://www.w3.org/2000/svg">
<path fill-rule="evenodd" clip-rule="evenodd" d="M31.1862 320.946C32.7908 317.316 30.4477 313.695 29.148 310.183C24.5307 298.003 37.1599 267.283 45.9925 266.834C49.2227 259.947 57.8439 257.09 64.6292 253.124C72.329 249.164 79.8191 244.615 87.8269 241.143C88.2722 237.863 93.0994 237.05 96.0513 239.396C104.159 235.24 113.881 236.012 122.572 233.289C129.175 224.493 129.671 215.244 131.419 206.759C132.181 203.06 131.372 199.491 134.439 196.193C144.742 184.251 185.454 179.074 200.464 186.15C208.544 181.998 208.738 189.518 210.022 194.16C211.448 196.482 212.22 199.112 211.981 201.883C215.806 208.467 219.05 216.702 227.088 221.619C237.289 227.858 252.982 230.23 262.927 233.289C264.414 232.11 265.385 230.668 265.84 228.963C281.253 231.724 296.212 236.578 309.125 244.157C323.797 247.693 334.129 257.526 341.601 268.069C342.424 269.181 342.618 270.314 342.378 271.355C365.354 299.108 376.32 332.334 377.86 365.892C392.635 373.199 370.837 438.842 365.763 452.47C365.758 452.468 365.753 452.467 365.748 452.465C362.456 457.267 358.718 470.972 350.479 469.912C344.828 475.177 335.821 474.142 328.152 474.547C329.401 478.495 328.787 483.013 327.301 486.914C325.542 491.559 316.914 491.716 315.69 486.653C239.317 498.88 160.955 489.124 83.7239 490.959C61.3939 491.09 39.0659 491.659 16.7895 492.97C13.6527 493.154 10.4725 490.513 10.686 487.94C15.4754 445.951 19.9732 390.714 25.3289 349.136C26.5991 339.654 27.6036 330.068 31.1862 320.946Z" fill="#EDB98A"/>
<path fill-rule="evenodd" clip-rule="evenodd" d="M265.84 228.963C265.815 229.057 265.788 229.15 265.76 229.242L266.052 229.788C267.902 233.305 268.827 236.217 268.827 238.524C268.827 243.783 240.42 295.83 177.399 291.047C135.385 287.859 109.776 272.13 100.572 243.861L100.033 237.753C98.6719 238.199 97.3412 238.735 96.0514 239.396C93.0995 237.05 88.2724 237.863 87.8271 241.143C79.8192 244.615 72.3292 249.164 64.6293 253.124L64.1586 253.396C57.4506 257.224 49.1487 260.105 45.9927 266.834L44.7292 266.9C36.2948 267.356 24.5309 298.003 29.1482 310.183C30.4479 313.695 32.791 317.316 31.1864 320.946C27.6038 330.068 26.5992 339.654 25.3291 349.136C19.9734 390.714 15.4756 445.951 10.6862 487.94C10.4727 490.513 13.6599 492.734 16.7896 492.97C81.5986 497.868 325.542 494.084 327.301 489.44C328.787 485.538 329.401 478.495 328.152 474.547C335.821 474.142 344.828 475.177 350.479 469.912C358.718 470.972 362.456 457.267 365.748 452.465L365.763 452.47C370.837 438.842 392.635 373.199 377.86 365.892C376.32 332.334 365.354 299.109 342.378 271.355C342.608 270.357 342.44 269.275 341.701 268.208L341.601 268.069C334.129 257.526 323.797 247.693 309.125 244.157C296.212 236.578 281.253 231.724 265.84 228.963ZM79.1961 316.826C82.4944 314.718 108.409 318.934 127.241 322.723C139.796 325.248 148.541 328.663 153.478 332.968L175.577 352.956L181.169 355.935C181.169 362.157 180.738 368.701 179.876 375.566C179.013 382.431 175.211 389.696 168.471 397.36C148.609 392.863 136.732 390.311 132.841 389.704C127.005 388.794 122.382 380.898 119.639 378.184C116.895 375.469 106.375 375.167 98.3587 373.076C93.0146 371.682 89.2978 368.121 87.2083 362.394C75.5278 360.316 67.8062 358.931 64.0436 358.237C60.2811 357.544 60.2811 355.783 64.0436 352.956L107.788 351.694C90.3283 348.62 79.7287 346.871 75.989 346.447C70.3793 345.812 55.3105 341.957 55.3105 338.97C55.3105 336.042 78.2503 336.095 90.478 336.099L91.4622 336.099C99.4902 336.112 112.288 336.732 129.856 337.959L119.639 333.926C96.5858 330.248 83.5226 328.409 80.4488 328.409C77.3749 328.409 75.1973 326.513 73.9159 322.723C75.2372 320.197 76.9973 318.231 79.1961 316.826Z" fill="#FFCF77"/>
<path fill-rule="evenodd" clip-rule="evenodd" d="M107.497 317.525L85.0492 275.625C82.7879 270.879 79.7375 268.506 75.8978 268.506C72.0582 268.506 52.7299 268.955 17.913 269.854C10.7876 270.603 8.37528 272.527 10.676 275.625C12.9768 278.724 31.2327 309.103 65.4439 366.763H87.2082V362.394L62.9779 356.811C60.0379 354.241 60.8599 352.956 65.4439 352.956C70.028 352.956 85.6547 352.535 112.324 351.694L74.1792 347.082L55.3104 341.102L58.0859 337.959L74.1792 336.064L126.589 337.959L112.324 333.984L80.4487 328.409C76.269 325.983 74.1792 323.581 74.1792 321.203C74.1792 318.824 79.7774 317.177 90.9739 316.263L107.497 317.525Z" fill="white"/>
<path fill-rule="evenodd" clip-rule="evenodd" d="M208.762 188.742C208.543 188.249 207.65 188.315 207.633 188.868C207.282 200.674 210.848 215.101 222.313 223.075C228.198 227.169 235.978 229.043 243.123 231.195L243.929 231.44L256.553 235.315C259.901 236.343 263.513 237.924 266.47 236.472C264.077 241.363 262.068 246.388 259.153 251.101C255.525 256.968 251.139 262.336 245.77 267.218C224.501 286.56 190.841 292.46 160.634 286.792C145.08 283.874 129.944 278.343 119.332 268.255C111.267 260.587 106.633 250.296 105.542 240.145C105.861 240.187 106.195 240.185 106.539 240.123C110.361 239.436 114.219 237.748 117.582 236.092L117.906 235.932C121.142 234.327 124.515 232.487 126.837 229.993C128.374 228.342 129.95 224.824 131.564 219.438C132.223 216.401 132.841 210.352 132.736 207.283C132.726 206.994 131.167 206.823 131 207.124C129.56 209.729 129.094 215.454 127.982 218.166L127.757 218.707C126.57 221.539 125.551 224.987 123.089 227.277C118.467 231.576 111.493 233.396 105.268 235.552C104.821 230.693 95.4036 230.806 95.5231 235.873C95.5297 236.148 95.5446 236.422 95.5563 236.696C94.8136 237.032 94.0994 237.417 93.4316 237.788L92.7801 238.153C90.3144 239.535 87.8298 240.848 85.2043 242.021C80.1212 244.291 74.74 246.091 69.5318 248.152C64.2629 250.237 59.3351 252.722 54.7342 255.695C52.5732 257.091 50.5011 258.578 48.5359 260.158L48.0026 260.592C46.1319 262.127 43.6978 263.844 42.632 265.861C42.3971 266.306 41.2202 267.341 40.5816 267.375C30.6862 267.91 20.8119 268.665 10.9785 269.796C8.43271 270.089 7.42639 271.171 8.3674 272.919C11.6012 278.928 24.261 302.925 27.6275 309.365C27.2343 314.097 27.7654 319.667 27.4109 324.399C26.8926 331.305 26.2139 338.209 25.4003 345.096C22.4893 369.731 18.0763 394.246 14.0887 418.774C12.0929 431.049 10.2733 443.342 8.47711 455.638C7.5701 461.852 6.80048 468.072 6.20807 474.313C5.9613 476.913 5.7374 479.515 5.54004 482.118L5.36996 484.427C5.13583 487.333 4.59546 490.107 6.7775 492.601C7.76672 493.733 10.0261 494.37 11.3269 493.085C12.9621 491.469 13.5699 490.262 13.7261 488.14C13.8456 486.515 13.8743 484.883 13.9641 483.257C14.1582 479.732 14.4023 476.209 14.6883 472.687C15.2588 465.648 15.9099 458.61 16.6642 451.583C19.3081 426.941 24.3329 402.485 27.6765 377.903C29.3618 365.511 30.559 353.095 31.1927 340.635C31.5099 334.412 31.6248 328.19 31.5502 321.961C31.5222 319.635 31.3883 317.32 31.1948 315.009C36.2038 324.386 41.4697 333.672 46.975 342.836L48.28 345.006C51.7689 350.797 55.3516 356.611 59.5447 362.071L60.2653 363.001C61.9644 365.219 64.285 368.716 67.3828 369.416C69.5405 369.904 72.1773 369.56 74.3896 369.525C76.5852 369.491 78.7832 369.483 80.9772 369.41C83.4383 369.328 85.7865 369.062 88.1649 368.533C88.5602 368.446 88.934 368.351 89.2746 368.23C91.6709 371.461 95.7422 373.922 99.9049 375.356C103.239 376.504 106.734 377.292 110.234 378.02L111.47 378.276C115.222 379.046 119.515 379.412 121.632 382.399L122.123 383.091C123.697 385.294 125.207 387.229 127.811 388.808C130.614 390.509 133.935 391.578 137.244 392.41C140.631 393.262 144.098 393.914 147.537 394.613L148.474 394.805C150.745 395.273 153.036 395.703 155.293 396.213C156.256 396.43 157.236 396.654 158.181 396.921C159.287 397.235 160.091 397.724 160.964 398.256C161.748 400.514 165.101 401.74 167.858 401.583C169.306 401.5 170.604 401.095 171.786 400.502C173.849 401.949 176.12 403.245 178.222 404.585C181.167 406.462 184.123 408.326 187.095 410.173C193.223 413.98 199.398 417.736 205.638 421.418C216.712 427.954 228.026 434.19 239.534 440.196C244.332 442.7 249.162 445.2 254.04 447.64L253.52 447.799L252.487 448.12C250.046 448.871 247.327 450.084 246.854 452.431C246.479 454.292 247.741 455.574 249.97 455.802C252.62 456.071 254.683 454.528 256.333 453.056C257.061 452.406 257.876 451.803 258.574 451.134C258.858 450.861 259.077 450.546 259.269 450.216C264.083 452.553 268.948 454.812 273.89 456.925L275.127 457.45C287.382 462.614 299.311 468.272 311.671 473.289C314.895 474.598 318.825 476.014 322.923 476.98C321.836 480.453 321.852 484.266 321.825 487.79C321.799 491.225 328.423 491.209 328.283 487.79L328.216 486.139C328.095 483.363 327.898 480.482 327.099 477.78C339.171 479.43 351.231 475.845 353.477 474.768C355.955 473.58 358.205 471.68 360.077 469.917C364.084 466.143 366.864 461.62 369.331 457.069C374.614 447.324 378.358 436.907 381.095 426.489C391.185 388.08 386.845 346.971 370.459 310.152C366.365 300.953 361.532 291.957 355.993 283.286L355.305 282.214C349.778 273.639 343.636 265.097 335.833 257.801C327.706 250.2 317.68 244.29 306.764 239.702C301.437 237.463 295.956 235.522 290.353 233.803C289.453 233.526 288.547 233.278 287.639 233.042C281.801 229.975 274.715 227.041 267.627 227.156C267.146 227.163 266.756 227.314 266.465 227.541C266.123 227.59 265.781 227.65 265.439 227.732C264.684 227.912 263.886 228.594 263.994 229.295L264.031 229.528C264.051 229.642 264.076 229.752 264.119 229.86C263.866 229.891 263.617 229.94 263.374 230.009C256.592 228.431 249.92 226.017 243.302 224.07L241.795 223.632C236.252 222.031 230.566 220.462 226.019 217.295C221.496 214.143 218.095 210.062 215.636 205.649C212.606 200.212 211.25 194.323 208.762 188.742ZM72.9866 475.475C71.644 474.652 70.0562 475.607 69.5536 476.626C67.9041 479.969 68.7192 485.165 71.0444 488.122C73.4539 491.185 79.2213 489.976 79.3607 486.265C79.5063 482.396 76.7771 477.8 72.9866 475.475ZM59.1168 383.146C58.9963 382.711 58.1771 382.715 58.0546 383.146C56.9367 387.069 56.9627 391.295 56.6345 395.317L56.5965 395.763C56.2028 400.2 55.8718 404.648 55.6359 409.092C55.1726 417.835 54.619 426.578 53.9985 435.315C53.6906 439.647 53.3607 443.979 53.0088 448.309C51.9067 447.803 50.7714 447.359 49.5947 446.966C47.8318 446.379 46.1153 446.312 44.2211 446.328C41.9143 446.347 40.1774 448.019 40.4828 449.882C40.8157 451.91 42.9826 452.779 45.2328 452.489C47.725 452.168 50.228 451.67 52.7443 451.464C52.4639 454.812 52.1743 458.159 51.8674 461.505C51.4604 465.934 50.9297 470.358 50.5569 474.789C50.5211 475.212 50.4828 475.635 50.4435 476.06C48.9431 475.417 47.3497 475.088 45.5438 474.682L45.074 474.574C42.4521 473.953 39.6472 473.095 37.2204 474.548C35.5892 475.525 35.2633 477.132 36.6147 478.421C38.6635 480.375 41.6952 479.996 44.5254 479.897L46.0479 479.851C47.4829 479.804 48.8068 479.729 50.133 479.43C49.8894 482.317 49.7612 485.214 50.1907 488.059C50.4231 489.596 52.8791 490 53.5292 488.431C55.2273 484.332 55.5782 479.912 56.1997 475.619C56.78 471.61 57.1329 467.571 57.513 463.543L57.6281 462.335C58.483 453.475 59.1669 444.61 59.6664 435.731C60.1663 426.854 60.4666 417.978 60.5861 409.092C60.6404 405.057 60.5593 401.007 60.3676 396.973L60.3068 395.763C60.0861 391.614 60.2404 387.211 59.1168 383.146ZM283.532 476.129C283.467 475.562 282.916 474.857 282.096 474.945C281.341 475.026 280.563 474.988 279.815 475.09C278.829 475.225 278.036 475.705 277.118 476.007C275.628 476.498 274.003 476.752 272.473 477.154C269.603 477.909 268.04 480.398 269.228 482.723C270.478 485.167 273.618 485.721 276.331 484.696C278.47 483.888 280.064 482.596 281.502 481.1L281.91 480.674C282.53 480.032 283.233 479.315 283.493 478.537C283.746 477.778 283.621 476.9 283.532 476.129ZM144.111 464.64C140.537 464.225 137.484 465.232 134.177 466.181L133.908 466.258C130.542 467.215 125.631 467.878 123.905 470.717C122.865 472.429 123.673 474.703 126.122 475.209C130.002 476.011 133.48 473.675 136.687 472.102L136.856 472.02C139.952 470.525 143.147 469.269 145.124 466.691C145.652 466.004 145.194 464.766 144.111 464.64ZM268.886 230.398C270.318 230.663 271.75 230.896 273.181 231.121C278.622 233.524 283.904 236.018 289.522 238.16C295.483 240.432 301.422 242.778 307.084 245.527C318.524 251.08 327.954 258.3 335.746 267.15C349.206 282.437 359.219 300.067 366.384 317.955C368.225 322.551 369.873 327.199 371.33 331.885C368.753 329.921 365.703 328.714 362.281 327.68C360.831 327.241 359.027 327.983 358.292 329.017C357.961 329.482 357.775 329.942 357.809 330.487C357.885 331.689 358.835 333.056 360.403 333.294C364.058 333.849 367.612 334.93 371.136 335.881C371.671 336.025 372.13 335.971 372.496 335.801C375.995 348.013 378.184 360.477 378.959 373.016C379.615 383.632 379.211 394.331 377.784 404.931C376.687 404.525 375.615 404.144 374.413 403.914C372.853 403.615 371.32 403.251 369.799 402.841C365.41 401.654 363.408 407.625 367.894 408.535C369.563 408.874 371.243 409.155 372.944 409.361C374.427 409.54 375.738 409.461 377.136 409.273C376.068 415.887 374.61 422.453 372.752 428.925L372.342 430.341C369.928 438.608 367.116 446.951 363.048 454.763C361.053 458.596 358.411 462.235 355.149 465.43C353.546 467.001 351.767 468.348 349.828 469.624C348.213 470.687 342.724 472.991 336.223 472.991C329.722 472.991 327.962 472.484 324.682 471.553C318.195 469.714 312.037 466.777 305.954 464.161L305.324 463.891C302.635 462.744 299.955 461.581 297.282 460.407C297.62 458.162 297.029 456.276 295.609 454.202C294.075 451.959 290.272 453.076 289.989 455.37L289.98 455.458C289.937 455.975 289.832 456.503 289.702 457.028C271.831 448.962 254.34 440.33 237.127 431.336C226.039 425.542 215.069 419.575 204.259 413.433C198.855 410.363 193.499 407.238 188.195 404.051C185.417 402.382 182.651 400.699 179.899 399.002C178.752 398.295 177.627 397.553 176.478 396.842C176.758 396.554 177.03 396.267 177.293 395.982C181.584 391.353 184.368 385.835 185.755 380.142C186.593 376.707 186.997 373.141 187.12 369.639L187.175 368.116C187.259 365.55 187.281 362.865 186.708 360.379C187.489 360.733 188.286 361.079 189.082 361.451C191.935 362.783 194.791 364.112 197.651 365.434C203.379 368.082 209.124 370.699 214.942 373.211C225.334 377.697 235.828 381.965 246.605 385.79L251.849 387.652C260.951 390.878 270.126 394.046 279.589 396.444C284.926 397.796 292.929 399.47 298.343 400.502C293.994 403.879 293.393 406.149 296.541 407.311C301.263 409.054 305.175 402.369 305.33 401.763C306.993 402.05 310.198 402.54 314.946 403.233C321.714 404.309 328.276 406.44 334.326 409.168C336.429 410.116 337.015 408.274 334.787 406.991C328.271 403.237 320.671 401.113 312.83 399.331L312.445 399.244C309.568 398.594 306.696 397.918 303.831 397.216C304.146 396.277 304.328 395.302 304.291 394.228C304.211 391.833 303.954 389.431 303.8 387.038C303.476 382.017 303.063 377.011 302.578 371.999C302.393 370.068 302.184 368.132 301.946 366.197C303.482 365.518 304.808 364.617 306.521 364.174L306.81 364.104C308.643 363.697 308.024 361.751 306.396 361.585C304.922 361.435 303.455 361.504 302.001 361.761C301.776 361.801 301.563 361.846 301.36 361.897C301.093 360.105 300.797 358.318 300.46 356.541C299.57 351.845 298.94 346.897 297.087 342.385C296.95 342.051 296.348 341.932 296.125 342.282C293.429 346.507 293.335 351.691 293.032 356.396L292.994 356.958C292.636 362.092 292.616 367.276 292.731 372.416C292.85 377.714 293.07 382.998 293.358 388.291C293.474 390.422 293.47 392.633 293.91 394.672C277.87 390.375 262.113 385.231 247.01 379.141C236.356 374.846 225.795 370.378 215.353 365.742C210.122 363.42 204.865 361.135 199.639 358.804C197.808 357.987 195.979 357.168 194.15 356.347L191.407 355.114C188.84 353.96 186.698 352.811 183.708 352.731C182.817 352.706 182.018 353.05 181.45 353.571C179.843 352.632 177.987 352.056 176.038 352.069C173.104 348.73 170.126 345.418 167.029 342.179L164.741 339.78C160.781 335.642 156.586 331.441 151.537 328.291C149.283 326.886 146.804 325.832 144.219 324.96C144.827 324.838 145.422 324.592 145.953 324.186C148.422 322.299 148.762 318.795 149.264 316.162C149.784 313.432 149.583 310.989 149.069 308.267C148.87 307.21 146.744 306.99 146.225 307.961C145.132 310.009 143.974 311.972 142.979 314.043L142.686 314.668C141.618 316.999 139.343 319.452 139.493 321.981C139.534 322.674 139.816 323.278 140.251 323.764C138.081 323.17 135.88 322.641 133.713 322.089C126.891 320.352 120.044 318.664 113.091 317.316C111.24 316.958 109.38 316.625 107.512 316.319C106.534 312.491 105.108 308.734 103.427 305.044C105.019 304.372 106.049 303.246 107.42 302.243C108.703 301.305 109.584 300.162 110.679 299.085C111.675 298.105 111.115 296.334 109.325 296.391L108.818 296.409C106.963 296.48 105.166 296.638 103.484 297.351L102.885 297.606C102.063 297.957 101.163 298.36 100.362 298.836C99.3146 296.85 98.2254 294.883 97.1245 292.936L95.696 290.418C91.9922 283.865 88.2987 277.062 83.6487 270.96C81.5814 268.247 78.8302 266.553 74.8815 266.291C70.8152 266.021 66.5876 266.369 62.5158 266.489C57.7953 266.629 53.0764 266.794 48.3606 266.998C49.5694 265.955 50.6725 264.793 51.8865 263.792C53.9017 262.132 56.0308 260.558 58.2687 259.103C62.6981 256.224 67.5681 253.851 72.6267 251.809C77.6862 249.765 82.8944 247.984 87.644 245.46C90.6494 243.862 93.3357 241.852 95.7866 239.678C97.3294 253.393 105.366 266.135 117.44 275.709C129.981 285.652 147.312 291.114 164.265 293.438C181.557 295.808 199.605 294.938 216.147 289.985C224.677 287.431 232.857 283.782 240.153 279.205C240.233 279.603 240.329 279.997 240.519 280.367C240.773 280.864 241.084 281.287 241.441 281.724L242.077 282.49C242.478 282.972 242.887 283.45 243.342 283.897C244.444 284.979 246.007 285.452 247.689 285.447C250.912 285.439 253.352 282.835 252.484 280.26C251.94 278.642 250.774 277.668 248.953 277.035C248.378 276.835 247.792 276.667 247.202 276.502L246.759 276.378C246.163 276.21 245.572 276.05 244.959 275.957C248.413 273.444 251.618 270.712 254.488 267.764C263.491 258.517 272.37 245.567 269.36 233.287C269.308 233.077 269.078 232.944 268.83 232.91C268.655 232.048 268.098 231.215 267.336 230.654C267.849 230.543 268.366 230.457 268.886 230.398ZM175.408 442.714C173.625 441.897 171.783 443.839 173.232 445.038L175.395 446.821C177.403 448.484 179.357 450.164 181.075 452.059L181.491 452.522C183.811 455.122 186.285 458.136 190.086 459.108C194.683 460.283 199.101 455.668 196.439 452.297C194.113 449.352 189.635 448.24 185.774 447.022C182.121 445.87 178.822 444.279 175.408 442.714ZM323.717 429.12C322.669 427.99 319.938 428.585 320.653 430.184C322.978 435.376 323.925 442.457 329.795 445.907C331.689 447.019 334.663 446.508 336.223 445.223C337.994 443.763 338.065 441.707 337.052 439.926C335.816 437.754 332.777 436.178 330.646 434.523L330.455 434.373C328.163 432.538 325.684 431.242 323.717 429.12ZM78.3807 435.096C76.5111 434.432 71.6383 433.14 70.1942 434.669C70.1268 434.725 70.0691 434.786 70.0227 434.853C69.6687 435.361 69.6161 436.076 70.0227 436.579C71.7054 438.663 73.458 440.219 75.8504 441.702L76.119 441.866C78.7235 443.444 81.1703 445.297 84.3438 446.009C88.7425 446.996 91.8149 442.457 88.7257 439.807C86.2368 437.672 82.4374 436.564 79.1396 435.373L78.3807 435.096ZM255.025 405.426C255.761 404.331 254.258 402.986 252.896 403.672C249.012 405.628 244.488 407.095 240.125 408.15C238.36 408.576 236.767 410.051 236.898 411.642L236.919 411.883C236.971 412.445 237.065 413.004 237.498 413.471C239.018 415.108 241.191 415.739 243.512 414.77C248.685 412.61 252.226 409.595 255.025 405.426ZM141.507 402.108C141.602 401.647 141.193 401.291 140.624 401.38C137.342 401.893 134.31 403.199 131.492 404.701C129.98 405.506 128.522 406.391 127.014 407.204C125.151 408.208 124.453 409.038 124.178 410.881C123.996 412.097 125.375 413.208 126.639 413.544C130.084 414.46 134.031 411.456 136.365 409.504L136.47 409.416C138.913 407.364 140.928 404.937 141.507 402.108ZM42.9254 398.92C43.6735 397.255 41.095 395.874 39.4087 396.692C37.8209 397.462 36.0983 398.1 34.6004 398.982C33.224 399.793 31.969 400.754 30.649 401.633L29.9967 402.059C27.576 403.662 23.5803 407.628 27.0414 409.929C30.3357 412.119 34.7033 409.322 36.9144 407.278L37.0686 407.133C38.3408 405.922 39.9091 404.607 40.832 403.192C41.7007 401.861 42.29 400.333 42.9254 398.92ZM75.4116 270.036C79.5375 270.696 81.2193 274.893 82.9567 277.628C87.0571 284.084 90.8282 290.658 94.6156 297.24C95.7815 299.265 96.9168 301.305 98.0623 303.342C98.1323 303.501 98.2222 303.658 98.3279 303.814C100.675 307.977 103.091 312.113 105.916 316.065C103.331 315.666 100.732 315.326 98.1241 315.059C98.2557 313.035 96.5741 310.327 95.7424 308.623L95.6732 308.48C94.636 306.296 93.5487 302.857 90.8788 301.724C89.9891 301.347 89.0377 301.82 88.9692 302.627C88.767 305.03 91.6193 307.78 93.0135 309.82C93.8567 311.054 94.6784 312.293 95.4792 313.546C95.7794 314.015 96.0302 314.475 96.3382 314.889C94.993 314.769 93.6463 314.662 92.296 314.584L91.416 314.534C86.41 314.262 81.0932 314.185 76.5703 316.219C72.3739 318.106 70.2289 322.134 72.5343 325.801C75.4065 330.37 81.731 330.976 87.2926 331.346C94.2392 331.808 101.202 332.642 108.099 333.455C115.234 334.296 121.952 336.463 128.98 337.577C129.634 337.681 130.041 336.976 129.441 336.675C123.897 333.894 117.158 332.364 110.959 330.805L110.458 330.679C107.096 329.828 103.81 328.856 100.332 328.373C96.9561 327.905 93.5589 327.525 90.1536 327.236L89.8228 327.211C86.0735 326.952 76.5083 327.041 76.9125 322.466C77.1801 319.439 83.1523 318.916 85.8784 318.88C98.3774 318.715 110.966 321.448 122.845 324.378L125.497 325.033C130.361 326.239 135.231 327.48 140.004 328.893C145.412 330.495 149.673 332.993 153.612 336.411C157.98 340.202 162.21 344.078 166.741 347.741C169.597 350.05 172.49 352.318 175.407 354.567C176.066 355.27 176.593 356.035 176.958 357.027C177.575 358.702 177.433 360.26 177.2 361.981C176.613 366.328 176.483 370.72 175.747 375.054C175.065 379.068 174.111 383.23 172.088 386.954C171.287 388.429 170.244 389.877 169.057 391.173L168.099 392.199C167.681 392.645 167.214 393.133 166.723 393.592C166.003 392.868 164.962 392.397 163.751 392.515C161.177 392.765 159.154 392.705 156.63 392.218C154.676 391.841 152.737 391.399 150.792 390.991C146.972 390.188 143.117 389.457 139.336 388.535L138.686 388.374C135.869 387.662 133.051 386.77 130.706 385.271C127.981 383.529 127.143 381.016 125.125 378.843C120.815 374.203 111.503 374.3 105.198 373.029C99.8394 371.95 94.6829 370.246 90.9747 367.042L90.7583 366.851C90.9227 366.279 90.6561 365.634 90.0116 365.338L89.8711 365.274C89.6198 365.158 89.3492 365.11 89.0836 365.114C88.7394 364.698 88.4074 364.268 88.1056 363.81C87.8574 363.432 87.2369 363.71 87.3181 364.083C87.3666 364.306 87.4341 364.523 87.4979 364.74C83.9059 363.979 79.961 364.124 76.314 364.126L71.5811 364.113C70.7621 364.104 69.5413 364.071 69.4327 364.03L69.3215 363.989C69.0264 363.884 69.4453 364.058 69.2392 363.833C69.0119 363.584 68.7893 363.332 68.5697 363.078C67.7852 362.174 67.0432 361.242 66.3159 360.302C74.2415 361.966 82.4516 363.001 90.5442 363.864C99.2262 364.791 108.023 365.434 116.782 365.441C119.197 365.443 119.175 362.439 116.782 362.364C107.507 362.072 98.2799 361.667 89.0668 360.688C84.3024 360.181 79.558 359.545 74.8401 358.801C73.0187 358.514 71.2016 358.21 69.3889 357.888L68.0303 357.644C67.178 357.488 64.7695 357.265 63.5949 356.615C63.364 356.288 63.1332 355.962 62.9044 355.636C63.0168 354.489 66.5549 354.643 67.3843 354.641C69.7361 354.637 72.0884 354.653 74.4407 354.658C79.1448 354.669 83.8484 354.635 88.553 354.604C97.952 354.541 107.387 354.271 116.778 354.602C119.058 354.682 120.255 351.669 118.002 350.876C108.055 347.377 97.0123 346.616 86.3907 345.54C80.8051 344.975 75.2165 344.322 69.756 343.177L68.406 342.894C64.9757 342.169 61.1879 341.286 58.2994 339.559C62.6409 338.112 68.0374 338.277 72.5377 338.073L72.882 338.056C79.1836 337.737 85.4964 337.574 91.8098 337.566C104.728 337.551 117.649 337.928 130.553 338.433C130.877 338.446 130.943 338.024 130.629 337.968C117.366 335.584 103.887 334.435 90.3149 334.258C83.994 334.175 77.67 334.249 71.3543 334.479L69.037 334.568C63.6522 334.759 57.6771 334.81 53.1719 337.49C52.485 337.898 52.1229 338.42 52.0663 338.971C46.0241 329.046 40.4436 318.914 34.8407 308.849C30.4849 301.023 26.2915 293.131 21.7769 285.366L20.3154 282.854C18.3583 279.502 16.3533 276.15 14.127 272.919C22.452 272.002 30.8235 271.365 39.2001 270.878C46.8328 270.433 71.737 269.449 75.4116 270.036ZM79.098 377.603C78.1486 377.168 76.6941 377.522 76.4602 378.487C76.286 379.205 75.9888 380.003 75.9888 380.738C75.9888 381.618 76.3708 382.575 76.5746 383.436C77.0429 385.416 77.6195 387.026 78.8416 388.79C79.6061 389.894 81.15 390.643 82.7015 390.614C83.9302 390.591 85.0191 390.319 85.8622 389.535C86.8724 388.596 87.5659 387.215 87.0118 385.951C85.5604 382.639 82.8925 379.339 79.098 377.603ZM280.467 374.298C278.246 371.092 272.98 368.226 268.384 368.51C261.484 368.936 260.076 376.592 266.757 378.419C270.75 379.511 276.244 378.39 279.737 376.593C280.679 376.109 281.024 375.102 280.467 374.298ZM351.383 363.344C351.888 362.74 351.054 362.049 350.302 362.185C348.634 362.487 346.837 362.619 345.204 363.028C343.531 363.448 341.912 364.143 340.255 364.621C336.785 365.623 333.077 366.126 329.718 367.335C328.376 367.819 327.32 369.421 327.444 370.602L327.475 370.879C327.55 371.465 327.673 371.976 328.071 372.512C329.14 373.951 331.258 374.694 333.257 374.251C336.965 373.431 340.588 371.322 343.75 369.57L344.334 369.25C345.716 368.5 347.201 367.716 348.314 366.75C349.476 365.742 350.431 364.485 351.383 363.344ZM223.913 351.683C224.34 350.416 222.427 349.579 221.312 350.435C219.084 352.145 216.755 353.731 214.573 355.485L214.427 355.604C212.864 356.898 210.592 359.391 212.623 361.065C215.227 363.21 218.853 360.027 220.249 358.368C222.021 356.264 223.084 354.143 223.913 351.683ZM53.437 341.209C56.7417 344.094 61.8335 345.42 66.3164 346.518C71.6318 347.82 77.1086 348.598 82.591 349.238C87.8885 349.855 93.1453 350.408 98.3585 351.117C94.4149 351.157 90.4717 351.181 86.5373 351.24C81.9997 351.307 77.4646 351.388 72.9285 351.497C69.6248 351.576 65.7485 351.202 62.6092 352.214C62.0434 352.396 61.5148 352.649 61.0531 352.956C58.4138 349.089 55.8842 345.168 53.437 341.209ZM257.28 314.235C253.831 313.332 250.587 312.134 246.93 312.445C245.959 312.527 245.263 313.307 245.793 314.077C247.526 316.59 250.344 318.009 253.118 319.69L253.362 319.839C256.398 321.7 259.658 323.395 262.96 324.923C268.645 327.551 273.739 320.028 267.998 317.82C264.544 316.491 260.915 315.187 257.28 314.235ZM195.178 307.703C189.901 307.99 184.627 308.184 179.344 308.36C173.223 308.564 175.281 316.325 180.394 314.754C185.444 313.202 190.496 311.67 195.592 310.222C197.143 309.782 197.019 307.682 195.277 307.7L195.178 307.703ZM330.529 293.896C329.161 293.817 327.781 294.063 326.412 294.173L324.954 294.289C321.95 294.536 319.133 294.84 316.268 295.847C310.981 297.706 313.82 304.71 319.128 304.549C323.05 304.43 326.405 303.042 329.717 301.426C332.613 300.013 334.388 298.245 336.343 296.027C336.991 295.292 336.089 294.469 335.207 294.395C333.653 294.264 332.083 293.986 330.529 293.896ZM65.5152 279.594C66.39 284.093 68.5616 288.309 71.8336 291.98C73.4781 293.824 76.3651 293.894 77.9948 291.98C80.3002 289.271 78.8786 286.169 77.1419 283.567L76.628 282.806C75.8503 281.664 74.6559 279.998 73.2911 278.847L73.2682 278.73C72.5368 274.02 64.6138 274.96 65.5152 279.594ZM278.956 250.725C277.641 249.749 275.218 250.042 274.791 251.631C274.193 253.857 273.83 256.364 274.221 258.623C274.433 259.847 274.512 261.222 275.097 262.363C275.725 263.59 276.933 264.533 278.072 265.456C280.344 267.298 285.135 266.689 285.744 263.787L285.821 263.431C286.127 262.058 286.519 260.59 286.066 259.23C285.723 258.203 284.959 257.155 284.326 256.203L284.192 256C282.925 254.055 280.949 252.203 278.956 250.725ZM94.0345 255.46L93.5587 255.464C89.8866 255.524 83.1733 256.26 83.1375 259.999C83.129 260.881 83.9211 261.794 84.9828 261.997C87.1778 262.416 88.5966 261.347 90.1609 260.267C91.4402 259.385 92.9314 258.68 94.4804 258.172C96.1535 257.624 96.0442 255.457 94.0345 255.46Z" fill="black"/>
<path fill-rule="evenodd" clip-rule="evenodd" d="M99.6805 76.5566C101.648 66.726 95.1902 64.6863 99.6805 55.3414C109.66 38.0262 136.856 38.7722 156.813 37.4409C179.073 36.7364 201.602 39.1631 222.123 46.5305C227.025 48.2901 231.739 50.3595 236.258 52.7106C240.166 54.7439 239.629 58.6099 237.165 60.7188C254.933 81.4969 244.771 109.387 258.948 131.259C261.567 135.168 265.031 138.674 267.307 142.742C270.768 148.925 270.99 157.785 263.142 161.892C252.09 166.79 245.922 157.091 240.492 171.151C213.371 220.176 158.841 222.937 107.075 197.377C102.597 195.32 98.0257 192.995 94.6438 189.763C86.9673 182.629 87.8714 172.597 87.7017 163.688C87.6069 158.467 87.5911 153.246 87.6528 148.024C87.8943 126.873 96.3832 97.5334 99.6805 76.5566Z" fill="#EDB98A"/>
<path fill-rule="evenodd" clip-rule="evenodd" d="M209.937 17.7583C178.682 6.05026 143.232 1.6103 109.138 4.52257C92.3094 5.95775 75.7028 9.03683 59.8988 14.0385L58.5135 14.4806C54.6122 15.7205 50.4068 16.9513 47.4422 19.4753C43.9915 22.4086 43.0238 26.8444 45.4904 30.4679C47.4066 33.2834 50.8516 35.303 54.526 36.3808C53.2316 37.2562 52.0034 38.2326 50.8516 39.3226C48.9099 41.149 48.7621 43.7537 50.8516 45.5553C54.8777 49.0273 60.1013 51.5394 65.7276 52.7434C65.0957 55.2643 65.4371 58.0545 66.7927 60.567C70.6827 67.7791 81.6403 68.6386 90.0726 68.2104L90.3273 68.197L90.7962 72.6285C91.0459 74.9895 92.7582 76.8202 95.6631 77.1821C95.765 77.1947 95.8675 77.2032 95.9689 77.2112C91.372 90.9397 88.5946 105.092 86.0312 119.162C84.6918 126.506 83.4929 133.867 82.3452 141.233L81.9643 143.689C80.7412 151.63 79.2123 159.652 78.6823 167.652C78.2084 174.912 79.8851 181.843 85.3024 187.701C90.1642 192.953 96.7945 196.888 103.924 199.809C120.033 206.412 136.989 211.328 154.805 213.609L155.993 213.76C162.871 214.627 169.957 215.357 176.76 213.785C182.737 212.405 189.006 208.845 187.656 203.125C187.202 201.194 183.93 201.109 182.809 202.603L182.55 202.946C181.206 204.707 179.733 206.345 177.386 207.253C174.64 208.323 171.455 208.621 168.453 208.651C160.07 208.731 151.34 207.006 143.267 205.276C128.193 202.044 112.71 196.775 100.362 188.791C95.1076 185.399 90.8879 181.157 89.3998 175.699C87.56 168.969 89.252 161.613 90.0878 154.85C91.8078 140.895 93.8547 126.965 96.0145 113.052L96.4479 110.269C98.2668 98.637 100.178 87.0005 101.086 75.3009C101.463 74.8759 101.717 74.3919 101.819 73.8616L101.962 73.0999C102.084 72.4476 102.105 71.85 102.018 71.2987C102.013 69.186 101.942 67.086 101.794 64.9729C101.769 64.5945 101.748 64.2158 101.733 63.8412C104.393 64.3252 107.074 64.7166 109.764 65.049C128.682 67.4016 147.895 67.9908 166.965 66.8208C176.48 66.2354 185.923 65.23 195.336 63.9717C200.127 63.332 204.902 62.625 209.662 61.8338C213.101 61.2656 216.47 60.4955 219.854 59.7716C223.345 63.9675 225.231 69.1313 224.864 74.2025C224.451 79.9892 219.783 85.2372 221.092 91.1501C222.322 96.6838 228.063 98.3996 233.731 99.7701L236.142 100.345C237.996 100.792 239.343 101.224 239.679 103.064C240.254 106.225 239.546 109.781 239.398 112.958C239.22 116.717 238.986 120.475 238.878 124.233C238.822 126.177 238.731 128.13 238.736 130.074C238.741 131.455 238.991 132.397 239.638 133.289C239.138 133.807 238.69 134.367 238.292 134.96C238.165 135.154 238.481 135.36 238.669 135.2C239.174 134.767 239.71 134.375 240.275 134.026C240.56 134.317 240.891 134.611 241.279 134.927L241.309 134.893C242.522 135.891 244.449 135.987 245.953 134.927L246.347 134.644C247.448 133.848 248.204 133.184 248.51 131.867C248.526 131.8 248.541 131.733 248.551 131.665C251.349 131.585 254.193 132.132 256.71 133.281C260.701 135.104 263.509 137.7 265.17 140.907C264.508 141.547 263.733 142.119 262.831 142.599C262.703 142.67 262.816 142.826 262.953 142.771C263.876 142.414 264.701 141.972 265.44 141.454C266.036 142.717 266.454 144.072 266.709 145.507C267.606 150.574 266.006 156.765 260.461 159.652C258.061 160.902 255.319 161.579 252.475 161.588C251.09 161.591 249.891 161.398 248.546 161.125C247.634 160.939 246.727 160.67 245.774 160.67C244.958 160.67 244.204 160.838 243.506 161.175L243.699 161.189C244.17 161.226 244.08 161.242 243.424 161.242C241.386 161.314 240.219 163.023 241.156 164.508L241.279 164.738C241.305 164.784 241.327 164.822 241.345 164.853L241.419 165.247C241.426 165.284 241.434 165.323 241.442 165.363L241.47 165.442C241.475 165.455 241.481 165.468 241.488 165.48L238.43 169.33C234.682 174.04 230.85 178.732 226.489 183.034C223.432 186.051 220.19 189.01 216.766 191.75C213.688 194.212 209.998 195.399 206.512 197.334C204.651 198.361 204.107 200.512 205.798 201.896C210.762 205.966 217.79 202.734 221.862 199.426C225.715 196.291 229.043 192.52 231.912 188.745C237.003 182.032 241.055 174.895 242.828 167.147C243.567 167.707 244.51 168.056 245.463 168.33C247.374 168.877 249.479 169.104 251.497 169.163C255.365 169.268 259.238 168.494 262.719 167.122C276.881 161.545 278.961 144.846 270.302 134.998C271.47 132.202 272.122 129.169 272.83 126.582L273.152 125.425C276.732 112.508 279.137 98.9085 272.789 86.2514C271.974 84.6185 271.056 83.0277 269.971 81.5042C269.099 80.2796 267.601 78.9749 267.188 77.5819C266.271 74.5224 271.933 71.3071 273.584 68.8788C275.526 66.0296 275.801 62.667 273.156 60.0616C272.82 59.7337 272.453 59.4303 272.055 59.1656C274.562 55.4116 274.68 50.6897 271.377 46.9862C269.206 44.5453 265.894 42.8367 262.275 42.319C260.064 42.0034 257.403 42.1212 254.972 42.6851C241.661 32.4796 226.474 23.9532 209.937 17.7583ZM261.053 145.456C257.5 142.868 253.576 141.513 248.734 141.854C243.867 142.199 238.007 143.861 235.148 147.308C232.89 150.031 237.492 154.025 240.805 151.98C243.822 150.115 245.835 148.011 249.58 147.009C252.944 146.113 257.108 145.536 260.63 146.05C261.017 146.105 261.404 145.709 261.053 145.456Z" fill="black"/>
<path fill-rule="evenodd" clip-rule="evenodd" d="M150.471 164.544C147.614 160.671 141.524 170.158 140.877 171.789C140.304 173.234 139.926 174.715 139.734 176.212C137.519 176.621 135.219 176.622 132.949 176.263C129.576 175.73 127.514 174.236 124.583 172.953C122.558 172.066 120.006 173.106 118.953 174.576C117.715 176.307 118.504 178.103 120.133 179.394C123.222 181.84 129.3 182.402 133.333 181.753C135.643 181.38 137.761 180.666 139.631 179.629C139.643 179.822 139.651 180.016 139.67 180.209L139.705 180.545C140.015 183.258 140.92 186.671 143.478 188.436C147.673 191.333 152.85 185.762 148.774 182.869L148.648 182.782C146.114 181.095 145.561 176.569 145.698 174.076C145.787 172.449 146.147 170.801 146.77 169.251L146.899 168.943C147.086 168.505 149.133 164.352 149.872 164.881L149.907 164.911C150.212 165.211 150.705 164.861 150.471 164.544ZM127.66 142.691C123.804 144.623 117.928 149.127 122.076 153.916C126.96 158.139 133.991 153.297 137.456 151.108C140.669 149.411 144.278 153.775 141.297 155.757C116.261 171.032 106.1 143.196 125.71 140.42C127.869 140.114 128.671 142.094 127.66 142.691ZM168.841 124.836C165.072 124.285 161.211 125.057 158.093 126.875L157.856 127.015C154.851 128.826 151.49 132.005 153.214 135.127C153.906 136.38 155.978 136.576 157.293 136.008C159.483 135.062 159.88 132.735 161.833 131.446C163.435 130.39 165.592 129.75 167.656 129.904C172.503 130.267 175.484 134.207 176.99 137.602C177.182 138.036 177.956 138.205 178.258 137.738C181.808 132.271 175.524 125.813 168.841 124.836ZM108.471 122.773C101.251 122.282 92.8003 128.45 94.7011 134.73C95.6127 137.743 101.037 137.657 102.001 134.73C102.532 133.12 102.479 131.695 103.886 130.357C105.047 129.253 106.697 128.611 108.471 128.71C110.426 128.819 112.229 129.624 113.599 130.755C114.837 131.777 115.577 133.272 116.859 134.177C117.174 134.399 117.596 134.413 117.908 134.177C120.114 132.501 118.79 129.011 117.391 127.261C115.389 124.757 112.129 123.021 108.471 122.773ZM182.59 113.698C177.958 110.32 169.543 107.057 163.297 108.72C159.706 109.675 158.141 114.443 162.15 115.954C166.791 117.704 172.143 116.992 176.868 118.806C178.852 119.568 180.718 120.521 182.099 121.917C183.188 123.018 184.295 124.467 185.869 125.102C186.282 125.269 186.843 125.273 187.174 124.963C190.624 121.747 185.603 115.895 182.59 113.698ZM116.431 108.552C113.569 107.89 110.393 107.903 107.485 108.319C104.578 108.735 101.627 109.728 99.2539 111.176L98.9784 111.345C96.3875 112.954 93.2958 115.295 93.4615 118.145C93.5999 120.525 96.6381 122.135 99.261 120.887C101.399 119.87 102.405 117.832 104.216 116.476C105.71 115.356 107.464 114.473 109.337 113.854C111.416 113.167 113.499 112.845 115.731 112.814C117.45 112.791 119.179 113.255 120.865 113.404C120.726 113.639 122.059 113.529 122.823 113.321C123.389 113.122 123.392 112.533 123.196 112.15C122.223 110.255 118.683 109.072 116.431 108.552Z" fill="black"/>
</svg>
