<svg width="392" height="501" viewBox="0 0 392 501" fill="none" xmlns="http://www.w3.org/2000/svg">
<path d="M58.9249 310.586H173.451V437.507H58.9249V310.586Z" fill="#FDEA6B"/>
<path fill-rule="evenodd" clip-rule="evenodd" d="M206.855 186.444C194.509 177.984 163.516 174.179 150.34 182.325C137.326 190.505 135.907 203.734 129.843 215.903C124.121 213.475 114.672 216.952 113.013 221.73C110.956 223.984 110.864 230.315 109.445 233.345C47.7098 242.188 38.3373 285.503 30.9066 334.677C21.0764 384.576 -1.23912 434.366 8.44856 485.714C7.18628 487.357 6.19105 488.955 5.27084 490.853C3.06584 494.229 5.90597 499.008 10.3535 498.823C16.1103 498.368 21.8101 497.747 27.5939 497.553C43.6274 497.052 59.6755 497.112 75.715 497.295L77.9022 497.321C158.737 498.227 239.567 500.011 320.405 500.484C323.338 500.488 324.774 498.121 324.382 495.786C323.594 491.085 322.862 486.382 322.098 481.679C341.219 486.224 361.545 487.367 380.611 482.157C381.945 480.934 377.504 481.597 376.799 481.411C394.346 470.62 389.106 447.888 387.552 431.516C377.886 375.413 374.479 313.34 337.136 265.467C320.981 245.93 297.296 230.462 270.081 226.982L269.326 226.889C261.368 225.934 252.499 225.626 245.541 221.73C237.716 216.108 234.381 205.72 226.148 205.623C223.43 205.591 219.732 208.686 215.752 210.787C215.455 206.165 212.687 202.264 212.076 198.679L212.026 198.373C211.389 194.194 212.262 190.435 206.855 186.444ZM74.1807 336.159C91.53 325.312 136.347 330.762 137.373 331.37C139.632 332.707 140.604 332.825 141.826 334.562C143.032 334.706 144.238 334.855 145.442 335.009C147.858 335.719 146.068 338.393 143.277 337.439C144.955 343.954 140.016 348.587 138.049 355.027C137.411 357.118 138.026 360.879 138.049 363.016C137.859 365.74 134.512 368.958 135.07 371.691C137.053 381.408 147.814 390.886 143.277 400.309C140.271 405.632 131.231 408.345 125.221 410.155C112.769 414.456 91.0716 409.993 83.8364 400.309C79.9773 395.144 75.5064 382.116 73.2054 378.075L72.6953 371.664C71.4376 355.728 70.3188 338.573 74.1807 336.159Z" fill="#D08B5B"/>
<path fill-rule="evenodd" clip-rule="evenodd" d="M226.79 205.652L221.825 208.394L192.99 221.222C187.399 222.631 184.604 224.319 184.604 226.287V246.324C184.604 249.005 179.358 255.082 168.866 264.555L159.173 255.859L159.39 254.72C160.313 249.814 160.774 246.532 160.774 244.875C160.774 243.092 151.291 236.325 132.325 224.574L124.027 217.544L124.912 215.122C119.796 215.34 114.248 218.175 113.013 221.731C110.956 223.984 110.864 230.316 109.445 233.345C47.7098 242.189 38.3373 285.503 30.9066 334.677C21.0764 384.577 -1.23912 434.367 8.44856 485.714C7.18628 487.358 6.19105 488.956 5.27084 490.853C3.06584 494.23 5.90597 499.009 10.3535 498.824C16.1103 498.369 21.8101 497.748 27.5939 497.554C43.6274 497.053 59.6755 497.112 75.715 497.296L77.9022 497.322C158.737 498.227 239.567 500.012 320.405 500.485C323.338 500.489 324.774 498.122 324.382 495.787C323.594 491.086 322.862 486.382 322.098 481.679C341.219 486.224 361.545 487.368 380.611 482.157C381.945 480.934 377.504 481.597 376.799 481.411C394.346 470.621 389.106 447.889 387.552 431.516C377.886 375.414 374.479 313.341 337.136 265.468C320.981 245.931 297.296 230.463 270.081 226.982L269.326 226.889L268.565 226.8C260.807 225.911 252.278 225.503 245.541 221.731C237.922 216.257 234.56 206.266 226.79 205.652ZM157.696 323.259C160.524 323.259 166.317 327.212 175.073 335.117L175.844 335.438C186.429 339.863 193.441 343.701 196.881 346.952L197.003 347.07C200.478 350.424 207.359 359.345 217.646 373.831L232.542 381.759H238.179L242.192 407.955L232.542 426.66L210.685 420.034L175.073 411.587L154.637 392.929L143.11 389.446C144.508 393.082 145.015 396.7 143.277 400.31C140.271 405.632 131.231 408.346 125.221 410.155C112.769 414.456 91.0716 409.993 83.8364 400.31C79.9773 395.145 75.5064 382.116 73.2054 378.075L72.5454 369.747C71.356 354.38 70.4733 338.477 74.1807 336.159C91.53 325.313 136.347 330.763 137.373 331.37C139.632 332.707 140.604 332.826 141.826 334.562L142.459 334.638L138.902 330.297L140.161 329.692C149.147 325.404 154.992 323.259 157.696 323.259ZM143.277 337.44C144.884 343.677 140.425 348.189 138.316 354.213L143.704 344.931L143.704 337.56C143.565 337.529 143.422 337.49 143.277 337.44Z" fill="#9DDADB"/>
<path fill-rule="evenodd" clip-rule="evenodd" d="M229.171 204.683C227.973 203.728 226.201 204.928 226.962 206.217C228.672 209.115 230.427 211.861 232.722 214.423C234.114 215.976 235.605 217.445 237.116 218.898C233.238 221.917 229.913 225.665 226.773 229.177C222.758 233.669 218.961 238.352 214.454 242.462C210.008 246.516 205.093 249.35 199.15 251.24L197.949 251.615C191.979 253.501 185.598 256.049 182.232 261.136C181.569 262.139 182.905 263.379 184.028 262.753C189.876 259.494 196.747 258.839 203.113 256.686C209.262 254.606 214.622 251.405 219.358 247.319C224.086 243.241 228.056 238.601 232.197 234.059C236.292 229.567 240.701 225.731 245.544 221.931C253.019 226.456 261.551 228.426 270.226 230.359L271.173 230.57C279.859 232.506 288.498 234.753 296.647 238.124C303.832 241.095 310.898 244.642 316.751 249.477C322.963 254.608 327.798 261.161 332.224 267.57C342.123 281.907 349.083 297.615 355.209 313.513C361.582 330.05 366.912 346.918 371.215 363.986C373.404 372.668 375.181 381.411 376.642 390.216C377.345 394.457 377.97 398.706 378.518 402.966C379.104 407.514 379.238 412.193 380.789 416.565C381.453 418.44 383.023 419.217 384.594 419.151L384.913 422.742C385.336 427.53 385.73 432.319 385.863 437.137C386.084 445.147 385.984 453.135 385.344 461.128L385.253 462.218C384.75 468.052 383.626 474.607 378.751 478.879C373.703 483.303 365.94 484.694 359.136 484.774C343.289 484.96 328.034 478.221 314.011 472.309C299.569 466.221 285.521 459.463 271.81 452.134C264.828 448.402 257.921 444.545 251.101 440.576C247.755 438.628 244.432 436.646 241.135 434.633C239.246 433.48 237.456 432.216 235.533 431.193C236.475 430.403 236.896 429.162 236.107 428.078C241.665 423.736 243.979 415.987 244.249 409.717C244.468 404.656 243.64 399.609 242.987 394.596C242.658 392.068 242.25 389.544 241.828 387.028C241.661 386.033 241.533 384.97 241.338 383.92C256.348 391.343 271.779 397.954 287.618 403.827C295.737 406.838 303.959 409.544 312.296 412.025L313.985 412.525C321.884 414.852 329.972 417.05 338.138 418.38C338.574 418.451 338.929 417.871 338.463 417.686C330.505 414.526 322.272 411.861 314.194 408.951L312.867 408.464C313.019 408.456 313.177 408.438 313.343 408.402C318.08 407.373 322.78 405.788 327.426 404.453C331.738 403.214 336.582 402.435 340.613 400.565C340.923 400.421 340.749 400.033 340.447 400.014C335.917 399.732 330.999 400.92 326.558 401.619L324.889 401.882C322.094 402.325 319.237 402.802 316.456 403.424C316.355 402.586 315.835 401.744 315.094 401.25C306.944 395.818 307.771 384.847 306.9 376.757L306.253 370.751C305.116 360.239 303.913 349.729 302.086 339.296C301.988 338.739 301.031 338.898 301.027 339.425C300.932 352.357 302.017 365.23 302.561 378.143L302.645 380.261C302.946 388.229 303.181 396.502 308.757 402.633C307.978 402.223 306.924 402.223 306.292 402.899C305.516 403.73 305.068 404.664 305.082 405.58C300.043 403.678 295.026 401.728 290.034 399.738C273.984 393.338 258.271 386.177 242.973 378.429C241.326 377.595 239.761 378.25 238.947 379.35L238.83 379.335C238.81 379.332 238.79 379.33 238.77 379.33L238.653 379.325C238.649 379.325 238.644 379.326 238.64 379.326C236.487 378.261 233.553 379.019 231.705 380.573C231.651 380.619 231.604 380.67 231.556 380.719C229.216 379.774 227.032 378.498 225.049 376.881C220.992 373.572 217.556 369.48 214.56 365.378C209.044 357.821 204.357 349.418 196.905 343.197C190.85 338.143 183.344 334.997 175.468 333.021C175.501 332.814 175.413 332.594 175.254 332.447C174.85 332.074 174.561 331.945 174.039 332.171C173.997 332.19 173.972 332.215 173.955 332.242L173.187 331.06C172.767 330.419 172.336 329.773 172.187 329.603C171.293 328.59 170.373 327.585 169.439 326.601C167.855 324.934 166.05 323.289 163.96 322.134C159.384 319.604 154.573 321.035 149.869 322.418C147.026 323.254 144.193 324.117 141.355 324.965L141.063 325.051C138.947 325.663 136.471 326.198 135.524 328.215C135.15 329.014 135.092 329.842 135.266 330.646C115.17 326.047 92.8488 328.16 73.2379 333.559C72.4852 333.766 71.7336 334.323 71.575 335.055C69.328 345.425 68.3273 356.06 69.344 366.607C70.2212 375.711 72.4627 384.633 76.6867 392.968L76.9268 393.439C80.8965 401.163 87.1881 410.685 96.7967 413.106C102.599 414.568 109.015 413.706 114.933 413.438C120.684 413.178 126.562 413.14 132.258 412.326C137.331 411.602 141.776 409.555 144.912 405.843C147.616 402.64 149.04 398.77 150.207 394.919C150.741 395.072 151.272 395.235 151.794 395.419C153.998 396.193 155.866 397.444 157.554 398.915C161.119 402.022 163.885 405.796 167.615 408.761C170.992 411.445 174.84 413.533 178.967 415.138C187.52 418.463 196.695 419.792 205.741 421.555L206.372 421.679C213.183 423.024 220.135 424.675 226.146 427.866C226.263 428.805 226.739 429.689 227.501 430.268C226.441 431.164 225.992 432.583 226.924 433.914C229.526 437.631 234.009 439.746 238.033 442.123L238.295 442.279C242.254 444.641 246.247 446.956 250.273 449.224C258.458 453.835 266.813 458.193 275.286 462.359C288.915 469.059 302.836 475.379 317.009 481.112C316.159 484.879 316.469 488.763 315.83 492.554L315.732 493.095C315.459 494.502 315.828 495.68 316.905 496.599L317.019 496.693L317.017 496.68L317.118 496.764L317.152 496.789L317.14 496.781C317.265 496.884 317.393 496.979 317.523 497.06L317.689 497.157C318.727 497.724 320.062 497.717 321.124 497.217L321.246 497.157L321.45 497.051C322.853 496.325 323.821 494.525 323.239 493.095C321.808 489.581 321.267 485.831 319.946 482.293L320.994 482.715L322.376 483.257C337.318 489.071 353.916 493.968 370.197 490.004C377.39 488.252 384.114 484.546 387.713 478.506C391.255 472.562 391.756 465.66 391.944 459.049C392.176 450.889 391.69 442.604 390.494 434.514C389.691 429.083 388.721 423.55 387.223 418.175C387.993 417.564 388.559 416.687 388.709 415.6C389.416 410.467 388.179 405.13 387.422 400.024C386.682 395.038 385.865 390.062 384.941 385.101C383.075 375.083 380.907 365.086 378.383 355.185C373.891 337.564 367.959 320.257 360.817 303.363L360.192 301.891C353.593 286.45 345.952 271.337 335.312 257.772C330.222 251.282 324.842 245.398 317.65 240.721C310.913 236.339 303.313 233.184 295.47 230.773C287.619 228.359 279.549 226.742 271.337 225.736C262.997 224.715 254.193 224.088 246.413 221.009C247.397 219.422 246.552 217.278 244.896 216.293C239.322 212.979 234.167 208.667 229.171 204.683ZM50.728 348.806C50.4944 348.487 49.9398 348.689 50.0423 349.067C52.7534 359.062 55.2985 369.078 56.9604 379.265C59.9603 397.65 59.4085 416.276 59.1633 434.797L59.1509 435.755C59.0248 445.731 58.8498 455.709 58.4832 465.681C58.2982 470.721 57.9321 475.81 58.1311 480.853C58.2397 483.588 59.0499 486.176 59.3369 488.879C59.5885 491.242 59.3644 493.642 59.2389 496.008C59.1549 497.582 61.7354 497.515 61.911 496.008L62.1354 494.06C62.427 491.594 62.7875 489.143 63.6854 486.783C64.7651 483.944 65.2833 481.157 65.6578 478.176C66.2316 473.609 66.4867 468.996 66.7082 464.397L66.8596 461.216C67.7843 441.996 67.7519 422.686 66.2549 403.486L66.1455 402.115C64.6631 383.966 62.091 364.357 50.728 348.806ZM108.518 234.422C109.227 234.16 108.979 233.196 108.194 233.364L106.768 233.67C96.3187 235.922 86.0587 238.363 76.3052 242.554C66.5455 246.748 58.2826 253.009 51.7172 260.708C38.9543 275.674 33.6506 293.861 29.4636 312.031C24.8106 332.222 20.5741 352.487 15.8806 372.671L15.009 376.431C10.666 395.231 6.56559 414.041 3.54429 433.063L3.32726 434.442C0.28048 454.003 -1.55214 474.242 1.7724 493.853C2.43005 497.733 9.60466 496.767 9.32409 492.934C8.51391 481.852 7.93378 470.828 8.49441 459.721C9.05554 448.611 10.2133 437.551 11.9392 426.539C13.3916 417.272 15.5567 408.12 17.4727 398.926L17.773 397.474C19.3774 389.655 21.0313 381.843 22.6817 374.031L25.1479 362.335C28.8442 344.821 32.6129 327.292 36.8713 309.888L37.124 308.864C41.2914 292.12 47.4352 274.581 59.9355 261.285C72.6209 247.791 90.7805 240.996 108.518 234.422ZM154.612 412.02C154.307 411.408 153.24 411.475 152.912 412.02C151.626 414.154 151.484 416.879 151.241 419.288L151.215 419.537C150.906 422.477 150.632 425.427 150.465 428.377C150.147 433.975 149.995 439.567 150.015 445.172C150.035 450.917 150.163 456.655 150.507 462.391L150.601 463.928C150.915 468.913 151.442 474.473 154.074 478.831C155.03 480.416 157.633 479.95 158.187 478.348C160.002 473.102 159.07 466.882 158.604 461.509L158.243 457.316C157.885 453.123 157.543 448.929 157.272 444.731C156.901 438.987 156.595 433.239 156.301 427.493C156.205 425.627 156.102 423.76 155.992 421.893L155.824 419.095C155.681 416.753 155.693 414.184 154.612 412.02ZM358.732 419.455L357.929 418.756C355.462 416.583 352.344 413.237 348.697 413.445C347.243 413.528 346.316 414.614 346.617 415.902C347.262 418.654 350.382 420.083 352.628 421.763C355.088 423.604 357.407 425.571 359.722 427.557C361.775 429.318 363.75 431.13 365.677 432.997L366.398 433.7C367.089 434.379 372.008 438.383 371.476 439.422L371.447 439.469C371.299 439.668 371.546 439.941 371.792 439.872C373.916 439.268 373.783 437.629 372.98 435.969C371.437 432.779 368.734 429.827 366.374 427.103C364.021 424.385 361.473 421.855 358.732 419.455ZM146.914 339.453C148.557 335.958 154.609 336.032 158.045 336.241C166.696 336.767 176.058 338.737 183.756 342.376C191.737 346.149 197.113 352.194 201.923 358.879L202.148 359.193C206.837 365.752 211.353 373.516 218.694 378.026C222.434 380.324 226.8 382.421 231.337 383.33C231.649 383.823 232.153 384.213 232.815 384.355L233.122 384.418C234.415 384.675 236.422 384.959 238.156 384.789C238.145 385.553 238.154 386.31 238.132 387.033C238.071 389.106 238.045 391.188 238.045 393.261C238.044 397.607 238.304 401.961 238.102 406.306C237.924 410.149 237.32 414.165 235.27 417.6C233.766 420.121 231.781 421.789 229.385 423.381C223.491 420.148 216.826 418.178 210.061 416.696C201.88 414.904 193.504 413.708 185.509 411.279C181.661 410.109 177.962 408.578 174.61 406.5C171.053 404.292 168.336 401.305 165.54 398.384L165.103 397.93C162.25 394.985 159.137 392.167 155.105 390.571C151.633 389.196 147.056 388.951 144.02 386.823C142.432 385.709 142.299 384.093 142.132 382.439C144.077 382.689 146.135 382.288 148.073 382.084L149.077 381.978C150.91 381.782 152.7 381.567 154.504 381.147C154.839 381.069 154.839 380.614 154.504 380.537C152.372 380.041 150.259 379.83 148.073 379.599L147.56 379.542C145.582 379.308 143.504 378.956 141.564 379.348C141.216 378.156 140.713 377.018 140.008 375.879C139.018 374.278 137.145 372.463 136.892 370.593C136.817 370.034 136.961 369.376 137.254 368.882L137.355 368.714C137.478 368.515 137.623 368.315 137.836 368.191C137.86 368.216 137.91 368.244 138.019 368.275C139.511 368.698 140.814 368.04 141.505 367.027C144.439 367.354 147.641 367.244 150.393 367.353L153.175 367.475C156.148 367.597 159.255 367.651 162.049 367.11C162.439 367.035 162.557 366.451 162.166 366.301C158.732 364.979 154.566 364.557 150.889 364.049C148.836 363.765 146.767 363.549 144.708 363.3C143.337 363.133 141.881 362.858 140.461 362.792C136.898 358.801 138.818 352.505 143.775 350.787C145.581 351.501 147.205 351.086 149.178 350.933C151.147 350.781 153.122 350.678 155.099 350.686C159.062 350.702 163.261 351.64 167.185 351.236C167.823 351.17 168.416 350.405 167.781 349.939C164.778 347.733 160.473 347.014 156.66 346.544L155.87 346.449C154.592 346.298 153.037 346.078 151.425 345.947C151.06 345.307 150.406 344.823 149.424 344.703C149.132 344.667 148.838 344.646 148.545 344.623L148.549 344.597C146.153 344.494 146.257 340.851 146.914 339.453ZM310.985 407.605C311.028 407.664 311.074 407.72 311.123 407.774L311.2 407.853L310.805 407.709L310.985 407.605ZM105.094 331.645C115.181 330.669 125.283 330.875 135.4 331.137C136.209 333.519 139.026 335.548 141.755 335.625C139.617 338.553 139.397 342.515 140.896 345.62C137.713 346.76 134.972 348.808 133.307 351.725C130.999 355.768 131.301 360.267 133.583 364.003C131.636 365.589 130.487 368.165 130.602 370.593C130.73 373.3 132.523 375.612 134.013 377.854C135.623 380.278 135.677 382.412 136.172 385.127C136.895 389.1 139.873 391.51 143.704 393.015L143.501 393.736C142.513 397.196 141.284 400.847 138.461 403.377C134.829 406.632 129.195 406.602 124.396 406.808L124.165 406.819C119.771 407.016 115.379 407.248 110.987 407.472L107.693 407.638C102.636 407.888 97.7789 407.918 93.6505 404.909C86.9105 399.998 82.2899 391.87 79.3653 384.675C73.2269 369.572 73.1534 352.998 75.971 337.269C85.4206 334.528 95.2253 332.599 105.094 331.645ZM188.982 356.701L188.908 356.706C186.831 356.919 185.404 358.433 184.896 360.228C184.158 362.837 184.52 365.197 182.744 367.552C180.917 369.975 179.794 371.914 179.528 374.907C179.419 376.138 179.469 377.366 179.165 378.572L178.944 379.416C178.709 380.317 178.517 381.184 178.634 382.151C178.74 383.032 179.218 383.719 180.2 384.002C183.402 384.924 185.875 382.8 186.702 380.114C187.417 377.795 186.463 375.03 187.471 372.852C188.03 371.645 189.06 370.635 189.642 369.419C190.219 368.214 190.508 366.955 190.601 365.645C190.776 363.168 188.342 360.192 189.7 357.947C189.989 357.469 189.662 356.686 188.982 356.701ZM231.518 331.137C229.349 330.741 226.889 329.832 224.751 330.587C223.652 330.976 223.108 332.183 224.037 333.021C225.65 334.476 227.993 334.557 230.165 334.9L230.356 334.931C232.924 335.358 235.497 335.764 238.073 336.148C242.919 336.87 247.777 337.509 252.653 338.052C257.66 338.61 262.681 339.106 267.709 339.48L269.656 339.623C273.903 339.929 278.322 340.16 282.49 339.574C283.095 339.489 282.998 338.696 282.49 338.556C277.924 337.313 272.916 336.979 268.196 336.453C263.178 335.893 258.168 335.301 253.172 334.599C248.183 333.898 243.201 333.145 238.237 332.313C235.994 331.938 233.754 331.546 231.518 331.137ZM153.273 327.145C155.176 326.538 157.269 325.64 159.331 325.941C162.887 326.459 166.052 329.577 168.866 331.63L167.453 331.383C160.222 330.132 150.646 328.785 144.575 332.922C144.56 332.898 144.548 332.875 144.53 332.851C144.04 332.181 143.473 331.658 142.853 331.086C142.794 331.035 142.737 330.983 142.68 330.931L142.346 330.61L143.111 330.372C144.748 329.851 146.689 329.178 146.995 329.08L147.017 329.073C149.105 328.437 151.195 327.808 153.273 327.145ZM212.687 190.739C212.985 187.294 207.028 187.323 206.733 190.739C206.089 198.196 207.954 205.584 211.968 212.122C211.998 212.169 212.03 212.212 212.061 212.257C209.55 213.432 207.011 214.56 204.416 215.568C201.096 216.858 197.713 218.033 194.27 219.029C191.155 219.931 187.317 220.287 184.699 222.164C179.177 226.121 181.252 234.333 182.314 239.656L182.48 240.497C183.008 243.236 183.391 246.046 182.108 248.675C180.737 251.483 177.966 253.566 175.494 255.575L174.995 255.982C172.805 257.778 170.303 259.96 168.696 262.394C167.23 259.665 165.231 257.436 163.118 254.926C161.61 253.134 162.683 252.544 163.766 250.794C164.809 249.11 165.318 247.314 164.992 245.393C164.39 241.845 161.239 239.281 158.102 237.356C154.398 235.082 150.264 233.398 146.434 231.283C138.565 226.938 130.902 221.97 123.998 216.453C123.808 216.3 123.478 216.5 123.63 216.708C129.084 224.174 135.479 230.625 143.338 236.1C146.525 238.321 149.873 240.162 153.243 242.098L154.212 242.658C155.565 243.447 157.253 244.501 157.864 245.844C158.48 247.195 157.167 248.215 156.461 249.333C154.217 252.887 155.299 256.202 157.959 259.215L158.083 259.354C160.727 262.286 162.73 265.012 163.689 268.758C165.748 276.804 162.88 285.184 159.878 292.738L159.759 293.036C158.135 297.107 156.409 301.149 154.999 305.285L154.61 306.429C153.332 310.235 152.285 313.989 153.719 317.902C154.207 319.233 156.224 319.547 157.062 318.295C160.017 313.878 160.753 308.562 162.606 303.706C164.411 298.973 166.484 294.326 168.228 289.573C170.474 283.454 171.976 276.868 171.161 270.45C171.185 270.413 171.211 270.378 171.231 270.338L171.803 269.213C173.362 266.166 174.867 263.505 177.702 261.076C180.658 258.543 183.868 256.3 186.194 253.233C191.248 246.572 188.122 239.161 187.512 231.877L187.442 230.984C187.331 229.472 187.27 227.416 188.368 226.37C189.603 225.191 192.499 224.891 194.137 224.369C198.371 223.021 202.543 221.45 206.517 219.563C210.3 217.767 213.964 215.783 217.376 213.459L219.106 212.288C221.834 210.435 224.663 208.412 226.492 205.89C226.703 205.6 226.344 205.132 225.962 205.271C222.909 206.386 220.12 208.159 217.264 209.702C217.22 209.608 217.168 209.513 217.11 209.417C213.576 203.662 212.123 197.285 212.687 190.739ZM115.174 230.172C113.957 227.171 108.414 227.402 108.635 230.969C108.805 233.709 110.097 236.182 111.279 238.669L111.405 238.936C112.625 241.528 114.035 243.961 115.721 246.337C118.943 250.878 122.718 255.093 126.749 259.07C130.404 262.676 135.201 264.881 140.729 264.515C143.058 264.36 145.409 263.827 147.45 262.78C149.874 261.536 152.506 257.801 155.599 258.705C155.898 258.793 156.177 258.398 155.919 258.212C152.348 255.624 148.296 259.636 144.878 260.603C139.727 262.059 134.441 260.449 131.126 256.702C127.665 252.789 124.479 248.409 121.57 244.149C120.093 241.986 118.745 239.741 117.581 237.427C116.406 235.091 116.139 232.553 115.174 230.172ZM123.476 211.7C123.626 211.285 123.054 210.891 122.649 211.128C120.303 212.502 118.27 214.318 116.106 215.91C113.705 217.676 111.287 219.407 108.831 221.11C105.25 223.594 109.403 228.167 112.555 225.453C116.868 221.742 121.591 216.888 123.476 211.7ZM136.356 197.172C135.403 193.864 129.766 195.228 130.588 198.497L130.615 198.597C132.171 203.996 129.955 209.493 125.224 212.993L125.05 213.121C122.057 215.276 126.297 219.044 129.26 216.909C135.729 212.25 138.42 204.336 136.356 197.172Z" fill="black"/>
<path fill-rule="evenodd" clip-rule="evenodd" d="M87.9277 43.45C89.0361 40.9273 90.9964 37.7565 94.2727 37.6301C96.8069 30.6427 103.108 23.5266 111.872 23.7156C137.598 -0.00963952 169.985 1.10879 203.846 6.13117C221.71 9.11922 239.849 14.9702 253.173 26.5164C269.131 40.1095 275.345 63.828 262.848 81.0168C273.649 86.2363 273.858 98.6224 269.239 107.56C274.791 111.023 275.129 119.427 268.877 122.068C269.209 123.295 268.974 124.565 268.341 125.656C271.44 127.983 275.475 129.701 278.81 131.179C280.284 131.832 281.134 132.899 281.488 134.101C292.439 140.58 319.746 156.415 319.421 169.017C319.582 175.592 314.174 179.919 307.602 181.642C311.513 188.691 314.48 196.925 310.737 204.53C309.703 206.827 301.951 213.58 301.561 213.705C300.879 214.232 289.759 209.628 284.354 207.279C283.306 213.427 276.016 216.649 269.732 214.542C263.774 212.922 260.112 208.373 256.354 204.235C251.366 214.048 236.69 214.161 227.205 209.93C218.686 206.381 212.211 199.877 208.604 192.039C189.449 200.495 167.038 202.96 146.228 199.583C144.892 201.714 141.936 203.146 139.302 202.321C128.236 199.321 116.001 199.153 106.62 192.279C87.0678 179.622 85.4214 156.289 86.7849 136.398C87.9941 116.567 86.9356 96.57 90.933 76.9526C89.1983 71.1768 86.3127 66.0707 83.6428 60.6446C80.7423 54.9548 80.8031 46.4965 87.9277 43.45Z" fill="#D08B5B"/>
<path fill-rule="evenodd" clip-rule="evenodd" d="M176.694 4.08545L175.934 4.08814C174.678 4.09561 173.423 4.118 172.172 4.1552C165.559 4.35146 158.663 5.12508 150.899 6.4493L149.718 6.65383C147.787 6.9948 146.057 7.33695 143.298 7.91825L137.822 9.08211C135.033 9.66804 132.981 10.0734 131.088 10.3996L130.84 10.4419C121.111 14.6473 114.675 18.1334 111.533 20.9001L111.063 21.3175L110.863 21.4979L108.814 21.5563L108.794 21.7896L108.776 21.7919C106.742 22.0774 104.901 23.0277 103.19 24.5072L103.007 24.6678L102.831 24.8268C101.497 26.05 100.434 27.3534 98.969 29.4193L98.6365 29.8912L98.041 30.7434L97.5586 31.4277C97.2453 31.8754 96.9441 32.3181 96.655 32.7569L96.3698 33.1942L96.1646 33.5158L90.8739 36.299C90.1116 36.7001 89.4179 37.2191 88.7832 37.8406L88.6116 38.0127L88.4429 38.1897L87.0013 39.7367L87.2919 40.0095L87.1514 40.1761L86.8996 40.487L86.6541 40.8021L86.4151 41.1214L86.3122 41.2617L86.1568 41.5646L86.0811 41.7159L86.0208 41.8404L85.8402 41.9242L85.4727 42.5222C83.5653 45.6258 82.5381 49.1504 82.4685 52.7722C82.4205 55.2704 82.7623 57.5393 83.5736 59.728C84.135 61.2414 84.8873 62.4306 86.188 64.0678L87.2158 65.3392L87.4257 65.6015L87.6765 65.9207C87.7162 65.9719 87.7551 66.0223 87.7933 66.0723C89.4649 68.2553 103.749 72.3874 112.528 72.5872L112.793 72.592L113.13 72.595C113.968 72.5982 114.778 72.5712 115.558 72.5123C118.935 72.2576 122.093 71.6168 125.761 70.5687L126.522 70.3469L130.564 69.1225C130.692 69.084 130.796 69.0534 130.868 69.0327L131.237 68.9286C132.127 68.6824 132.774 68.5409 133.215 68.4896L133.305 68.4798L133.314 68.6306L133.317 68.7727L133.316 68.8883C133.29 70.5658 134.42 71.7886 136.172 72.5679C137.288 73.0642 138.726 73.4186 140.531 73.6846L140.819 73.7259C143.769 74.1368 147.287 74.3124 153.172 74.4327C153.396 74.4373 153.622 74.4347 153.85 74.4253C155.113 74.3731 156.106 74.1789 157.952 73.7009L158.825 73.4751L159.298 73.3572C160.176 73.1433 160.665 73.0579 161.127 73.0346L161.261 73.0295L161.395 73.0275C161.949 73.0267 162.35 73.1381 162.745 73.4095L162.947 73.5552L165.66 75.6051C166.013 75.8703 166.33 76.1055 166.562 76.2723L166.656 76.3394C170.38 78.9726 173.931 80.4768 178.113 80.6198L178.393 80.6273L178.685 80.6303C178.897 80.6307 179.11 80.6272 179.324 80.6199C181.086 80.5594 182.914 79.9706 185.411 78.8352L185.928 78.5965L186.29 78.4261C186.475 78.3384 186.668 78.2461 186.877 78.1452L188.74 77.2464L189.692 76.7978C190.829 76.2705 191.463 76.0159 191.89 75.9109L191.96 75.8944L192 75.9291C192.988 76.799 193.835 77.8936 194.747 79.4049L194.885 79.6347L195.084 79.9772L196.38 82.3033L196.625 82.736C197.587 84.415 198.348 85.4881 199.343 86.4296C200.788 87.796 202.539 88.5888 204.683 88.716L204.898 88.7265L205.154 88.7322C206.164 88.7411 207.234 88.6013 208.394 88.3106L208.664 88.2409L208.926 88.1683C210.655 87.676 213.387 87.9825 215.557 89.0212C217.914 90.1494 219.212 91.8707 219.155 94.0705C219.126 95.1631 218.987 96.3345 218.742 97.6042L218.672 97.9529C218.351 99.5224 217.915 101.097 217.243 103.198L215.798 107.592L215.635 108.105L215.472 108.632C215.237 109.401 215.05 110.07 214.896 110.7C214.307 113.11 214.208 114.92 214.799 116.462C217.405 123.261 221.926 126.873 227.072 127.025L227.25 127.029L227.47 127.029C231.424 126.991 235.007 124.668 234.963 121.658C234.959 121.342 234.893 121.049 234.777 120.783L234.724 120.671L234.699 120.623L234.739 120.533C235.955 117.909 238.765 115.994 242.065 115.619L242.252 115.599L242.437 115.583C242.618 115.569 242.799 115.559 242.97 115.554L243.138 115.55L243.339 115.549C247.737 115.555 252.089 118.195 255.512 122.514C256.226 123.415 256.889 124.398 257.484 125.437L257.68 125.786L258.632 127.542L259.275 129.24C262.817 138.592 261.024 148.378 254.109 153.438L253.898 153.59C251.407 155.351 248.477 156.422 245.35 156.71C244.99 156.743 244.628 156.764 244.279 156.773L244.02 156.777L243.723 156.776C242.704 156.764 241.729 156.65 240.854 156.437C240.14 156.263 239.643 156.052 239.297 155.783C239.206 155.712 239.133 155.648 239.069 155.584L239.016 155.527L238.996 155.503L234.271 156.135C233.467 160.736 231.145 165.504 227.367 170.972L227.129 171.315L226.714 171.904L226.292 172.495C221.847 178.66 216.89 183.851 211.441 187.835L211.061 188.111L210.55 188.476L210.081 188.807C209.171 189.444 208.412 189.94 207.653 190.383L207.463 190.493L205.671 191.517L206.503 193.276C208.444 197.382 211.122 201.115 214.424 204.293L214.735 204.589L217.03 206.723L218.794 204.697C218.808 204.682 218.847 204.662 218.894 204.654L218.926 204.651H218.944L218.968 204.653L218.997 204.66L219.025 204.671C220.346 205.317 221.072 205.811 222.114 206.778L222.266 206.919L222.442 207.086L222.684 207.314C223.767 208.315 224.925 209.167 226.186 209.876C229.1 211.514 232.334 212.424 235.683 212.506L235.998 212.512L236.314 212.512C236.428 212.511 236.541 212.509 236.655 212.506C243.643 212.331 249.904 208.294 252.982 202.377C253.104 202.142 253.216 202.066 253.423 202.05L253.482 202.048L253.556 202.047C254.069 202.05 254.698 202.325 255.049 202.695L255.111 202.766L256.29 204.193L256.741 204.732C260.943 209.707 264.393 212.428 269.027 213.255C269.392 213.32 269.778 213.359 270.188 213.376L270.436 213.385H270.582C272.575 213.39 274.871 212.869 276.661 211.952C279.029 210.739 280.493 208.874 280.307 206.563L280.293 206.415L280.261 206.167C280.106 204.933 281.201 204.263 282.039 204.869L282.096 204.912L282.165 204.969C285.618 207.888 289.589 210.129 293.865 211.511L294.244 211.631L294.806 211.804C297.503 212.625 299.405 213.032 301.407 213.064C303.141 213.091 304.582 212.527 305.624 211.443C306.319 210.72 306.744 209.917 307.168 208.744L307.239 208.546L307.394 208.09L307.49 207.793C308.731 203.856 308.758 199.645 307.783 195C307.056 191.53 305.897 188.178 303.949 183.479L303.571 182.573L302.791 180.725C302.712 180.54 303.181 179.893 303.471 179.82L303.505 179.814L303.77 179.84C303.956 179.856 304.143 179.867 304.334 179.873L304.626 179.88H304.817C311.145 179.821 315.978 174.225 315.935 168.297C315.885 162.744 312.788 157.969 306.875 152.301L306.362 151.813L305.806 151.294L305.257 150.787C300.003 145.963 294.632 141.752 289.039 138.14L288.576 137.842L288.06 137.514C286.177 136.322 284.345 135.242 281.811 133.822L280.319 132.991L274.273 126.557C274.128 126.482 273.985 126.408 273.844 126.334L273.768 124.102L267.942 124.211C269.42 123.527 270.645 122.697 271.64 121.634C274.946 118.098 274.531 113.186 270.511 110.772L270.369 110.689L268.675 109.745L267.288 110.842C266.08 111.798 264.799 112.432 263.463 112.724L263.251 112.768L262.206 112.967L262.002 113.264L261.885 113.111C261.885 113.095 261.889 113.08 261.894 113.065L261.905 113.043L261.927 113.012L262.058 112.867L262.204 112.71C262.669 112.217 263.191 111.738 264.139 110.915L264.804 110.339L265.322 109.884C266.68 108.681 267.404 107.936 268.173 106.9C270.087 104.325 271.168 101.421 271.213 98.4712C271.307 92.3377 267.077 86.5389 260.809 83.8922C260.589 83.7996 260.427 83.1408 260.691 82.7054C266.76 72.6622 268.444 60.6235 265.395 49.4246C262.551 38.976 255.473 29.7534 245.341 22.6887C227.946 10.56 203.817 4.30553 178.215 4.09013L177.439 4.08545H176.694Z" fill="#ECDCBF"/>
<path fill-rule="evenodd" clip-rule="evenodd" d="M269.714 127.629C268.561 127.368 267.943 128.764 268.921 129.325C275.131 132.888 281.546 136.069 287.546 139.945C293.252 143.63 298.522 147.827 303.436 152.34L303.981 152.843C308.424 156.965 313.345 162.209 313.395 168.29C313.433 173.017 309.392 178.176 303.754 177.555C301.63 177.321 299.678 179.751 300.419 181.503L301.199 183.35C304.336 190.824 307.527 199.291 305.05 207.154L304.959 207.434C304.359 209.235 303.727 210.826 301.41 210.79C299.26 210.756 297.022 210.102 295.009 209.477C290.831 208.182 287.045 206.021 283.832 203.303C280.99 200.9 277.358 203.342 277.741 206.396L277.755 206.494C278.278 209.922 272.223 211.513 269.47 211.023C264.035 210.053 260.16 205.142 257.073 201.398C255.589 199.599 251.986 198.891 250.682 201.398C248.099 206.365 242.775 210.077 236.546 210.233C233.31 210.313 230.206 209.483 227.466 207.943C226.347 207.314 225.347 206.566 224.43 205.718L224.202 205.504C222.845 204.207 221.908 203.517 220.174 202.669C218.466 201.834 216.256 202.869 216.267 204.691C216.281 207.05 217.047 208.619 218.851 210.33C220.344 211.747 222.118 212.991 223.982 213.985C227.729 215.982 232.184 217.105 236.546 216.975C243.422 216.77 249.985 213.679 254.239 208.872C258.583 213.556 263.972 217.86 270.974 217.744C276.216 217.658 281.101 215.197 283.442 211.384C286.746 213.438 290.373 215.045 294.252 216.094L294.598 216.186C300.09 217.627 306.409 218.2 309.944 213.284C313.263 208.668 313.511 202.275 312.75 196.999C312.071 192.286 310.463 187.81 308.616 183.395C313.872 181.98 317.952 177.527 319.353 172.727C321.473 165.47 317.361 158.431 312.276 153.038C306.753 147.18 299.802 142.225 292.799 137.888C285.814 133.563 277.989 129.499 269.714 127.629ZM90.1179 70.8597C90.105 70.6581 89.7387 70.5874 89.7047 70.8089C87.2923 86.5966 85.8954 102.352 84.7391 118.249C84.1527 126.302 83.487 134.347 82.7583 142.39C82.0592 150.103 80.8954 158.021 81.1584 165.766C81.5701 177.892 88.0997 187.753 98.8065 194.848C109.066 201.649 121.793 205.011 134.28 206.431C141.531 207.256 148.884 207.296 156.144 206.521C159.914 206.118 163.68 205.582 167.373 204.778L168.97 204.418C171.878 203.748 175.125 202.839 175.54 199.732C175.741 198.227 174.855 197.117 173.424 196.362C171.558 195.377 169.418 195.957 167.495 196.406C164.255 197.162 160.98 197.811 157.668 198.26C150.555 199.225 143.243 199.282 136.094 198.614C124.067 197.49 111.381 193.972 102.109 186.707C98.0789 183.55 94.575 179.703 92.732 175.133C90.3625 169.258 90.7133 162.848 90.7927 156.696C90.9768 142.39 90.8146 128.084 91.0352 113.777C91.2568 99.4269 91.0637 85.1892 90.1179 70.8597ZM211.057 4.00362C197.004 0.735184 182.742 -0.114107 168.308 0.869755C154.695 1.79691 139.188 4.54371 128.07 12.0946C127.53 12.461 127.853 13.1545 128.521 13.0587C135.954 11.9902 143.199 10.0468 150.6 8.76091C157.719 7.52411 164.966 6.5956 172.214 6.38047C196.729 5.6518 224.007 10.6616 243.774 24.4451C253.043 30.9077 260.117 39.5978 262.932 49.9373C265.819 60.5424 264.257 72.0112 258.46 81.6045C257.625 82.9858 257.969 85.1709 259.711 85.9064C264.996 88.1378 268.76 93.0814 268.678 98.4162C268.639 101.004 267.65 103.485 266.06 105.624C264.379 107.885 261.821 109.468 259.941 111.58C259.201 112.412 259.172 113.557 259.759 114.323C258.659 114.757 257.473 114.991 256.391 115.504C255.474 115.939 255.448 117.298 256.391 117.726C258.777 118.809 261.356 117.66 262.966 115.913C263.253 115.601 263.502 115.276 263.729 114.945C265.657 114.577 267.385 113.704 268.893 112.51C271.768 114.063 272.162 117.518 269.692 120.159C268.431 121.507 266.64 122.339 264.829 122.937L264.611 123.008C262.849 123.572 261.235 123.887 260.09 125.159C259.335 123.739 258.469 122.401 257.502 121.182C253.989 116.75 248.59 112.818 242.182 113.317C237.163 113.707 232.815 116.948 231.786 121.419C231.711 121.75 232.263 122.008 232.428 121.663C234.836 116.599 242.455 116.413 246.994 119.052C252.331 122.156 255.248 128.005 256.418 133.452C257.57 138.818 256.904 145.344 252.451 149.425C250.629 151.095 248.15 152.25 245.563 152.554C244.299 152.704 243.183 152.557 241.974 152.337L241.172 152.186C240.616 152.082 240.064 151.999 239.48 152.045L238.612 152.151L238.118 152.359C237.69 152.532 237.728 152.485 238.234 152.216C236.758 152.107 235.994 153.091 235.914 154.17C235.867 154.197 235.821 154.226 235.783 154.268C230.181 160.451 226.021 167.558 220.076 173.539L218.336 175.291C213.861 179.779 208.754 184.645 202.676 186.974L201.952 187.244C200.184 187.917 198.408 188.839 198.183 190.762C197.981 192.484 199.486 193.779 201.221 194.181C205.173 195.095 209.677 191.928 212.571 189.85C218.794 185.383 224.025 179.689 228.344 173.697L228.771 173.101C232.322 168.1 235.659 162.396 236.696 156.461L236.883 156.734C236.897 156.754 236.908 156.769 236.915 156.777C237.126 157.037 237.359 157.255 237.63 157.465C238.356 158.031 239.243 158.361 240.164 158.585C241.892 159.006 243.787 159.089 245.563 158.925C249.172 158.592 252.545 157.354 255.398 155.337C264.083 149.194 265.109 137.763 261.596 128.489C264.479 129.109 267.762 127.36 270.013 125.861C272.594 124.141 274.722 121.658 275.231 118.737C275.736 115.838 273.687 112 270.648 110.881C273.801 107.467 275.637 102.621 275.827 98.7407C276.156 91.9914 272.18 85.612 266.076 81.9295C271.816 70.8347 272.922 57.963 269.057 46.1828C261.387 22.8064 235.694 9.73397 211.057 4.00362ZM232.926 181.614L232.854 181.408C232.242 179.6 231.453 176.004 228.458 177.373C225.597 178.681 227.424 182.551 228.424 184.435C229.621 186.689 231.689 188.497 234.466 188.981C236.724 189.375 239.205 188.869 240.785 187.295C241.245 186.837 241.505 186.333 241.778 185.778C241.885 185.562 241.933 185.414 241.953 185.318C241.979 185.423 242.052 185.581 242.241 185.766C243.502 187.009 244.692 188.455 245.607 189.924C245.824 190.272 246.506 190.028 246.334 189.648C245.268 187.298 245.447 183.663 243.072 181.963C240.979 180.465 239.012 181.644 237.905 183.389L237.848 183.48C236.23 186.13 233.651 183.613 232.926 181.614ZM255.697 173.121L255.479 172.848C253.24 170.089 249.465 166.77 245.688 169.336C244.487 170.152 244.442 171.514 245.688 172.324L246.159 172.627C247.81 173.682 249.453 174.678 250.665 176.191C251.982 177.836 253.164 179.578 254.935 180.869C258.067 183.15 263.128 183.601 265.845 180.524L266.112 180.219C266.34 179.955 266.6 179.637 266.812 179.32L266.977 179.526C266.993 179.547 267.008 179.566 267.022 179.585L267.06 179.637C268.177 181.247 269.588 182.572 271.345 183.618C274.685 185.605 278.448 185.882 282.227 184.83C282.596 184.726 282.497 184.279 282.139 184.25C277.662 183.872 273.3 181.004 271.479 177.31L271.273 176.896C270.536 175.426 269.711 174.03 267.89 173.453C266.118 172.892 264.258 173.485 263.042 174.694C262.026 175.704 261.765 177.713 259.932 177.27C257.924 176.785 256.795 174.518 255.697 173.121ZM268.52 148.582C267.529 147.902 265.976 148.631 265.703 149.616C264.466 154.075 269.604 159.328 274.542 159.467C275.813 159.502 277.035 159.224 278.161 158.694C279.035 158.282 280.068 157.231 281.027 157.057C282.265 156.832 283.362 158.319 284.234 159.083C285.315 160.03 286.385 160.909 287.597 161.717C288.081 162.04 288.832 161.498 288.628 161.002L288.218 160.017C286.734 156.51 284.179 151.391 279.396 152.846C277.053 153.559 275.29 155.963 272.822 154.059C270.847 152.535 270.662 150.05 268.52 148.582ZM247.421 130.633C242.963 126.018 232.483 128.456 230.496 134.071C230.057 135.311 230.515 136.922 231.589 137.8C233.004 138.956 235.022 139.306 236.74 138.399C238.218 137.619 238.825 136.343 239.911 135.248C241.505 133.643 243.672 132.753 245.905 132.115C246.464 132.379 246.983 132.727 247.449 133.147C247.688 133.361 248.139 133.067 247.927 132.814C247.64 132.47 247.288 132.146 246.888 131.848L247.081 131.797C247.669 131.65 247.796 131.022 247.421 130.633ZM218.447 79.6785C217.448 79.6798 216.284 80.526 216.412 81.5139L216.45 81.7882C216.738 83.669 217.408 84.7339 219.496 85.6078C221.267 86.3481 223.127 86.7573 225.069 86.9193C225.803 86.9805 226.581 86.9841 227.369 86.9314L227.535 87.7948C227.864 89.5215 228.169 91.2493 228.227 93.0093C228.333 96.2718 226.983 98.9606 225.536 101.873C222.756 107.469 222.444 113.054 225.47 118.641C225.912 119.458 227.166 120.124 228.177 120.042C229.488 119.934 230.121 119.592 230.884 118.641C231.524 117.843 231.378 116.714 230.934 115.879L230.884 115.788C229.359 113.124 228.878 110.114 229.657 107.186C230.388 104.433 232.046 101.96 232.786 99.2162C233.992 94.747 232.708 90.3138 230.198 86.4796C232.092 85.9876 233.844 85.1109 235.013 83.7737L235.008 83.7719C235.454 83.3421 235.21 82.4442 234.427 82.4982L233.542 82.5627C231.009 82.7536 228.677 82.9522 226.116 82.3155C224.802 81.9887 223.669 81.4439 222.542 80.7843L222.3 80.6412C220.89 79.796 220.108 79.6767 218.447 79.6785ZM212.385 46.6463C206.035 46.3209 200.613 50.1001 197.978 55.1311C195.115 60.5929 196.316 66.86 198.843 72.2338L199.561 73.7378C200.818 76.3436 202.467 79.4425 205.041 80.8407C207.931 82.4114 210.43 80.59 209.578 77.6947C209.07 75.9704 207.695 74.6405 206.582 73.2173C205.544 71.8882 204.576 70.5128 203.726 69.078C202.062 66.2641 200.82 63.1289 200.834 59.905C200.857 54.0207 205.168 47.2773 212.385 47.3637C212.9 47.3691 212.892 46.6719 212.385 46.6463ZM180.269 37.1517C180.665 36.8807 180.311 36.2781 179.868 36.5324C172.505 40.7559 167.007 48.6893 165.9 56.4833C165.285 60.8076 165.754 65.429 167.797 69.4198C168.968 71.7097 170.978 73.8958 173.789 74.5236C176.373 75.1002 179.036 73.7693 179.838 71.4946C180.149 70.612 179.614 69.6889 178.806 69.2069C176.186 67.6447 174.077 65.6734 172.842 63.0215C171.558 60.2644 171.046 57.3384 171.031 54.3643C170.993 47.3994 174.075 41.3968 180.269 37.1517ZM90.3186 40.1704C90.6595 39.8297 90.2308 39.3274 89.7796 39.5407C84.4562 42.0656 81.0736 46.9021 80.1044 52.1991C79.1547 57.3848 80.4323 64.4447 84.8834 68.1952C87.3951 70.3123 91.8946 67.4966 89.8066 64.7696C88.3344 62.8465 86.7429 61.2627 85.9 58.9902C85.1484 56.9627 84.8824 54.918 84.9233 52.7873C85.0126 48.1389 86.8542 43.636 90.3186 40.1704ZM155.404 33.6766C146.309 33.286 140.797 42.6498 139.534 49.6291C138.755 53.9412 139.341 58.3826 141.981 62.1227L142.137 62.3404C144.315 65.3282 148.276 68.7682 152.543 67.3534C154.349 66.7553 154.83 65.0103 153.616 63.6867C151.76 61.6604 148.89 60.8346 147.145 58.6711C145.186 56.2447 144.544 53.2049 144.658 50.2542L144.673 49.9283C144.977 44.5007 147.847 34.0832 155.404 34.2676C155.828 34.2775 155.823 33.6942 155.404 33.6766ZM126.955 32.1208C118.157 31.1068 112.8 40.4404 111.148 46.8702C110.116 50.8898 109.89 55.3739 111.21 59.3634L111.308 59.6475C112.383 62.625 115.553 67.7265 119.691 66.2049C120.825 65.7882 121.983 64.6526 121.44 63.4284C120.746 61.8635 119.746 61.4576 118.412 60.4561C117.385 59.6852 116.668 58.5784 116.14 57.4883C114.734 54.5831 114.42 51.1891 114.613 48.0584L114.639 47.6878C115.136 41.5728 118.813 32.4595 126.955 32.6271C127.327 32.6348 127.301 32.1604 126.955 32.1208ZM110.849 23.3461C105.952 21.6646 101.941 25.8867 99.1263 28.9C95.6005 32.6757 92.402 36.743 90.5939 41.4431C88.9835 45.631 88.7 50.2875 90.1508 54.5506C90.8689 56.6615 91.9878 58.6188 93.5149 60.3417L93.7099 60.559C95.2993 62.3068 96.8336 63.3807 99.4372 62.755C100.497 62.4998 100.944 61.5551 100.761 60.6523C100.369 58.7233 99.2666 58.2223 97.8388 56.8757C96.5796 55.688 95.6454 54.2252 95.0171 52.6873C93.7215 49.5147 93.6542 46.0775 94.524 42.8091C95.4971 39.1501 97.4126 35.7713 99.6287 32.605L100.107 31.9268C102.455 28.5794 105.802 23.4244 110.755 23.9676C111.18 24.0144 111.185 23.4613 110.849 23.3461Z" fill="black"/>
<path fill-rule="evenodd" clip-rule="evenodd" d="M128.469 161.77C127.702 160.57 125.935 159.458 124.319 159.628C117.078 160.393 117.09 168.293 119.886 172.906C122.365 176.995 127.496 179.396 132.631 179.046C138.026 178.677 142.622 175.823 144.645 171.281C145.983 168.277 146.601 162.73 143.043 160.712C142.976 160.674 142.867 160.683 142.815 160.738C141.109 162.524 141.042 165.206 139.548 167.195C138.158 169.045 136 170.572 133.471 170.808C131.583 170.985 129.672 170.372 128.934 168.846C128.534 168.021 128.58 167.573 128.73 167.005L128.866 166.511C129.339 164.782 129.552 163.466 128.469 161.77ZM126.533 127.121C122.756 129.187 117.002 134.004 121.065 139.126C125.847 143.642 132.732 138.464 136.125 136.122C139.271 134.308 142.806 138.975 139.887 141.094C115.37 157.43 105.42 127.662 124.623 124.692C126.737 124.365 127.522 126.482 126.533 127.121ZM166.413 112.956C164.095 109.826 158.804 110.287 157.527 114.001C156.836 116.012 157.791 117.821 157.741 119.83C157.7 121.527 157.823 123.418 158.402 125.062C159.72 128.81 163.466 131.458 167.897 131.348C172.314 131.238 176.205 128.723 178.055 125.179C179.911 121.622 179.518 117.941 178.163 114.324C178.098 114.151 177.845 114.066 177.692 114.213C176.09 115.745 174.917 117.362 173.704 119.078L172.46 120.836C171.51 122.161 170.128 123.852 168.354 123.746L168.088 123.722C167.594 123.684 167.67 123.772 167.29 123.167C167.114 122.887 167.146 122.367 167.061 122.037L167.031 121.925L167.047 121.865C167.085 121.705 167.122 121.403 167.152 120.88L167.159 120.765C167.287 118.318 168.056 115.173 166.413 112.956ZM107.654 115.039C108.07 111.036 101.817 110.147 99.7375 113.109C98.6532 114.654 98.3375 116.594 98.0978 118.432L97.9856 119.305C97.7396 121.193 97.6421 123.157 98.5528 124.918C99.9871 127.692 103.106 129.158 106.471 128.926C109.684 128.704 112.616 127.027 114.161 124.482C115.539 122.211 116.909 117.777 115.236 115.408C115.135 115.265 114.932 115.246 114.794 115.357C113.213 116.62 112.955 118.925 112.015 120.571C111.045 122.268 109.574 123.923 107.345 124.181C105.213 124.427 104.398 123.379 104.942 121.55C105.644 119.188 107.39 117.581 107.654 115.039ZM164.724 89.1571L163.702 88.8046C160.198 87.6134 155.387 86.2366 152.539 88.8007C150.781 90.3818 150.447 92.7109 151.701 94.6404C153.221 96.9776 155.947 97.0352 158.579 97.3795C161.574 97.7711 164.619 98.5155 167.406 99.5768C170.547 100.773 173.461 102.263 176.316 103.928C179.03 105.51 181.734 108.096 184.982 108.583C185.114 108.603 185.265 108.552 185.299 108.421C186.037 105.563 183.987 102.75 182.158 100.521C179.944 97.821 177.262 95.6053 174.265 93.6187C171.371 91.7009 168.066 90.3152 164.724 89.1571ZM101.076 99.3183L100.764 99.269C98.6392 98.9507 96.7138 99.024 95.1125 100.538C93.8902 101.694 93.4191 103.191 94.0017 104.719C94.5394 106.128 95.7416 107.56 97.4865 107.855C103.377 108.852 109.902 108.687 115.823 107.932C118.531 107.587 121.264 107.164 123.903 106.497L125.117 106.18C127.319 105.614 129.841 105.022 131.441 103.564C132.016 103.04 131.684 102.291 130.996 102.048C128.204 101.064 124.378 101.588 121.401 101.511C117.939 101.421 114.47 101.188 111.024 100.866C107.656 100.551 104.398 99.8665 101.076 99.3183Z" fill="black"/>
<path fill-rule="evenodd" clip-rule="evenodd" d="M82.7967 129.243C87.3876 134.405 105.36 140.135 114.925 133.915C124.491 127.695 128.271 123.36 129.549 115.588C129.686 114.759 131.351 114.208 132.055 114.797C135.996 118.091 138.547 122.287 141.075 126.494C143.926 131.239 146.734 136.013 151.915 139.225C161.091 143.652 177.692 144.282 182.596 142.329C191.991 138.589 199.423 130.589 201.113 119.581C202.259 116.325 203.334 114.355 204.338 113.67C205.766 112.696 213.644 111.828 214.507 111.684C230.06 109.087 249.731 107.431 263.583 116.568C265.458 117.588 271.876 121.42 271.972 120.477C272.038 116.787 267.391 108.435 256.823 104.461C243.754 99.5461 224.327 99.2587 213.072 100.343C212.506 100.398 210.577 99.9712 210.441 99.9181C193.39 93.2746 173.771 95.039 155.527 97.8313C152.913 98.2878 129.509 103.503 120.2 100.343C104.808 94.6885 88.3981 90.5918 71.777 92.2036C71.638 92.2171 69.5397 103.679 71.1742 104.461C72.475 105.083 74.6884 106.678 75.4747 107.55C76.1776 108.33 76.6206 109.3 76.5813 110.644C76.2652 118.416 78.7295 124.67 82.7967 129.243ZM146.08 122.308C144.129 119.767 143.513 114.06 144.33 109.896C144.744 107.788 145.547 106.11 146.555 105.274C147.225 104.719 147.99 104.458 148.824 104.496C149.281 104.518 149.776 104.635 150.3 104.889C157.399 101.434 165.998 100.19 174.149 100.547C180.638 100.546 185.267 101.925 188.407 104.07C192.185 106.652 193.887 110.363 193.985 114.388C194.102 119.164 191.922 124.389 188.346 128.524C184.923 132.481 180.24 135.414 175.161 136.091C169.394 137.122 163.517 136.125 158.408 133.687C153.168 131.186 148.741 127.171 146.08 122.308ZM89.1781 125.002C85.889 121.504 83.702 116.954 83.3691 112.445C83.0662 108.342 84.2871 104.278 87.6627 100.919C90.7229 98.5553 96.1305 98.5161 101.819 99.8325C109.175 101.535 116.784 105.339 119.321 107.795C119.919 108.077 120.473 108.568 120.956 109.621L120.96 109.997C121.728 113.186 121.272 116.423 119.943 119.409C118.499 122.652 116.023 125.597 113.003 127.843C108.991 130.817 104.803 131.728 100.884 131.247C96.4437 130.703 92.3151 128.338 89.1781 125.002Z" fill="white"/>
<path fill-rule="evenodd" clip-rule="evenodd" d="M120.729 99.0799C105.143 93.3531 88.4828 89.2255 71.616 90.861C70.2212 90.3835 68.4898 90.7859 67.8717 92.561C61.8638 109.031 75.2613 104.451 75.0813 110.608C73.677 145.13 125.236 151.026 131.033 115.786L131.14 115.842C139.481 122.847 141.238 134.245 151.063 140.337C170.884 153.382 198.982 143.046 202.591 119.822L202.669 119.508C203.881 114.769 205.329 113.593 211.304 113.617L212.247 113.448C227.77 110.696 248.442 108.222 262.739 117.688C265.849 119.315 265.995 123.499 268.622 125.317C271.501 125.82 273.274 122.704 273.47 120.548C273.926 99.051 231.181 97.5046 212.038 99.3494C211.672 99.0087 210.891 99.051 210.628 99.4755C193.315 92.7298 173.811 93.6632 155.273 96.5C143.79 98.5006 132.449 103.058 120.729 99.0799ZM73.1679 94.8298C82.5205 94.409 91.1714 94.8694 100.351 96.8925C105.19 97.943 108.902 99.2711 113.533 100.868C142.419 112.385 145.751 91.9138 210.499 99.9386C209.662 103.167 209.508 106.364 209.463 109.398C196.242 108.918 199.355 120.279 194.402 128.259L194.249 128.499C187.031 140.142 169.997 145.573 156.256 137.85C144.792 131.837 143.674 116.586 132.261 110.534C122.367 110.184 126.319 122.201 120.935 127.14C113.356 136.241 97.2468 137.513 87.7436 128.953C83.2851 124.834 80.9156 119.604 80.7846 113.985C80.536 110.395 81.2202 106.747 78.2045 104.222C76.0905 102.29 72.3347 102.935 71.9036 100.013C71.6295 98.2859 72.4277 96.4123 73.1679 94.8298ZM174.811 99.535C165.52 99.1232 155.69 100.575 147.713 104.676C141.808 100.447 140.361 117.254 144.281 122.115C149.927 132.512 163.074 139.349 175.732 137.078C195.48 134.503 209.239 99.504 174.811 99.535ZM148.28 105.803L148.785 105.736C157.344 104.561 180.646 99.1167 189.634 107.71C198.356 121.963 176.228 145.904 153.2 126.835C146.791 120.963 144.307 113.842 148.28 105.803ZM121.159 107.624C116.727 102.902 94.1396 93.3359 86.2664 99.4745C71.8966 113.967 94.6853 143.282 113.773 129C120.13 124.226 124.312 116.62 122.482 109.254L122.479 108.945C122.475 108.833 122.452 108.859 122.319 108.719C122.083 108.163 121.659 107.807 121.159 107.624ZM86.4669 116.409C81.6208 92.754 101.875 101.746 118.509 108.06C117.616 108.794 117.62 109.796 117.876 110.62C119.631 128.171 95.927 138.117 86.4669 116.409ZM212.374 100.499C219.312 102.613 265.203 98.8319 269.442 118.191C264.967 111.667 255.699 109.077 247.367 107.672C236.034 105.761 224.763 106.867 213.589 108.879L213.358 106.798C213.11 104.59 212.849 102.525 212.374 100.499Z" fill="black"/>
</svg>
